<?xml version="1.0" standalone="no"?>
<!DOCTYPE svg PUBLIC "-//W3C//DTD SVG 1.1//EN" "http://www.w3.org/Graphics/SVG/1.1/DTD/svg11.dtd" >
<svg>
<metadata>
Created by FontForge 20090622 at Mon Aug  1 07:09:33 2016
 By deploy user
(URW)++,Copyright 2006 by (URW)++ Design &#38; Development
</metadata>
<defs>
<font id="CorporateS-LightItalic" horiz-adv-x="500" >
  <font-face 
    font-family="Corporate S Light"
    font-weight="300"
    font-style="italic"
    font-stretch="normal"
    units-per-em="1000"
    panose-1="2 2 4 0 0 0 0 0 0 0"
    ascent="800"
    descent="-200"
    x-height="473"
    cap-height="667"
    bbox="-217 -250 1010 1038"
    underline-thickness="49"
    underline-position="-49"
    slope="-14"
    unicode-range="U+0020-U+FB04"
  />
<missing-glyph horiz-adv-x="232" 
 />
    <glyph glyph-name="ff" unicode="ff" horiz-adv-x="543" 
d="M476 473h119l-11 -43h-115l-107 -430h-53l107 430h-218l-108 -430h-53l107 430h-66l11 43h67l11 44q21 85 38 113q31 50 101 50q30 0 75 -14l-13 -53q-34 20 -61 20q-37 0 -56 -25t-37 -96l-10 -39h223l11 44q20 82 39 113q30 50 100 50q32 0 75 -14l-13 -53
q-33 20 -61 20q-36 0 -55.5 -25t-36.5 -96z" />
    <glyph glyph-name="fi" unicode="fi" horiz-adv-x="473" 
d="M204 473h119l-11 -43h-114l-108 -430h-53l107 430h-66l11 43h67l11 44q21 85 38 113q31 50 101 50q30 0 75 -14l-13 -53q-34 20 -62 20q-36 0 -55 -25t-37 -96zM405 473h56l-118 -473h-56zM478 674q16 0 26 -9.5t10 -25.5q0 -20 -15.5 -36.5t-34.5 -16.5
q-15 0 -25.5 10.5t-10.5 24.5q0 22 15 37.5t35 15.5z" />
    <glyph glyph-name="fl" unicode="fl" horiz-adv-x="473" 
d="M204 473h119l-11 -43h-114l-108 -430h-53l107 430h-66l11 43h67l11 44q21 85 38 113q31 50 101 50q30 0 75 -14l-13 -53q-34 20 -62 20q-36 0 -55 -25t-37 -96zM454 669h56l-167 -669h-56z" />
    <glyph glyph-name="ffi" unicode="ffi" horiz-adv-x="744" 
d="M476 473h119l-11 -43h-115l-107 -430h-53l107 430h-218l-108 -430h-53l107 430h-66l11 43h67l11 44q21 85 38 113q31 50 101 50q30 0 75 -14l-13 -53q-34 20 -61 20q-37 0 -56 -25t-37 -96l-10 -39h223l11 44q20 82 39 113q30 50 100 50q32 0 75 -14l-13 -53
q-33 20 -61 20q-37 0 -56 -25t-36 -96zM677 472h55l-118 -472h-55zM750 674q16 0 25.5 -9.5t9.5 -25.5q0 -21 -15 -37t-34 -16q-15 0 -25.5 10t-10.5 25q0 22 14.5 37.5t35.5 15.5z" />
    <glyph glyph-name="ffl" unicode="ffl" horiz-adv-x="744" 
d="M476 473h119l-11 -43h-115l-107 -430h-53l107 430h-218l-108 -430h-53l107 430h-66l11 43h67l11 44q21 86 38 113q31 50 101 50q30 0 75 -14l-13 -53q-34 20 -61 20q-37 0 -56 -25t-37 -96l-10 -39h223l11 44q21 83 39 113q30 50 100 50q32 0 75 -14l-13 -53
q-33 20 -61 20q-37 0 -56 -25t-36 -96zM726 669h55l-167 -669h-55z" />
    <glyph glyph-name=".notdef" horiz-adv-x="232" 
 />
    <glyph glyph-name=".null" horiz-adv-x="0" 
 />
    <glyph glyph-name="nonmarkingreturn" horiz-adv-x="333" 
 />
    <glyph glyph-name="space" unicode=" " horiz-adv-x="232" 
 />
    <glyph glyph-name="exclam" unicode="!" horiz-adv-x="252" 
d="M204 656h56l-130 -480h-39zM88 90q18 0 29.5 -12t11.5 -30q0 -24 -16.5 -41.5t-39.5 -17.5q-18 0 -30.5 12t-12.5 29q0 24 17.5 42t40.5 18z" />
    <glyph glyph-name="quotedbl" unicode="&#x22;" horiz-adv-x="302" 
d="M152 400h-44l59 267h59zM280 400h-44l59 267h59z" />
    <glyph glyph-name="numbersign" unicode="#" horiz-adv-x="600" 
d="M560 262l-7 -46h-114l-34 -216h-52l34 216h-157l-35 -216h-51l34 216h-114l7 46h114l24 154h-113l7 46h114l32 205h52l-33 -205h158l33 205h51l-32 -205h114l-8 -46h-113l-25 -154h114zM419 416h-158l-24 -154h158z" />
    <glyph glyph-name="dollar" unicode="$" horiz-adv-x="513" 
d="M344 678l13 59h37l-14 -62q135 -21 135 -147q0 -7 -2 -29h-56q1 9 1 24q0 87 -89 103l-58 -248q72 -50 89 -67q49 -50 49 -120q0 -88 -62 -145.5t-156 -57.5h-10l-15 -64h-36l15 68q-73 12 -111.5 54.5t-38.5 110.5q0 18 4 43h57q-3 -16 -3 -37q0 -53 24.5 -82t79.5 -40
l68 296q-57 40 -78 62q-45 45 -45 109q0 77 55 123.5t147 46.5zM280 400l52 228q-61 -2 -96 -33t-35 -81q0 -34 16.5 -57.5t62.5 -56.5zM297 314l-64 -276q70 2 112 41.5t42 102.5q0 39 -19 67t-71 65z" />
    <glyph glyph-name="percent" unicode="%" horiz-adv-x="590" 
d="M243 673q47 0 73 -31.5t26 -86.5q0 -82 -51 -149q-41 -53 -105 -53q-47 0 -73.5 30.5t-26.5 83.5q0 84 46.5 145t110.5 61zM239 629q-40 0 -71 -48t-31 -111q0 -73 53 -73q41 0 71 47.5t30 112.5q0 72 -52 72zM558 667h52l-527 -667h-51zM459 315q46 0 72.5 -31.5
t26.5 -86.5q0 -84 -51 -149q-43 -54 -105 -54q-46 0 -73 31t-27 84q0 84 46.5 145t110.5 61zM455 271q-41 0 -71.5 -47.5t-30.5 -110.5q0 -75 53 -75q40 0 70.5 48t30.5 113q0 72 -52 72z" />
    <glyph glyph-name="ampersand" unicode="&#x26;" horiz-adv-x="558" 
d="M424 298h51q-22 -115 -89 -192l46 -106h-63l-27 63q-41 -37 -78 -52.5t-84 -15.5q-73 0 -115 38t-42 105q0 97 88 170q31 25 97 63q-10 21 -21 50q-23 55 -23 100q0 59 44 99.5t108 40.5q53 0 84.5 -27t31.5 -73q0 -70 -61 -130q-23 -22 -96 -73l89 -205q45 60 60 145z
M258 402q66 44 94 78.5t28 74.5q0 28 -17.5 44t-48.5 16q-40 0 -65.5 -26.5t-25.5 -68.5q0 -51 35 -118zM324 103l-99 227q-79 -44 -113.5 -87.5t-34.5 -101.5q0 -46 28.5 -73t78.5 -27q77 0 140 62z" />
    <glyph glyph-name="quotesingle" unicode="'" horiz-adv-x="250" 
d="M190 400h-44l59 267h59z" />
    <glyph glyph-name="parenleft" unicode="(" horiz-adv-x="273" 
d="M328 672h43q-114 -97 -181 -233q-90 -184 -90 -383q0 -68 6.5 -117t28.5 -139h-31q-58 135 -58 278q0 192 95 373q76 145 187 221z" />
    <glyph glyph-name="parenright" unicode=")" horiz-adv-x="273" 
d="M-49 -200h-43q117 104 181 234q90 184 90 384q0 66 -7 117.5t-29 136.5h32q58 -129 58 -278q0 -190 -95 -372q-72 -137 -187 -222z" />
    <glyph glyph-name="asterisk" unicode="*" 
d="M302 531l30 120l44 -11l-30 -120l124 9l3 -45l-124 -9l46 -115l-41 -17l-47 115l-95 -80l-29 35l95 80l-105 66l24 38z" />
    <glyph glyph-name="plus" unicode="+" horiz-adv-x="513" 
d="M303 355h186v-38h-186v-192h-40v192h-185v38h185v192h40v-192z" />
    <glyph glyph-name="comma" unicode="," horiz-adv-x="251" 
d="M21 -119h-58q86 62 109 115h-11q-16 0 -25.5 9.5t-9.5 24.5q0 23 18.5 41.5t42.5 18.5q20 0 32.5 -12.5t12.5 -34.5q0 -68 -111 -162z" />
    <glyph glyph-name="hyphen" unicode="-" horiz-adv-x="270" 
d="M12 274h270l-11 -44h-270z" />
    <glyph glyph-name="period" unicode="." horiz-adv-x="251" 
d="M87 90q18 0 29.5 -12t11.5 -30q0 -24 -16.5 -41.5t-39.5 -17.5q-18 0 -30.5 12t-12.5 29q0 24 17.5 42t40.5 18z" />
    <glyph glyph-name="slash" unicode="/" horiz-adv-x="585" 
d="M-23 -133l584 800h66l-584 -800h-66z" />
    <glyph glyph-name="zero" unicode="0" horiz-adv-x="513" 
d="M351 659q152 0 152 -194q0 -93 -26.5 -188.5t-72.5 -165.5q-41 -62 -86 -90.5t-104 -28.5q-76 0 -116.5 49.5t-40.5 144.5q0 92 30 192.5t78 169.5q76 111 186 111zM347 611q-50 0 -89 -33.5t-75 -108.5q-31 -61 -50 -141.5t-19 -148.5q0 -139 103 -139q51 0 89 33.5
t75 109.5q65 138 65 290q0 138 -99 138z" />
    <glyph glyph-name="one" unicode="1" horiz-adv-x="513" 
d="M206 521l10 40q60 2 95 24t58 71h37l-163 -656h-52l131 528z" />
    <glyph glyph-name="two" unicode="2" horiz-adv-x="513" 
d="M200 460h-55q19 97 73 148.5t137 51.5q67 0 109.5 -36t42.5 -92q0 -37 -17 -70t-61 -85q-36 -41 -197 -207l-114 -120h285l-13 -50h-358l10 42l275 287q83 86 108.5 124t25.5 75q0 35 -28 58t-72 23q-119 0 -151 -149z" />
    <glyph glyph-name="three" unicode="3" horiz-adv-x="513" 
d="M199 485h-56q42 174 196 174q72 0 116.5 -38t44.5 -100q0 -63 -36.5 -109t-102.5 -66q85 -31 85 -128q0 -94 -68 -160t-164 -66q-77 0 -123.5 42.5t-46.5 113.5q0 10 2 33h55q-1 -8 -1 -19q0 -120 117 -120q72 0 122 51.5t50 125.5q0 107 -122 107q-4 0 -22 -1l13 50
l31 -1q64 0 109 41.5t45 99.5q0 43 -29 68t-78 25q-54 0 -86.5 -29t-50.5 -94z" />
    <glyph glyph-name="four" unicode="4" horiz-adv-x="513" 
d="M364 216h99l-13 -50h-97l-43 -172h-55l43 171h-268l10 42l365 449h68zM312 216l102 386l-309 -386h207z" />
    <glyph glyph-name="five" unicode="5" horiz-adv-x="513" 
d="M240 650h284l-21 -50h-227l-76 -203q52 42 115 42q67 0 105.5 -41t38.5 -112q0 -120 -76 -210q-70 -84 -175 -84q-67 0 -107 36t-40 98l1 22h54q0 -51 15 -71q27 -35 83 -35q88 0 144 91q44 72 44 150q0 50 -27 78t-74 28q-73 0 -131 -76l-47 5z" />
    <glyph glyph-name="six" unicode="6" horiz-adv-x="513" 
d="M439 667h67q-158 -121 -257 -256q37 23 76 23q59 0 96.5 -44.5t37.5 -115.5q0 -54 -20.5 -109t-56.5 -97q-63 -76 -156 -76q-71 0 -111 42t-40 118q0 82 42 164.5t136 182.5q100 105 186 168zM306 386q-76 0 -128 -82q-46 -70 -46 -153q0 -52 25.5 -81.5t69.5 -29.5
q75 0 129 81q47 72 47 151q0 52 -26.5 83t-70.5 31z" />
    <glyph glyph-name="seven" unicode="7" horiz-adv-x="513" 
d="M186 650h381l-10 -45l-441 -605h-64l444 601l-321 -3z" />
    <glyph glyph-name="eight" unicode="8" horiz-adv-x="513" 
d="M205 345q-51 47 -51 112q0 83 58 142.5t138 59.5q64 0 102 -37.5t38 -102.5q0 -63 -33 -111.5t-91 -70.5q69 -37 69 -125q0 -44 -19 -88t-52 -76q-57 -56 -143 -56q-74 0 -118.5 40.5t-44.5 108.5q0 71 38.5 124t108.5 80zM348 611q-56 0 -96.5 -46.5t-40.5 -111.5
q0 -41 24 -66t63 -25q55 0 95 46.5t40 110.5q0 43 -23 67.5t-62 24.5zM274 316q-65 0 -112 -51t-47 -122q0 -48 27.5 -75.5t76.5 -27.5q75 0 119 60q40 54 40 117q0 44 -29 71.5t-75 27.5z" />
    <glyph glyph-name="nine" unicode="9" horiz-adv-x="513" 
d="M124 -16h-67q160 122 256 256q-37 -23 -76 -23q-59 0 -96 44.5t-37 115.5q0 115 76 206q64 76 157 76q71 0 111 -42.5t40 -117.5q0 -81 -42.5 -164t-136.5 -183q-97 -103 -185 -168zM335 611q-74 0 -128 -81q-47 -71 -47 -151q0 -52 26.5 -83t70.5 -31q76 0 128 82
q46 71 46 153q0 52 -25.5 81.5t-70.5 29.5z" />
    <glyph glyph-name="colon" unicode=":" horiz-adv-x="251" 
d="M185 482q17 0 29 -12t12 -31q0 -23 -17 -40.5t-39 -17.5q-18 0 -30.5 11.5t-12.5 28.5q0 25 17.5 43t40.5 18zM87 90q18 0 29.5 -12t11.5 -30q0 -24 -16.5 -41.5t-39.5 -17.5q-18 0 -30.5 12t-12.5 29q0 24 17.5 42t40.5 18z" />
    <glyph glyph-name="semicolon" unicode=";" horiz-adv-x="251" 
d="M21 -119h-58q86 62 109 115h-11q-16 0 -25.5 9.5t-9.5 24.5q0 23 18.5 41.5t42.5 18.5q20 0 32.5 -12.5t12.5 -34.5q0 -68 -111 -162zM185 482q18 0 29.5 -12t11.5 -31q0 -23 -17 -40.5t-39 -17.5q-18 0 -30.5 11.5t-12.5 28.5q0 25 17.5 43t40.5 18z" />
    <glyph glyph-name="less" unicode="&#x3c;" 
d="M476 555v-52l-377 -168l377 -167v-52l-433 196v47z" />
    <glyph glyph-name="equal" unicode="=" horiz-adv-x="513" 
d="M78 417h411v-40h-411v40zM78 295h411v-40h-411v40z" />
    <glyph glyph-name="greater" unicode="&#x3e;" 
d="M44 116v52l377 167l-377 168v52l433 -197v-46z" />
    <glyph glyph-name="question" unicode="?" horiz-adv-x="407" 
d="M195 179h-53q17 97 37.5 134.5t85.5 92.5q63 54 81 80t18 63q0 25 -22 41t-56 16q-46 0 -74 -24t-45 -77h-55q16 75 62.5 115t117.5 40q62 0 97.5 -31t35.5 -84q0 -41 -21.5 -73.5t-85.5 -84.5q-49 -40 -69.5 -63t-31.5 -53t-22 -92zM158 90q18 0 29.5 -12t11.5 -30
q0 -24 -16.5 -41.5t-39.5 -17.5q-18 0 -30.5 12t-12.5 29q0 24 17.5 42t40.5 18z" />
    <glyph glyph-name="at" unicode="@" horiz-adv-x="733" 
d="M534 494h41l-42 -217q-6 -28 -6 -48q0 -23 11.5 -36.5t31.5 -13.5q47 0 82.5 60.5t35.5 140.5q0 124 -80 193q-78 68 -194 68q-130 0 -217 -88.5t-87 -219.5q0 -129 82 -217q82 -90 234 -90q109 0 217 52l13 -37q-107 -53 -231 -53q-166 0 -262 98q-45 46 -71 112
t-26 136q0 148 99.5 246.5t249.5 98.5q138 0 226.5 -83.5t88.5 -213.5q0 -96 -49 -167.5t-114 -71.5q-32 0 -51 18.5t-21 51.5q-47 -73 -125 -73q-62 0 -101 45.5t-39 116.5q0 85 51 145t124 60q85 0 115 -85zM406 465q-53 0 -90.5 -47.5t-37.5 -115.5q0 -57 26.5 -89.5
t72.5 -32.5q54 0 89 49.5t35 125.5q0 52 -25 81t-70 29z" />
    <glyph glyph-name="A" unicode="A" horiz-adv-x="546" 
d="M363 672h47l52 -672h-58l-13 189h-252l-109 -189h-59zM389 239l-11 180q0 6 -1.5 28t-3.5 64t-5 87q-61 -118 -96 -179l-103 -180h220z" />
    <glyph glyph-name="B" unicode="B" horiz-adv-x="527" 
d="M195 667h100q109 0 151 -17q75 -28 75 -115q0 -66 -40 -114.5t-111 -68.5q105 -32 105 -127q0 -65 -37.5 -121t-96.5 -80q-61 -24 -199 -24h-113zM178 378h64q95 0 140 23q35 20 58 56.5t23 74.5q0 60 -57 77q-29 8 -107 8h-61zM96 50h68q64 0 93.5 4t57.5 17
q44 19 71.5 61.5t27.5 91.5q0 73 -66 93q-35 11 -102 11h-80z" />
    <glyph glyph-name="C" unicode="C" horiz-adv-x="605" 
d="M585 493h-57q-1 4 -1 9q0 2 1 5q2 19 -7.5 46t-23.5 43q-34 34 -96 34q-119 0 -199 -138q-33 -56 -53 -129t-20 -136q0 -90 40 -140t111 -50q72 0 127.5 48.5t81.5 134.5h60q-31 -113 -100.5 -173t-169.5 -60q-101 0 -156 62.5t-55 178.5q0 93 32 186t86 158
q90 108 218 108q85 0 133 -45t48 -124v-7v-11z" />
    <glyph glyph-name="D" unicode="D" horiz-adv-x="615" 
d="M195 667h119q135 0 194 -37q92 -57 92 -196q0 -98 -38 -192t-103 -156q-52 -50 -118 -68t-197 -18h-115zM96 50h81q97 0 154.5 21.5t104.5 74.5q46 53 74.5 134t28.5 157q0 56 -24 99.5t-65 61.5q-43 19 -145 19h-67z" />
    <glyph glyph-name="E" unicode="E" horiz-adv-x="494" 
d="M176 370h265l-13 -50h-264l-68 -270h302l-13 -50h-356l166 667h339l-13 -50h-283z" />
    <glyph glyph-name="F" unicode="F" horiz-adv-x="468" 
d="M176 370h265l-13 -50h-264l-80 -320h-55l166 667h339l-13 -50h-283z" />
    <glyph glyph-name="G" unicode="G" horiz-adv-x="609" 
d="M381 327h185l-70 -279q-91 -61 -206 -61q-222 0 -222 235q0 98 32 192t87 159q89 107 219 107q84 0 131.5 -45t47.5 -124v-18h-58v9v5q4 54 -31 89t-93 35q-118 0 -197 -133q-35 -58 -56 -132.5t-21 -142.5q0 -186 167 -186q76 0 150 41l50 199h-128z" />
    <glyph glyph-name="H" unicode="H" horiz-adv-x="602" 
d="M177 373h320l73 294h55l-166 -667h-55l81 326h-320l-81 -326h-55l166 667h55z" />
    <glyph glyph-name="I" unicode="I" horiz-adv-x="230" 
d="M87 0h-58l166 667h58z" />
    <glyph glyph-name="J" unicode="J" horiz-adv-x="273" 
d="M241 667h57l-132 -532q-19 -74 -30 -101.5t-30 -48.5q-54 -57 -152 -57q-12 0 -21 1l12 50h11h5q68 0 104 44q22 30 43 113z" />
    <glyph glyph-name="K" unicode="K" horiz-adv-x="561" 
d="M522 667h71l-352 -324l209 -343h-72l-206 348zM195 667h55l-166 -667h-55z" />
    <glyph glyph-name="L" unicode="L" horiz-adv-x="454" 
d="M195 667h58l-154 -617h275l-12 -50h-333z" />
    <glyph glyph-name="M" unicode="M" horiz-adv-x="740" 
d="M195 667h91l41 -608l342 608h95l-167 -667h-55l161 631l-357 -631h-62l-46 631l-154 -631h-55z" />
    <glyph glyph-name="N" unicode="N" horiz-adv-x="610" 
d="M195 667h63l174 -601l146 601h55l-166 -667h-64l-173 598l-146 -598h-55z" />
    <glyph glyph-name="O" unicode="O" horiz-adv-x="626" 
d="M407 680q96 0 150 -64t54 -178q0 -92 -32 -184t-87 -158q-93 -109 -218 -109q-98 0 -152 63t-54 177q0 94 33 189t89 160q89 104 217 104zM404 630q-111 0 -189 -118q-38 -59 -62 -139.5t-24 -152.5q0 -84 40 -133.5t108 -49.5q120 0 202 144q31 56 51 128.5t20 131.5
q0 85 -40 137t-106 52z" />
    <glyph glyph-name="P" unicode="P" horiz-adv-x="503" 
d="M195 667h112q73 0 110 -7t62 -25q56 -42 56 -126q0 -67 -33.5 -123t-89.5 -82q-31 -14 -68 -19t-114 -5h-73l-70 -280h-58zM166 330h68q113 0 156 22q38 19 62.5 62.5t24.5 92.5q0 59 -34.5 84.5t-116.5 25.5h-88z" />
    <glyph glyph-name="Q" unicode="Q" horiz-adv-x="626" 
d="M493 98l64 -98h-75l-29 56q-78 -69 -179 -69q-98 0 -152 63t-54 178q0 95 33 189t89 159q89 104 214 104q99 0 153 -64t54 -180q0 -91 -31 -179.5t-87 -158.5zM404 630q-111 0 -189 -118q-38 -59 -62 -139.5t-24 -152.5q0 -84 40 -133.5t108 -49.5q119 0 202 144
q70 124 70 260q0 87 -39 138t-106 51z" />
    <glyph glyph-name="R" unicode="R" horiz-adv-x="541" 
d="M195 667h112q106 0 148 -18q82 -35 82 -134q0 -53 -23.5 -99t-65.5 -74q-38 -28 -106 -40l108 -302h-65l-101 296h-126l-74 -296h-55zM170 346h59q68 0 94.5 2.5t53.5 12.5q47 18 74.5 58t27.5 92q0 81 -73 99q-26 7 -108 7h-60z" />
    <glyph glyph-name="S" unicode="S" horiz-adv-x="535" 
d="M521 503h-56q1 8 1 20q0 51 -31 79t-88 28q-61 0 -99.5 -32t-38.5 -83q0 -47 35 -79q22 -20 87 -63q70 -46 92 -72q40 -46 40 -109q0 -89 -63 -147t-159 -58q-89 0 -140.5 45.5t-51.5 123.5q0 13 3 41h57q-2 -15 -2 -34q0 -59 31 -90q39 -36 106 -36q68 0 112.5 41
t44.5 104q0 44 -23 73.5t-91 73.5q-83 56 -110 91t-27 89q0 76 55 123.5t144 47.5q82 0 128 -40t46 -110q0 -7 -2 -27z" />
    <glyph glyph-name="T" unicode="T" horiz-adv-x="446" 
d="M124 667h417l-12 -50h-181l-154 -617h-55l154 617h-181z" />
    <glyph glyph-name="U" unicode="U" horiz-adv-x="552" 
d="M166 667h55l-103 -416q-16 -65 -16 -102q0 -112 134 -112q112 0 164 80q15 23 23.5 49t28.5 105l98 396h55l-98 -397q-22 -92 -31.5 -119.5t-26.5 -56.5q-31 -51 -86.5 -79t-125.5 -28q-90 0 -140 40t-50 113q0 52 21 130z" />
    <glyph glyph-name="V" unicode="V" horiz-adv-x="498" 
d="M129 667h57l40 -600l303 600h59l-349 -673h-56z" />
    <glyph glyph-name="W" unicode="W" horiz-adv-x="720" 
d="M133 667h53l-23 -604l288 604h47l-9 -604l263 604h54l-304 -673h-59l7 571l-274 -571h-60z" />
    <glyph glyph-name="X" unicode="X" horiz-adv-x="522" 
d="M149 667h64l87 -277l229 277h66l-275 -325l122 -342h-63l-96 300l-249 -300h-63l292 348z" />
    <glyph glyph-name="Y" unicode="Y" horiz-adv-x="490" 
d="M130 667h63l76 -336l243 336h67l-294 -381l-69 -286h-55l72 286z" />
    <glyph glyph-name="Z" unicode="Z" horiz-adv-x="505" 
d="M158 667h392l-8 -32l-486 -585h374l-12 -50h-444l11 44l478 573h-317z" />
    <glyph glyph-name="bracketleft" unicode="[" horiz-adv-x="273" 
d="M202 667h133l-12 -44h-80l-193 -773h81l-11 -44h-133z" />
    <glyph glyph-name="backslash" unicode="\" horiz-adv-x="575" 
d="M418 -133h-60l-182 800h60z" />
    <glyph glyph-name="bracketright" unicode="]" horiz-adv-x="273" 
d="M76 -194h-133l11 44h81l192 773h-80l11 44h133z" />
    <glyph glyph-name="asciicircum" unicode="^" 
d="M101 376h-58l183 292h68l183 -292h-58l-160 251z" />
    <glyph glyph-name="underscore" unicode="_" 
d="M10 -72h500v-49h-500v49z" />
    <glyph glyph-name="grave" unicode="`" 
d="M230 674h71l61 -121h-46z" />
    <glyph glyph-name="a" unicode="a" horiz-adv-x="457" 
d="M155 355h-54q44 127 180 127q65 0 100.5 -26t35.5 -73q0 -26 -11 -66l-46 -186q-21 -84 -21 -131h-53q0 36 6 67q-57 -77 -145 -77q-56 0 -89 31t-33 84q0 104 121 150q51 19 193 48l15 3l4 17q7 28 7 54q0 28 -22.5 43t-63.5 15q-95 0 -124 -80zM330 213l14 54
q-147 -26 -206 -61t-59 -97q0 -34 21 -53t58 -19q72 0 123 62q30 37 49 114z" />
    <glyph glyph-name="b" unicode="b" horiz-adv-x="483" 
d="M183 669h50l-65 -264q63 77 142 77q65 0 102 -42.5t37 -118.5q0 -65 -24 -134t-63 -117q-65 -80 -153 -80q-92 0 -124 85q-9 -43 -26 -75h-51q18 36 43 137zM305 435q-78 0 -134 -86q-25 -38 -41.5 -94t-16.5 -100q0 -55 26.5 -86.5t70.5 -31.5q80 0 135 99
q21 38 35.5 90.5t14.5 91.5q0 56 -23.5 86.5t-66.5 30.5z" />
    <glyph glyph-name="c" unicode="c" horiz-adv-x="455" 
d="M416 320h-51q2 15 2 29q0 40 -22.5 63t-62.5 23q-78 0 -136 -94q-49 -85 -49 -175q0 -60 28.5 -94.5t77.5 -34.5q99 0 134 123h55q-43 -170 -190 -170q-75 0 -117 47t-42 130q0 127 72.5 221t170.5 94q62 0 97.5 -35t35.5 -96q0 -10 -3 -31z" />
    <glyph glyph-name="d" unicode="d" horiz-adv-x="479" 
d="M517 669l-133 -532q-25 -101 -25 -126q0 -6 1 -11h-52q-1 5 -1 12q0 25 10 55q-31 -43 -60.5 -60t-73.5 -17q-66 0 -104 44.5t-38 122.5q0 67 24 134.5t65 115.5q64 75 149 75q89 0 120 -87l68 274h50zM276 435q-69 0 -123 -84q-58 -90 -58 -196q0 -53 25.5 -85.5
t68.5 -32.5q79 0 134 106q47 89 47 172q0 56 -25 88t-69 32z" />
    <glyph glyph-name="e" unicode="e" horiz-adv-x="476" 
d="M424 237h-318q-10 -37 -10 -70q0 -61 29.5 -95.5t80.5 -34.5q48 0 81.5 27.5t58.5 86.5h56q-52 -161 -199 -161q-75 0 -118 46t-43 128q0 68 23.5 133t65.5 111q67 74 156 74q70 0 109 -42.5t39 -118.5q0 -45 -11 -84zM118 280h260q5 24 5 42q0 53 -26 82.5t-74 29.5
q-110 0 -165 -154z" />
    <glyph glyph-name="f" unicode="f" horiz-adv-x="272" 
d="M204 473h119l-11 -43h-114l-108 -430h-53l107 430h-66l11 43h67l11 44q21 85 38 113q31 50 101 50q30 0 75 -14l-13 -53q-34 20 -62 20q-36 0 -55 -25t-37 -96z" />
    <glyph glyph-name="g" unicode="g" horiz-adv-x="449" 
d="M484 466l-9 -38h-100q25 -35 25 -80q0 -44 -20 -84.5t-53 -63.5q-22 -15 -45.5 -21.5t-67.5 -7.5q-107 -37 -107 -70q0 -21 58 -28q96 -11 132 -33q52 -31 52 -91q0 -68 -56 -111t-146 -43q-86 0 -137.5 36.5t-51.5 97.5q0 46 29 74.5t94 45.5q-32 19 -32 45
q0 27 25.5 46.5t92.5 42.5q-75 35 -75 114q0 78 51 131.5t125 53.5q37 0 74 -16h142zM266 439q-51 0 -87 -41t-36 -98q0 -40 23.5 -63t64.5 -23q50 0 84.5 39.5t34.5 97.5q0 41 -22.5 64.5t-61.5 23.5zM159 23q-71 0 -110.5 -24.5t-39.5 -68.5q0 -41 39 -67t102 -26
q64 0 104.5 29.5t40.5 76.5q0 80 -136 80z" />
    <glyph glyph-name="h" unicode="h" horiz-adv-x="471" 
d="M183 669h50l-63 -252q58 65 136 65q57 0 90.5 -29t33.5 -78q0 -27 -16 -90l-71 -285h-50l72 288q12 49 12 78q0 31 -22 50t-58 19q-71 0 -117 -60q-28 -35 -48 -109l-66 -266h-50z" />
    <glyph glyph-name="i" unicode="i" horiz-adv-x="201" 
d="M134 473h55l-118 -473h-55zM207 674q16 0 25.5 -9.5t9.5 -25.5q0 -21 -15 -37t-34 -16q-15 0 -25.5 10t-10.5 25q0 22 14.5 37.5t35.5 15.5z" />
    <glyph glyph-name="j" unicode="j" horiz-adv-x="244" 
d="M178 473h55l-110 -440q-17 -69 -29 -100t-29 -54q-23 -31 -61.5 -49.5t-81.5 -18.5q-12 0 -21 1l12 47h9q71 0 106 58q18 32 40 115zM250 674q16 0 26 -9.5t10 -25.5q0 -20 -15.5 -36.5t-34.5 -16.5q-15 0 -25.5 10.5t-10.5 24.5q0 22 15 37.5t35 15.5z" />
    <glyph glyph-name="k" unicode="k" horiz-adv-x="421" 
d="M385 473h71l-263 -224l162 -249h-70l-153 253zM183 669h50l-167 -669h-50z" />
    <glyph glyph-name="l" unicode="l" horiz-adv-x="201" 
d="M183 669h55l-167 -669h-55z" />
    <glyph glyph-name="m" unicode="m" horiz-adv-x="719" 
d="M121 473h50q1 -7 1 -17q0 -18 -6 -49q56 75 138 75q86 0 113 -80q57 80 146 80q51 0 84 -28t33 -72q0 -30 -15 -87l-74 -295h-50l74 295q13 51 13 76q0 29 -20.5 46.5t-54.5 17.5q-56 0 -95.5 -39t-57.5 -112l-71 -284h-50l74 297q13 52 13 73q0 28 -20 46.5t-52 18.5
q-65 0 -111 -52q-32 -38 -47 -103l-70 -280h-50l79 315q27 112 27 144q0 8 -1 14z" />
    <glyph glyph-name="n" unicode="n" horiz-adv-x="477" 
d="M121 473h51v-18q0 -24 -8 -53q58 80 150 80q57 0 89.5 -27t32.5 -75q0 -29 -19 -109l-68 -271h-50l68 275q17 67 17 94q0 32 -20.5 49t-57.5 17q-73 0 -120 -60q-37 -42 -60 -136l-60 -239h-50l79 315q18 72 22 94.5t4 52.5v11z" />
    <glyph glyph-name="o" unicode="o" horiz-adv-x="484" 
d="M290 482q72 0 114 -47.5t42 -128.5q0 -67 -24 -131.5t-66 -111.5q-67 -73 -156 -73q-74 0 -116.5 47.5t-42.5 130.5q0 68 28 137.5t74 114.5q62 62 147 62zM286 435q-82 0 -138 -90q-53 -84 -53 -179q0 -59 29 -94t79 -35q78 0 135 87q54 87 54 183q0 58 -29 93t-77 35z
" />
    <glyph glyph-name="p" unicode="p" horiz-adv-x="479" 
d="M-32 -193l133 534q26 103 26 132h51q2 -30 -9 -62q30 42 60 59.5t73 17.5q66 0 104.5 -45t38.5 -122q0 -65 -24.5 -134t-65.5 -116q-63 -75 -148 -75q-89 0 -120 87l-69 -276h-50zM296 441q-79 0 -133 -106q-21 -39 -34.5 -88t-13.5 -84q0 -56 25 -88t69 -32q69 0 123 84
q59 92 59 196q0 53 -26 85.5t-69 32.5z" />
    <glyph glyph-name="q" unicode="q" horiz-adv-x="483" 
d="M305 -193h-50l65 260q-63 -77 -142 -77q-66 0 -102.5 42.5t-36.5 118.5q0 65 24 134t63 117q65 80 153 80q92 0 124 -85q7 42 27 76h50q-17 -34 -43 -138zM278 435q-80 0 -135 -99q-21 -38 -35.5 -90.5t-14.5 -91.5q0 -57 23 -87t67 -30q78 0 134 86q25 39 41 93t16 101
q0 55 -25.5 86.5t-70.5 31.5z" />
    <glyph glyph-name="r" unicode="r" horiz-adv-x="304" 
d="M124 473h48q1 -55 -16 -102q37 59 70.5 85t73.5 26q26 0 58 -12l-13 -52q-33 12 -53 12q-55 0 -101 -59t-72 -162l-53 -209h-50l76 304q27 111 32 169z" />
    <glyph glyph-name="s" unicode="s" horiz-adv-x="419" 
d="M392 346h-50q1 6 1 15q0 35 -23.5 54.5t-65.5 19.5q-45 0 -74.5 -24t-29.5 -61q0 -29 24 -47q15 -11 74 -41q62 -32 83.5 -56.5t21.5 -63.5q0 -67 -50.5 -109.5t-129.5 -42.5q-77 0 -116.5 39.5t-32.5 112.5h53v-9v-20q1 -34 27.5 -55t70.5 -21q54 0 88 27.5t34 71.5
q0 26 -14 42t-57 38q-86 43 -104 63q-26 29 -26 67q0 59 45 97.5t115 38.5q64 0 100.5 -29.5t36.5 -82.5q0 -11 -1 -24z" />
    <glyph glyph-name="t" unicode="t" horiz-adv-x="292" 
d="M208 472h114l-10 -43h-115l-64 -258q-19 -76 -19 -93q0 -41 44 -41q30 0 65 14l-12 -49q-35 -12 -64 -12q-41 0 -64.5 21t-23.5 59q0 28 21 104l67 255h-69l11 43h69l34 138h50z" />
    <glyph glyph-name="u" unicode="u" horiz-adv-x="464" 
d="M133 473h50l-74 -296q-12 -51 -12 -73q0 -31 22 -49t59 -18q64 0 112 61q29 36 47 108l66 267h50l-82 -331q-18 -74 -21.5 -93t-3.5 -49h-51v8q0 29 7 58q-54 -76 -135 -76q-54 0 -87 29t-33 76q0 29 14 90z" />
    <glyph glyph-name="v" unicode="v" horiz-adv-x="385" 
d="M69 473h53l26 -429l221 429h56l-262 -480h-55z" />
    <glyph glyph-name="w" unicode="w" horiz-adv-x="622" 
d="M81 473h53l3 -400l207 400h54l9 -400l203 400h53l-250 -480h-50l-9 410l-211 -410h-51z" />
    <glyph glyph-name="x" unicode="x" horiz-adv-x="414" 
d="M94 473h58l71 -184l162 184h61l-206 -228l107 -245h-60l-83 209l-191 -209h-60l233 253z" />
    <glyph glyph-name="y" unicode="y" horiz-adv-x="414" 
d="M82 473h54l28 -432l241 432h56l-252 -433q-74 -129 -121 -177q-60 -62 -147 -62q-9 0 -17 1l13 53q64 -1 98.5 25.5t89.5 120.5z" />
    <glyph glyph-name="z" unicode="z" horiz-adv-x="400" 
d="M95 473h320l-7 -35l-361 -395h281l-9 -43h-344l8 37l354 393h-251z" />
    <glyph glyph-name="braceleft" unicode="{" horiz-adv-x="273" 
d="M227 523l-42 -170q-15 -56 -31.5 -79t-52.5 -38q34 -25 34 -58q0 -24 -8 -59l-43 -169q-9 -36 -9 -62q0 -25 17 -35.5t58 -11.5l-11 -41h-10q-105 0 -105 80q0 26 13 81l40 158q7 28 7 49q0 37 -39 50l9 36q32 8 51 31t30 69l40 158q23 93 59.5 127t113.5 34q5 0 9 -1
l-10 -40q-56 -1 -79.5 -22.5t-40.5 -86.5z" />
    <glyph glyph-name="bar" unicode="|" 
d="M234 667h52v-834h-52v834z" />
    <glyph glyph-name="braceright" unicode="}" horiz-adv-x="273" 
d="M51 -50l42 169q15 56 31.5 79.5t52.5 37.5q-35 28 -35 59q0 21 9 59l43 169q9 41 9 62q0 25 -17 35.5t-58 11.5l10 40q5 1 11 1q105 0 105 -80q0 -28 -14 -81l-39 -158q-8 -38 -8 -49q0 -38 40 -51l-9 -36q-33 -7 -51.5 -30t-29.5 -69l-40 -158q-23 -93 -59.5 -127
t-113.5 -34h-9l10 41q56 2 80 23.5t40 85.5z" />
    <glyph glyph-name="asciitilde" unicode="~" horiz-adv-x="667" 
d="M137 224l-33 21q29 56 60 81t72 25q40 0 115 -38q71 -36 100 -36t51.5 17.5t46.5 58.5l33 -20q-53 -105 -136 -105q-21 0 -47 9.5t-92 41.5q-47 23 -75 23t-50 -18t-45 -60z" />
    <glyph glyph-name="uni00A0" unicode="&#xa0;" horiz-adv-x="232" 
 />
    <glyph glyph-name="exclamdown" unicode="&#xa1;" horiz-adv-x="252" 
d="M50 -184h-56l130 479h39zM181 482q18 0 30.5 -12t12.5 -29q0 -24 -17 -42t-41 -18q-18 0 -29.5 12t-11.5 30q0 23 17 41t39 18z" />
    <glyph glyph-name="cent" unicode="&#xa2;" horiz-adv-x="513" 
d="M324 585l21 98h37l-21 -98q112 -18 112 -131q0 -10 -3 -31h-51q2 15 2 29q0 74 -70 86l-84 -397q92 7 124 122h55q-19 -82 -68.5 -126t-121.5 -44l-24 -115h-37l25 119q-123 25 -123 173q0 74 29 143.5t79 116.5q49 48 119 55zM230 143l84 394q-65 -13 -114 -93.5
t-49 -175.5q0 -103 79 -125z" />
    <glyph glyph-name="sterling" unicode="&#xa3;" horiz-adv-x="513" 
d="M241 363h144l-11 -49h-151q-66 -190 -126 -269q46 7 94 7h49q20 -1 42 -1q50 0 73.5 17t34.5 63h51q-9 -77 -67 -111q-36 -20 -134 -20h-223q58 75 151 314h-98l10 49h107q53 151 77 205q26 60 57 85t80 25q47 0 72.5 -26t25.5 -74q0 -14 -1 -25h-51l1 9v11q0 57 -52 57
q-23 0 -36.5 -7t-31.5 -37.5t-36 -78t-51 -144.5z" />
    <glyph glyph-name="currency" unicode="&#xa4;" horiz-adv-x="667" 
d="M98 119l90 92q-52 66 -52 144q0 73 52 142l-93 92l32 32l92 -92q70 54 146 54q78 0 144 -53l93 91l32 -32l-92 -92q52 -68 52 -143t-52 -143l93 -92l-32 -32l-92 92q-66 -52 -144 -52q-74 0 -146 52l-92 -92zM367 533q-76 0 -127.5 -51.5t-51.5 -127.5q0 -74 51.5 -125.5
t125.5 -51.5t125.5 51.5t51.5 125.5t-51 126.5t-124 52.5z" />
    <glyph glyph-name="yen" unicode="&#xa5;" horiz-adv-x="513" 
d="M399 417h111l-10 -40h-132l-63 -82h174l-10 -40h-179l-62 -255h-55l64 255h-179l10 40h174l-22 82h-132l11 40h110l-67 250h63l76 -337l243 337h67z" />
    <glyph glyph-name="brokenbar" unicode="&#xa6;" 
d="M234 667h52v-328h-52v328zM234 153h52v-320h-52v320z" />
    <glyph glyph-name="section" unicode="&#xa7;" 
d="M473 499h-52l1 21q0 45 -25 69t-71 24q-51 0 -86 -32.5t-35 -79.5q0 -38 35 -69q17 -14 82 -60q58 -40 78 -63.5t20 -52.5q0 -46 -32 -84.5t-89 -61.5q45 -44 45 -100q0 -76 -52 -126.5t-131 -50.5q-71 0 -110.5 38t-39.5 105q0 12 1 22h55q-2 -18 -2 -21q0 -46 26 -72
t73 -26q54 0 89.5 34.5t35.5 87.5q0 44 -42 80q-17 15 -79 61q-50 38 -67.5 60.5t-17.5 50.5q0 91 121 141q-53 42 -53 103q0 69 51 115.5t127 46.5q71 0 108 -35.5t37 -102.5q0 -4 -1 -22zM236 369q-99 -41 -99 -103q0 -22 12 -37.5t53 -45.5q34 -26 66 -48
q44 18 70.5 48.5t26.5 64.5q0 20 -11 33t-48 39z" />
    <glyph glyph-name="dieresis" unicode="&#xa8;" 
d="M438 659q37 0 37 -37q0 -23 -14.5 -38.5t-35.5 -15.5q-17 0 -28 11t-11 28q0 21 15.5 36.5t36.5 15.5zM266 659q16 0 26.5 -10.5t10.5 -26.5q0 -22 -15 -38t-35 -16q-17 0 -28 11t-11 28q0 21 15 36.5t37 15.5z" />
    <glyph glyph-name="copyright" unicode="&#xa9;" horiz-adv-x="805" 
d="M583 429h-43q-19 79 -99 79q-57 0 -91 -46t-34 -123t34 -123t91 -46q46 0 73.5 27t32.5 79h43q-7 -69 -45 -106.5t-102 -37.5q-79 0 -126.5 56.5t-47.5 150.5t47 150.5t126 56.5q59 0 96 -30.5t45 -86.5zM434 680q139 0 239.5 -102t100.5 -243q0 -143 -101 -243.5
t-243 -100.5q-143 0 -244 100.5t-101 243.5q0 144 101.5 244.5t247.5 100.5zM433 644q-129 0 -218 -90t-89 -220q0 -128 89 -218.5t215 -90.5q125 0 214 90.5t89 219.5q0 126 -88.5 217.5t-211.5 91.5z" />
    <glyph glyph-name="ordfeminine" unicode="&#xaa;" 
d="M279 591h-41q28 84 117 84q41 0 64.5 -17t23.5 -46q0 -9 -6 -39l-28 -109q-12 -52 -11 -81h-41q-1 5 -1 11q0 11 1 19q-36 -36 -82 -36q-38 0 -59.5 19t-21.5 53q0 63 77 91q30 11 120 28l6 2l1 6q5 18 5 29q0 16 -14 25t-37 9q-56 0 -73 -48zM382 512l7 27
q-86 -15 -119.5 -33.5t-33.5 -52.5q0 -40 47 -40q75 0 99 99zM169 329h227l-8 -35h-228z" />
    <glyph glyph-name="guillemotleft" unicode="&#xab;" horiz-adv-x="335" 
d="M100 0h-33l-23 247l141 225h39l-133 -232zM224 0h-33l-23 247l141 225h39l-133 -232z" />
    <glyph glyph-name="logicalnot" unicode="&#xac;" 
d="M424 0v219h-381v48h433v-267h-52z" />
    <glyph glyph-name="uni00AD" unicode="&#xad;" horiz-adv-x="270" 
d="M12 274h270l-11 -44h-270z" />
    <glyph glyph-name="registered" unicode="&#xae;" horiz-adv-x="805" 
d="M316 532h68q77 0 113 -10q34 -10 53.5 -37t19.5 -64q0 -81 -88 -107l117 -182h-54l-113 175h-72v-175h-44v400zM360 344h25q66 0 90 8q48 15 48 70q0 50 -41 64q-23 9 -96 9h-26v-151zM434 680q139 0 239.5 -102t100.5 -243q0 -143 -101 -243.5t-243 -100.5
q-143 0 -244 100.5t-101 243.5q0 144 101.5 244.5t247.5 100.5zM433 644q-129 0 -218 -90t-89 -220q0 -128 89 -218.5t215 -90.5q125 0 214 90.5t89 219.5q0 126 -88.5 217.5t-211.5 91.5z" />
    <glyph glyph-name="macron" unicode="&#xaf;" 
d="M239 626h222l-10 -39h-222z" />
    <glyph glyph-name="degree" unicode="&#xb0;" 
d="M329 680q56 0 97 -39.5t41 -94.5t-41 -95t-97 -40q-58 0 -98 39.5t-40 96.5q0 54 41 93.5t97 39.5zM329 643q-41 0 -70 -28t-29 -68q0 -42 28.5 -70.5t70.5 -28.5q41 0 70 28.5t29 68.5q0 41 -29 69.5t-70 28.5z" />
    <glyph glyph-name="plusminus" unicode="&#xb1;" horiz-adv-x="513" 
d="M268 355h186v-38h-186v-185h-40v185h-185v38h185v192h40v-192zM43 78h411v-40h-411v40z" />
    <glyph glyph-name="twosuperior" unicode="&#xb2;" horiz-adv-x="335" 
d="M176 530h-42q23 126 134 126q43 0 71 -22.5t28 -57.5q0 -39 -49 -93q-25 -27 -121 -122l-63 -64h172l-9 -37h-230l7 30l170 169q48 48 64 70.5t16 42.5t-17.5 33t-42.5 13q-70 0 -88 -88z" />
    <glyph glyph-name="threesuperior" unicode="&#xb3;" horiz-adv-x="335" 
d="M175 545h-42q27 111 126 111q47 0 75.5 -24.5t28.5 -64.5q0 -70 -77 -100q46 -19 46 -76q0 -58 -42 -97t-105 -39q-51 0 -80.5 26t-29.5 72q0 11 1 21h42v-12q0 -70 70 -70q43 0 71.5 28t28.5 70q0 41 -34 55q-12 6 -52 6h-4l9 38q18 -2 23 -2q37 0 63 22.5t26 54.5
q0 25 -17 39.5t-46 14.5q-61 0 -81 -73z" />
    <glyph glyph-name="acute" unicode="&#xb4;" 
d="M394 671h90l-156 -115h-49z" />
    <glyph glyph-name="mu" unicode="&#xb5;" 
d="M65 -165v645h52v-279q0 -57 9.5 -87t34.5 -53q39 -34 94 -34q69 0 111 56q37 49 37 129v268h52v-480h-52v96q-48 -110 -150 -110q-86 0 -136 79v-230h-52z" />
    <glyph glyph-name="paragraph" unicode="&#xb6;" horiz-adv-x="513" 
d="M118 -100l103 413q-60 3 -95 18q-68 28 -68 112q0 61 33 115t87 80q58 29 164 29h232l-11 -44h-56l-181 -723h-48l180 723h-111l-181 -723h-48z" />
    <glyph glyph-name="periodcentered" unicode="&#xb7;" horiz-adv-x="251" 
d="M136 290q18 0 30 -12t12 -31q0 -23 -17 -41t-39 -18q-17 0 -30 12.5t-13 28.5q0 24 17.5 42.5t39.5 18.5z" />
    <glyph glyph-name="cedilla" unicode="&#xb8;" 
d="M208 0h38l-39 -52q57 -14 57 -62q0 -32 -27.5 -53.5t-68.5 -21.5q-31 0 -65 15l8 29q31 -9 45 -9q22 0 38.5 13.5t16.5 32.5q0 34 -56 38z" />
    <glyph glyph-name="onesuperior" unicode="&#xb9;" horiz-adv-x="335" 
d="M171 566l8 31q39 2 60.5 14t34.5 42h30l-98 -393h-40l77 309z" />
    <glyph glyph-name="ordmasculine" unicode="&#xba;" 
d="M352 675q46 0 73.5 -29.5t27.5 -79.5q0 -77 -45.5 -133t-109.5 -56q-48 0 -75.5 29.5t-27.5 80.5q0 76 46.5 132t110.5 56zM348 639q-45 0 -78 -45t-33 -107q0 -35 17 -54.5t47 -19.5q44 0 77 45.5t33 106.5q0 34 -17 54t-46 20zM162 329h227l-8 -35h-228z" />
    <glyph glyph-name="guillemotright" unicode="&#xbb;" horiz-adv-x="335" 
d="M239 472h33l23 -247l-141 -225h-39l132 232zM115 472h33l23 -247l-141 -225h-39l132 232z" />
    <glyph glyph-name="onequarter" unicode="&#xbc;" horiz-adv-x="811" 
d="M171 566l8 31q39 2 60.5 14t34.5 42h30l-98 -393h-40l77 309zM683 650h59l-566 -650h-58zM693 135h61l-9 -38h-61l-25 -100h-42l25 100h-166l8 30l224 266h49zM653 135l55 207l-173 -207h118z" />
    <glyph glyph-name="onehalf" unicode="&#xbd;" horiz-adv-x="811" 
d="M171 566l8 31q39 2 60.5 14t34.5 42h30l-98 -393h-40l77 309zM683 650h59l-566 -650h-58zM587 271h-42q24 125 134 125q44 0 71.5 -22t27.5 -57q0 -34 -25 -66t-144 -150l-63 -64h172l-10 -37h-229l7 30l64 65l67 66q80 80 99 104.5t19 47.5q0 20 -16.5 32.5t-42.5 12.5
q-70 0 -89 -87z" />
    <glyph glyph-name="threequarters" unicode="&#xbe;" horiz-adv-x="811" 
d="M175 545h-42q27 111 126 111q47 0 75.5 -24.5t28.5 -64.5q0 -70 -77 -100q46 -19 46 -76q0 -58 -42 -97t-105 -39q-51 0 -80.5 26t-29.5 72q0 11 1 21h42v-12q0 -70 70 -70q43 0 71.5 28t28.5 70q0 41 -34 55q-12 6 -52 6h-4l9 38q18 -2 23 -2q37 0 63 22.5t26 54.5
q0 25 -17 39.5t-46 14.5q-61 0 -81 -73zM684 650h58l-566 -650h-57zM693 135h62l-10 -38h-60l-25 -100h-42l25 100h-166l7 30l225 266h49zM653 135l55 207l-172 -207h117z" />
    <glyph glyph-name="questiondown" unicode="&#xbf;" horiz-adv-x="407" 
d="M216 292h52q-17 -97 -37.5 -134.5t-85.5 -92.5q-61 -52 -80 -78t-19 -58q0 -30 20.5 -46.5t57.5 -16.5q47 0 74.5 23.5t44.5 76.5h55q-17 -74 -63.5 -114t-116.5 -40q-61 0 -97 30.5t-36 83.5q0 41 22 73t85 85q70 55 89 87.5t35 120.5zM267 482q18 0 30.5 -12t12.5 -29
q0 -25 -17 -42.5t-41 -17.5q-18 0 -29.5 12t-11.5 30q0 23 17 41t39 18z" />
    <glyph glyph-name="Agrave" unicode="&#xc0;" horiz-adv-x="546" 
d="M363 672h47l52 -672h-58l-13 189h-252l-109 -189h-59zM389 239l-11 180q0 6 -1.5 28t-3.5 64t-5 87q-61 -118 -96 -179l-103 -180h220zM275 851h80l81 -115h-55z" />
    <glyph glyph-name="Aacute" unicode="&#xc1;" horiz-adv-x="546" 
d="M363 672h47l52 -672h-58l-13 189h-252l-109 -189h-59zM389 239l-11 180q0 6 -1.5 28t-3.5 64t-5 87q-61 -118 -96 -179l-103 -180h220zM461 847h114l-167 -108h-58z" />
    <glyph glyph-name="Acircumflex" unicode="&#xc2;" horiz-adv-x="546" 
d="M363 672h47l52 -672h-58l-13 189h-252l-109 -189h-59zM389 239l-11 180q0 6 -1.5 28t-3.5 64t-5 87q-61 -118 -96 -179l-103 -180h220zM385 853h79l86 -120h-55l-74 81l-129 -81h-51z" />
    <glyph glyph-name="Atilde" unicode="&#xc3;" horiz-adv-x="546" 
d="M363 672h47l52 -672h-58l-13 189h-252l-109 -189h-59zM389 239l-11 180q0 6 -1.5 28t-3.5 64t-5 87q-61 -118 -96 -179l-103 -180h220zM289 744l-34 8q43 90 111 90q27 0 60 -22q31 -23 51 -23q39 0 65 47l36 -9q-42 -92 -109 -92q-31 0 -67 26q-30 22 -49 22
q-35 0 -64 -47z" />
    <glyph glyph-name="Adieresis" unicode="&#xc4;" horiz-adv-x="546" 
d="M363 672h47l52 -672h-58l-13 189h-252l-109 -189h-59zM389 239l-11 180q0 6 -1.5 28t-3.5 64t-5 87q-61 -118 -96 -179l-103 -180h220zM519 844q40 0 40 -40q0 -24 -16 -41t-38 -17q-19 0 -30.5 11.5t-11.5 30.5q0 22 16.5 39t39.5 17zM333 844q18 0 29 -11t11 -29
q0 -24 -16 -41t-38 -17q-19 0 -30.5 11.5t-11.5 30.5q0 23 16.5 39.5t39.5 16.5z" />
    <glyph glyph-name="Aring" unicode="&#xc5;" horiz-adv-x="546" 
d="M363 672h47l52 -672h-58l-13 189h-252l-109 -189h-59zM389 239l-11 180q0 6 -1.5 28t-3.5 64t-5 87q-61 -118 -96 -179l-103 -180h220zM405 886q37 0 63 -26.5t26 -63.5t-26.5 -63.5t-63.5 -26.5t-63.5 26.5t-26.5 63.5q0 38 26.5 64t64.5 26zM405 846q-21 0 -36 -15
t-15 -35t15 -35t35 -15t35 15t15 35t-14.5 35t-34.5 15z" />
    <glyph glyph-name="AE" unicode="&#xc6;" horiz-adv-x="833" 
d="M503 667h370l-13 -50h-281l-61 -246h262l-12 -50h-263l-67 -271h299l-13 -50h-355l52 204h-226l-159 -204h-65zM432 254l96 378l-294 -378h198z" />
    <glyph glyph-name="Ccedilla" unicode="&#xc7;" horiz-adv-x="605" 
d="M284 -13l-34 -46q65 -14 65 -65q0 -36 -30 -59t-77 -23q-32 0 -69 14l9 34q30 -9 48 -9q25 0 42 14t17 35q0 36 -61 40l50 68q-62 10 -96 36q-80 60 -80 202q0 93 32 186t86 158q90 108 218 108q85 0 133 -45t48 -124v-7v-11h-57q-1 4 -1 9q0 2 1 5q2 19 -7.5 46
t-23.5 43q-34 34 -96 34q-119 0 -199 -138q-33 -56 -53 -129t-20 -136q0 -90 40 -140t111 -50q72 0 127.5 48.5t81.5 134.5h60q-29 -109 -97 -168.5t-168 -64.5z" />
    <glyph glyph-name="Egrave" unicode="&#xc8;" horiz-adv-x="494" 
d="M176 370h265l-13 -50h-264l-68 -270h302l-13 -50h-356l166 667h339l-13 -50h-283zM277 851h80l81 -115h-55z" />
    <glyph glyph-name="Eacute" unicode="&#xc9;" horiz-adv-x="494" 
d="M176 370h265l-13 -50h-264l-68 -270h302l-13 -50h-356l166 667h339l-13 -50h-283zM432 847h114l-167 -108h-59z" />
    <glyph glyph-name="Ecircumflex" unicode="&#xca;" horiz-adv-x="494" 
d="M176 370h265l-13 -50h-264l-68 -270h302l-13 -50h-356l166 667h339l-13 -50h-283zM369 853h79l86 -120h-55l-74 81l-129 -81h-52z" />
    <glyph glyph-name="Edieresis" unicode="&#xcb;" horiz-adv-x="494" 
d="M176 370h265l-13 -50h-264l-68 -270h302l-13 -50h-356l166 667h339l-13 -50h-283zM493 844q18 0 29 -11t11 -28q0 -25 -15.5 -42t-38.5 -17q-19 0 -30.5 11.5t-11.5 30.5q0 23 16.5 39.5t39.5 16.5zM307 844q18 0 29 -11t11 -28q0 -24 -16 -41.5t-38 -17.5
q-19 0 -30.5 11.5t-11.5 30.5q0 23 16.5 39.5t39.5 16.5z" />
    <glyph glyph-name="Igrave" unicode="&#xcc;" horiz-adv-x="230" 
d="M87 0h-58l166 667h58zM118 851h80l81 -115h-55z" />
    <glyph glyph-name="Iacute" unicode="&#xcd;" horiz-adv-x="230" 
d="M87 0h-58l166 667h58zM296 847h104l-146 -108h-56z" />
    <glyph glyph-name="Icircumflex" unicode="&#xce;" horiz-adv-x="230" 
d="M87 0h-58l166 667h58zM230 853h79l63 -120h-52l-54 81l-109 -81h-48z" />
    <glyph glyph-name="Idieresis" unicode="&#xcf;" horiz-adv-x="230" 
d="M87 0h-58l166 667h58zM341 844q18 0 29 -11t11 -28q0 -24 -16 -41.5t-38 -17.5q-19 0 -30.5 11.5t-11.5 30.5q0 23 16.5 39.5t39.5 16.5zM188 844q18 0 29 -11t11 -28q0 -24 -16 -41.5t-38 -17.5q-19 0 -30.5 11.5t-11.5 30.5q0 23 16.5 39.5t39.5 16.5z" />
    <glyph glyph-name="Eth" unicode="&#xd0;" horiz-adv-x="615" 
d="M110 324h-60l12 49h60l73 294h119q135 0 194 -37q92 -57 92 -196q0 -99 -38 -192.5t-103 -155.5q-53 -50 -118.5 -68t-196.5 -18h-115zM165 324l-69 -274h81q97 0 154.5 21.5t104.5 74.5q46 53 74.5 134t28.5 157q0 56 -24 99.5t-65 61.5q-43 19 -146 19h-66l-61 -244
h173l-12 -49h-173z" />
    <glyph glyph-name="Ntilde" unicode="&#xd1;" horiz-adv-x="610" 
d="M195 667h63l174 -601l146 601h55l-166 -667h-64l-173 598l-146 -598h-55zM317 744l-34 8q43 90 111 90q28 0 60 -22q31 -23 52 -23q38 0 65 47l35 -9q-40 -92 -108 -92q-31 0 -68 26q-30 22 -48 22q-36 0 -65 -47z" />
    <glyph glyph-name="Ograve" unicode="&#xd2;" horiz-adv-x="626" 
d="M407 680q96 0 150 -64t54 -178q0 -92 -32 -184t-87 -158q-93 -109 -218 -109q-98 0 -152 63t-54 178q0 94 33.5 189t88.5 159q89 104 217 104zM404 630q-111 0 -189 -118q-38 -59 -62 -139.5t-24 -152.5q0 -84 40 -133.5t108 -49.5q120 0 202 144q31 56 51 128.5
t20 131.5q0 85 -40 137t-106 52zM336 851h80l81 -115h-55z" />
    <glyph glyph-name="Oacute" unicode="&#xd3;" horiz-adv-x="626" 
d="M407 680q96 0 150 -64t54 -178q0 -92 -32 -184t-87 -158q-93 -109 -218 -109q-98 0 -152 63t-54 178q0 94 33.5 189t88.5 159q89 104 217 104zM404 630q-111 0 -189 -118q-38 -59 -62 -139.5t-24 -152.5q0 -84 40 -133.5t108 -49.5q120 0 202 144q31 56 51 128.5
t20 131.5q0 85 -40 137t-106 52zM488 847h114l-166 -108h-59z" />
    <glyph glyph-name="Ocircumflex" unicode="&#xd4;" horiz-adv-x="626" 
d="M407 680q96 0 150 -64t54 -178q0 -92 -32 -184t-87 -158q-93 -109 -218 -109q-98 0 -152 63t-54 178q0 94 33.5 189t88.5 159q89 104 217 104zM404 630q-111 0 -189 -118q-38 -59 -62 -139.5t-24 -152.5q0 -84 40 -133.5t108 -49.5q120 0 202 144q31 56 51 128.5
t20 131.5q0 85 -40 137t-106 52zM425 853h79l86 -120h-55l-73 81l-129 -81h-52z" />
    <glyph glyph-name="Otilde" unicode="&#xd5;" horiz-adv-x="626" 
d="M407 680q96 0 150 -64t54 -178q0 -92 -32 -184t-87 -158q-93 -109 -218 -109q-98 0 -152 63t-54 178q0 94 33.5 189t88.5 159q89 104 217 104zM404 630q-111 0 -189 -118q-38 -59 -62 -139.5t-24 -152.5q0 -84 40 -133.5t108 -49.5q120 0 202 144q31 56 51 128.5
t20 131.5q0 85 -40 137t-106 52zM329 744l-34 8q43 90 111 90q27 0 60 -22q33 -23 51 -23q39 0 65 47l36 -9q-40 -92 -108 -92q-32 0 -68 26q-30 22 -48 22q-36 0 -65 -47z" />
    <glyph glyph-name="Odieresis" unicode="&#xd6;" horiz-adv-x="626" 
d="M407 680q96 0 150 -64t54 -178q0 -92 -32 -184t-87 -158q-93 -109 -218 -109q-98 0 -152 63t-54 178q0 94 33.5 189t88.5 159q89 104 217 104zM404 630q-111 0 -189 -118q-38 -59 -62 -139.5t-24 -152.5q0 -84 40 -133.5t108 -49.5q120 0 202 144q31 56 51 128.5
t20 131.5q0 85 -40 137t-106 52zM559 844q19 0 29.5 -10.5t10.5 -28.5q0 -25 -15.5 -42t-38.5 -17q-18 0 -30 11.5t-12 30.5q0 22 16.5 39t39.5 17zM373 844q18 0 29 -10.5t11 -28.5q0 -25 -15.5 -42t-38.5 -17q-19 0 -30.5 11.5t-11.5 30.5q0 23 16.5 39.5t39.5 16.5z" />
    <glyph glyph-name="multiply" unicode="&#xd7;" horiz-adv-x="513" 
d="M312 337l143 -144l-29 -28l-143 143l-143 -143l-28 28l143 143l-143 143l29 29l143 -144l143 143l27 -28z" />
    <glyph glyph-name="Oslash" unicode="&#xd8;" horiz-adv-x="626" 
d="M559 614l50 53h52l-79 -87q29 -61 29 -147q0 -89 -32 -180.5t-87 -156.5q-91 -109 -218 -109q-100 0 -153 65l-49 -52h-51l78 86q-31 56 -31 142q0 94 33.5 189t88.5 159q90 104 214 104q101 0 155 -66zM144 133l371 438q-13 26 -44.5 42.5t-68.5 16.5q-109 0 -187 -118
q-38 -59 -62 -140t-24 -153q0 -38 15 -86zM534 532l-371 -438q46 -57 114 -57q121 0 202 144q32 57 51.5 129t19.5 135q0 40 -16 87z" />
    <glyph glyph-name="Ugrave" unicode="&#xd9;" horiz-adv-x="552" 
d="M166 667h55l-103 -416q-16 -65 -16 -102q0 -112 134 -112q112 0 164 80q15 23 23.5 49t28.5 105l98 396h55l-98 -397q-22 -92 -31.5 -119.5t-26.5 -56.5q-31 -51 -86.5 -79t-125.5 -28q-90 0 -140 40t-50 113q0 48 21 130zM296 851h80l81 -115h-55z" />
    <glyph glyph-name="Uacute" unicode="&#xda;" horiz-adv-x="552" 
d="M166 667h55l-103 -416q-16 -65 -16 -102q0 -112 134 -112q112 0 164 80q15 23 23.5 49t28.5 105l98 396h55l-98 -397q-22 -92 -31.5 -119.5t-26.5 -56.5q-31 -51 -86.5 -79t-125.5 -28q-90 0 -140 40t-50 113q0 48 21 130zM451 847h114l-166 -108h-59z" />
    <glyph glyph-name="Ucircumflex" unicode="&#xdb;" horiz-adv-x="552" 
d="M166 667h55l-103 -416q-16 -65 -16 -102q0 -112 134 -112q112 0 164 80q15 23 23.5 49t28.5 105l98 396h55l-98 -397q-22 -92 -31.5 -119.5t-26.5 -56.5q-31 -51 -86.5 -79t-125.5 -28q-90 0 -140 40t-50 113q0 48 21 130zM388 853h79l87 -120h-55l-74 81l-129 -81h-52z
" />
    <glyph glyph-name="Udieresis" unicode="&#xdc;" horiz-adv-x="552" 
d="M166 667h55l-103 -416q-16 -65 -16 -102q0 -112 134 -112q112 0 164 80q15 23 23.5 49t28.5 105l98 396h55l-98 -397q-22 -92 -31.5 -119.5t-26.5 -56.5q-31 -51 -86.5 -79t-125.5 -28q-90 0 -140 40t-50 113q0 48 21 130zM523 844q17 0 28.5 -11t11.5 -29
q0 -23 -16 -40.5t-38 -17.5q-19 0 -30.5 11.5t-11.5 30.5q0 23 16 39.5t40 16.5zM336 844q40 0 40 -40q0 -24 -15.5 -41t-38.5 -17q-18 0 -30 12t-12 30q0 22 17 39t39 17z" />
    <glyph glyph-name="Yacute" unicode="&#xdd;" horiz-adv-x="490" 
d="M130 667h63l76 -336l243 336h67l-294 -381l-69 -286h-55l72 286zM413 847h114l-166 -108h-59z" />
    <glyph glyph-name="Thorn" unicode="&#xde;" horiz-adv-x="503" 
d="M195 667h58l-23 -94h54q75 0 111 -6.5t61 -25.5q55 -41 55 -125q0 -67 -33 -123t-89 -82q-31 -14 -68 -19t-114 -5h-74l-46 -187h-58zM143 237h68q113 0 156 21q39 20 62.5 62.5t23.5 93.5q0 59 -34 84t-116 25h-89z" />
    <glyph glyph-name="germandbls" unicode="&#xdf;" horiz-adv-x="483" 
d="M15 0l106 427q23 90 33 119t29 55q52 72 146 72q62 0 101 -34.5t39 -89.5q0 -67 -43 -114.5t-115 -61.5q120 -27 120 -137q0 -106 -69 -183q-54 -60 -136 -60q-42 0 -83 16l13 49q34 -17 69 -17q73 0 115 67q37 59 37 127q0 58 -39.5 86.5t-125.5 33.5l11 45q9 -1 20 -1
q98 0 145 67q25 36 25 90q0 29 -25.5 49.5t-61.5 20.5q-66 0 -105 -56q-15 -22 -22 -43.5t-27 -99.5l-107 -427h-50z" />
    <glyph glyph-name="agrave" unicode="&#xe0;" horiz-adv-x="457" 
d="M155 355h-54q23 65 66.5 96t113.5 31q65 0 100.5 -26t35.5 -72q0 -23 -11 -67l-46 -186q-21 -82 -21 -131h-53q0 35 6 67q-57 -77 -145 -77q-56 0 -89 31t-33 84q0 104 121 150q51 19 193 48l15 3l4 17q7 28 7 54q0 28 -22.5 43t-63.5 15q-95 0 -124 -80zM330 213l14 54
q-147 -26 -206 -61t-59 -97q0 -34 21 -53t58 -19q72 0 123 62q30 37 49 114zM220 674h70l61 -121h-45z" />
    <glyph glyph-name="aacute" unicode="&#xe1;" horiz-adv-x="457" 
d="M155 355h-54q23 65 66.5 96t113.5 31q65 0 100.5 -26t35.5 -72q0 -23 -11 -67l-46 -186q-21 -82 -21 -131h-53q0 35 6 67q-57 -77 -145 -77q-56 0 -89 31t-33 84q0 104 121 150q51 19 193 48l15 3l4 17q7 28 7 54q0 28 -22.5 43t-63.5 15q-95 0 -124 -80zM330 213l14 54
q-147 -26 -206 -61t-59 -97q0 -34 21 -53t58 -19q72 0 123 62q30 37 49 114zM369 671h91l-157 -115h-49z" />
    <glyph glyph-name="acircumflex" unicode="&#xe2;" horiz-adv-x="457" 
d="M155 355h-54q23 65 66.5 96t113.5 31q65 0 100.5 -26t35.5 -72q0 -23 -11 -67l-46 -186q-21 -82 -21 -131h-53q0 35 6 67q-57 -77 -145 -77q-56 0 -89 31t-33 84q0 104 121 150q51 19 193 48l15 3l4 17q7 28 7 54q0 28 -22.5 43t-63.5 15q-95 0 -124 -80zM330 213l14 54
q-147 -26 -206 -61t-59 -97q0 -34 21 -53t58 -19q72 0 123 62q30 37 49 114zM303 677h65l74 -127h-49l-60 88l-123 -88h-48z" />
    <glyph glyph-name="atilde" unicode="&#xe3;" horiz-adv-x="457" 
d="M155 355h-54q23 65 66.5 96t113.5 31q65 0 100.5 -26t35.5 -72q0 -23 -11 -67l-46 -186q-21 -82 -21 -131h-53q0 35 6 67q-57 -77 -145 -77q-56 0 -89 31t-33 84q0 104 121 150q51 19 193 48l15 3l4 17q7 28 7 54q0 28 -22.5 43t-63.5 15q-95 0 -124 -80zM330 213l14 54
q-147 -26 -206 -61t-59 -97q0 -34 21 -53t58 -19q72 0 123 62q30 37 49 114zM203 559l-34 8q42 100 104 100q28 0 59 -30q32 -32 50 -32q33 0 55 64l36 -8q-39 -103 -102 -103q-31 0 -66 34q-29 28 -47 28q-30 0 -55 -61z" />
    <glyph glyph-name="adieresis" unicode="&#xe4;" horiz-adv-x="457" 
d="M155 355h-54q23 65 66.5 96t113.5 31q65 0 100.5 -26t35.5 -72q0 -23 -11 -67l-46 -186q-21 -82 -21 -131h-53q0 35 6 67q-57 -77 -145 -77q-56 0 -89 31t-33 84q0 104 121 150q51 19 193 48l15 3l4 17q7 28 7 54q0 28 -22.5 43t-63.5 15q-95 0 -124 -80zM330 213l14 54
q-147 -26 -206 -61t-59 -97q0 -34 21 -53t58 -19q72 0 123 62q30 37 49 114zM418 659q16 0 26.5 -10.5t10.5 -26.5q0 -22 -15 -38t-35 -16q-17 0 -28 11t-11 28q0 22 15 37t37 15zM245 659q37 0 37 -37q0 -23 -14.5 -38.5t-35.5 -15.5q-17 0 -28 11t-11 28q0 21 15.5 36.5
t36.5 15.5z" />
    <glyph glyph-name="aring" unicode="&#xe5;" horiz-adv-x="457" 
d="M155 355h-54q23 65 66.5 96t113.5 31q65 0 100.5 -26t35.5 -72q0 -23 -11 -67l-46 -186q-21 -82 -21 -131h-53q0 35 6 67q-57 -77 -145 -77q-56 0 -89 31t-33 84q0 104 121 150q51 19 193 48l15 3l4 17q7 28 7 54q0 28 -22.5 43t-63.5 15q-95 0 -124 -80zM330 213l14 54
q-147 -26 -206 -61t-59 -97q0 -34 21 -53t58 -19q72 0 123 62q30 37 49 114zM326 710q37 0 63 -26.5t26 -63.5q0 -38 -26.5 -64t-63.5 -26t-63.5 26.5t-26.5 63.5t27 63.5t64 26.5zM326 670q-20 0 -35.5 -15t-15.5 -35t15.5 -35t34.5 -15q20 0 35 15t15 35t-15 35t-34 15z
" />
    <glyph glyph-name="ae" unicode="&#xe6;" horiz-adv-x="758" 
d="M706 237h-318q-10 -42 -10 -70q0 -60 29.5 -95t80.5 -35q48 0 81.5 27.5t58.5 86.5h56q-52 -161 -198 -161q-115 0 -148 101q-73 -101 -188 -101q-59 0 -92 30.5t-33 84.5q0 51 28 82.5t89 51.5q47 14 190 38l15 3l11 43q7 31 7 53q0 59 -86 59q-49 0 -78.5 -19
t-45.5 -61h-54q44 127 179 127q114 0 133 -76q69 76 157 76q70 0 108.5 -42.5t38.5 -118.5q0 -45 -11 -84zM330 213l6 24q-94 -11 -163 -31q-94 -26 -94 -98q0 -70 79 -70q73 0 122 61q31 37 50 114zM400 280h261q4 24 4 42q0 53 -26.5 83t-73.5 30q-109 0 -165 -155z" />
    <glyph glyph-name="ccedilla" unicode="&#xe7;" horiz-adv-x="455" 
d="M206 -10l-31 -42q56 -14 56 -61q0 -33 -27 -54.5t-68 -21.5q-32 0 -65 15l8 29q31 -9 45 -9q23 0 38.5 13.5t15.5 32.5q0 34 -55 38l46 63q-126 27 -126 174q0 127 72.5 221t170.5 94q62 0 97 -34t35 -94q0 -8 -2 -34h-51l1 31q0 40 -22 62t-61 22q-79 0 -137 -94
q-49 -85 -49 -175q0 -60 28 -94t78 -34q100 0 134 122h55q-19 -81 -66.5 -124.5t-119.5 -45.5z" />
    <glyph glyph-name="egrave" unicode="&#xe8;" horiz-adv-x="476" 
d="M424 237h-318q-10 -36 -10 -71q0 -60 29.5 -94.5t80.5 -34.5q48 0 81.5 27.5t58.5 86.5h56q-52 -161 -199 -161q-75 0 -118 46t-43 128q0 68 23.5 133t65.5 111q67 74 156 74q71 0 109.5 -42.5t38.5 -119.5q0 -43 -11 -83zM118 280h260q5 24 5 42q0 53 -26 82.5t-74 29.5
q-110 0 -165 -154zM231 674h71l61 -121h-46z" />
    <glyph glyph-name="eacute" unicode="&#xe9;" horiz-adv-x="476" 
d="M424 237h-318q-10 -36 -10 -71q0 -60 29.5 -94.5t80.5 -34.5q48 0 81.5 27.5t58.5 86.5h56q-52 -161 -199 -161q-75 0 -118 46t-43 128q0 68 23.5 133t65.5 111q67 74 156 74q71 0 109.5 -42.5t38.5 -119.5q0 -43 -11 -83zM118 280h260q5 24 5 42q0 53 -26 82.5t-74 29.5
q-110 0 -165 -154zM381 671h90l-156 -115h-49z" />
    <glyph glyph-name="ecircumflex" unicode="&#xea;" horiz-adv-x="476" 
d="M424 237h-318q-10 -36 -10 -71q0 -60 29.5 -94.5t80.5 -34.5q48 0 81.5 27.5t58.5 86.5h56q-52 -161 -199 -161q-75 0 -118 46t-43 128q0 68 23.5 133t65.5 111q67 74 156 74q71 0 109.5 -42.5t38.5 -119.5q0 -43 -11 -83zM118 280h260q5 24 5 42q0 53 -26 82.5t-74 29.5
q-110 0 -165 -154zM311 677h66l73 -127h-49l-60 88l-122 -88h-49z" />
    <glyph glyph-name="edieresis" unicode="&#xeb;" horiz-adv-x="476" 
d="M424 237h-318q-10 -36 -10 -71q0 -60 29.5 -94.5t80.5 -34.5q48 0 81.5 27.5t58.5 86.5h56q-52 -161 -199 -161q-75 0 -118 46t-43 128q0 68 23.5 133t65.5 111q67 74 156 74q71 0 109.5 -42.5t38.5 -119.5q0 -43 -11 -83zM118 280h260q5 24 5 42q0 53 -26 82.5t-74 29.5
q-110 0 -165 -154zM426 659q16 0 26.5 -10.5t10.5 -26.5q0 -22 -15 -38t-35 -16q-17 0 -28 11t-11 28q0 22 15 37t37 15zM253 659q37 0 37 -37q0 -23 -14.5 -38.5t-35.5 -15.5q-17 0 -27.5 10.5t-10.5 28.5q0 22 15 37t36 15z" />
    <glyph glyph-name="igrave" unicode="&#xec;" horiz-adv-x="201" 
d="M134 473h55l-118 -473h-55zM83 674h71l61 -121h-46z" />
    <glyph glyph-name="iacute" unicode="&#xed;" horiz-adv-x="201" 
d="M134 473h55l-118 -473h-55zM239 671h87l-133 -115h-45z" />
    <glyph glyph-name="icircumflex" unicode="&#xee;" horiz-adv-x="201" 
d="M134 473h55l-118 -473h-55zM178 677h65l50 -127h-45l-40 88l-103 -88h-45z" />
    <glyph glyph-name="idieresis" unicode="&#xef;" horiz-adv-x="201" 
d="M134 473h55l-118 -473h-55zM268 659q16 0 26.5 -10.5t10.5 -26.5q0 -22 -15 -38t-35 -16q-17 0 -28 11t-11 28q0 22 15 37t37 15zM135 659q37 0 37 -37q0 -23 -14.5 -38.5t-35.5 -15.5q-17 0 -28 11t-11 28q0 21 15.5 36.5t36.5 15.5z" />
    <glyph glyph-name="eth" unicode="&#xf0;" horiz-adv-x="484" 
d="M285 569l72 33q-1 3 -2.5 6t-3 6.5t-2.5 6.5l-11 22l-8 17l38 20l10 -18l15 -30l5 -9l76 36l15 -40l-77 -36q42 -100 42 -231q0 -155 -72 -258.5t-181 -103.5q-74 0 -116.5 48t-42.5 130q0 63 23.5 126.5t64.5 110.5q68 77 153 77q46 0 79 -19q16 -9 34 -34
q-6 67 -27 133l-70 -32zM287 435q-83 0 -139 -90q-52 -83 -52 -179q0 -59 29 -94t79 -35q78 0 135 87q54 87 54 185q0 57 -29 91.5t-77 34.5z" />
    <glyph glyph-name="ntilde" unicode="&#xf1;" horiz-adv-x="477" 
d="M121 473h50q1 -9 1 -21q0 -22 -8 -50q58 80 150 80q57 0 89.5 -27t32.5 -75q0 -29 -19 -109l-68 -271h-50l68 275q17 67 17 94q0 32 -20.5 49t-57.5 17q-73 0 -120 -60q-37 -42 -60 -136l-60 -239h-50l79 315q19 77 23 100.5t3 57.5zM206 559l-34 8q42 100 104 100
q28 0 58 -30q33 -32 51 -32q33 0 54 64l36 -8q-39 -103 -102 -103q-31 0 -65 34q-29 28 -47 28q-30 0 -55 -61z" />
    <glyph glyph-name="ograve" unicode="&#xf2;" horiz-adv-x="484" 
d="M290 482q72 0 114 -47.5t42 -128.5q0 -67 -24 -131.5t-66 -111.5q-67 -73 -156 -73q-74 0 -116.5 47.5t-42.5 130.5q0 68 28 137.5t74 114.5q62 62 147 62zM286 435q-82 0 -138 -90q-53 -84 -53 -179q0 -59 29 -94t79 -35q78 0 135 87q54 87 54 184q0 58 -29 92.5
t-77 34.5zM236 674h70l61 -121h-45z" />
    <glyph glyph-name="oacute" unicode="&#xf3;" horiz-adv-x="484" 
d="M290 482q72 0 114 -47.5t42 -128.5q0 -67 -24 -131.5t-66 -111.5q-67 -73 -156 -73q-74 0 -116.5 47.5t-42.5 130.5q0 68 28 137.5t74 114.5q62 62 147 62zM286 435q-82 0 -138 -90q-53 -84 -53 -179q0 -59 29 -94t79 -35q78 0 135 87q54 87 54 184q0 58 -29 92.5
t-77 34.5zM385 671h91l-157 -115h-49z" />
    <glyph glyph-name="ocircumflex" unicode="&#xf4;" horiz-adv-x="484" 
d="M290 482q72 0 114 -47.5t42 -128.5q0 -67 -24 -131.5t-66 -111.5q-67 -73 -156 -73q-74 0 -116.5 47.5t-42.5 130.5q0 68 28 137.5t74 114.5q62 62 147 62zM286 435q-82 0 -138 -90q-53 -84 -53 -179q0 -59 29 -94t79 -35q78 0 135 87q54 87 54 184q0 58 -29 92.5
t-77 34.5zM319 677h65l74 -127h-49l-60 88l-123 -88h-48z" />
    <glyph glyph-name="otilde" unicode="&#xf5;" horiz-adv-x="484" 
d="M290 482q72 0 114 -47.5t42 -128.5q0 -67 -24 -131.5t-66 -111.5q-67 -73 -156 -73q-74 0 -116.5 47.5t-42.5 130.5q0 68 28 137.5t74 114.5q62 62 147 62zM286 435q-82 0 -138 -90q-53 -84 -53 -179q0 -59 29 -94t79 -35q78 0 135 87q54 87 54 184q0 58 -29 92.5
t-77 34.5zM218 559l-34 8q42 100 104 100q28 0 58 -30q33 -32 50 -32q33 0 55 64l36 -8q-39 -103 -102 -103q-31 0 -66 34q-28 28 -46 28q-31 0 -55 -61z" />
    <glyph glyph-name="odieresis" unicode="&#xf6;" horiz-adv-x="484" 
d="M290 482q72 0 114 -47.5t42 -128.5q0 -67 -24 -131.5t-66 -111.5q-67 -73 -156 -73q-74 0 -116.5 47.5t-42.5 130.5q0 68 28 137.5t74 114.5q62 62 147 62zM286 435q-82 0 -138 -90q-53 -84 -53 -179q0 -59 29 -94t79 -35q78 0 135 87q54 87 54 184q0 58 -29 92.5
t-77 34.5zM430 659q37 0 37 -37q0 -23 -14.5 -38.5t-35.5 -15.5q-17 0 -27.5 10.5t-10.5 28.5q0 22 15 37t36 15zM258 659q16 0 26.5 -10.5t10.5 -26.5q0 -22 -15 -38t-35 -16q-17 0 -28 11t-11 28q0 21 15.5 36.5t36.5 15.5z" />
    <glyph glyph-name="divide" unicode="&#xf7;" horiz-adv-x="513" 
d="M284 243q17 0 29 -12.5t12 -29.5t-12 -29t-30 -12q-17 0 -29 12t-12 29t12.5 29.5t29.5 12.5zM284 507q17 0 29 -12.5t12 -29.5t-12 -29t-30 -12q-17 0 -29 12t-12 29q0 18 12 30t30 12zM78 356h411v-40h-411v40z" />
    <glyph glyph-name="oslash" unicode="&#xf8;" horiz-adv-x="484" 
d="M405 433l40 39h49l-68 -68q21 -43 21 -100q0 -64 -25 -129.5t-66 -111.5q-67 -73 -156 -73q-80 0 -124 57l-50 -47h-49l79 79l-3 11q-12 47 -12 76q0 112 64 208q73 108 184 108q70 0 116 -49zM101 120l264 279q-26 36 -80 36q-81 0 -137 -90q-53 -83 -53 -180
q0 -12 6 -45zM382 366l-265 -284q27 -45 85 -45q80 0 136 87q55 86 55 186q0 23 -11 56z" />
    <glyph glyph-name="ugrave" unicode="&#xf9;" horiz-adv-x="464" 
d="M133 473h50l-74 -296q-12 -47 -12 -73q0 -31 22 -49t59 -18q64 0 112 61q29 36 47 108l66 267h50l-82 -331q-3 -10 -7.5 -28.5l-6.5 -26.5q-11 -48 -11 -87h-51v8q0 28 7 58q-54 -76 -135 -76q-54 0 -87 29t-33 76q0 29 14 90zM226 674h70l61 -121h-45z" />
    <glyph glyph-name="uacute" unicode="&#xfa;" horiz-adv-x="464" 
d="M133 473h50l-74 -296q-12 -47 -12 -73q0 -31 22 -49t59 -18q64 0 112 61q29 36 47 108l66 267h50l-82 -331q-3 -10 -7.5 -28.5l-6.5 -26.5q-11 -48 -11 -87h-51v8q0 28 7 58q-54 -76 -135 -76q-54 0 -87 29t-33 76q0 29 14 90zM375 671h91l-157 -115h-49z" />
    <glyph glyph-name="ucircumflex" unicode="&#xfb;" horiz-adv-x="464" 
d="M133 473h50l-74 -296q-12 -47 -12 -73q0 -31 22 -49t59 -18q64 0 112 61q29 36 47 108l66 267h50l-82 -331q-3 -10 -7.5 -28.5l-6.5 -26.5q-11 -48 -11 -87h-51v8q0 28 7 58q-54 -76 -135 -76q-54 0 -87 29t-33 76q0 29 14 90zM306 677h65l73 -127h-48l-61 88l-122 -88
h-48z" />
    <glyph glyph-name="udieresis" unicode="&#xfc;" horiz-adv-x="464" 
d="M133 473h50l-74 -296q-12 -47 -12 -73q0 -31 22 -49t59 -18q64 0 112 61q29 36 47 108l66 267h50l-82 -331q-3 -10 -7.5 -28.5l-6.5 -26.5q-11 -48 -11 -87h-51v8q0 28 7 58q-54 -76 -135 -76q-54 0 -87 29t-33 76q0 29 14 90zM420 659q37 0 37 -37q0 -23 -14.5 -38.5
t-35.5 -15.5q-17 0 -28 11t-11 28q0 21 15.5 36.5t36.5 15.5zM248 659q16 0 26.5 -10.5t10.5 -26.5q0 -22 -15 -38t-35 -16q-17 0 -28 11t-11 28q0 21 15.5 36.5t36.5 15.5z" />
    <glyph glyph-name="yacute" unicode="&#xfd;" horiz-adv-x="414" 
d="M82 473h54l28 -432l241 432h56l-252 -433q-80 -136 -121 -177q-60 -62 -147 -62q-9 0 -17 1l13 53q64 -1 98 25.5t90 120.5zM347 671h91l-157 -115h-49z" />
    <glyph glyph-name="thorn" unicode="&#xfe;" horiz-adv-x="479" 
d="M-32 -191l212 850h52l-62 -248q31 43 60 60t72 17q66 0 104 -45t38 -123q0 -66 -24 -133.5t-65 -115.5q-65 -75 -149 -75q-89 0 -120 87l-68 -274h-50zM296 441q-79 0 -134 -106q-47 -89 -47 -172q0 -56 25 -88t69 -32q69 0 123 84q58 92 58 196q0 53 -25.5 85.5
t-68.5 32.5z" />
    <glyph glyph-name="ydieresis" unicode="&#xff;" horiz-adv-x="414" 
d="M82 473h54l28 -432l241 432h56l-252 -433q-80 -136 -121 -177q-60 -62 -147 -62q-9 0 -17 1l13 53q64 -1 98 25.5t90 120.5zM397 659q37 0 37 -37q0 -23 -14.5 -38.5t-35.5 -15.5q-17 0 -28 11t-11 28q0 21 15.5 36.5t36.5 15.5zM225 659q17 0 27 -10.5t10 -26.5
q0 -22 -15 -38t-35 -16q-17 0 -28 11t-11 28q0 22 15 37t37 15z" />
    <glyph glyph-name="Amacron" unicode="&#x100;" horiz-adv-x="546" 
d="M363 672h47l52 -672h-58l-13 189h-252l-109 -189h-59zM389 239l-11 180q0 6 -1.5 28t-3.5 64t-5 87q-61 -118 -96 -179l-103 -180h220zM284 814h278l-11 -42h-278z" />
    <glyph glyph-name="amacron" unicode="&#x101;" horiz-adv-x="457" 
d="M155 355h-54q23 65 66.5 96t113.5 31q65 0 100.5 -26t35.5 -72q0 -23 -11 -67l-46 -186q-21 -82 -21 -131h-53q0 35 6 67q-57 -77 -145 -77q-56 0 -89 31t-33 84q0 104 121 150q51 19 193 48l15 3l4 17q7 28 7 54q0 28 -22.5 43t-63.5 15q-95 0 -124 -80zM330 213l14 54
q-147 -26 -206 -61t-59 -97q0 -34 21 -53t58 -19q72 0 123 62q30 37 49 114zM214 626h222l-9 -39h-223z" />
    <glyph glyph-name="Abreve" unicode="&#x102;" horiz-adv-x="546" 
d="M363 672h47l52 -672h-58l-13 189h-252l-109 -189h-59zM389 239l-11 180q0 6 -1.5 28t-3.5 64t-5 87q-61 -118 -96 -179l-103 -180h220zM295 853h37v-8q0 -55 77 -55q71 0 107 63h37q-15 -57 -54 -88.5t-95 -31.5q-52 0 -81 26t-29 72q0 16 1 22z" />
    <glyph glyph-name="abreve" unicode="&#x103;" horiz-adv-x="457" 
d="M155 355h-54q23 65 66.5 96t113.5 31q65 0 100.5 -26t35.5 -72q0 -23 -11 -67l-46 -186q-21 -82 -21 -131h-53q0 35 6 67q-57 -77 -145 -77q-56 0 -89 31t-33 84q0 104 121 150q51 19 193 48l15 3l4 17q7 28 7 54q0 28 -22.5 43t-63.5 15q-95 0 -124 -80zM330 213l14 54
q-147 -26 -206 -61t-59 -97q0 -34 21 -53t58 -19q72 0 123 62q30 37 49 114zM223 677h37q0 -41 15 -58.5t49 -17.5t55 17.5t38 58.5h37q-13 -60 -49 -93.5t-86 -33.5q-45 0 -71.5 27.5t-26.5 74.5q0 13 2 25z" />
    <glyph glyph-name="Aogonek" unicode="&#x104;" horiz-adv-x="546" 
d="M363 672h47l52 -672q-75 -48 -75 -90q0 -36 43 -36q14 0 39 6l-10 -41q-27 -7 -46 -7q-37 0 -60 18.5t-23 47.5q0 38 35 70q14 13 51 32h-14l-11 189h-252l-109 -189h-59zM389 239l-11 180q0 6 -1.5 28t-3.5 64t-5 87l-96 -179l-103 -180h220z" />
    <glyph glyph-name="aogonek" unicode="&#x105;" horiz-adv-x="457" 
d="M155 355h-54q44 127 180 127q65 0 100.5 -26t35.5 -73q0 -26 -11 -66l-46 -186q-21 -84 -21 -131q-52 -34 -69.5 -51.5t-17.5 -37.5q0 -18 12 -28.5t32 -10.5q15 0 39 5l-9 -34q-24 -8 -44 -8q-34 0 -55.5 17.5t-21.5 46.5q0 30 20 52.5t70 48.5h-9q0 36 6 67
q-57 -77 -145 -77q-56 0 -89 31t-33 84q0 104 121 150q51 19 193 48l15 3l4 17q7 28 7 54q0 28 -22.5 43t-63.5 15q-95 0 -124 -80zM330 213l14 54q-147 -26 -206 -61t-59 -97q0 -34 21 -53t58 -19q72 0 123 62q30 37 49 114z" />
    <glyph glyph-name="Cacute" unicode="&#x106;" horiz-adv-x="605" 
d="M585 493h-57q-1 4 -1 10q0 2 1 4q2 17 -7.5 45t-23.5 44q-32 34 -96 34q-119 0 -199 -138q-33 -56 -53 -129t-20 -136q0 -90 40 -140t111 -50q72 0 127.5 48.5t81.5 134.5h60q-31 -113 -100.5 -173t-169.5 -60q-101 0 -156 62.5t-55 178.5q0 93 32 186t86 158
q90 108 218 108q85 0 133 -45t48 -124v-7v-11zM483 847h114l-166 -108h-59z" />
    <glyph glyph-name="cacute" unicode="&#x107;" horiz-adv-x="455" 
d="M416 320h-51l1 31q0 40 -22 62t-61 22q-79 0 -137 -94q-49 -83 -49 -175q0 -60 28.5 -94.5t77.5 -34.5q99 0 134 123h55q-44 -170 -190 -170q-75 0 -117 47t-42 130q0 127 72.5 221t170.5 94q62 0 97 -34t35 -94q0 -8 -2 -34zM371 671h90l-156 -115h-49z" />
    <glyph glyph-name="Ccircumflex" unicode="&#x108;" horiz-adv-x="605" 
d="M585 493h-57q-1 4 -1 10q0 2 1 4q2 17 -7.5 45t-23.5 44q-32 34 -96 34q-119 0 -199 -138q-33 -56 -53 -129t-20 -136q0 -90 40 -140t111 -50q72 0 127.5 48.5t81.5 134.5h60q-31 -113 -100.5 -173t-169.5 -60q-101 0 -156 62.5t-55 178.5q0 93 32 186t86 158
q90 108 218 108q85 0 133 -45t48 -124v-7v-11zM421 853h78l87 -120h-55l-74 81l-129 -81h-52z" />
    <glyph glyph-name="Cdotaccent" unicode="&#x10a;" horiz-adv-x="605" 
d="M585 493h-57q-1 4 -1 10q0 2 1 4q2 17 -7.5 45t-23.5 44q-32 34 -96 34q-119 0 -199 -138q-33 -56 -53 -129t-20 -136q0 -90 40 -140t111 -50q72 0 127.5 48.5t81.5 134.5h60q-31 -113 -100.5 -173t-169.5 -60q-101 0 -156 62.5t-55 178.5q0 93 32 186t86 158
q90 108 218 108q85 0 133 -45t48 -124v-7v-11zM455 844q18 0 29 -11t11 -29q0 -24 -16 -41t-38 -17q-19 0 -30.5 11.5t-11.5 30.5q0 23 16.5 39.5t39.5 16.5z" />
    <glyph glyph-name="cdotaccent" unicode="&#x10b;" horiz-adv-x="455" 
d="M416 320h-51l1 31q0 40 -22 62t-61 22q-79 0 -137 -94q-49 -83 -49 -175q0 -60 28.5 -94.5t77.5 -34.5q99 0 134 123h55q-44 -170 -190 -170q-75 0 -117 47t-42 130q0 127 72.5 221t170.5 94q62 0 97 -34t35 -94q0 -8 -2 -34zM326 659q37 0 37 -37q0 -23 -14.5 -38.5
t-35.5 -15.5q-17 0 -27.5 10.5t-10.5 28.5q0 22 15 37t36 15z" />
    <glyph glyph-name="Ccaron" unicode="&#x10c;" horiz-adv-x="605" 
d="M585 493h-57q-1 4 -1 10q0 2 1 4q2 17 -7.5 45t-23.5 44q-32 34 -96 34q-119 0 -199 -138q-33 -56 -53 -129t-20 -136q0 -90 40 -140t111 -50q72 0 127.5 48.5t81.5 134.5h60q-31 -113 -100.5 -173t-169.5 -60q-101 0 -156 62.5t-55 178.5q0 93 32 186t86 158
q90 108 218 108q85 0 133 -45t48 -124v-7v-11zM471 733h-78l-87 120h55l74 -81l129 81h52z" />
    <glyph glyph-name="ccaron" unicode="&#x10d;" horiz-adv-x="455" 
d="M416 320h-51l1 31q0 40 -22 62t-61 22q-79 0 -137 -94q-49 -83 -49 -175q0 -60 28.5 -94.5t77.5 -34.5q99 0 134 123h55q-44 -170 -190 -170q-75 0 -117 47t-42 130q0 127 72.5 221t170.5 94q62 0 97 -34t35 -94q0 -8 -2 -34zM338 550h-65l-73 127h48l61 -88l122 88h48z
" />
    <glyph glyph-name="Dcaron" unicode="&#x10e;" horiz-adv-x="615" 
d="M195 667h119q135 0 194 -37q92 -57 92 -196q0 -98 -38 -192t-103 -156q-52 -50 -118 -68t-197 -18h-115zM96 50h81q97 0 154.5 21.5t104.5 74.5q46 53 74.5 134t28.5 157q0 56 -24 99.5t-65 61.5q-43 19 -145 19h-67zM437 733h-79l-87 120h56l73 -81l129 81h52z" />
    <glyph glyph-name="dcaron" unicode="&#x10f;" horiz-adv-x="544" 
d="M517 669l-133 -532q-25 -101 -25 -126q0 -6 1 -11h-52q-1 5 -1 12q0 25 10 55q-31 -43 -60.5 -60t-73.5 -17q-66 0 -104 44.5t-38 122.5q0 67 24 134.5t65 115.5q64 75 149 75q89 0 120 -87l68 274h50zM276 435q-69 0 -123 -84q-58 -90 -58 -196q0 -53 25.5 -85.5
t68.5 -32.5q79 0 134 106q47 89 47 172q0 56 -25 88t-69 32zM566 495h-51q76 55 96 102q-4 -1 -10 -1q-12 0 -21.5 9t-9.5 22q0 20 17 36.5t37 16.5q19 0 29.5 -11t10.5 -31q0 -60 -98 -143z" />
    <glyph glyph-name="Dcroat" unicode="&#x110;" horiz-adv-x="615" 
d="M110 324h-60l12 49h60l73 294h119q135 0 194 -37q92 -57 92 -196q0 -99 -38 -192.5t-103 -155.5q-53 -50 -118.5 -68t-196.5 -18h-115zM165 324l-69 -274h81q97 0 154.5 21.5t104.5 74.5q46 53 74.5 134t28.5 157q0 56 -24 99.5t-65 61.5q-43 19 -146 19h-66l-61 -244
h173l-12 -49h-173z" />
    <glyph glyph-name="dcroat" unicode="&#x111;" horiz-adv-x="479" 
d="M448 594l19 75h50l-19 -75h60l-10 -43h-60l-104 -414q-25 -101 -25 -126q0 -6 1 -11h-52q-1 5 -1 12q0 25 10 55q-31 -43 -60.5 -60t-73.5 -17q-66 0 -104 44.5t-38 122.5q0 67 24 134.5t65 115.5q64 75 149 75q89 0 120 -87l38 156h-136l11 43h136zM276 435
q-69 0 -123 -84q-58 -90 -58 -196q0 -53 25.5 -85.5t68.5 -32.5q79 0 134 106q47 89 47 172q0 56 -25 88t-69 32z" />
    <glyph glyph-name="Emacron" unicode="&#x112;" horiz-adv-x="494" 
d="M176 370h265l-13 -50h-264l-68 -270h302l-13 -50h-356l166 667h339l-13 -50h-283zM258 814h277l-10 -42h-278z" />
    <glyph glyph-name="emacron" unicode="&#x113;" horiz-adv-x="476" 
d="M424 237h-318q-10 -36 -10 -71q0 -60 29.5 -94.5t80.5 -34.5q48 0 81.5 27.5t58.5 86.5h56q-52 -161 -199 -161q-75 0 -118 46t-43 128q0 68 23.5 133t65.5 111q67 74 156 74q71 0 109.5 -42.5t38.5 -119.5q0 -43 -11 -83zM118 280h260q5 24 5 42q0 53 -26 82.5t-74 29.5
q-110 0 -165 -154zM222 626h223l-10 -39h-222z" />
    <glyph glyph-name="Ebreve" unicode="&#x114;" horiz-adv-x="494" 
d="M176 370h265l-13 -50h-264l-68 -270h302l-13 -50h-356l166 667h339l-13 -50h-283zM276 853h37q-1 -3 -1 -8q0 -55 77 -55q73 0 107 63h37q-15 -57 -54 -88.5t-95 -31.5q-51 0 -80.5 26t-29.5 72q0 12 2 22z" />
    <glyph glyph-name="ebreve" unicode="&#x115;" horiz-adv-x="476" 
d="M424 237h-318q-10 -36 -10 -71q0 -60 29.5 -94.5t80.5 -34.5q48 0 81.5 27.5t58.5 86.5h56q-52 -161 -199 -161q-75 0 -118 46t-43 128q0 68 23.5 133t65.5 111q67 74 156 74q71 0 109.5 -42.5t38.5 -119.5q0 -43 -11 -83zM118 280h260q5 24 5 42q0 53 -26 82.5t-74 29.5
q-110 0 -165 -154zM227 677h37v-10q0 -66 65 -66q33 0 54.5 17.5t37.5 58.5h37q-13 -61 -49 -94t-86 -33q-44 0 -71 28t-27 75q0 2 0.5 5t1 8.5t0.5 10.5z" />
    <glyph glyph-name="Edotaccent" unicode="&#x116;" horiz-adv-x="494" 
d="M176 370h265l-13 -50h-264l-68 -270h302l-13 -50h-356l166 667h339l-13 -50h-283zM397 844q17 0 28.5 -11t11.5 -28q0 -24 -16 -41.5t-38 -17.5q-19 0 -30.5 11.5t-11.5 30.5q0 23 16.5 39.5t39.5 16.5z" />
    <glyph glyph-name="edotaccent" unicode="&#x117;" horiz-adv-x="476" 
d="M424 237h-318q-10 -36 -10 -71q0 -60 29.5 -94.5t80.5 -34.5q48 0 81.5 27.5t58.5 86.5h56q-52 -161 -199 -161q-75 0 -118 46t-43 128q0 68 23.5 133t65.5 111q67 74 156 74q71 0 109.5 -42.5t38.5 -119.5q0 -43 -11 -83zM118 280h260q5 24 5 42q0 53 -26 82.5t-74 29.5
q-110 0 -165 -154zM336 659q37 0 37 -37q0 -23 -14.5 -38.5t-35.5 -15.5q-17 0 -27.5 10.5t-10.5 28.5q0 22 14.5 37t36.5 15z" />
    <glyph glyph-name="Eogonek" unicode="&#x118;" horiz-adv-x="494" 
d="M176 370h265l-13 -50h-264l-68 -270h302l-13 -50q-90 -49 -90 -89q0 -17 11.5 -27t31.5 -10q13 0 40 6l-11 -41q-25 -7 -45 -7q-38 0 -61 18.5t-23 49.5q0 29 26 57t68 43h-303l166 667h339l-13 -50h-283z" />
    <glyph glyph-name="eogonek" unicode="&#x119;" horiz-adv-x="476" 
d="M299 -126l-9 -33q-24 -8 -44 -8q-34 0 -56 17.5t-22 44.5q0 32 30 64q15 15 45 34q-23 -3 -36 -3q-79 0 -122 45.5t-43 128.5q0 68 23.5 133t65.5 111q67 74 156 74q70 0 109 -42.5t39 -118.5q0 -45 -11 -84h-318q-10 -37 -10 -70q0 -61 29.5 -95.5t80.5 -34.5
q48 0 81.5 27.5t58.5 86.5h56q-28 -92 -119 -154q-18 -13 -45 -44q-22 -25 -22 -46q0 -37 43 -37q17 0 40 4zM118 280h260q5 24 5 42q0 53 -26 82.5t-74 29.5q-110 0 -165 -154z" />
    <glyph glyph-name="Ecaron" unicode="&#x11a;" horiz-adv-x="494" 
d="M176 370h265l-13 -50h-264l-68 -270h302l-13 -50h-356l166 667h339l-13 -50h-283zM420 733h-79l-87 120h55l74 -81l129 81h52z" />
    <glyph glyph-name="ecaron" unicode="&#x11b;" horiz-adv-x="476" 
d="M424 237h-318q-10 -36 -10 -71q0 -60 29.5 -94.5t80.5 -34.5q48 0 81.5 27.5t58.5 86.5h56q-52 -161 -199 -161q-75 0 -118 46t-43 128q0 68 23.5 133t65.5 111q67 74 156 74q71 0 109.5 -42.5t38.5 -119.5q0 -43 -11 -83zM118 280h260q5 24 5 42q0 53 -26 82.5t-74 29.5
q-110 0 -165 -154zM348 550h-65l-73 127h48l61 -88l122 88h48z" />
    <glyph glyph-name="Gcircumflex" unicode="&#x11c;" horiz-adv-x="609" 
d="M381 327h185l-70 -279q-91 -61 -206 -61q-222 0 -222 236q0 98 32 191.5t87 158.5q89 107 219 107q85 0 132 -44.5t47 -124.5v-18h-58q1 59 -20 90q-32 48 -104 48q-118 0 -197 -133q-35 -58 -56 -132.5t-21 -141.5q0 -187 165 -187q78 0 152 41l50 199h-128zM416 853h79
l87 -120h-55l-74 81l-129 -81h-52z" />
    <glyph glyph-name="gcircumflex" unicode="&#x11d;" horiz-adv-x="449" 
d="M484 466l-9 -38h-100q25 -35 25 -80q0 -44 -20 -84.5t-53 -63.5q-22 -15 -45.5 -21.5t-67.5 -7.5q-107 -37 -107 -70q0 -21 58 -28q96 -11 132 -33q52 -31 52 -91q0 -68 -56 -111t-146 -43q-86 0 -137.5 36.5t-51.5 97.5q0 46 29 74.5t94 45.5q-32 19 -32 45
q0 27 25.5 46.5t92.5 42.5q-75 35 -75 114q0 78 51 131.5t125 53.5q37 0 74 -16h142zM266 439q-51 0 -87 -41t-36 -98q0 -40 23.5 -63t64.5 -23q50 0 84.5 39.5t34.5 97.5q0 41 -22.5 64.5t-61.5 23.5zM159 23q-71 0 -110.5 -24.5t-39.5 -68.5q0 -41 39 -67t102 -26
q64 0 104.5 29.5t40.5 76.5q0 80 -136 80zM307 677h65l74 -127h-49l-60 88l-123 -88h-48z" />
    <glyph glyph-name="Gbreve" unicode="&#x11e;" horiz-adv-x="609" 
d="M381 327h185l-70 -279q-91 -61 -206 -61q-222 0 -222 235q0 98 32 192t87 159q89 107 219 107q85 0 132 -44.5t47 -124.5v-18h-58q1 59 -20 90q-32 48 -104 48q-118 0 -197 -133q-35 -58 -56 -132.5t-21 -142.5q0 -186 167 -186q76 0 150 41l50 199h-128zM326 853h37v-8
q0 -55 77 -55q73 0 107 63h37q-15 -57 -54 -88.5t-95 -31.5q-52 0 -81 26t-29 71q0 13 1 23z" />
    <glyph glyph-name="gbreve" unicode="&#x11f;" horiz-adv-x="449" 
d="M484 466l-9 -38h-100q25 -35 25 -80q0 -44 -20 -84.5t-53 -63.5q-22 -15 -45.5 -21.5t-67.5 -7.5q-107 -37 -107 -70q0 -21 58 -28q96 -11 132 -33q52 -31 52 -91q0 -68 -56 -111t-146 -43q-86 0 -137.5 36.5t-51.5 97.5q0 46 29 74.5t94 45.5q-32 19 -32 45
q0 27 25.5 46.5t92.5 42.5q-75 35 -75 114q0 78 51 131.5t125 53.5q37 0 74 -16h142zM266 439q-51 0 -87 -41t-36 -98q0 -40 23.5 -63t64.5 -23q50 0 84.5 39.5t34.5 97.5q0 41 -22.5 64.5t-61.5 23.5zM159 23q-71 0 -110.5 -24.5t-39.5 -68.5q0 -41 39 -67t102 -26
q64 0 104.5 29.5t40.5 76.5q0 80 -136 80zM222 677h37v-10q0 -66 64 -66q34 0 55 17.5t38 58.5h37q-14 -60 -49.5 -93.5t-86.5 -33.5q-44 0 -70.5 28t-26.5 75q0 2 2 24z" />
    <glyph glyph-name="Gdotaccent" unicode="&#x120;" horiz-adv-x="609" 
d="M381 327h185l-70 -279q-91 -61 -206 -61q-222 0 -222 235q0 98 32 192t87 159q89 107 219 107q85 0 132 -44.5t47 -124.5v-18h-58q1 59 -20 90q-32 48 -104 48q-118 0 -197 -133q-35 -58 -56 -132.5t-21 -142.5q0 -186 167 -186q76 0 150 41l50 199h-128zM454 844
q18 0 29 -11t11 -28q0 -25 -15.5 -42t-38.5 -17q-19 0 -30.5 11.5t-11.5 30.5q0 23 16.5 39.5t39.5 16.5z" />
    <glyph glyph-name="gdotaccent" unicode="&#x121;" horiz-adv-x="449" 
d="M484 466l-9 -38h-100q25 -35 25 -80q0 -44 -20 -84.5t-53 -63.5q-22 -15 -45.5 -21.5t-67.5 -7.5q-107 -37 -107 -70q0 -21 58 -28q96 -11 132 -33q52 -31 52 -91q0 -68 -56 -111t-146 -43q-86 0 -137.5 36.5t-51.5 97.5q0 46 29 74.5t94 45.5q-32 19 -32 45
q0 27 25.5 46.5t92.5 42.5q-75 35 -75 114q0 78 51 131.5t125 53.5q37 0 74 -16h142zM266 439q-51 0 -87 -41t-36 -98q0 -40 23.5 -63t64.5 -23q50 0 84.5 39.5t34.5 97.5q0 41 -22.5 64.5t-61.5 23.5zM159 23q-71 0 -110.5 -24.5t-39.5 -68.5q0 -41 39 -67t102 -26
q64 0 104.5 29.5t40.5 76.5q0 80 -136 80zM330 659q37 0 37 -37q0 -23 -14.5 -38.5t-35.5 -15.5q-17 0 -27.5 10.5t-10.5 28.5q0 22 15 37t36 15z" />
    <glyph glyph-name="Gcommaaccent" unicode="&#x122;" horiz-adv-x="609" 
d="M381 327h185l-70 -279q-91 -61 -206 -61q-222 0 -222 236q0 98 32 191.5t87 158.5q89 107 219 107q84 0 131.5 -45t47.5 -124v-18h-58v9v5q4 54 -31 89t-93 35q-118 0 -197 -133q-35 -57 -56 -132t-21 -142q0 -187 165 -187q77 0 152 41l50 199h-128zM206 -248h-54
q80 58 102 107h-11q-14 0 -23 8.5t-9 22.5q0 22 17.5 39.5t38.5 17.5q19 0 31 -12.5t12 -32.5q0 -63 -104 -150z" />
    <glyph glyph-name="gcommaaccent" unicode="&#x123;" horiz-adv-x="449" 
d="M484 466l-9 -38h-100q25 -35 25 -80q0 -44 -20 -84.5t-53 -63.5q-22 -15 -45.5 -21.5t-67.5 -7.5q-107 -37 -107 -70q0 -21 58 -28q96 -11 132 -33q52 -31 52 -91q0 -68 -56 -111t-146 -43q-86 0 -137.5 36.5t-51.5 97.5q0 46 29 74.5t94 45.5q-32 19 -32 45
q0 27 25.5 46.5t92.5 42.5q-75 35 -75 114q0 78 51 131.5t125 53.5q37 0 74 -16h142zM266 439q-51 0 -87 -41t-36 -98q0 -40 23.5 -63t64.5 -23q50 0 84.5 39.5t34.5 97.5q0 41 -22.5 64.5t-61.5 23.5zM159 23q-71 0 -110.5 -24.5t-39.5 -68.5q0 -41 39 -67t102 -26
q64 0 104.5 29.5t40.5 76.5q0 80 -136 80zM368 733h51q-76 -55 -96 -102q4 1 10 1q13 0 22 -9t9 -21q0 -20 -17 -37t-37 -17q-18 0 -29 12t-11 31q0 59 98 142z" />
    <glyph glyph-name="Hcircumflex" unicode="&#x124;" horiz-adv-x="602" 
d="M177 373h320l73 294h55l-166 -667h-55l81 326h-320l-81 -326h-55l166 667h55zM413 853h78l87 -120h-55l-74 81l-129 -81h-52z" />
    <glyph glyph-name="Hbar" unicode="&#x126;" horiz-adv-x="602" 
d="M580 486l-121 -486h-55l81 326h-320l-81 -326h-55l121 486h-60l12 49h60l33 132h55l-33 -132h320l33 132h55l-33 -132h60l-12 -49h-60zM525 486h-320l-28 -113h320z" />
    <glyph glyph-name="hbar" unicode="&#x127;" horiz-adv-x="471" 
d="M203 551l-33 -134q58 65 136 65q57 0 90.5 -29t33.5 -78q0 -27 -16 -90l-71 -285h-50l72 288q12 49 12 78q0 31 -22 50t-58 19q-71 0 -117 -60q-28 -35 -48 -109l-66 -266h-50l137 551h-60l11 43h60l19 75h50l-19 -75h137l-11 -43h-137z" />
    <glyph glyph-name="Imacron" unicode="&#x12a;" horiz-adv-x="230" 
d="M87 0h-58l166 667h58zM142 814h238l-11 -42h-238z" />
    <glyph glyph-name="imacron" unicode="&#x12b;" horiz-adv-x="201" 
d="M134 473h55l-118 -473h-55zM102 626h196l-10 -39h-196z" />
    <glyph glyph-name="ibreve" unicode="&#x12d;" horiz-adv-x="201" 
d="M134 473h55l-118 -473h-55zM100 677h37q1 -43 14 -59.5t45 -16.5q53 0 84 76h37q-13 -58 -47.5 -92.5t-80.5 -34.5q-41 0 -66 28t-25 75q0 14 2 24z" />
    <glyph glyph-name="Iogonek" unicode="&#x12e;" horiz-adv-x="230" 
d="M48 0h-19l166 667h58l-166 -667q-23 -22 -40 -49.5t-17 -44.5q0 -14 11 -24.5t26 -10.5q5 0 17 3l8 2l-10 -40q-17 -7 -31 -7q-33 0 -55.5 19.5t-22.5 48.5q0 45 75 103z" />
    <glyph glyph-name="iogonek" unicode="&#x12f;" horiz-adv-x="201" 
d="M190 473l-118 -473q-62 -62 -62 -94q0 -17 10 -26.5t27 -9.5q10 0 26 4l-9 -33q-21 -9 -35 -9q-27 0 -46.5 19t-19.5 46q0 26 13.5 45.5t49.5 45.5q10 8 16 12h-26l118 473h56zM207 674q16 0 26 -9.5t10 -25.5q0 -20 -15.5 -36.5t-34.5 -16.5q-15 0 -25.5 10.5
t-10.5 24.5q0 22 15 37.5t35 15.5z" />
    <glyph glyph-name="Idotaccent" unicode="&#x130;" horiz-adv-x="230" 
d="M87 0h-58l166 667h58zM264 844q19 0 29.5 -10.5t10.5 -28.5q0 -25 -15.5 -42t-38.5 -17q-18 0 -30 11.5t-12 30.5q0 22 17 39t39 17z" />
    <glyph glyph-name="dotlessi" unicode="&#x131;" horiz-adv-x="201" 
d="M134 473h55l-118 -473h-55z" />
    <glyph glyph-name="IJ" unicode="&#x132;" horiz-adv-x="499" 
d="M87 0h-58l166 667h58zM466 667h58l-133 -532q-18 -72 -29 -100t-31 -50q-52 -57 -152 -57q-11 0 -20 1l12 50h10h5q70 0 104 44q23 30 44 113z" />
    <glyph glyph-name="ij" unicode="&#x133;" horiz-adv-x="441" 
d="M134 473h55l-118 -473h-55zM207 674q16 0 25.5 -9t9.5 -25q0 -21 -15 -37.5t-34 -16.5q-15 0 -25.5 10t-10.5 25q0 22 14.5 37.5t35.5 15.5zM374 473h55l-110 -440q-17 -70 -28.5 -100.5t-29.5 -53.5q-23 -31 -61.5 -49.5t-81.5 -18.5q-12 0 -21 1l12 47h9q72 0 106 58
q18 32 40 115zM447 674q16 0 25.5 -9.5t9.5 -24.5q0 -21 -15.5 -37.5t-34.5 -16.5q-14 0 -25 10.5t-11 24.5q0 21 15.5 37t35.5 16z" />
    <glyph glyph-name="Kcommaaccent" unicode="&#x136;" horiz-adv-x="561" 
d="M522 667h71l-352 -324l209 -343h-72l-206 348zM195 667h55l-166 -667h-55zM147 -248h-53q81 59 101 107h-10q-14 0 -23.5 9t-9.5 22q0 22 18 39.5t39 17.5q19 0 30.5 -12.5t11.5 -32.5q0 -63 -104 -150z" />
    <glyph glyph-name="kcommaaccent" unicode="&#x137;" horiz-adv-x="421" 
d="M385 473h71l-263 -224l162 -249h-70l-153 253zM183 669h50l-167 -669h-50zM96 -238h-51q76 55 96 102q-4 -1 -10 -1q-13 0 -22 9t-9 21q0 20 17 37t37 17q18 0 29 -11.5t11 -30.5q0 -60 -98 -143z" />
    <glyph glyph-name="kgreenlandic" unicode="&#x138;" horiz-adv-x="421" 
d="M385 473h71l-263 -224l162 -249h-70l-153 253zM134 473h50l-118 -473h-50z" />
    <glyph glyph-name="Lacute" unicode="&#x139;" horiz-adv-x="454" 
d="M195 667h58l-154 -617h275l-12 -50h-333zM311 847h114l-166 -108h-59z" />
    <glyph glyph-name="lacute" unicode="&#x13a;" horiz-adv-x="201" 
d="M183 669h55l-167 -669h-55zM277 847h97l-143 -108h-52z" />
    <glyph glyph-name="Lcommaaccent" unicode="&#x13b;" horiz-adv-x="454" 
d="M195 667h58l-154 -617h275l-12 -50h-333zM128 -248h-53q81 60 101 107h-10q-15 0 -24 8.5t-9 22.5q0 22 17.5 39.5t39.5 17.5q18 0 30 -13t12 -32q0 -63 -104 -150z" />
    <glyph glyph-name="lcommaaccent" unicode="&#x13c;" horiz-adv-x="201" 
d="M183 669h55l-167 -669h-55zM-33 -238h-51q77 55 96 102q-4 -1 -10 -1q-12 0 -21.5 9t-9.5 21q0 20 17 37t37 17q19 0 29.5 -11t10.5 -31q0 -62 -98 -143z" />
    <glyph glyph-name="Lcaron" unicode="&#x13d;" horiz-adv-x="454" 
d="M195 667h58l-154 -617h275l-12 -50h-333zM348 485h-53q81 59 101 108q-4 -1 -10 -1q-14 0 -23.5 9t-9.5 23q0 22 17.5 39t39.5 17q19 0 30.5 -12t11.5 -32q0 -62 -104 -151z" />
    <glyph glyph-name="lcaron" unicode="&#x13e;" horiz-adv-x="266" 
d="M183 669h55l-167 -669h-55zM287 495h-51q77 56 97 102q-5 -1 -10 -1q-13 0 -22 9t-9 22q0 21 16 37t38 16q18 0 29 -11.5t11 -30.5q0 -61 -99 -143z" />
    <glyph glyph-name="Ldot" unicode="&#x13f;" horiz-adv-x="454" 
d="M195 667h58l-154 -617h275l-12 -50h-333zM371 399q20 0 33 -14t13 -35q0 -26 -19 -46t-44 -20q-20 0 -34.5 13.5t-14.5 32.5q0 27 20 48t46 21z" />
    <glyph glyph-name="ldot" unicode="&#x140;" horiz-adv-x="310" 
d="M183 669h55l-167 -669h-55zM293 399q19 0 33 -14.5t14 -34.5q0 -26 -19.5 -46t-44.5 -20q-20 0 -34 13.5t-14 32.5q0 28 19.5 48.5t45.5 20.5z" />
    <glyph glyph-name="Lslash" unicode="&#x141;" horiz-adv-x="454" 
d="M162 303l-63 -253h275l-12 -50h-333l70 280l-88 -56l16 62l87 56l81 325h58l-75 -302l185 119l-16 -62z" />
    <glyph glyph-name="lslash" unicode="&#x142;" horiz-adv-x="201" 
d="M171 397l96 60l-14 -58l-97 -60l-84 -339h-56l79 317l-90 -57l14 58l91 56l73 295h56z" />
    <glyph glyph-name="Nacute" unicode="&#x143;" horiz-adv-x="610" 
d="M195 667h63l174 -601l146 601h55l-166 -667h-64l-173 598l-146 -598h-55zM480 847h114l-167 -108h-59z" />
    <glyph glyph-name="nacute" unicode="&#x144;" horiz-adv-x="477" 
d="M121 473h50q1 -9 1 -21q0 -22 -8 -50q58 80 150 80q57 0 89.5 -27t32.5 -75q0 -29 -19 -109l-68 -271h-50l68 275q17 67 17 94q0 32 -20.5 49t-57.5 17q-73 0 -120 -60q-37 -42 -60 -136l-60 -239h-50l79 315q19 77 23 100.5t3 57.5zM368 671h91l-156 -115h-49z" />
    <glyph glyph-name="Ncommaaccent" unicode="&#x145;" horiz-adv-x="610" 
d="M195 667h63l174 -601l146 601h55l-166 -667h-64l-173 598l-146 -598h-55zM166 -248h-53q80 58 101 107h-10q-14 0 -23.5 9t-9.5 22q0 21 18 39t39 18q19 0 30.5 -12.5t11.5 -32.5q0 -64 -104 -150z" />
    <glyph glyph-name="ncommaaccent" unicode="&#x146;" horiz-adv-x="477" 
d="M121 473h50q1 -9 1 -21q0 -22 -8 -50q58 80 150 80q57 0 89.5 -27t32.5 -75q0 -29 -19 -109l-68 -271h-50l68 275q17 67 17 94q0 32 -20.5 49t-57.5 17q-73 0 -120 -60q-37 -42 -60 -136l-60 -239h-50l79 315q19 76 23 99.5t3 58.5zM102 -238h-51q76 55 97 102
q-4 -1 -10 -1q-13 0 -22 8.5t-9 21.5q0 21 16.5 37.5t37.5 16.5q18 0 29 -11.5t11 -30.5q0 -61 -99 -143z" />
    <glyph glyph-name="Ncaron" unicode="&#x147;" horiz-adv-x="610" 
d="M195 667h63l174 -601l146 601h55l-166 -667h-64l-173 598l-146 -598h-55zM468 733h-79l-87 120h55l74 -81l129 81h52z" />
    <glyph glyph-name="ncaron" unicode="&#x148;" horiz-adv-x="477" 
d="M121 473h51v-18q0 -25 -8 -53q57 80 150 80q57 0 89.5 -27t32.5 -75q0 -29 -19 -109l-68 -271h-50l68 275q17 67 17 94q0 32 -20.5 49t-57.5 17q-73 0 -120 -60q-37 -42 -60 -136l-60 -239h-50l79 315q19 78 22.5 97.5t3.5 49.5v11zM338 550h-65l-74 127h49l60 -88
l123 88h48z" />
    <glyph glyph-name="napostrophe" unicode="&#x149;" horiz-adv-x="614" 
d="M168 470h-58q39 27 68.5 58.5t40.5 57.5q-4 -1 -11 -1q-15 0 -25 9.5t-10 24.5q0 23 19 42t42 19q20 0 32.5 -13t12.5 -35q0 -34 -29.5 -76.5t-81.5 -85.5zM259 473h50q1 -9 1 -21q0 -22 -8 -50q58 80 150 80q57 0 89.5 -27t32.5 -75q0 -29 -19 -109l-68 -271h-50l68 275
q17 67 17 94q0 32 -20.5 49t-57.5 17q-73 0 -120 -60q-37 -42 -60 -136l-60 -239h-50l79 315q19 76 23 99.5t3 58.5z" />
    <glyph glyph-name="Eng" unicode="&#x14a;" horiz-adv-x="602" 
d="M196 667h55q1 -10 1 -23q0 -42 -14 -83q79 119 198 119q67 0 107.5 -36.5t40.5 -96.5q0 -46 -26 -150l-99 -398q-23 -94 -55 -130q-52 -58 -152 -58q-12 0 -21 1l13 50q4 -1 10 -1q5 1 27 3q62 7 92 54q18 27 36 101l101 404q19 80 19 120t-26.5 63.5t-73.5 23.5
q-94 0 -159 -84q-49 -64 -81 -193l-88 -353h-55l111 445q8 34 13 51q26 103 26 157v14z" />
    <glyph glyph-name="eng" unicode="&#x14b;" horiz-adv-x="477" 
d="M121 473h50q1 -9 1 -21q0 -22 -8 -50q58 80 150 80q57 0 89.5 -27t32.5 -75q0 -29 -19 -109l-60 -239q-28 -115 -58 -153q-23 -32 -62 -50t-82 -18q-11 0 -20 1l12 47h9q75 0 110 58q20 32 41 115l60 243q17 67 17 94q0 32 -20.5 49t-57.5 17q-73 0 -120 -60
q-37 -42 -60 -136l-60 -239h-50l79 315q19 76 23 99.5t3 58.5z" />
    <glyph glyph-name="Omacron" unicode="&#x14c;" horiz-adv-x="626" 
d="M407 680q96 0 150 -64t54 -178q0 -92 -32 -184t-87 -158q-93 -109 -218 -109q-98 0 -152 63t-54 177q0 94 33 189t89 160q89 104 217 104zM404 630q-111 0 -189 -118q-38 -59 -62 -139.5t-24 -152.5q0 -84 40 -133.5t108 -49.5q120 0 202 144q31 56 51 128.5t20 131.5
q0 85 -40 137t-106 52zM322 814h278l-10 -42h-278z" />
    <glyph glyph-name="omacron" unicode="&#x14d;" horiz-adv-x="484" 
d="M290 482q72 0 114 -47.5t42 -128.5q0 -67 -24 -131.5t-66 -111.5q-67 -73 -156 -73q-74 0 -116.5 47.5t-42.5 130.5q0 68 28 137.5t74 114.5q62 62 147 62zM286 435q-82 0 -138 -90q-53 -84 -53 -179q0 -59 29 -94t79 -35q78 0 135 87q54 87 54 184q0 58 -29 92.5
t-77 34.5zM227 626h222l-10 -39h-222z" />
    <glyph glyph-name="Ohungarumlaut" unicode="&#x150;" horiz-adv-x="626" 
d="M407 680q96 0 150 -64t54 -178q0 -92 -32 -184t-87 -158q-93 -109 -218 -109q-98 0 -152 63t-54 178q0 94 33.5 189t88.5 159q89 104 217 104zM404 630q-111 0 -189 -118q-38 -59 -62 -139.5t-24 -152.5q0 -84 40 -133.5t108 -49.5q120 0 202 144q31 56 51 128.5
t20 131.5q0 85 -40 137t-106 52zM443 847h94l-141 -108h-58zM583 847h94l-140 -108h-59z" />
    <glyph glyph-name="ohungarumlaut" unicode="&#x151;" horiz-adv-x="484" 
d="M290 482q72 0 114 -47.5t42 -128.5q0 -67 -24 -131.5t-66 -111.5q-67 -73 -156 -73q-74 0 -116.5 47.5t-42.5 130.5q0 68 28 137.5t74 114.5q62 62 147 62zM286 435q-82 0 -138 -90q-53 -84 -53 -179q0 -59 29 -94t79 -35q78 0 135 87q54 87 54 183q0 58 -29 93t-77 35z
M339 671h81l-141 -115h-41zM466 671h81l-141 -115h-41z" />
    <glyph glyph-name="OE" unicode="&#x152;" horiz-adv-x="917" 
d="M590 551l28 116h339l-12 -50h-284l-61 -247h264l-12 -50h-265l-67 -270h301l-13 -50h-356l18 72q-91 -85 -194 -85q-99 0 -153.5 62.5t-54.5 177.5q0 95 33 189.5t89 159.5q90 104 214 104q72 0 120 -33.5t66 -95.5zM404 630q-111 0 -189 -118q-38 -59 -62 -139.5
t-24 -152.5q0 -83 40 -133t107 -50q119 0 200 138q33 57 53 130.5t20 137.5q0 85 -39.5 136t-105.5 51z" />
    <glyph glyph-name="oe" unicode="&#x153;" horiz-adv-x="811" 
d="M759 237h-318q-9 -42 -9 -70q0 -61 29 -95.5t81 -34.5q92 0 140 114h55q-25 -79 -76 -120t-122 -41q-120 0 -153 116q-75 -116 -186 -116q-74 0 -116.5 47t-42.5 130q0 70 27.5 138.5t74.5 114.5q62 62 144 62q120 0 150 -115q75 115 186 115q70 0 109 -42.5t39 -118.5
q0 -43 -12 -84zM286 435q-82 0 -139 -90q-52 -83 -52 -179q0 -59 29 -94t79 -35q78 0 135 87q54 87 54 184q0 58 -29 92.5t-77 34.5zM453 280h261q5 25 5 42q0 53 -26.5 82.5t-74.5 29.5q-110 0 -165 -154z" />
    <glyph glyph-name="Racute" unicode="&#x154;" horiz-adv-x="541" 
d="M195 667h112q106 0 148 -18q82 -36 82 -134q0 -53 -23.5 -99t-65.5 -74q-38 -28 -106 -40l108 -302h-65l-101 296h-126l-74 -296h-55zM170 346h59q68 0 94.5 2.5t53.5 12.5q48 18 75 58t27 93q0 80 -72 98q-27 7 -109 7h-60zM425 847h114l-167 -108h-59z" />
    <glyph glyph-name="racute" unicode="&#x155;" horiz-adv-x="304" 
d="M124 473h48q1 -55 -16 -102q37 59 70.5 85t73.5 26q26 0 58 -12l-13 -52q-33 12 -53 12q-55 0 -101 -59t-72 -162l-53 -209h-50l76 304q27 111 32 169zM312 671h90l-156 -115h-49z" />
    <glyph glyph-name="Rcommaaccent" unicode="&#x156;" horiz-adv-x="541" 
d="M195 667h112q106 0 148 -18q82 -35 82 -134q0 -53 -23.5 -99t-65.5 -74q-38 -28 -106 -40l108 -302h-65l-101 296h-126l-74 -296h-55zM170 346h59q68 0 94.5 2.5t53.5 12.5q47 18 74.5 58t27.5 92q0 81 -73 99q-26 7 -108 7h-60zM145 -248h-54q82 60 102 107h-10
q-15 0 -24 8.5t-9 22.5q0 22 17.5 39.5t39.5 17.5q18 0 30 -13t12 -32q0 -63 -104 -150z" />
    <glyph glyph-name="rcommaaccent" unicode="&#x157;" horiz-adv-x="304" 
d="M125 473h48q0 -57 -17 -102q37 59 70.5 85t74.5 26q25 0 57 -12l-13 -52q-33 12 -53 12q-55 0 -101.5 -59t-71.5 -162l-52 -209h-51l76 304q29 117 33 169zM-30 -238h-51q77 55 96 102q-4 -1 -10 -1q-12 0 -21.5 9t-9.5 21q0 20 17 37t37 17q19 0 29.5 -11t10.5 -31
q0 -62 -98 -143z" />
    <glyph glyph-name="Rcaron" unicode="&#x158;" horiz-adv-x="541" 
d="M195 667h112q106 0 148 -18q82 -36 82 -134q0 -53 -23.5 -99t-65.5 -74q-38 -28 -106 -40l108 -302h-65l-101 296h-126l-74 -296h-55zM170 346h59q68 0 94.5 2.5t53.5 12.5q48 18 75 58t27 93q0 80 -72 98q-27 7 -109 7h-60zM413 733h-79l-86 120h55l74 -81l129 81h51z
" />
    <glyph glyph-name="rcaron" unicode="&#x159;" horiz-adv-x="304" 
d="M124 473h48q1 -55 -16 -102q37 59 70.5 85t73.5 26q26 0 58 -12l-13 -52q-33 12 -53 12q-55 0 -101 -59t-72 -162l-53 -209h-50l76 304q27 111 32 169zM282 550h-65l-73 127h48l61 -88l122 88h48z" />
    <glyph glyph-name="Sacute" unicode="&#x15a;" horiz-adv-x="535" 
d="M521 503h-56q1 8 1 20q0 51 -31 79t-88 28q-61 0 -99.5 -32t-38.5 -83q0 -47 35 -79q21 -20 87 -63q70 -46 92 -72q40 -46 40 -109q0 -89 -63 -147t-159 -58q-89 0 -140.5 45.5t-51.5 123.5q0 13 3 41h57q-2 -15 -2 -34q0 -59 31 -90q39 -36 106 -36q68 0 112.5 41
t44.5 104q0 44 -23 73.5t-91 73.5q-83 56 -110 91t-27 89q0 76 55 123.5t144 47.5q82 0 128 -40t46 -110q0 -7 -2 -27zM429 847h114l-166 -108h-59z" />
    <glyph glyph-name="sacute" unicode="&#x15b;" horiz-adv-x="419" 
d="M392 346h-50q1 5 1 14q0 36 -23.5 55.5t-66.5 19.5q-44 0 -73.5 -24t-29.5 -61q0 -29 24 -47q15 -11 74 -41q62 -32 83.5 -56.5t21.5 -63.5q0 -67 -50.5 -109.5t-129.5 -42.5q-77 0 -116.5 39.5t-32.5 112.5h53v-9v-20q1 -34 27.5 -55t70.5 -21q54 0 88 27.5t34 71.5
q0 26 -14 42t-57 38q-86 43 -104 63q-26 29 -26 67q0 59 45 97.5t115 38.5q64 0 100.5 -29.5t36.5 -82.5q0 -11 -1 -24zM342 671h90l-156 -115h-49z" />
    <glyph glyph-name="Scircumflex" unicode="&#x15c;" horiz-adv-x="535" 
d="M521 503h-56q1 8 1 20q0 51 -31 79t-88 28q-61 0 -99.5 -32t-38.5 -83q0 -47 35 -79q21 -20 87 -63q70 -46 92 -72q40 -46 40 -109q0 -89 -63 -147t-159 -58q-89 0 -140.5 45.5t-51.5 123.5q0 13 3 41h57q-2 -15 -2 -34q0 -59 31 -90q39 -36 106 -36q68 0 112.5 41
t44.5 104q0 44 -23 73.5t-91 73.5q-83 56 -110 91t-27 89q0 76 55 123.5t144 47.5q82 0 128 -40t46 -110q0 -7 -2 -27zM370 853h78l87 -120h-55l-74 81l-129 -81h-52z" />
    <glyph glyph-name="scircumflex" unicode="&#x15d;" horiz-adv-x="419" 
d="M392 346h-50q1 5 1 14q0 36 -23.5 55.5t-66.5 19.5q-44 0 -73.5 -24t-29.5 -61q0 -29 24 -47q15 -11 74 -41q62 -32 83.5 -56.5t21.5 -63.5q0 -67 -50.5 -109.5t-129.5 -42.5q-77 0 -116.5 39.5t-32.5 112.5h53v-9v-20q1 -34 27.5 -55t70.5 -21q54 0 88 27.5t34 71.5
q0 26 -14 42t-57 38q-86 43 -104 63q-26 29 -26 67q0 59 45 97.5t115 38.5q64 0 100.5 -29.5t36.5 -82.5q0 -11 -1 -24zM276 677h65l73 -127h-48l-61 88l-122 -88h-49z" />
    <glyph glyph-name="Scedilla" unicode="&#x15e;" horiz-adv-x="535" 
d="M250 -13l-35 -46q65 -14 65 -65q0 -37 -29.5 -59.5t-77.5 -22.5q-32 0 -68 14l8 34q31 -9 48 -9q26 0 42.5 13.5t16.5 35.5q0 36 -60 40l51 67q-69 13 -98 33q-64 48 -64 134q0 14 3 41h57q-2 -15 -2 -34q0 -61 35 -93t102 -32q69 0 113 40.5t44 103.5q0 44 -23 73.5
t-91 73.5q-83 56 -110 91t-27 89q0 76 55 123.5t144 47.5q82 0 128 -40t46 -110q0 -7 -2 -27h-56q1 8 1 20q0 51 -31 79t-88 28q-61 0 -99.5 -32t-38.5 -83q0 -47 35 -79q22 -20 87 -63q70 -46 92 -72q40 -46 40 -109q0 -51 -24.5 -96.5t-67.5 -73.5q-49 -31 -121 -35z" />
    <glyph glyph-name="scedilla" unicode="&#x15f;" horiz-adv-x="419" 
d="M187 -9l-32 -43q56 -14 56 -61q0 -33 -27 -54.5t-68 -21.5q-31 0 -65 15l8 29q31 -9 45 -9q23 0 38.5 13t15.5 33q0 34 -55 38l46 62q-66 6 -99 45.5t-26 104.5h53v-9v-20q1 -35 27 -55t71 -20q55 0 88.5 27t33.5 71q0 26 -14 42t-57 38q-86 43 -104 63q-26 29 -26 67
q0 59 45 97.5t115 38.5q64 0 100.5 -29.5t36.5 -82.5q0 -11 -1 -24h-50q1 6 1 15q0 35 -23.5 54.5t-65.5 19.5q-45 0 -74.5 -24t-29.5 -61q0 -29 24 -47q15 -11 74 -41q62 -32 83.5 -56.5t21.5 -63.5t-20.5 -73t-56.5 -54q-29 -18 -89 -24z" />
    <glyph glyph-name="Scaron" unicode="&#x160;" horiz-adv-x="535" 
d="M521 503h-56q1 8 1 20q0 51 -31 79t-88 28q-61 0 -99.5 -32t-38.5 -83q0 -47 35 -79q21 -20 87 -63q70 -46 92 -72q40 -46 40 -109q0 -89 -63 -147t-159 -58q-89 0 -140.5 45.5t-51.5 123.5q0 13 3 41h57q-2 -15 -2 -34q0 -59 31 -90q39 -36 106 -36q68 0 112.5 41
t44.5 104q0 44 -23 73.5t-91 73.5q-83 56 -110 91t-27 89q0 76 55 123.5t144 47.5q82 0 128 -40t46 -110q0 -7 -2 -27zM414 733h-79l-86 120h55l73 -81l129 81h52z" />
    <glyph glyph-name="scaron" unicode="&#x161;" horiz-adv-x="419" 
d="M392 346h-50q1 5 1 14q0 36 -23.5 55.5t-66.5 19.5q-44 0 -73.5 -24t-29.5 -61q0 -29 24 -47q15 -11 74 -41q62 -32 83.5 -56.5t21.5 -63.5q0 -67 -50.5 -109.5t-129.5 -42.5q-77 0 -116.5 39.5t-32.5 112.5h53v-9v-20q1 -34 27.5 -55t70.5 -21q54 0 88 27.5t34 71.5
q0 26 -14 42t-57 38q-86 43 -104 63q-26 29 -26 67q0 59 45 97.5t115 38.5q64 0 100.5 -29.5t36.5 -82.5q0 -11 -1 -24zM313 550h-66l-73 127h48l61 -88l122 88h49z" />
    <glyph glyph-name="Tcommaaccent" unicode="&#x162;" horiz-adv-x="446" 
d="M124 667h417l-13 -50h-181l-153 -617h-55l153 617h-181zM88 -248h-54q81 59 101 107h-10q-14 0 -23.5 9t-9.5 22q0 21 18 39t39 18q19 0 30.5 -12.5t11.5 -32.5q0 -64 -103 -150z" />
    <glyph glyph-name="tcommaaccent" unicode="&#x163;" horiz-adv-x="292" 
d="M208 473h115l-11 -43h-114l-65 -259q-20 -83 -20 -95q0 -18 12 -28.5t33 -10.5q29 0 65 14l-12 -49q-35 -12 -64 -12q-41 0 -64.5 21t-23.5 58q0 28 21 105l67 256h-69l11 43h69l34 137h50zM45 -238h-51q77 55 96 102q-4 -1 -10 -1q-12 0 -21.5 9t-9.5 21q0 20 17 37
t37 17q19 0 29.5 -11t10.5 -31q0 -62 -98 -143z" />
    <glyph glyph-name="Tcaron" unicode="&#x164;" horiz-adv-x="446" 
d="M124 667h417l-12 -50h-181l-154 -617h-55l154 617h-181zM386 733h-79l-86 120h55l74 -81l129 81h52z" />
    <glyph glyph-name="tcaron" unicode="&#x165;" horiz-adv-x="292" 
d="M208 472h114l-10 -43h-115l-64 -258q-19 -76 -19 -93q0 -41 44 -41q30 0 65 14l-12 -49q-35 -12 -64 -12q-41 0 -64.5 21t-23.5 59q0 28 21 104l67 255h-69l11 43h69l34 138h50zM314 526h-51q76 55 96 102q-4 -1 -10 -1q-13 0 -22 9t-9 21q0 20 17 37t37 17
q18 0 29 -11.5t11 -30.5q0 -60 -98 -143z" />
    <glyph glyph-name="Tbar" unicode="&#x166;" horiz-adv-x="446" 
d="M302 430h130l-12 -49h-130l-95 -381h-57l95 381h-130l12 49h130l47 187h-180l12 50h417l-12 -50h-181z" />
    <glyph glyph-name="tbar" unicode="&#x167;" horiz-adv-x="292" 
d="M178 351h111l-11 -43h-111l-34 -137q-19 -76 -19 -93q0 -41 44 -41q30 0 65 14l-12 -49q-35 -12 -64 -12q-41 0 -64.5 21t-23.5 59q0 26 21 104l35 134h-66l11 43h67l20 79h-69l11 43h69l34 137h50l-34 -137h115l-11 -43h-114z" />
    <glyph glyph-name="utilde" unicode="&#x169;" horiz-adv-x="464" 
d="M133 473h50l-74 -296q-12 -47 -12 -73q0 -31 22 -49t59 -18q64 0 112 61q29 36 47 108l66 267h50l-82 -331q-3 -10 -7.5 -28.5l-6.5 -26.5q-11 -48 -11 -87h-51v8q0 28 7 58q-54 -76 -135 -76q-54 0 -87 29t-33 76q0 29 14 90zM209 559l-34 8q42 100 104 100q28 0 59 -30
q32 -32 50 -32q33 0 55 64l36 -8q-39 -103 -102 -103q-31 0 -66 34q-29 28 -47 28q-30 0 -55 -61z" />
    <glyph glyph-name="Umacron" unicode="&#x16a;" horiz-adv-x="552" 
d="M166 667h55l-103 -416q-16 -65 -16 -102q0 -112 134 -112q112 0 164 80q15 23 23.5 49t28.5 105l98 396h55l-98 -397q-22 -92 -31.5 -119.5t-26.5 -56.5q-31 -51 -86.5 -79t-125.5 -28q-90 0 -140 40t-50 113q0 52 21 130zM286 814h278l-11 -42h-278z" />
    <glyph glyph-name="umacron" unicode="&#x16b;" horiz-adv-x="464" 
d="M133 473h50l-74 -296q-12 -51 -12 -73q0 -31 21.5 -49t58.5 -18q65 0 113 61q29 36 47 108l66 267h50l-82 -331q-19 -74 -22 -92t-3 -50h-51v8q0 30 7 58q-54 -76 -135 -76q-54 0 -87 29t-33 76q0 35 14 90zM217 626h222l-9 -39h-223z" />
    <glyph glyph-name="ubreve" unicode="&#x16d;" horiz-adv-x="464" 
d="M133 473h50l-74 -296q-12 -47 -12 -73q0 -31 22 -49t59 -18q64 0 112 61q29 36 47 108l66 267h50l-82 -331q-3 -10 -7.5 -28.5l-6.5 -26.5q-11 -48 -11 -87h-51v8q0 28 7 58q-54 -76 -135 -76q-54 0 -87 29t-33 76q0 29 14 90zM222 677h37v-10q0 -66 64 -66q34 0 55 17.5
t38 58.5h37q-13 -60 -49 -93.5t-86 -33.5q-45 0 -71.5 28t-26.5 75q0 2 0.5 5t1 8.5t0.5 10.5z" />
    <glyph glyph-name="Uring" unicode="&#x16e;" horiz-adv-x="552" 
d="M166 667h55l-103 -416q-16 -65 -16 -102q0 -112 134 -112q112 0 164 80q15 23 23.5 49t28.5 105l98 396h55l-98 -397q-22 -92 -31.5 -119.5t-26.5 -56.5q-31 -51 -86.5 -79t-125.5 -28q-90 0 -140 40t-50 113q0 48 21 130zM412 886q37 0 62.5 -26t25.5 -64
q0 -37 -26 -63.5t-63 -26.5t-63.5 26.5t-26.5 63.5q0 38 26.5 64t64.5 26zM411 846q-20 0 -35 -14.5t-15 -35.5q0 -20 15.5 -35t34.5 -15q20 0 34.5 15t14.5 35q0 21 -14.5 35.5t-34.5 14.5z" />
    <glyph glyph-name="uring" unicode="&#x16f;" horiz-adv-x="464" 
d="M133 473h50l-74 -296q-12 -47 -12 -73q0 -31 22 -49t59 -18q64 0 112 61q29 36 47 108l66 267h50l-82 -331q-3 -10 -7.5 -28.5l-6.5 -26.5q-11 -48 -11 -87h-51v8q0 28 7 58q-54 -76 -135 -76q-54 0 -87 29t-33 76q0 29 14 90zM326 710q36 0 62 -26.5t26 -63.5t-26 -63.5
t-63 -26.5t-63.5 26t-26.5 64t26.5 64t64.5 26zM325 670q-20 0 -35 -15t-15 -35t15 -35t35 -15t34.5 15t14.5 35t-14.5 35t-34.5 15z" />
    <glyph glyph-name="Uhungarumlaut" unicode="&#x170;" horiz-adv-x="552" 
d="M166 667h55l-103 -416q-16 -65 -16 -102q0 -112 134 -112q112 0 164 80q15 23 23.5 49t28.5 105l98 396h55l-98 -397q-22 -92 -31.5 -119.5t-26.5 -56.5q-31 -51 -86.5 -79t-125.5 -28q-90 0 -140 40t-50 113q0 48 21 130zM399 847h94l-140 -108h-58zM540 847h94
l-141 -108h-58z" />
    <glyph glyph-name="uhungarumlaut" unicode="&#x171;" horiz-adv-x="464" 
d="M133 473h50l-74 -296q-12 -47 -12 -73q0 -31 22 -49t59 -18q64 0 112 61q29 36 47 108l66 267h50l-82 -331q-3 -10 -7.5 -28.5l-6.5 -26.5q-11 -48 -11 -87h-51v8q0 28 7 58q-54 -76 -135 -76q-54 0 -87 29t-33 76q0 29 14 90zM326 671h80l-140 -115h-42zM452 671h81
l-140 -115h-42z" />
    <glyph glyph-name="Uogonek" unicode="&#x172;" horiz-adv-x="552" 
d="M368 -122l-11 -42q-27 -7 -46 -7q-36 0 -59.5 18.5t-23.5 47.5q0 50 73 96q-41 -4 -66 -4q-88 0 -138 40.5t-50 112.5q0 48 21 130l98 397h55l-103 -416q-16 -65 -16 -102q0 -111 134 -111q113 0 164 79q15 23 23.5 49t28.5 105l98 396h55l-98 -397l-12 -49
q-18 -79 -43 -122t-74 -79q-93 -69 -93 -113q0 -16 11.5 -26t31.5 -10q12 0 40 7z" />
    <glyph glyph-name="uogonek" unicode="&#x173;" horiz-adv-x="464" 
d="M346 3v-3q-55 -40 -71 -57t-16 -35q0 -17 12.5 -27.5t32.5 -10.5q16 0 39 4l-9 -33q-24 -8 -45 -8q-35 0 -56 17.5t-21 46.5q0 30 23.5 54t76.5 49h-17v8q0 29 7 58q-54 -76 -135 -76q-54 0 -87 29t-33 76q0 29 14 90l72 288h50l-74 -296q-12 -51 -12 -73q0 -31 22 -49
t59 -18q64 0 112 61q29 36 47 108l66 267h50l-82 -331q-26 -103 -25 -122v-6v-11z" />
    <glyph glyph-name="Wcircumflex" unicode="&#x174;" horiz-adv-x="720" 
d="M133 667h53l-23 -604l288 604h47l-9 -604l263 604h54l-304 -673h-59l7 571l-274 -571h-60zM478 853h79l87 -120h-55l-74 81l-129 -81h-52z" />
    <glyph glyph-name="Ycircumflex" unicode="&#x176;" horiz-adv-x="490" 
d="M130 667h63l76 -336l243 336h67l-294 -381l-69 -286h-55l72 286zM357 853h79l86 -120h-55l-74 81l-129 -81h-52z" />
    <glyph glyph-name="ycircumflex" unicode="&#x177;" horiz-adv-x="414" 
d="M82 473h54l28 -432l241 432h56l-252 -433q-80 -136 -121 -177q-60 -62 -147 -62q-9 0 -17 1l13 53q64 -1 98 25.5t90 120.5zM288 677h65l73 -127h-48l-61 88l-122 -88h-48z" />
    <glyph glyph-name="Ydieresis" unicode="&#x178;" horiz-adv-x="490" 
d="M130 667h63l76 -336l243 336h67l-294 -381l-69 -286h-55l72 286zM484 844q40 0 40 -40q0 -24 -15.5 -41t-38.5 -17q-18 0 -30 12t-12 30q0 22 17 39t39 17zM298 844q40 0 40 -40q0 -24 -16 -41t-38 -17q-19 0 -30.5 11.5t-11.5 30.5q0 22 17 39t39 17z" />
    <glyph glyph-name="Zacute" unicode="&#x179;" horiz-adv-x="505" 
d="M158 667h392l-8 -32l-486 -585h374l-12 -50h-444l11 44l478 573h-317zM414 847h114l-166 -108h-59z" />
    <glyph glyph-name="zacute" unicode="&#x17a;" horiz-adv-x="400" 
d="M95 473h320l-7 -35l-361 -395h281l-9 -43h-344l8 37l354 393h-251zM334 671h90l-156 -115h-49z" />
    <glyph glyph-name="Zdotaccent" unicode="&#x17b;" horiz-adv-x="505" 
d="M158 667h392l-8 -32l-486 -585h374l-12 -50h-444l11 44l478 573h-317zM382 844q40 0 40 -40q0 -25 -15.5 -41.5t-38.5 -16.5q-19 0 -30 11.5t-11 30.5q0 24 16 40t39 16z" />
    <glyph glyph-name="zdotaccent" unicode="&#x17c;" horiz-adv-x="400" 
d="M95 473h320l-7 -35l-361 -395h281l-9 -43h-344l8 37l354 393h-251zM289 659q17 0 27 -10.5t10 -26.5q0 -22 -15 -38t-35 -16q-17 0 -28 11t-11 28q0 21 15.5 36.5t36.5 15.5z" />
    <glyph glyph-name="Zcaron" unicode="&#x17d;" horiz-adv-x="505" 
d="M158 667h392l-8 -32l-486 -585h374l-12 -50h-444l11 44l478 573h-317zM402 733h-79l-86 120h55l74 -81l129 81h52z" />
    <glyph glyph-name="zcaron" unicode="&#x17e;" horiz-adv-x="400" 
d="M95 473h320l-7 -35l-361 -395h281l-9 -43h-344l8 37l354 393h-251zM301 550h-65l-74 127h49l60 -88l123 88h48z" />
    <glyph glyph-name="florin" unicode="&#x192;" horiz-adv-x="513" 
d="M407 472h99l-8 -49h-108l-131 -372q-40 -111 -68 -145q-38 -50 -98 -50q-54 0 -107 28l20 54q45 -33 86 -33q34 0 57.5 32t55.5 124l128 362h-93l8 49h102l27 76q32 93 67.5 129.5t93.5 36.5q38 0 74 -16l-18 -52q-40 20 -64 20q-32 0 -53.5 -28.5t-48.5 -104.5z" />
    <glyph glyph-name="Ohorn" unicode="&#x1a0;" horiz-adv-x="626" 
d="M604 515h-1q8 -40 8 -77q0 -92 -32 -184t-87 -158q-93 -109 -218 -109q-98 0 -152 63t-54 176q0 96 33 190.5t89 159.5q89 104 214 104q70 0 119.5 -34t70.5 -96q44 40 58 72q-4 -1 -10 -1q-14 0 -23.5 9.5t-9.5 22.5q0 22 17.5 39t39.5 17q19 0 30.5 -12t11.5 -32
q0 -63 -104 -150zM404 630q-111 0 -189 -118q-38 -59 -62 -139.5t-24 -152.5q0 -84 40 -133.5t108 -49.5q120 0 202 144q31 56 51 128.5t20 131.5q0 85 -40 137t-106 52z" />
    <glyph glyph-name="ohorn" unicode="&#x1a1;" horiz-adv-x="484" 
d="M437 375q38 35 52 66q-4 -1 -10 -1q-13 0 -22 8.5t-9 21.5q0 20 16.5 36.5t37.5 16.5q19 0 29.5 -11t10.5 -31q0 -62 -98 -142q2 -11 2 -33q0 -66 -24 -131t-67 -112q-66 -73 -155 -73q-74 0 -116.5 47t-42.5 130q0 70 27.5 138.5t74.5 114.5q64 62 145 62q55 0 94 -28.5
t55 -78.5zM286 435q-82 0 -138 -90q-53 -84 -53 -179q0 -59 29 -94t79 -35q78 0 135 87q54 87 54 183q0 58 -29 93t-77 35z" />
    <glyph glyph-name="Uhorn" unicode="&#x1af;" horiz-adv-x="552" 
d="M166 667h55l-103 -416q-16 -65 -16 -102q0 -112 134 -112q112 0 164 80q15 23 23.5 49t28.5 105l98 396h55l-98 -397q-22 -92 -31.5 -119.5t-26.5 -56.5q-31 -51 -86.5 -79t-125.5 -28q-90 0 -140 40t-50 113q0 52 21 130zM692 523h-53q81 59 101 107h-10q-14 0 -23.5 9
t-9.5 22q0 22 18 39.5t39 17.5q19 0 30.5 -12.5t11.5 -32.5q0 -63 -104 -150z" />
    <glyph glyph-name="uhorn" unicode="&#x1b0;" horiz-adv-x="464" 
d="M133 473h50l-74 -296q-12 -51 -12 -73q0 -31 22 -49t59 -18q64 0 112 61q29 36 47 108l66 267h50l-82 -331q-18 -74 -21.5 -93t-3.5 -49h-51v8q0 29 7 58q-54 -76 -135 -76q-54 0 -87 29t-33 76q0 29 14 90zM525 320h-50q76 55 96 102q-4 -1 -10 -1q-13 0 -22 8.5
t-9 21.5q0 21 16.5 37.5t37.5 16.5q18 0 29 -11.5t11 -30.5q0 -61 -99 -143z" />
    <glyph glyph-name="uni01CD" unicode="&#x1cd;" horiz-adv-x="546" 
d="M363 672h47l52 -672h-58l-13 189h-252l-109 -189h-59zM389 239l-11 180q0 6 -1.5 28t-3.5 64t-5 87q-61 -118 -96 -179l-103 -180h220zM432 733h-78l-87 120h55l74 -81l129 81h52z" />
    <glyph glyph-name="uni01CE" unicode="&#x1ce;" horiz-adv-x="457" 
d="M155 355h-54q23 65 66.5 96t113.5 31q65 0 100.5 -26t35.5 -72q0 -23 -11 -67l-46 -186q-21 -82 -21 -131h-53q0 35 6 67q-57 -77 -145 -77q-56 0 -89 31t-33 84q0 104 121 150q51 19 193 48l15 3l4 17q7 28 7 54q0 28 -22.5 43t-63.5 15q-95 0 -124 -80zM330 213l14 54
q-147 -26 -206 -61t-59 -97q0 -34 21 -53t58 -19q72 0 123 62q30 37 49 114zM337 550h-66l-73 127h48l61 -88l122 88h49z" />
    <glyph glyph-name="uni01D3" unicode="&#x1d3;" horiz-adv-x="552" 
d="M166 667h55l-103 -416q-16 -65 -16 -102q0 -112 134 -112q112 0 164 80q15 23 23.5 49t28.5 105l98 396h55l-98 -397q-22 -92 -31.5 -119.5t-26.5 -56.5q-31 -51 -86.5 -79t-125.5 -28q-90 0 -140 40t-50 113q0 48 21 130zM439 733h-79l-86 120h55l74 -81l129 81h52z" />
    <glyph glyph-name="uni01D4" unicode="&#x1d4;" horiz-adv-x="464" 
d="M133 473h50l-74 -296q-12 -47 -12 -73q0 -31 22 -49t59 -18q64 0 112 61q29 36 47 108l66 267h50l-82 -331q-3 -10 -7.5 -28.5l-6.5 -26.5q-11 -48 -11 -87h-51v8q0 28 7 58q-54 -76 -135 -76q-54 0 -87 29t-33 76q0 29 14 90zM342 550h-65l-73 127h48l61 -88l122 88h48z
" />
    <glyph glyph-name="Gcaron" unicode="&#x1e6;" horiz-adv-x="609" 
d="M381 327h185l-70 -279q-91 -61 -206 -61q-222 0 -222 235q0 98 32 192t87 159q89 107 219 107q85 0 132 -44.5t47 -124.5v-18h-58q1 59 -20 90q-32 48 -104 48q-118 0 -197 -133q-35 -58 -56 -132.5t-21 -142.5q0 -186 167 -186q76 0 150 41l50 199h-128zM467 733h-79
l-86 120h55l74 -81l129 81h52z" />
    <glyph glyph-name="gcaron" unicode="&#x1e7;" horiz-adv-x="449" 
d="M484 466l-9 -38h-100q25 -35 25 -80q0 -44 -20 -84.5t-53 -63.5q-22 -15 -45.5 -21.5t-67.5 -7.5q-107 -37 -107 -70q0 -21 58 -28q96 -11 132 -33q52 -31 52 -91q0 -68 -56 -111t-146 -43q-86 0 -137.5 36.5t-51.5 97.5q0 46 29 74.5t94 45.5q-32 19 -32 45
q0 27 25.5 46.5t92.5 42.5q-75 35 -75 114q0 78 51 131.5t125 53.5q37 0 74 -16h142zM266 439q-51 0 -87 -41t-36 -98q0 -40 23.5 -63t64.5 -23q50 0 84.5 39.5t34.5 97.5q0 41 -22.5 64.5t-61.5 23.5zM159 23q-71 0 -110.5 -24.5t-39.5 -68.5q0 -41 39 -67t102 -26
q64 0 104.5 29.5t40.5 76.5q0 80 -136 80zM342 550h-65l-73 127h48l61 -88l122 88h48z" />
    <glyph glyph-name="uni01F4" unicode="&#x1f4;" horiz-adv-x="609" 
d="M381 327h185l-70 -279q-91 -61 -206 -61q-222 0 -222 236q0 98 32 191.5t87 158.5q89 107 219 107q85 0 132 -44.5t47 -124.5v-18h-58q1 59 -20 90q-32 48 -104 48q-118 0 -197 -133q-35 -58 -56 -132.5t-21 -141.5q0 -187 165 -187q78 0 152 41l50 199h-128zM479 847
h114l-166 -108h-59z" />
    <glyph glyph-name="Scommaaccent" unicode="&#x218;" horiz-adv-x="535" 
d="M521 503h-56q1 8 1 20q0 51 -31 79t-88 28q-61 0 -99.5 -32t-38.5 -83q0 -47 35 -79q22 -20 87 -63q70 -46 92 -72q40 -46 40 -109q0 -89 -63 -147t-159 -58q-89 0 -140.5 45.5t-51.5 123.5q0 13 3 41h57q-2 -15 -2 -34q0 -59 31 -90q39 -36 106 -36q68 0 112.5 41
t44.5 104q0 44 -23 73.5t-91 73.5q-83 56 -110 91t-27 89q0 76 55 123.5t144 47.5q82 0 128 -40t46 -110q0 -7 -2 -27zM158 -248h-54q81 59 101 107h-10q-14 0 -23.5 9t-9.5 22q0 21 18 39t39 18q19 0 30.5 -12.5t11.5 -32.5q0 -64 -103 -150z" />
    <glyph glyph-name="scommaaccent" unicode="&#x219;" horiz-adv-x="419" 
d="M392 346h-50q1 5 1 14q0 36 -23.5 55.5t-66.5 19.5q-44 0 -73.5 -24t-29.5 -61q0 -29 24 -47q15 -11 74 -41q62 -32 83.5 -56.5t21.5 -63.5q0 -67 -50.5 -109.5t-129.5 -42.5q-77 0 -116.5 39.5t-32.5 112.5h53v-9v-20q1 -34 27.5 -55t70.5 -21q54 0 88 27.5t34 71.5
q0 26 -14 42t-57 38q-86 43 -104 63q-26 29 -26 67q0 59 45 97.5t115 38.5q64 0 100.5 -29.5t36.5 -82.5q0 -11 -1 -24zM97 -238h-51q76 55 96 102q-4 -1 -10 -1q-13 0 -22 9t-9 21q0 20 17 37t37 17q18 0 29 -11.5t11 -30.5q0 -60 -98 -143z" />
    <glyph glyph-name="afii57929" unicode="&#x2bc;" horiz-adv-x="251" 
d="M168 470h-58q39 27 68.5 58.5t40.5 57.5q-4 -1 -11 -1q-15 0 -25 9.5t-10 24.5q0 23 19 42t42 19q20 0 32.5 -13t12.5 -35q0 -34 -29.5 -76.5t-81.5 -85.5z" />
    <glyph glyph-name="circumflex" unicode="&#x2c6;" 
d="M324 677h65l74 -127h-49l-60 88l-123 -88h-48z" />
    <glyph glyph-name="caron" unicode="&#x2c7;" 
d="M361 550h-66l-73 127h48l61 -88l122 88h49z" />
    <glyph glyph-name="uni02C9" unicode="&#x2c9;" 
d="M239 626h222l-10 -39h-222z" />
    <glyph glyph-name="breve" unicode="&#x2d8;" 
d="M237 677h37q0 -41 14.5 -58.5t49.5 -17.5q33 0 55 18t38 58h37q-14 -60 -49.5 -93.5t-86.5 -33.5q-44 0 -70.5 28t-26.5 75q0 13 2 24z" />
    <glyph glyph-name="dotaccent" unicode="&#x2d9;" 
d="M352 659q16 0 26.5 -10.5t10.5 -26.5q0 -22 -15 -38t-35 -16q-17 0 -28 11t-11 28q0 21 15 36.5t37 15.5z" />
    <glyph glyph-name="ring" unicode="&#x2da;" 
d="M354 710q36 0 62.5 -27t26.5 -63q0 -37 -26.5 -63.5t-63.5 -26.5t-63.5 26.5t-26.5 63.5t26.5 63.5t64.5 26.5zM353 670q-20 0 -35 -15t-15 -35t15 -35t35 -15q19 0 34.5 15t15.5 35t-15.5 35t-34.5 15z" />
    <glyph glyph-name="ogonek" unicode="&#x2db;" 
d="M351 0h58q-64 -28 -88.5 -48t-24.5 -44q0 -38 44 -38q18 0 39 4l-9 -33q-23 -8 -44 -8q-35 0 -56 17t-21 46q0 64 102 104z" />
    <glyph glyph-name="tilde" unicode="&#x2dc;" 
d="M217 559l-34 8q42 100 104 100q28 0 59 -30q32 -32 50 -32q33 0 55 64l35 -8q-37 -103 -102 -103q-30 0 -65 34q-29 28 -47 28q-30 0 -55 -61z" />
    <glyph glyph-name="hungarumlaut" unicode="&#x2dd;" 
d="M320 671h81l-140 -115h-42zM447 671h81l-141 -115h-41z" />
    <glyph glyph-name="tonos" unicode="&#x384;" horiz-adv-x="250" 
d="M212 533h-44l35 174h60z" />
    <glyph glyph-name="dieresistonos" unicode="&#x385;" 
d="M461 659q17 0 27 -10.5t10 -26.5q0 -22 -15 -38t-35 -16q-17 0 -28 11t-11 28q0 22 15 37t37 15zM244 659q16 0 26.5 -10.5t10.5 -26.5q0 -22 -15 -38t-35 -16q-17 0 -28 11t-11 28q0 21 15 36.5t37 15.5zM346 533h-44l35 174h60z" />
    <glyph glyph-name="Alphatonos" unicode="&#x386;" horiz-adv-x="575" 
d="M392 672h47l52 -672h-58l-13 189h-252l-109 -189h-59zM418 239l-11 180q0 6 -1.5 28t-3.5 64t-5 87q-61 -118 -96 -179l-103 -180h220zM222 533h-44l35 174h60z" />
    <glyph glyph-name="anoteleia" unicode="&#x387;" horiz-adv-x="251" 
d="M136 290q18 0 30 -12t12 -31q0 -23 -17 -41t-39 -18q-17 0 -30 12.5t-13 28.5q0 24 17.5 42.5t39.5 18.5z" />
    <glyph glyph-name="Epsilontonos" unicode="&#x388;" horiz-adv-x="525" 
d="M207 370h265l-13 -50h-264l-68 -270h302l-13 -50h-356l166 667h339l-13 -50h-283zM139 533h-44l36 174h59z" />
    <glyph glyph-name="Etatonos" unicode="&#x389;" horiz-adv-x="633" 
d="M208 373h320l73 294h55l-166 -667h-55l81 326h-320l-81 -326h-55l166 667h55zM139 533h-44l36 174h59z" />
    <glyph glyph-name="Iotatonos" unicode="&#x38a;" horiz-adv-x="260" 
d="M118 0h-58l166 667h58zM139 533h-44l36 174h59z" />
    <glyph glyph-name="Omicrontonos" unicode="&#x38c;" horiz-adv-x="651" 
d="M432 680q96 0 150 -64t54 -178q0 -92 -32 -184t-87 -158q-93 -109 -218 -109q-98 0 -152 63t-54 177q0 94 33 189t89 160q89 104 217 104zM429 630q-111 0 -189 -118q-38 -59 -62 -139.5t-24 -152.5q0 -84 40 -133.5t108 -49.5q120 0 202 144q31 56 51 128.5t20 131.5
q0 85 -40 137t-106 52zM151 533h-44l36 174h59z" />
    <glyph glyph-name="Upsilontonos" unicode="&#x38e;" horiz-adv-x="523" 
d="M164 667h63l76 -336l243 336h67l-294 -381l-70 -286h-55l73 286zM104 533h-44l35 174h60z" />
    <glyph glyph-name="Omegatonos" unicode="&#x38f;" horiz-adv-x="687" 
d="M416 70l-5 -20h178l-12 -50h-238l26 104q98 0 175 104t77 235q0 90 -45 138.5t-129 48.5q-102 0 -179 -79q-53 -54 -82.5 -129.5t-29.5 -154.5q0 -146 125 -163l-26 -104h-238l12 50h179l5 20q-121 45 -121 202q0 96 38.5 184t106.5 146q90 78 217 78q109 0 169.5 -62
t60.5 -173q0 -73 -27.5 -150t-72.5 -129q-64 -76 -164 -96zM137 533h-44l36 174h59z" />
    <glyph glyph-name="iotadieresistonos" unicode="&#x390;" horiz-adv-x="201" 
d="M134 473h55l-118 -473h-55zM311 659q17 0 27 -10.5t10 -26.5q0 -22 -15 -38t-35 -16q-17 0 -28 11t-11 28q0 21 15.5 36.5t36.5 15.5zM94 659q37 0 37 -37q0 -23 -14.5 -38.5t-35.5 -15.5q-17 0 -28 11t-11 28q0 21 15.5 36.5t36.5 15.5zM196 533h-44l36 174h59z" />
    <glyph glyph-name="Alpha" unicode="&#x391;" horiz-adv-x="546" 
d="M363 672h47l52 -672h-58l-13 189h-252l-109 -189h-59zM389 239l-11 180q0 6 -1.5 28t-3.5 64t-5 87q-61 -118 -96 -179l-103 -180h220z" />
    <glyph glyph-name="Beta" unicode="&#x392;" horiz-adv-x="527" 
d="M195 667h100q109 0 151 -17q75 -28 75 -115q0 -66 -40 -114.5t-111 -68.5q105 -32 105 -127q0 -65 -37.5 -121t-96.5 -80q-61 -24 -199 -24h-113zM178 378h64q95 0 140 23q35 20 58 56.5t23 74.5q0 60 -57 77q-29 8 -107 8h-61zM96 50h68q64 0 93.5 4t57.5 17
q44 19 71.5 61.5t27.5 91.5q0 73 -66 93q-35 11 -102 11h-80z" />
    <glyph glyph-name="Gamma" unicode="&#x393;" horiz-adv-x="447" 
d="M240 617l-153 -617h-58l166 667h339l-13 -50h-281z" />
    <glyph glyph-name="uni0394" unicode="&#x394;" horiz-adv-x="524" 
d="M-40 0l392 672h50l55 -672h-497zM396 50l-28 369q-2 38 -5.5 98t-5.5 81q-51 -100 -96 -179l-213 -369h348z" />
    <glyph glyph-name="Epsilon" unicode="&#x395;" horiz-adv-x="494" 
d="M176 370h265l-13 -50h-264l-68 -270h302l-13 -50h-356l166 667h339l-13 -50h-283z" />
    <glyph glyph-name="Zeta" unicode="&#x396;" horiz-adv-x="505" 
d="M158 667h392l-8 -32l-486 -585h374l-12 -50h-444l11 44l478 573h-317z" />
    <glyph glyph-name="Eta" unicode="&#x397;" horiz-adv-x="602" 
d="M177 373h320l73 294h55l-166 -667h-55l81 326h-320l-81 -326h-55l166 667h55z" />
    <glyph glyph-name="Theta" unicode="&#x398;" horiz-adv-x="626" 
d="M407 680q96 0 150 -64t54 -178q0 -92 -32 -184t-87 -158q-93 -109 -218 -109q-98 0 -152 63t-54 177q0 94 33 189t89 160q89 104 217 104zM404 630q-111 0 -189 -118q-38 -59 -62 -139.5t-24 -152.5q0 -84 40 -133.5t108 -49.5q120 0 202 144q31 56 51 128.5t20 131.5
q0 85 -40 137t-106 52zM226 361h236l-12 -47h-235z" />
    <glyph glyph-name="Iota" unicode="&#x399;" horiz-adv-x="230" 
d="M87 0h-58l166 667h58z" />
    <glyph glyph-name="Kappa" unicode="&#x39a;" horiz-adv-x="561" 
d="M522 667h71l-352 -324l209 -343h-72l-206 348zM195 667h55l-166 -667h-55z" />
    <glyph glyph-name="Lambda" unicode="&#x39b;" horiz-adv-x="546" 
d="M363 672h47l52 -672h-58l-26 419q0 6 -1.5 27t-3.5 64.5t-5 87.5q-51 -100 -96 -179l-242 -419h-59z" />
    <glyph glyph-name="Mu" unicode="&#x39c;" horiz-adv-x="740" 
d="M195 667h91l41 -608l342 608h95l-167 -667h-55l161 631l-357 -631h-62l-46 631l-154 -631h-55z" />
    <glyph glyph-name="Nu" unicode="&#x39d;" horiz-adv-x="610" 
d="M195 667h63l174 -601l146 601h55l-166 -667h-64l-173 598l-146 -598h-55z" />
    <glyph glyph-name="Xi" unicode="&#x39e;" horiz-adv-x="522" 
d="M98 320l12 50h369l-12 -50h-369zM7 0l12 50h417l-12 -50h-417zM152 617l12 50h409l-13 -50h-408z" />
    <glyph glyph-name="Omicron" unicode="&#x39f;" horiz-adv-x="626" 
d="M407 680q96 0 150 -64t54 -178q0 -92 -32 -184t-87 -158q-93 -109 -218 -109q-98 0 -152 63t-54 177q0 94 33 189t89 160q89 104 217 104zM404 630q-111 0 -189 -118q-38 -59 -62 -139.5t-24 -152.5q0 -84 40 -133.5t108 -49.5q120 0 202 144q31 56 51 128.5t20 131.5
q0 85 -40 137t-106 52z" />
    <glyph glyph-name="Pi" unicode="&#x3a0;" horiz-adv-x="602" 
d="M238 620l-154 -620h-55l166 667h430l-166 -667h-55l154 620h-320z" />
    <glyph glyph-name="Rho" unicode="&#x3a1;" horiz-adv-x="503" 
d="M195 667h112q73 0 110 -7t62 -25q56 -42 56 -126q0 -67 -33.5 -123t-89.5 -82q-31 -14 -68 -19t-114 -5h-73l-70 -280h-58zM166 330h68q113 0 156 22q38 19 62.5 62.5t24.5 92.5q0 59 -34.5 84.5t-116.5 25.5h-88z" />
    <glyph glyph-name="Sigma" unicode="&#x3a3;" horiz-adv-x="442" 
d="M274 328l-152 300l10 39h403l-12 -50h-324l142 -294l-303 -273h338l-13 -50h-416l11 44z" />
    <glyph glyph-name="Tau" unicode="&#x3a4;" horiz-adv-x="446" 
d="M124 667h417l-12 -50h-181l-154 -617h-55l154 617h-181z" />
    <glyph glyph-name="Upsilon" unicode="&#x3a5;" horiz-adv-x="490" 
d="M130 667h63l76 -336l243 336h67l-294 -381l-69 -286h-55l72 286z" />
    <glyph glyph-name="Phi" unicode="&#x3a6;" horiz-adv-x="707" 
d="M435 667h55l-14 -59q98 -8 156.5 -70.5t58.5 -158.5q0 -103 -54 -183.5t-147 -114.5q-64 -25 -152 -25l-14 -56h-56l15 59q-58 2 -117 39q-98 63 -98 195q0 100 54 179t146 114q64 25 153 25zM463 561l-113 -457q74 0 133 28q67 31 108 98.5t41 146.5q0 163 -169 184z
M295 106l114 457q-124 0 -203 -76.5t-79 -195.5q0 -81 44.5 -130t123.5 -55z" />
    <glyph glyph-name="Chi" unicode="&#x3a7;" horiz-adv-x="522" 
d="M149 667h64l87 -277l229 277h66l-275 -325l122 -342h-63l-96 300l-249 -300h-63l292 348z" />
    <glyph glyph-name="Psi" unicode="&#x3a8;" horiz-adv-x="614" 
d="M445 667l-116 -467q103 2 151.5 51.5t80.5 183.5l58 232h55l-58 -232q-24 -96 -36.5 -129t-35.5 -63q-34 -44 -91 -68.5t-127 -24.5h-9l-38 -150h-58l38 151q-86 12 -132.5 56t-46.5 112q0 34 21 116l58 232h55l-63 -252q-16 -64 -16 -90q0 -108 137 -123l116 465h57z
" />
    <glyph glyph-name="uni03A9" unicode="&#x3a9;" horiz-adv-x="667" 
d="M396 70l-5 -20h178l-12 -50h-238l26 104q98 0 175 104t77 235q0 90 -45 138.5t-129 48.5q-102 0 -179 -79q-53 -54 -82.5 -129.5t-29.5 -154.5q0 -146 125 -163l-26 -104h-238l12 50h179l5 20q-121 45 -121 202q0 96 38.5 184t106.5 146q90 78 217 78q109 0 169.5 -62
t60.5 -173q0 -73 -27.5 -150t-72.5 -129q-64 -76 -164 -96z" />
    <glyph glyph-name="Iotadieresis" unicode="&#x3aa;" horiz-adv-x="230" 
d="M87 0h-58l166 667h58zM341 844q18 0 29 -11t11 -28q0 -24 -16 -41.5t-38 -17.5q-19 0 -30.5 11.5t-11.5 30.5q0 23 16.5 39.5t39.5 16.5zM188 844q18 0 29 -11t11 -28q0 -24 -16 -41.5t-38 -17.5q-19 0 -30.5 11.5t-11.5 30.5q0 23 16.5 39.5t39.5 16.5z" />
    <glyph glyph-name="Upsilondieresis" unicode="&#x3ab;" horiz-adv-x="490" 
d="M130 667h63l76 -336l243 336h67l-294 -381l-69 -286h-55l72 286zM484 844q40 0 40 -40q0 -24 -15.5 -41t-38.5 -17q-18 0 -30 12t-12 30q0 22 17 39t39 17zM298 844q40 0 40 -40q0 -24 -16 -41t-38 -17q-19 0 -30.5 11.5t-11.5 30.5q0 22 17 39t39 17z" />
    <glyph glyph-name="alphatonos" unicode="&#x3ac;" horiz-adv-x="514" 
d="M366 0l5 149q-47 -85 -93 -122t-106 -37q-62 0 -97 44.5t-35 123.5q0 130 74 227t173 97q124 0 130 -153l56 144h57l-107 -236v-237h-57zM371 235l1 44q0 155 -89 155q-56 0 -101 -48q-40 -42 -64 -104.5t-24 -123.5q0 -56 23 -88t63 -32q59 0 119 75q41 55 72 122z
M339 533h-44l36 174h59z" />
    <glyph glyph-name="epsilontonos" unicode="&#x3ad;" horiz-adv-x="432" 
d="M309 533h-43l35 174h59zM269 260l-11 -43h-46q-52 0 -78 -11q-53 -22 -53 -81q0 -39 27.5 -63.5t70.5 -24.5q100 0 134 116l54 -6q-44 -157 -191 -157q-68 0 -108.5 35.5t-40.5 96.5q0 51 32.5 84t89.5 41q-61 27 -61 93q0 59 50.5 100.5t123.5 41.5q62 0 98 -33.5
t36 -91.5q0 -17 -1 -27l-52 -6q1 10 1 27q0 83 -85 83q-49 0 -83 -28.5t-34 -69.5q0 -36 26.5 -56t75.5 -20h25z" />
    <glyph glyph-name="etatonos" unicode="&#x3ae;" horiz-adv-x="477" 
d="M121 473h51v-18q0 -24 -8 -53q58 80 150 80q57 0 89.5 -27t32.5 -75q0 -29 -19 -109l-116 -464h-50l116 468q17 67 17 94q0 32 -20.5 49t-57.5 17q-73 0 -120 -60q-37 -42 -60 -136l-60 -239h-50l79 315q18 72 22 94.5t4 52.5v11zM340 533h-44l36 174h59z" />
    <glyph glyph-name="iotatonos" unicode="&#x3af;" horiz-adv-x="201" 
d="M134 473h55l-118 -473h-55zM196 533h-44l36 174h59z" />
    <glyph glyph-name="upsilondieresistonos" unicode="&#x3b0;" horiz-adv-x="463" 
d="M133 473h50l-74 -296q-10 -42 -10 -61q0 -35 26 -57t68 -22q70 0 105 54q15 25 31 87l74 295h50l-74 -294q-18 -77 -38 -112q-44 -77 -149 -77q-68 0 -106 33t-38 91q0 20 13 71zM442 659q16 0 26.5 -10.5t10.5 -26.5q0 -22 -15 -38t-35 -16q-17 0 -28 11t-11 28
q0 21 15.5 36.5t36.5 15.5zM225 659q17 0 27 -10.5t10 -26.5q0 -22 -15 -38t-35 -16q-17 0 -28 11t-11 28q0 21 15.5 36.5t36.5 15.5zM327 533h-44l36 174h59z" />
    <glyph glyph-name="alpha" unicode="&#x3b1;" horiz-adv-x="514" 
d="M366 0l5 149q-47 -85 -93 -122t-106 -37q-62 0 -97 44.5t-35 123.5q0 130 74 227t173 97q124 0 130 -153l56 144h57l-107 -236v-237h-57zM371 235l1 44q0 156 -89 156q-55 0 -101 -49q-40 -42 -64 -104.5t-24 -123.5q0 -56 23 -88t63 -32q59 0 119 75q41 55 72 122z" />
    <glyph glyph-name="beta" unicode="&#x3b2;" horiz-adv-x="479" 
d="M87 83l-69 -276h-50l169 677q14 54 25.5 81t31.5 51q55 64 145 64q70 0 111.5 -42t41.5 -113q0 -86 -56 -134q-32 -28 -89 -36q88 -26 88 -115q0 -98 -66.5 -171t-156.5 -73q-50 0 -79.5 20.5t-45.5 66.5zM257 333l11 43h22q37 0 58 7t44 27q46 43 46 112q0 52 -28 81.5
t-77 29.5q-70 0 -108 -55q-23 -32 -39 -97l-56 -226q-14 -58 -14 -98q0 -53 27 -83.5t75 -30.5q67 0 115 57t48 135q0 85 -77 97q-13 1 -21 1h-26z" />
    <glyph glyph-name="gamma" unicode="&#x3b3;" horiz-adv-x="375" 
d="M109 -12l-40 485h53l25 -429l223 429h55l-266 -485l-45 -181h-50z" />
    <glyph glyph-name="delta" unicode="&#x3b4;" horiz-adv-x="484" 
d="M320 475l-120 157l10 37h322l-11 -43h-250l116 -161q35 -46 47 -79t12 -82q0 -102 -56 -194q-73 -120 -190 -120q-74 0 -116.5 47t-42.5 130q0 124 72 219t167 95q21 0 40 -6zM286 434q-83 0 -138 -89q-53 -84 -53 -179q0 -59 29 -94t79 -35q78 0 135 87q54 87 54 183
q0 59 -28.5 93t-77.5 34z" />
    <glyph glyph-name="epsilon" unicode="&#x3b5;" horiz-adv-x="432" 
d="M269 260l-11 -43h-46q-52 0 -78 -11q-53 -22 -53 -81q0 -39 27.5 -63.5t70.5 -24.5q100 0 134 116l54 -6q-44 -157 -191 -157q-68 0 -108.5 35.5t-40.5 96.5q0 51 32.5 84t89.5 41q-61 27 -61 93q0 59 50.5 100.5t123.5 41.5q62 0 98 -33.5t36 -91.5q0 -17 -1 -27l-52 -6
q1 10 1 27q0 83 -85 83q-49 0 -83 -28.5t-34 -69.5q0 -36 26.5 -56t75.5 -20h25z" />
    <glyph glyph-name="zeta" unicode="&#x3b6;" horiz-adv-x="389" 
d="M509 669l-10 -37q-236 -155 -321 -258t-80 -228q8 -58 35.5 -81.5t98.5 -34.5q48 -7 63.5 -18t15.5 -36q0 -55 -101 -169h-55q60 71 78.5 100t18.5 51q0 14 -10 19.5t-46 10.5q-58 9 -90 31q-63 46 -63 149q0 119 84.5 221.5t293.5 236.5h-237l11 43h314z" />
    <glyph glyph-name="eta" unicode="&#x3b7;" horiz-adv-x="477" 
d="M121 473h51v-18q0 -24 -8 -53q58 80 150 80q57 0 89.5 -27t32.5 -75q0 -29 -19 -109l-116 -464h-50l116 468q17 67 17 94q0 32 -20.5 49t-57.5 17q-73 0 -120 -60q-37 -42 -60 -136l-60 -239h-50l79 315q18 72 22 94.5t4 52.5v11z" />
    <glyph glyph-name="theta" unicode="&#x3b8;" horiz-adv-x="472" 
d="M129 355h280q14 68 14 120q0 74 -24.5 115.5t-68.5 41.5q-60 0 -113 -73t-88 -204zM398 312h-279q-14 -64 -14 -115q0 -75 24.5 -117t67.5 -42q60 0 113 72t88 202zM334 680q65 0 103 -56t38 -152q0 -142 -62 -282q-88 -200 -217 -200q-67 0 -105 55.5t-38 153.5
q0 152 71 299q87 182 210 182z" />
    <glyph glyph-name="iota" unicode="&#x3b9;" horiz-adv-x="201" 
d="M134 473h55l-118 -473h-55z" />
    <glyph glyph-name="kappa" unicode="&#x3ba;" horiz-adv-x="421" 
d="M385 473h71l-264 -228l163 -245h-70l-154 249zM184 473l-118 -473h-50l118 473h50z" />
    <glyph glyph-name="lambda" unicode="&#x3bb;" horiz-adv-x="381" 
d="M225 474l-19 195h54l65 -669h-58l-33 408l-236 -408h-58z" />
    <glyph glyph-name="uni03BC" unicode="&#x3bc;" horiz-adv-x="464" 
d="M72 28l-55 -221h-50l166 666h50l-74 -296q-12 -50 -12 -73q0 -31 22 -49t59 -18q64 0 112 61q29 36 47 108l66 267h50l-82 -331q-18 -74 -21.5 -93.5t-3.5 -48.5h-51q-1 31 7 66q-54 -76 -135 -76q-60 0 -95 38z" />
    <glyph glyph-name="nu" unicode="&#x3bd;" horiz-adv-x="385" 
d="M69 473h53l26 -429l221 429h56l-262 -480h-55z" />
    <glyph glyph-name="xi" unicode="&#x3be;" horiz-adv-x="402" 
d="M292 626h-125l10 43h307l-10 -40h-27q-94 0 -149.5 -35.5t-55.5 -95.5q0 -42 33 -68.5t85 -26.5h6l-11 -43h-28q-70 0 -107.5 -13t-68.5 -47q-53 -58 -53 -144q0 -60 37 -92q25 -22 97 -34q48 -7 63.5 -18t15.5 -37q0 -53 -105 -168h-55q65 76 83 102.5t18 48.5
q0 14 -10 19.5t-46 10.5q-61 9 -90 31q-62 45 -62 142q0 98 61 163.5t157 69.5q-36 14 -56 41t-20 59q0 87 106 132z" />
    <glyph glyph-name="omicron" unicode="&#x3bf;" horiz-adv-x="484" 
d="M290 482q72 0 114 -47.5t42 -128.5q0 -67 -24 -131.5t-66 -111.5q-67 -73 -156 -73q-74 0 -116.5 47.5t-42.5 130.5q0 68 28 137.5t74 114.5q62 62 147 62zM286 435q-82 0 -138 -90q-53 -84 -53 -179q0 -59 29 -94t79 -35q78 0 135 87q54 87 54 183q0 58 -29 93t-77 35z
" />
    <glyph glyph-name="pi" unicode="&#x3c0;" horiz-adv-x="461" 
d="M440 430l-107 -430h-50l107 430h-212l-107 -430h-50l107 430h-66l10 43h446l-11 -43h-67z" />
    <glyph glyph-name="rho" unicode="&#x3c1;" horiz-adv-x="475" 
d="M-37 -193l104 415q34 136 89 201t137 65q69 0 108 -44.5t39 -122.5q0 -65 -25 -134t-65 -116q-63 -75 -148 -75q-89 0 -120 87l-69 -276h-50zM291 441q-83 0 -136 -106q-19 -37 -32 -87t-13 -84q0 -57 25 -89t69 -32q69 0 123 84q59 92 59 196q0 54 -26 86t-69 32z" />
    <glyph glyph-name="uni03C2" unicode="&#x3c2;" horiz-adv-x="435" 
d="M416 320h-51q2 15 2 29q0 40 -22.5 63t-61.5 23q-60 0 -109 -55.5t-70 -146.5q-19 -92 11 -145q14 -26 38 -38t79 -20q47 -8 63 -19.5t16 -36.5q0 -52 -102 -167h-55q60 69 79 98.5t19 51.5q0 14 -10 19.5t-46 11.5q-59 8 -90 30q-63 45 -63 151q0 64 23 127t64 110
q68 76 156 76q62 0 97.5 -35t35.5 -96q0 -10 -3 -31z" />
    <glyph glyph-name="sigma" unicode="&#x3c3;" horiz-adv-x="484" 
d="M536 472l-11 -43q-24 -1 -55 -1q-44 0 -75 6q51 -37 51 -129q0 -103 -56 -195q-73 -120 -190 -120q-74 0 -116.5 47t-42.5 130q0 87 41.5 168.5t104.5 119.5q48 27 104 27q14 0 58 -4q58 -7 138 -7q27 0 49 1zM286 435q-82 0 -138 -90q-53 -84 -53 -179q0 -59 29 -94
t79 -35q78 0 135 87q54 87 54 183q0 58 -29 93t-77 35z" />
    <glyph glyph-name="tau" unicode="&#x3c4;" horiz-adv-x="301" 
d="M227 430l-107 -430h-50l107 430h-140l11 43h330l-11 -43h-140z" />
    <glyph glyph-name="upsilon" unicode="&#x3c5;" horiz-adv-x="463" 
d="M133 473h50l-74 -296q-10 -42 -10 -61q0 -35 26 -57t68 -22q70 0 105 54q15 25 31 87l74 295h50l-74 -294q-18 -77 -38 -112q-44 -77 -149 -77q-68 0 -106 33t-38 91q0 20 13 71z" />
    <glyph glyph-name="phi" unicode="&#x3c6;" horiz-adv-x="569" 
d="M360 432l-98 -395q65 1 115 35q46 31 73.5 89.5t27.5 123.5q0 61 -30.5 98.5t-87.5 48.5zM212 40l98 395q-69 -1 -115 -32q-44 -29 -72 -89.5t-28 -126.5q0 -61 31 -100.5t86 -46.5zM154 -193l46 185q-75 9 -117 60t-42 133q0 98 46 174.5t123 105.5q46 18 112 18l47 186
h51l-48 -190q77 -13 118.5 -61.5t41.5 -126.5q0 -54 -19 -111.5t-48 -95.5q-38 -49 -88 -71t-127 -23l-46 -183h-50z" />
    <glyph glyph-name="chi" unicode="&#x3c7;" horiz-adv-x="373" 
d="M197 159l76 -352h-55l-62 302l-215 -302h-54l254 352l-65 314h53l52 -264l186 264h56z" />
    <glyph glyph-name="psi" unicode="&#x3c8;" horiz-adv-x="586" 
d="M163 -193l46 186q-71 10 -112 50t-41 100q0 26 8 54l68 276h50l-68 -275q-5 -18 -5 -47q0 -46 29 -75.5t83 -36.5l108 434h50l-108 -435q149 6 186 160l69 275h50l-69 -276q-43 -205 -248 -207l-46 -183h-50z" />
    <glyph glyph-name="omega" unicode="&#x3c9;" horiz-adv-x="613" 
d="M453 435l12 47q51 0 81 -41.5t30 -111.5q0 -74 -26.5 -152t-67.5 -124q-54 -63 -121 -63q-68 0 -90 65q-45 -65 -114 -65q-54 0 -84 42t-30 116q0 67 26 141.5t66 122.5q59 70 138 70l-12 -47q-60 -5 -107 -88q-25 -44 -40.5 -101t-15.5 -105q0 -49 17.5 -76.5
t48.5 -27.5q70 0 103 134l28 112h55l-28 -112q-11 -47 -11 -71q0 -29 15 -46t40 -17q57 0 106.5 91.5t49.5 196.5q0 50 -18.5 79t-50.5 31z" />
    <glyph glyph-name="iotadieresis" unicode="&#x3ca;" horiz-adv-x="201" 
d="M134 473h55l-118 -473h-55zM268 659q16 0 26.5 -10.5t10.5 -26.5q0 -22 -15 -38t-35 -16q-17 0 -28 11t-11 28q0 22 15 37t37 15zM135 659q37 0 37 -37q0 -23 -14.5 -38.5t-35.5 -15.5q-17 0 -28 11t-11 28q0 21 15.5 36.5t36.5 15.5z" />
    <glyph glyph-name="upsilondieresis" unicode="&#x3cb;" horiz-adv-x="463" 
d="M133 473h50l-74 -296q-10 -42 -10 -61q0 -35 26 -57t68 -22q70 0 105 54q15 25 31 87l74 295h50l-74 -294q-18 -77 -38 -112q-44 -77 -149 -77q-68 0 -106 33t-38 91q0 20 13 71zM409 659q37 0 37 -37q0 -23 -14.5 -38.5t-35.5 -15.5q-17 0 -27.5 10.5t-10.5 28.5
q0 22 15 37t36 15zM237 659q17 0 27 -10.5t10 -26.5q0 -22 -15 -38t-35 -16q-17 0 -28 11t-11 28q0 21 15.5 36.5t36.5 15.5z" />
    <glyph glyph-name="omicrontonos" unicode="&#x3cc;" horiz-adv-x="484" 
d="M290 482q72 0 114 -47.5t42 -128.5q0 -67 -24 -131.5t-66 -111.5q-67 -73 -156 -73q-74 0 -116.5 47.5t-42.5 130.5q0 68 28 137.5t74 114.5q62 62 147 62zM286 435q-82 0 -138 -90q-53 -84 -53 -179q0 -59 29 -94t79 -35q78 0 135 87q54 87 54 183q0 58 -29 93t-77 35z
M344 533h-44l35 174h60z" />
    <glyph glyph-name="upsilontonos" unicode="&#x3cd;" horiz-adv-x="463" 
d="M133 473h50l-74 -296q-10 -42 -10 -61q0 -35 26 -57t68 -22q70 0 105 54q15 25 31 87l74 295h50l-74 -294q-18 -77 -38 -112q-44 -77 -149 -77q-68 0 -106 33t-38 91q0 20 13 71zM330 533h-44l36 174h59z" />
    <glyph glyph-name="omegatonos" unicode="&#x3ce;" horiz-adv-x="613" 
d="M453 435l12 47q51 0 81 -41.5t30 -111.5q0 -74 -26.5 -152t-67.5 -124q-54 -63 -121 -63q-68 0 -90 65q-45 -65 -114 -65q-54 0 -84 42t-30 116q0 67 26 141.5t66 122.5q59 70 138 70l-12 -47q-60 -5 -107 -88q-25 -44 -40.5 -101t-15.5 -105q0 -49 17.5 -76.5
t48.5 -27.5q70 0 103 134l28 112h55l-28 -112q-11 -47 -11 -71q0 -29 15 -46t40 -17q57 0 106.5 91.5t49.5 196.5q0 50 -18.5 79t-50.5 31zM406 533h-44l35 174h60z" />
    <glyph glyph-name="theta1" unicode="&#x3d1;" horiz-adv-x="497" 
d="M417 396h-12h-12q-91 0 -144 20q-47 17 -73 52.5t-26 81.5q0 57 38 93.5t98 36.5q82 0 134.5 -63.5t52.5 -162.5v-15h56l-11 -43h-49q-20 -120 -75 -226q-46 -88 -106.5 -135t-127.5 -47q-52 0 -83 28.5t-31 76.5q0 28 10 71l6 23h-56l11 44h108l-17 -66q-8 -35 -8 -58
q0 -32 21 -52t55 -20q78 0 146 102t95 259zM422 439v2v2q0 81 -38.5 134.5t-97.5 53.5q-36 0 -59 -22.5t-23 -58.5q0 -44 36 -72t101 -36q25 -3 81 -3z" />
    <glyph glyph-name="Upsilon1" unicode="&#x3d2;" horiz-adv-x="456" 
d="M208 0h-55l37 148q31 123 31 208q0 194 -134 276l40 47q142 -99 142 -271q0 -32 -3 -60q86 237 275 331l22 -47q-122 -65 -197 -179t-121 -305z" />
    <glyph glyph-name="phi1" unicode="&#x3d5;" horiz-adv-x="569" 
d="M360 432l-99 -395q66 1 116 35q45 31 72.5 89t27.5 124q0 125 -117 147zM212 40l110 443q209 -8 209 -193q0 -90 -40.5 -164.5t-107.5 -108.5q-50 -26 -134 -27l-45 -183h-50l46 185q-75 8 -117 59t-42 134q0 66 24 128t65 101q27 25 65 44l19 -35q-47 -33 -72 -72
q-47 -72 -47 -164q0 -61 32 -100.5t85 -46.5z" />
    <glyph glyph-name="afii10023" unicode="&#x401;" horiz-adv-x="494" 
d="M176 370h265l-13 -50h-264l-68 -270h302l-13 -50h-356l166 667h339l-13 -50h-283zM493 844q18 0 29 -11t11 -28q0 -25 -15.5 -42t-38.5 -17q-19 0 -30.5 11.5t-11.5 30.5q0 23 16.5 39.5t39.5 16.5zM307 844q18 0 29 -11t11 -28q0 -24 -16 -41.5t-38 -17.5
q-19 0 -30.5 11.5t-11.5 30.5q0 23 16.5 39.5t39.5 16.5z" />
    <glyph glyph-name="afii10051" unicode="&#x402;" horiz-adv-x="529" 
d="M321 617l-58 -236q79 54 183 54q69 0 105.5 -27.5t36.5 -79.5q0 -28 -20 -108l-46 -188q-21 -81 -36 -114.5t-41 -58.5q-29 -27 -64 -37t-98 -10h-9l11 47h8h11q3 0 6 -1q76 5 105.5 37.5t54.5 136.5l47 191q11 40 11 84q0 81 -97 81q-115 0 -186 -76l-77 -312h-57
l154 617h-135l13 50h402l-12 -50h-212z" />
    <glyph glyph-name="afii10052" unicode="&#x403;" horiz-adv-x="447" 
d="M240 617l-153 -617h-58l166 667h339l-13 -50h-281zM451 847h114l-167 -108h-59z" />
    <glyph glyph-name="afii10053" unicode="&#x404;" horiz-adv-x="605" 
d="M148 360h251l-13 -50h-249q-8 -51 -8 -84q0 -89 40 -139t111 -50q72 0 127.5 48.5t81.5 134.5h60q-31 -113 -100.5 -173t-169.5 -60q-101 0 -156 62.5t-55 178.5q0 93 32 186t86 158q90 108 218 108q85 0 133 -45t48 -124v-7v-11h-57q-1 4 -1 9q0 2 1 5q2 19 -7.5 46
t-23.5 43q-34 34 -96 34q-84 0 -151 -72t-102 -198z" />
    <glyph glyph-name="afii10054" unicode="&#x405;" horiz-adv-x="535" 
d="M521 503h-56q1 8 1 20q0 51 -31 79t-88 28q-61 0 -99.5 -32t-38.5 -83q0 -47 35 -79q22 -20 87 -63q70 -46 92 -72q40 -46 40 -109q0 -89 -63 -147t-159 -58q-89 0 -140.5 45.5t-51.5 123.5q0 13 3 41h57q-2 -15 -2 -34q0 -59 31 -90q39 -36 106 -36q68 0 112.5 41
t44.5 104q0 44 -23 73.5t-91 73.5q-83 56 -110 91t-27 89q0 76 55 123.5t144 47.5q82 0 128 -40t46 -110q0 -7 -2 -27z" />
    <glyph glyph-name="afii10055" unicode="&#x406;" horiz-adv-x="230" 
d="M87 0h-58l166 667h58z" />
    <glyph glyph-name="afii10056" unicode="&#x407;" horiz-adv-x="230" 
d="M87 0h-58l166 667h58zM341 844q18 0 29 -11t11 -28q0 -24 -16 -41.5t-38 -17.5q-19 0 -30.5 11.5t-11.5 30.5q0 23 16.5 39.5t39.5 16.5zM188 844q18 0 29 -11t11 -28q0 -24 -16 -41.5t-38 -17.5q-19 0 -30.5 11.5t-11.5 30.5q0 23 16.5 39.5t39.5 16.5z" />
    <glyph glyph-name="afii10057" unicode="&#x408;" horiz-adv-x="273" 
d="M241 667h57l-132 -532q-19 -74 -30 -101.5t-30 -48.5q-54 -57 -152 -57q-12 0 -21 1l12 50h11h5q68 0 104 44q22 30 43 113z" />
    <glyph glyph-name="afii10058" unicode="&#x409;" horiz-adv-x="833" 
d="M518 387h87q95 0 139 -32q56 -42 56 -126q0 -67 -33.5 -123t-89.5 -82q-30 -14 -67.5 -19t-113.5 -5h-132l157 620h-223l-164 -472q-25 -86 -65.5 -119.5t-118.5 -32.5l13 51q51 2 75.5 26.5t47.5 96.5l169 497h333zM506 337l-72 -287h66q112 0 155 22q39 19 63 62t24 93
q0 72 -53 96q-29 14 -97 14h-86z" />
    <glyph glyph-name="afii10059" unicode="&#x40a;" horiz-adv-x="872" 
d="M179 379h319l72 288h58l-72 -288h87q95 0 139 -32q57 -40 57 -123q0 -65 -33.5 -120t-88.5 -80q-31 -14 -68 -19t-113 -5h-132l83 332h-320l-83 -332h-55l166 667h55zM544 332l-70 -282h66q113 0 155 21q39 20 62.5 61.5t23.5 90.5q0 60 -34 84.5t-117 24.5h-86z" />
    <glyph glyph-name="afii10060" unicode="&#x40b;" horiz-adv-x="529" 
d="M217 357l13 9q76 51 172 51q66 0 104 -31t38 -86q0 -32 -15 -92l-52 -208h-56l48 195q14 53 14 93q0 32 -29.5 53t-73.5 21q-96 0 -181 -74l-71 -288h-57l154 617h-135l13 50h402l-12 -50h-212z" />
    <glyph glyph-name="afii10061" unicode="&#x40c;" horiz-adv-x="561" 
d="M522 667h71l-352 -324l209 -343h-72l-206 348zM195 667h55l-166 -667h-55zM465 847h114l-167 -108h-59z" />
    <glyph glyph-name="afii10062" unicode="&#x40e;" horiz-adv-x="479" 
d="M255 268l261 399h63l-451 -667h-60l150 214l-88 453h61zM261 853h37v-8q0 -55 77 -55q71 0 107 63h37q-15 -57 -54 -88.5t-95 -31.5q-52 0 -81 26t-29 72q0 16 1 22z" />
    <glyph glyph-name="afii10145" unicode="&#x40f;" horiz-adv-x="602" 
d="M271 0l-24 -100h-55l24 100h-187l166 667h55l-154 -620h320l154 620h55l-166 -667h-188z" />
    <glyph glyph-name="afii10017" unicode="&#x410;" horiz-adv-x="546" 
d="M363 672h47l52 -672h-58l-13 189h-252l-109 -189h-59zM389 239l-11 180q0 6 -1.5 28t-3.5 64t-5 87q-61 -118 -96 -179l-103 -180h220z" />
    <glyph glyph-name="afii10018" unicode="&#x411;" horiz-adv-x="503" 
d="M526 667l-12 -50h-274l-57 -230h87q95 0 139 -32q56 -42 56 -126q0 -67 -33.5 -123t-89.5 -82q-30 -14 -67.5 -19t-113.5 -5h-132l166 667h331zM171 337l-72 -287h66q112 0 155 22q39 19 63 62t24 93q0 72 -52 96q-31 14 -98 14h-86z" />
    <glyph glyph-name="afii10019" unicode="&#x412;" horiz-adv-x="527" 
d="M195 667h100q109 0 151 -17q75 -28 75 -115q0 -66 -40 -114.5t-111 -68.5q105 -32 105 -127q0 -65 -37.5 -121t-96.5 -80q-61 -24 -199 -24h-113zM178 378h64q95 0 140 23q35 20 58 56.5t23 74.5q0 60 -57 77q-29 8 -107 8h-61zM96 50h68q64 0 93.5 4t57.5 17
q44 19 71.5 61.5t27.5 91.5q0 73 -66 93q-35 11 -102 11h-80z" />
    <glyph glyph-name="afii10020" unicode="&#x413;" horiz-adv-x="447" 
d="M240 617l-153 -617h-58l166 667h339l-13 -50h-281z" />
    <glyph glyph-name="afii10021" unicode="&#x414;" horiz-adv-x="572" 
d="M441 47h52l-37 -147h-55l25 100h-413l-25 -100h-55l37 147h8q41 0 67 27.5t49 95.5l169 497h332zM386 47l143 573h-224l-164 -472q-24 -73 -56 -101h301z" />
    <glyph glyph-name="afii10022" unicode="&#x415;" horiz-adv-x="494" 
d="M176 370h265l-13 -50h-264l-68 -270h302l-13 -50h-356l166 667h339l-13 -50h-283z" />
    <glyph glyph-name="afii10024" unicode="&#x416;" horiz-adv-x="709" 
d="M430 667h55l-73 -294h61l268 294h68l-295 -319l148 -348h-64l-134 326h-64l-81 -326h-55l81 326h-60l-282 -326h-70l312 355l-140 312h63l126 -294h63z" />
    <glyph glyph-name="afii10025" unicode="&#x417;" horiz-adv-x="566" 
d="M267 360h77q65 0 108 42.5t43 106.5q0 54 -34.5 87t-92.5 33q-60 0 -107 -36.5t-68 -99.5h-61q29 90 93 138.5t153 48.5q81 0 129.5 -45t48.5 -121q0 -73 -45.5 -123t-120.5 -60q48 -13 74.5 -50t26.5 -90q0 -47 -23 -91t-61 -72q-56 -41 -145 -41q-114 0 -168 74
q-41 57 -41 144v15h59q0 -76 20 -112q40 -71 134 -71q70 0 117 45.5t47 112.5q0 53 -34 84t-92 31h-49z" />
    <glyph glyph-name="afii10026" unicode="&#x418;" horiz-adv-x="610" 
d="M27 0l166 667h54l-137 -549l469 496l13 53h53l-166 -667h-53l132 531l-467 -491l-10 -40h-54z" />
    <glyph glyph-name="afii10027" unicode="&#x419;" horiz-adv-x="610" 
d="M324 853h37q-1 -3 -1 -8q0 -26 20.5 -40.5t56.5 -14.5q73 0 107 63h37q-15 -57 -54 -88.5t-94 -31.5q-52 0 -81.5 26t-29.5 72q0 12 2 22zM27 0l166 667h54l-137 -549l469 496l13 53h53l-166 -667h-53l132 531l-467 -491l-10 -40h-54z" />
    <glyph glyph-name="afii10028" unicode="&#x41a;" horiz-adv-x="561" 
d="M522 667h71l-352 -324l209 -343h-72l-206 348zM195 667h55l-166 -667h-55z" />
    <glyph glyph-name="afii10029" unicode="&#x41b;" horiz-adv-x="564" 
d="M298 620l-164 -472q-25 -86 -65.5 -119.5t-118.5 -32.5l13 51q51 2 75.5 26.5t47.5 96.5l169 497h333l-166 -667h-55l154 620h-223z" />
    <glyph glyph-name="afii10030" unicode="&#x41c;" horiz-adv-x="740" 
d="M195 667h91l41 -608l342 608h95l-167 -667h-55l161 631l-357 -631h-62l-46 631l-154 -631h-55z" />
    <glyph glyph-name="afii10031" unicode="&#x41d;" horiz-adv-x="602" 
d="M177 373h320l73 294h55l-166 -667h-55l81 326h-320l-81 -326h-55l166 667h55z" />
    <glyph glyph-name="afii10032" unicode="&#x41e;" horiz-adv-x="626" 
d="M407 680q96 0 150 -64t54 -178q0 -92 -32 -184t-87 -158q-93 -109 -218 -109q-98 0 -152 63t-54 177q0 94 33 189t89 160q89 104 217 104zM404 630q-111 0 -189 -118q-38 -59 -62 -139.5t-24 -152.5q0 -84 40 -133.5t108 -49.5q120 0 202 144q31 56 51 128.5t20 131.5
q0 85 -40 137t-106 52z" />
    <glyph glyph-name="afii10033" unicode="&#x41f;" horiz-adv-x="602" 
d="M238 620l-154 -620h-55l166 667h430l-166 -667h-55l154 620h-320z" />
    <glyph glyph-name="afii10034" unicode="&#x420;" horiz-adv-x="503" 
d="M195 667h112q73 0 110 -7t62 -25q56 -42 56 -126q0 -67 -33.5 -123t-89.5 -82q-31 -14 -68 -19t-114 -5h-73l-70 -280h-58zM166 330h68q113 0 156 22q38 19 62.5 62.5t24.5 92.5q0 59 -34.5 84.5t-116.5 25.5h-88z" />
    <glyph glyph-name="afii10035" unicode="&#x421;" horiz-adv-x="605" 
d="M585 493h-57q-1 4 -1 9q0 2 1 5q2 19 -7.5 46t-23.5 43q-34 34 -96 34q-119 0 -199 -138q-33 -56 -53 -129t-20 -136q0 -90 40 -140t111 -50q72 0 127.5 48.5t81.5 134.5h60q-31 -113 -100.5 -173t-169.5 -60q-101 0 -156 62.5t-55 178.5q0 93 32 186t86 158
q90 108 218 108q85 0 133 -45t48 -124v-7v-11z" />
    <glyph glyph-name="afii10036" unicode="&#x422;" horiz-adv-x="446" 
d="M124 667h417l-12 -50h-181l-154 -617h-55l154 617h-181z" />
    <glyph glyph-name="afii10037" unicode="&#x423;" horiz-adv-x="479" 
d="M255 268l261 399h63l-451 -667h-60l150 214l-88 453h61z" />
    <glyph glyph-name="afii10038" unicode="&#x424;" horiz-adv-x="707" 
d="M435 667h55l-14 -59q98 -8 156.5 -70.5t58.5 -158.5q0 -103 -54 -183.5t-147 -114.5q-64 -25 -152 -25l-14 -56h-56l15 59q-58 2 -117 39q-98 63 -98 195q0 100 54 179t146 114q64 25 153 25zM463 561l-113 -457q74 0 133 28q67 31 108 98.5t41 146.5q0 163 -169 184z
M295 106l114 457q-124 0 -203 -76.5t-79 -195.5q0 -81 44.5 -130t123.5 -55z" />
    <glyph glyph-name="afii10039" unicode="&#x425;" horiz-adv-x="522" 
d="M149 667h64l87 -277l229 277h66l-275 -325l122 -342h-63l-96 300l-249 -300h-63l292 348z" />
    <glyph glyph-name="afii10040" unicode="&#x426;" horiz-adv-x="602" 
d="M416 47l154 620h55l-154 -620h51l-36 -147h-55l25 100h-427l166 667h55l-154 -620h320z" />
    <glyph glyph-name="afii10041" unicode="&#x427;" horiz-adv-x="531" 
d="M331 0l69 279q-74 -58 -176 -58q-80 0 -127 33q-42 28 -42 91q0 35 9 70l62 252h58l-60 -240q-9 -37 -9 -74q0 -76 99 -76q139 0 209 92l74 298h58l-166 -667h-58z" />
    <glyph glyph-name="afii10042" unicode="&#x428;" horiz-adv-x="856" 
d="M669 47l155 620h55l-166 -667h-684l166 667h55l-154 -620h259l155 620h55l-155 -620h259z" />
    <glyph glyph-name="afii10043" unicode="&#x429;" horiz-adv-x="856" 
d="M669 47l155 620h55l-155 -620h52l-37 -147h-55l25 100h-680l166 667h55l-154 -620h259l155 620h55l-155 -620h259z" />
    <glyph glyph-name="afii10044" unicode="&#x42a;" horiz-adv-x="572" 
d="M257 617h-177l12 50h235l-70 -280h87q195 0 195 -158q0 -67 -33.5 -123t-88.5 -82q-31 -14 -68.5 -19t-113.5 -5h-132zM245 337l-72 -287h66q114 0 155 22q39 20 63 62.5t24 92.5q0 60 -34 85t-116 25h-86z" />
    <glyph glyph-name="afii10045" unicode="&#x42b;" horiz-adv-x="704" 
d="M183 387h87q95 0 139 -32q56 -42 56 -126q0 -67 -33.5 -123t-89.5 -82q-30 -14 -67.5 -19t-113.5 -5h-132l166 667h58zM171 337l-72 -287h66q112 0 155 22q39 19 63 62t24 93q0 72 -52 96q-31 14 -98 14h-86zM561 0h-57l166 667h58z" />
    <glyph glyph-name="afii10046" unicode="&#x42c;" horiz-adv-x="498" 
d="M183 387h87q95 0 139 -32q56 -42 56 -126q0 -67 -33.5 -123t-89.5 -82q-30 -14 -67.5 -19t-113.5 -5h-132l166 667h58zM171 337l-72 -287h66q112 0 155 22q39 19 63 62t24 93q0 72 -52 96q-31 14 -98 14h-86z" />
    <glyph glyph-name="afii10047" unicode="&#x42d;" horiz-adv-x="601" 
d="M267 360h252q5 29 5 64q0 99 -40 152t-116 53q-59 0 -106.5 -37t-68.5 -99h-61q29 89 92.5 138t149.5 49q97 0 154.5 -67.5t57.5 -182.5q0 -85 -33 -179t-84 -156q-89 -108 -216 -108q-93 0 -146.5 58t-53.5 160v15h59q0 -76 20 -112q39 -71 125 -71q85 0 153.5 74
t99.5 199h-255z" />
    <glyph glyph-name="afii10048" unicode="&#x42e;" horiz-adv-x="827" 
d="M177 373h112q39 144 123 225.5t194 81.5q98 0 152 -63.5t54 -178.5q0 -92 -32 -184t-87 -157q-92 -110 -218 -110q-96 0 -151 62t-55 171q0 49 9 106h-113l-81 -326h-55l166 667h55zM605 630q-111 0 -189 -118q-38 -59 -62 -139.5t-24 -152.5q0 -84 40 -133.5t108 -49.5
q120 0 202 144q31 56 51 128.5t20 131.5q0 85 -40 137t-106 52z" />
    <glyph glyph-name="afii10049" unicode="&#x42f;" horiz-adv-x="539" 
d="M287 297l-246 -297h-68l253 307q-99 29 -99 140q0 65 33 118.5t89 78.5q32 14 69 18.5t113 4.5h131l-166 -667h-57l73 296h-90q-23 0 -35 1zM425 346l67 271h-65q-112 0 -156 -20q-39 -19 -62.5 -59t-23.5 -88q0 -57 34 -80.5t116 -23.5h90z" />
    <glyph glyph-name="afii10065" unicode="&#x430;" horiz-adv-x="457" 
d="M155 355h-54q44 127 180 127q65 0 100.5 -26t35.5 -73q0 -26 -11 -66l-46 -186q-21 -84 -21 -131h-53q0 36 6 67q-57 -77 -145 -77q-56 0 -89 31t-33 84q0 104 121 150q51 19 193 48l15 3l4 17q7 28 7 54q0 28 -22.5 43t-63.5 15q-95 0 -124 -80zM330 213l14 54
q-147 -26 -206 -61t-59 -97q0 -34 21 -53t58 -19q72 0 123 62q30 37 49 114z" />
    <glyph glyph-name="afii10066" unicode="&#x431;" horiz-adv-x="484" 
d="M498 682l-12 -47q-20 -14 -48 -14q-17 0 -45 7q-21 5 -35 5q-45 0 -89 -39q-28 -25 -61 -77t-56 -106q55 71 140 71q72 0 113.5 -47t41.5 -129q0 -65 -24.5 -131t-66.5 -112q-67 -73 -156 -73q-73 0 -116 47.5t-43 127.5q0 76 39 192.5t91 194.5q84 128 188 128
q16 0 63 -9q12 -2 28 -2q26 0 48 13zM286 435q-91 0 -148 -108q-43 -79 -43 -158q0 -61 29 -96.5t79 -35.5q79 0 135 87q55 87 55 183q0 58 -29.5 93t-77.5 35z" />
    <glyph glyph-name="afii10067" unicode="&#x432;" horiz-adv-x="401" 
d="M134 473h117q63 0 96 -28.5t33 -82.5q0 -102 -106 -122q73 -23 73 -100q0 -40 -20.5 -73.5t-54.5 -50.5q-35 -16 -101 -16h-155zM132 263h64q54 0 81 14q22 12 35.5 35t13.5 49q0 69 -74 69h-79zM77 43h88q50 0 74 10t39 35.5t15 54.5q0 52 -41 70q-15 7 -63 7h-68z" />
    <glyph glyph-name="afii10068" unicode="&#x433;" horiz-adv-x="331" 
d="M173 430l-107 -430h-50l118 473h251l-11 -43h-201z" />
    <glyph glyph-name="afii10069" unicode="&#x434;" horiz-adv-x="454" 
d="M179 473h265l-107 -430h45l-36 -143h-50l25 100h-326l-25 -100h-50l36 143q46 0 70 24.5t46 91.5zM58 43h229l96 387h-165l-102 -292q-24 -75 -58 -95z" />
    <glyph glyph-name="afii10070" unicode="&#x435;" horiz-adv-x="476" 
d="M424 237h-318q-10 -37 -10 -70q0 -61 29.5 -95.5t80.5 -34.5q48 0 81.5 27.5t58.5 86.5h56q-52 -161 -199 -161q-75 0 -118 46t-43 128q0 68 23.5 133t65.5 111q67 74 156 74q70 0 109 -42.5t39 -118.5q0 -45 -11 -84zM118 280h260q5 24 5 42q0 53 -26 82.5t-74 29.5
q-110 0 -165 -154z" />
    <glyph glyph-name="afii10072" unicode="&#x436;" horiz-adv-x="551" 
d="M314 473h50l-50 -199h51l181 199h65l-208 -223l107 -250h-60l-96 231h-51l-57 -231h-50l57 231h-52l-198 -231h-66l226 258l-97 215h61l85 -199h52z" />
    <glyph glyph-name="afii10073" unicode="&#x437;" horiz-adv-x="422" 
d="M177 260h34q41 0 61 5t39 19q30 23 30 69q0 38 -24 60t-66 22q-100 0 -133 -113l-50 10q16 71 65.5 110.5t122.5 39.5q63 0 101 -33.5t38 -89.5q0 -51 -28 -82.5t-81 -39.5q74 -27 74 -98q0 -68 -44.5 -108.5t-120.5 -40.5q-87 0 -130 52q-31 38 -38 108l54 9
q1 -59 29.5 -90t81.5 -31q54 0 84 27t30 76q0 76 -95 76h-45z" />
    <glyph glyph-name="afii10074" unicode="&#x438;" horiz-adv-x="477" 
d="M426 473h51l-118 -473h-52l90 359l-318 -327l-8 -32h-52l118 473h52l-91 -364l319 330z" />
    <glyph glyph-name="afii10075" unicode="&#x439;" horiz-adv-x="477" 
d="M233 677h37q0 -41 14.5 -58.5t49.5 -17.5q33 0 55 18t38 58h37q-14 -60 -49.5 -93.5t-86.5 -33.5q-44 0 -70.5 28t-26.5 75q0 13 2 24zM426 473h51l-118 -473h-52l90 359l-318 -327l-8 -32h-52l118 473h52l-91 -364l319 330z" />
    <glyph glyph-name="afii10076" unicode="&#x43a;" horiz-adv-x="421" 
d="M385 473h71l-264 -228l163 -245h-70l-154 249zM184 473l-118 -473h-50l118 473h50z" />
    <glyph glyph-name="afii10077" unicode="&#x43b;" horiz-adv-x="456" 
d="M219 430l-101 -291q-23 -68 -46 -95q-40 -47 -117 -47h-8l12 48q3 -1 7 -1q31 5 40 8.5t23 17.5q22 21 45 89l107 314h265l-118 -473h-50l107 430h-166z" />
    <glyph glyph-name="afii10078" unicode="&#x43c;" horiz-adv-x="592" 
d="M252 63l255 410h75l-118 -473h-50l102 409l-256 -409h-48l-44 409l-102 -409h-50l118 473h74z" />
    <glyph glyph-name="afii10079" unicode="&#x43d;" horiz-adv-x="477" 
d="M356 231h-233l-57 -231h-50l118 473h50l-50 -199h233l50 199h50l-118 -473h-50z" />
    <glyph glyph-name="afii10080" unicode="&#x43e;" horiz-adv-x="484" 
d="M290 482q72 0 114 -47.5t42 -128.5q0 -67 -24 -131.5t-66 -111.5q-67 -73 -156 -73q-74 0 -116.5 47.5t-42.5 130.5q0 68 28 137.5t74 114.5q62 62 147 62zM286 435q-82 0 -138 -90q-53 -84 -53 -179q0 -59 29 -94t79 -35q78 0 135 87q54 87 54 183q0 58 -29 93t-77 35z
" />
    <glyph glyph-name="afii10081" unicode="&#x43f;" horiz-adv-x="477" 
d="M406 430h-233l-107 -430h-50l118 473h333l-118 -473h-50z" />
    <glyph glyph-name="afii10082" unicode="&#x440;" horiz-adv-x="479" 
d="M-32 -193l133 534q26 103 26 132h51q2 -30 -9 -62q30 42 60 59.5t73 17.5q66 0 104.5 -45t38.5 -122q0 -65 -24.5 -134t-65.5 -116q-63 -75 -148 -75q-89 0 -120 87l-69 -276h-50zM296 441q-79 0 -133 -106q-21 -39 -34.5 -88t-13.5 -84q0 -56 25 -88t69 -32q69 0 123 84
q59 92 59 196q0 53 -26 85.5t-69 32.5z" />
    <glyph glyph-name="afii10083" unicode="&#x441;" horiz-adv-x="455" 
d="M416 320h-51q2 15 2 29q0 40 -22.5 63t-62.5 23q-78 0 -136 -94q-49 -85 -49 -175q0 -60 28.5 -94.5t77.5 -34.5q99 0 134 123h55q-43 -170 -190 -170q-75 0 -117 47t-42 130q0 127 72.5 221t170.5 94q62 0 97.5 -35t35.5 -96q0 -10 -3 -31z" />
    <glyph glyph-name="afii10084" unicode="&#x442;" horiz-adv-x="301" 
d="M227 430l-107 -430h-50l107 430h-140l11 43h330l-11 -43h-140z" />
    <glyph glyph-name="afii10085" unicode="&#x443;" horiz-adv-x="414" 
d="M82 473h54l28 -432l241 432h56l-252 -433q-74 -129 -121 -177q-60 -62 -147 -62q-9 0 -17 1l13 53q64 -1 98.5 25.5t89.5 120.5z" />
    <glyph glyph-name="afii10086" unicode="&#x444;" horiz-adv-x="644" 
d="M194 -193l62 247q-49 -64 -107 -64q-50 0 -78.5 42t-28.5 115q0 68 22 140t59 121q54 74 123 74q72 0 98 -74l65 261h49l-63 -251q51 64 106 64q50 0 79 -42t29 -115q0 -111 -53 -215q-61 -120 -151 -120q-70 0 -98 73l-64 -256h-49zM489 435q-26 0 -54.5 -26.5
t-50.5 -72.5q-23 -47 -38 -107t-15 -103q0 -41 19.5 -64.5t53.5 -23.5q58 0 102 87q51 97 51 201q0 109 -68 109zM246 435q-42 0 -77 -48q-31 -42 -53 -108t-22 -116q0 -57 10 -83q16 -43 55 -43q29 0 57 24.5t49 67.5q49 101 49 200q0 50 -18 78t-50 28z" />
    <glyph glyph-name="afii10087" unicode="&#x445;" horiz-adv-x="414" 
d="M94 473h58l71 -184l162 184h61l-206 -228l107 -245h-60l-83 209l-191 -209h-60l233 253z" />
    <glyph glyph-name="afii10088" unicode="&#x446;" horiz-adv-x="477" 
d="M77 43h233l107 430h50l-107 -430h45l-36 -143h-50l25 100h-328l118 473h50z" />
    <glyph glyph-name="afii10089" unicode="&#x447;" horiz-adv-x="443" 
d="M265 0l55 221q-56 -65 -136 -65q-57 0 -90.5 29t-33.5 78q0 27 16 90l30 120h50l-31 -123q-12 -49 -12 -78q0 -31 22 -50t58 -19q71 0 117 60q28 35 48 109l25 101h50l-118 -473h-50z" />
    <glyph glyph-name="afii10090" unicode="&#x448;" horiz-adv-x="670" 
d="M315 43h188l107 430h50l-118 -473h-526l118 473h50l-107 -430h188l107 430h50z" />
    <glyph glyph-name="afii10091" unicode="&#x449;" horiz-adv-x="670" 
d="M315 43h188l107 430h50l-107 -430h45l-36 -143h-50l25 100h-521l118 473h50l-107 -430h188l107 430h50z" />
    <glyph glyph-name="afii10092" unicode="&#x44a;" horiz-adv-x="436" 
d="M165 430h-125l11 43h175l-50 -199h77q57 0 87 -18q53 -30 53 -104q0 -90 -72 -130q-41 -22 -118 -22h-145zM165 231l-46 -188h88q57 0 84 16q48 29 48 92q0 41 -21 60.5t-67 19.5h-86z" />
    <glyph glyph-name="afii10093" unicode="&#x44b;" horiz-adv-x="557" 
d="M134 473h50l-50 -199h77q56 0 88 -18q52 -31 52 -104q0 -90 -72 -130q-41 -22 -118 -22h-145zM123 231l-46 -188h89q56 0 83 16q48 29 48 92q0 41 -21 60.5t-66 19.5h-87zM497 473h50l-118 -473h-50z" />
    <glyph glyph-name="afii10094" unicode="&#x44c;" horiz-adv-x="395" 
d="M134 473h50l-50 -199h77q56 0 88 -18q52 -31 52 -104q0 -90 -72 -130q-41 -22 -118 -22h-145zM123 231l-46 -188h89q56 0 83 16q48 29 48 92q0 41 -21 60.5t-66 19.5h-87z" />
    <glyph glyph-name="afii10095" unicode="&#x44d;" horiz-adv-x="450" 
d="M177 260h179q2 24 2 37q0 137 -108 137q-100 0 -132 -112l-50 10q16 69 66 109.5t119 40.5q76 0 117.5 -47.5t41.5 -133.5q0 -132 -65 -221.5t-162 -89.5q-81 0 -123 53q-29 37 -35 107l54 9q1 -56 28.5 -89t75.5 -33q56 0 99.5 48t63.5 132h-182z" />
    <glyph glyph-name="afii10096" unicode="&#x44e;" horiz-adv-x="660" 
d="M223 231h-100l-57 -231h-50l118 473h50l-50 -199h100q30 97 92 152.5t139 55.5q73 0 115.5 -47.5t42.5 -128.5q0 -65 -24.5 -131t-66.5 -112q-66 -73 -155 -73q-74 0 -117 47.5t-43 129.5q0 28 6 64zM463 435q-83 0 -139 -89q-24 -38 -38.5 -87.5t-14.5 -91.5
q0 -59 29.5 -94.5t78.5 -35.5q79 0 135 88q55 87 55 183q0 57 -29 92t-77 35z" />
    <glyph glyph-name="afii10097" unicode="&#x44f;" horiz-adv-x="423" 
d="M200 199l-164 -199h-57l171 208q-72 27 -72 113q0 90 72 130q41 22 118 22h145l-118 -473h-50l50 199h-77h-18zM306 242l46 188h-88q-57 0 -84 -16q-48 -29 -48 -92q0 -41 21 -60.5t67 -19.5h86z" />
    <glyph glyph-name="afii10071" unicode="&#x451;" horiz-adv-x="476" 
d="M424 237h-318q-10 -36 -10 -71q0 -60 29.5 -94.5t80.5 -34.5q48 0 81.5 27.5t58.5 86.5h56q-52 -161 -199 -161q-75 0 -118 46t-43 128q0 68 23.5 133t65.5 111q67 74 156 74q71 0 109.5 -42.5t38.5 -119.5q0 -43 -11 -83zM118 280h260q5 24 5 42q0 53 -26 82.5t-74 29.5
q-110 0 -165 -154zM426 659q16 0 26.5 -10.5t10.5 -26.5q0 -22 -15 -38t-35 -16q-17 0 -28 11t-11 28q0 22 15 37t37 15zM253 659q37 0 37 -37q0 -23 -14.5 -38.5t-35.5 -15.5q-17 0 -27.5 10.5t-10.5 28.5q0 22 15 37t36 15z" />
    <glyph glyph-name="afii10099" unicode="&#x452;" horiz-adv-x="471" 
d="M210 556l-33 -135q68 69 153 69q55 0 87 -27.5t32 -73.5q0 -34 -22 -123l-67 -266q-18 -72 -34 -101t-49 -50q-54 -33 -120 -33h-35l13 51h30q61 0 101 30q14 11 21 27t20 72l71 284q17 67 17 92q0 32 -22 50.5t-59 18.5q-75 0 -125 -61q-32 -38 -49 -108l-68 -272h-52
l138 556h-63l11 43h63l18 71h52l-18 -71h148l-11 -43h-148z" />
    <glyph glyph-name="afii10100" unicode="&#x453;" horiz-adv-x="331" 
d="M173 430l-107 -430h-50l118 473h251l-11 -43h-201zM364 671h90l-156 -115h-49z" />
    <glyph glyph-name="afii10101" unicode="&#x454;" horiz-adv-x="455" 
d="M112 260h179l-11 -43h-179q-4 -25 -4 -50q0 -61 28 -95.5t78 -34.5q99 0 134 123h9l44 -7q-43 -163 -188 -163q-75 0 -117 47t-42 130q0 127 72.5 221t170.5 94q62 0 97.5 -35t35.5 -96q0 -5 -2 -27l-42 -4h-10q2 15 2 29q0 40 -22.5 63t-62.5 23q-55 0 -101 -47.5
t-69 -127.5z" />
    <glyph glyph-name="afii10102" unicode="&#x455;" horiz-adv-x="419" 
d="M392 346h-50q1 6 1 15q0 35 -23.5 54.5t-65.5 19.5q-45 0 -74.5 -24t-29.5 -61q0 -29 24 -47q15 -11 74 -41q62 -32 83.5 -56.5t21.5 -63.5q0 -67 -50.5 -109.5t-129.5 -42.5q-77 0 -116.5 39.5t-32.5 112.5h53v-9v-20q1 -34 27.5 -55t70.5 -21q54 0 88 27.5t34 71.5
q0 26 -14 42t-57 38q-86 43 -104 63q-26 29 -26 67q0 59 45 97.5t115 38.5q64 0 100.5 -29.5t36.5 -82.5q0 -11 -1 -24z" />
    <glyph glyph-name="afii10103" unicode="&#x456;" horiz-adv-x="201" 
d="M134 473h55l-118 -473h-55zM207 674q16 0 25.5 -9.5t9.5 -25.5q0 -21 -15 -37t-34 -16q-15 0 -25.5 10t-10.5 25q0 22 14.5 37.5t35.5 15.5z" />
    <glyph glyph-name="afii10104" unicode="&#x457;" horiz-adv-x="201" 
d="M134 473h55l-118 -473h-55zM268 659q16 0 26.5 -10.5t10.5 -26.5q0 -22 -15 -38t-35 -16q-17 0 -28 11t-11 28q0 22 15 37t37 15zM135 659q37 0 37 -37q0 -23 -14.5 -38.5t-35.5 -15.5q-17 0 -28 11t-11 28q0 21 15.5 36.5t36.5 15.5z" />
    <glyph glyph-name="afii10105" unicode="&#x458;" horiz-adv-x="244" 
d="M178 473h55l-110 -440q-17 -69 -29 -100t-29 -54q-23 -31 -61.5 -49.5t-81.5 -18.5q-12 0 -21 1l12 47h9q71 0 106 58q18 32 40 115zM250 674q16 0 26 -9.5t10 -25.5q0 -20 -15.5 -36.5t-34.5 -16.5q-15 0 -25.5 10.5t-10.5 24.5q0 22 15 37.5t35 15.5z" />
    <glyph glyph-name="afii10106" unicode="&#x459;" horiz-adv-x="656" 
d="M446 473l-50 -199h77q55 0 88 -18q53 -31 53 -104q0 -90 -73 -130q-40 -22 -118 -22h-145l107 430h-166l-101 -291q-24 -71 -46 -96q-40 -46 -117 -46h-8l12 47h6q37 0 64 25q21 21 45 90l107 314h265zM386 231l-47 -188h89q56 0 83 16q22 13 35.5 38.5t13.5 53.5
q0 49 -33 69q-19 11 -55 11h-86z" />
    <glyph glyph-name="afii10107" unicode="&#x45a;" horiz-adv-x="677" 
d="M299 0l57 231h-233l-57 -231h-50l118 473h50l-50 -199h233l50 199h50l-50 -199h77q57 0 87 -18q53 -30 53 -104q0 -90 -72 -130q-41 -22 -118 -22h-145zM406 231l-46 -188h88q57 0 84 16q48 29 48 92q0 41 -21 60.5t-67 19.5h-86z" />
    <glyph glyph-name="afii10108" unicode="&#x45b;" horiz-adv-x="471" 
d="M203 551l-33 -134q58 65 136 65q57 0 90.5 -29t33.5 -78q0 -27 -16 -90l-71 -285h-50l72 288q12 49 12 78q0 31 -22 50t-58 19q-71 0 -117 -60q-28 -35 -48 -109l-66 -266h-50l137 551h-60l11 43h60l19 75h50l-19 -75h137l-11 -43h-137z" />
    <glyph glyph-name="afii10109" unicode="&#x45c;" horiz-adv-x="421" 
d="M385 473h71l-264 -228l163 -245h-70l-154 249zM184 473l-118 -473h-50l118 473h50zM376 671h90l-156 -115h-49z" />
    <glyph glyph-name="afii10110" unicode="&#x45e;" horiz-adv-x="414" 
d="M82 473h54l28 -432l241 432h56l-252 -433q-74 -129 -121 -177q-60 -62 -147 -62q-9 0 -17 1l13 53q64 -1 98.5 25.5t89.5 120.5zM183 677h37v-10q2 -35 16.5 -50.5t47.5 -15.5t54.5 18t37.5 58h38q-13 -60 -49.5 -93.5t-86.5 -33.5q-45 0 -71 27.5t-26 75.5q0 14 2 24z
" />
    <glyph glyph-name="afii10193" unicode="&#x45f;" horiz-adv-x="477" 
d="M77 43h233l107 430h50l-118 -473h-142l-25 -100h-50l25 100h-141l118 473h50z" />
    <glyph glyph-name="afii10050" unicode="&#x490;" horiz-adv-x="441" 
d="M240 617l-153 -617h-58l166 667h281l20 81h58l-33 -131h-281z" />
    <glyph glyph-name="afii10098" unicode="&#x491;" horiz-adv-x="331" 
d="M173 430l-107 -430h-50l118 473h199l14 56h50l-25 -99h-199z" />
    <glyph glyph-name="uni04C0" unicode="&#x4c0;" horiz-adv-x="230" 
d="M87 0h-58l166 667h58z" />
    <glyph glyph-name="Wdieresis" unicode="&#x1e84;" horiz-adv-x="720" 
d="M133 667h53l-23 -604l288 604h47l-9 -604l263 604h54l-304 -673h-59l7 571l-274 -571h-60zM606 844q18 0 29 -11t11 -29q0 -24 -16 -41t-38 -17q-19 0 -30.5 11.5t-11.5 30.5q0 23 16.5 39.5t39.5 16.5zM420 844q18 0 29 -11t11 -29q0 -23 -16 -40.5t-38 -17.5
q-19 0 -30.5 11.5t-11.5 30.5q0 23 16.5 39.5t39.5 16.5z" />
    <glyph glyph-name="uni1EA0" unicode="&#x1ea0;" horiz-adv-x="546" 
d="M363 672h47l52 -672h-58l-13 189h-252l-109 -189h-59zM389 239l-11 180q0 6 -1.5 28t-3.5 64t-5 87q-61 -118 -96 -179l-103 -180h220zM232 -51q37 0 37 -37q0 -23 -14 -38t-36 -15q-18 0 -28.5 10.5t-10.5 27.5q0 22 15.5 37t36.5 15z" />
    <glyph glyph-name="uni1EA1" unicode="&#x1ea1;" horiz-adv-x="457" 
d="M155 355h-54q44 127 180 127q65 0 100.5 -26t35.5 -73q0 -26 -11 -66l-46 -186q-21 -84 -21 -131h-53q0 36 6 67q-57 -77 -145 -77q-56 0 -89 31t-33 84q0 104 121 150q51 19 193 48l15 3l4 17q7 28 7 54q0 28 -22.5 43t-63.5 15q-95 0 -124 -80zM330 213l14 54
q-147 -26 -206 -61t-59 -97q0 -34 21 -53t58 -19q72 0 123 62q30 37 49 114zM167 -57q17 0 27 -9.5t10 -26.5q0 -23 -14.5 -38.5t-35.5 -15.5q-18 0 -28.5 10.5t-10.5 27.5q0 22 15 37t37 15z" />
    <glyph glyph-name="uni1EA2" unicode="&#x1ea2;" horiz-adv-x="546" 
d="M363 672h47l52 -672h-58l-13 189h-252l-109 -189h-59zM389 239l-11 180q0 6 -1.5 28t-3.5 64t-5 87q-61 -118 -96 -179l-103 -180h220zM378 742l20 78q81 8 81 59q0 30 -42 30q-19 0 -52 -9l6 35q42 13 75 13q78 0 78 -53q0 -63 -85 -91l-25 -8l-16 -54h-40z" />
    <glyph glyph-name="uni1EA3" unicode="&#x1ea3;" horiz-adv-x="457" 
d="M155 355h-54q44 127 180 127q65 0 100.5 -26t35.5 -73q0 -26 -11 -66l-46 -186q-21 -84 -21 -131h-53q0 36 6 67q-57 -77 -145 -77q-56 0 -89 31t-33 84q0 104 121 150q51 19 193 48l15 3l4 17q7 28 7 54q0 28 -22.5 43t-63.5 15q-95 0 -124 -80zM330 213l14 54
q-147 -26 -206 -61t-59 -97q0 -34 21 -53t58 -19q72 0 123 62q30 37 49 114zM269 541l21 78q81 6 81 59q0 30 -42 30q-20 0 -52 -9l6 35q42 13 74 13q79 0 79 -53q0 -62 -85 -91q-3 -1 -11.5 -3.5t-13.5 -4.5l-16 -54h-41z" />
    <glyph glyph-name="uni1EA4" unicode="&#x1ea4;" horiz-adv-x="546" 
d="M503 799l95 92h114l-167 -108h-30l35 -50h-55l-74 81l-129 -81h-51l144 120h79zM363 672h47l52 -672h-58l-13 189h-252l-109 -189h-59zM389 239l-11 180q0 6 -1.5 28t-3.5 64t-5 87q-61 -118 -96 -179l-103 -180h220z" />
    <glyph glyph-name="uni1EA5" unicode="&#x1ea5;" horiz-adv-x="457" 
d="M405 613l97 96h90l-156 -114h-20l26 -45h-49l-60 88l-123 -88h-48l141 127h65zM155 355h-54q23 65 66.5 96t113.5 31q65 0 100.5 -26t35.5 -72q0 -21 -11 -67l-46 -186q-21 -82 -21 -131h-53q0 35 6 67q-57 -77 -145 -77q-56 0 -89 31t-33 84q0 104 121 150q51 19 193 48
l15 3l4 17q7 28 7 54q0 27 -23 42.5t-63 15.5q-95 0 -124 -80zM330 213l14 54q-147 -26 -206 -61t-59 -97q0 -34 21 -53t58 -19q72 0 123 62q30 37 49 114z" />
    <glyph glyph-name="uni1EA6" unicode="&#x1ea6;" horiz-adv-x="546" 
d="M294 777h-24l-106 115h80l70 -99l71 60h79l86 -120h-55l-74 81l-129 -81h-51zM363 672h47l52 -672h-58l-13 189h-252l-109 -189h-59zM389 239l-11 180q0 6 -1.5 28t-3.5 64t-5 87q-61 -118 -96 -179l-103 -180h220z" />
    <glyph glyph-name="uni1EA7" unicode="&#x1ea7;" horiz-adv-x="457" 
d="M228 610h-21l-86 121h70l54 -106l58 52h65l74 -127h-49l-60 88l-123 -88h-48zM155 355h-54q23 65 66.5 96t113.5 31q65 0 100.5 -26t35.5 -72q0 -21 -11 -67l-46 -186q-21 -82 -21 -131h-53q0 35 6 67q-57 -77 -145 -77q-56 0 -89 31t-33 84q0 104 121 150q51 19 193 48
l15 3l4 17q7 28 7 54q0 27 -23 42.5t-63 15.5q-95 0 -124 -80zM330 213l14 54q-147 -26 -206 -61t-59 -97q0 -34 21 -53t58 -19q72 0 123 62q30 37 49 114z" />
    <glyph glyph-name="uni1EA8" unicode="&#x1ea8;" horiz-adv-x="546" 
d="M500 803l14 55q81 6 81 58q0 31 -42 31q-17 0 -52 -9l6 35q43 13 75 13q78 0 78 -53q0 -62 -85 -91q-14 -5 -25 -8l-16 -54h-17l33 -47h-55l-74 81l-129 -81h-51l144 120h79zM363 672h47l52 -672h-58l-13 189h-252l-109 -189h-59zM389 239l-11 180q0 6 -1.5 28t-3.5 64
t-5 87q-61 -118 -96 -179l-103 -180h220z" />
    <glyph glyph-name="uni1EA9" unicode="&#x1ea9;" horiz-adv-x="457" 
d="M403 617l14 54q81 8 81 59q0 31 -42 31q-15 0 -52 -9l6 34q43 14 74 14q37 0 58 -14t21 -39q0 -62 -85 -91q-9 -3 -25 -9l-16 -54h-20l25 -43h-49l-60 88l-123 -88h-48l141 127h65zM155 355h-54q23 65 66.5 96t113.5 31q65 0 100.5 -26t35.5 -72q0 -21 -11 -67l-46 -186
q-21 -82 -21 -131h-53q0 35 6 67q-57 -77 -145 -77q-56 0 -89 31t-33 84q0 104 121 150q51 19 193 48l15 3l4 17q7 28 7 54q0 27 -23 42.5t-63 15.5q-95 0 -124 -80zM330 213l14 54q-147 -26 -206 -61t-59 -97q0 -34 21 -53t58 -19q72 0 123 62q30 37 49 114z" />
    <glyph glyph-name="uni1EAA" unicode="&#x1eaa;" horiz-adv-x="546" 
d="M363 672h47l52 -672h-58l-13 189h-252l-109 -189h-59zM389 239l-11 180q0 6 -1.5 28t-3.5 64t-5 87q-61 -118 -96 -179l-103 -180h220zM385 853h79l86 -120h-55l-74 81l-129 -81h-51zM308 876l-34 8q44 90 111 90q28 0 60 -22q31 -23 52 -23q38 0 65 47l35 -9
q-42 -92 -108 -92q-31 0 -68 26q-30 22 -48 22q-36 0 -65 -47z" />
    <glyph glyph-name="uni1EAB" unicode="&#x1eab;" horiz-adv-x="457" 
d="M155 355h-54q23 65 66.5 96t113.5 31q65 0 100.5 -26t35.5 -72q0 -23 -11 -67l-46 -186q-21 -82 -21 -131h-53q0 35 6 67q-57 -77 -145 -77q-56 0 -89 31t-33 84q0 104 121 150q51 19 193 48l15 3l4 17q7 28 7 54q0 28 -22.5 43t-63.5 15q-95 0 -124 -80zM330 213l14 54
q-147 -26 -206 -61t-59 -97q0 -34 21 -53t58 -19q72 0 123 62q30 37 49 114zM303 677h65l74 -127h-49l-60 88l-123 -88h-48zM233 695l-34 8q42 100 104 100q28 0 59 -30q31 -32 50 -32q33 0 55 64l35 -8q-37 -103 -101 -103q-31 0 -66 34q-29 28 -47 28q-30 0 -55 -61z" />
    <glyph glyph-name="uni1EAC" unicode="&#x1eac;" horiz-adv-x="546" 
d="M363 672h47l52 -672h-58l-13 189h-252l-109 -189h-59zM389 239l-11 180q0 6 -1.5 28t-3.5 64t-5 87q-61 -118 -96 -179l-103 -180h220zM385 853h79l86 -120h-55l-74 81l-129 -81h-51zM227 -51q37 0 37 -37q0 -23 -14 -38t-36 -15q-17 0 -28 10.5t-11 27.5q0 21 15.5 36.5
t36.5 15.5z" />
    <glyph glyph-name="uni1EAD" unicode="&#x1ead;" horiz-adv-x="457" 
d="M155 355h-54q23 65 66.5 96t113.5 31q65 0 100.5 -26t35.5 -72q0 -23 -11 -67l-46 -186q-21 -82 -21 -131h-53q0 35 6 67q-57 -77 -145 -77q-56 0 -89 31t-33 84q0 104 121 150q51 19 193 48l15 3l4 17q7 28 7 54q0 28 -22.5 43t-63.5 15q-95 0 -124 -80zM330 213l14 54
q-147 -26 -206 -61t-59 -97q0 -34 21 -53t58 -19q72 0 123 62q30 37 49 114zM303 677h65l74 -127h-49l-60 88l-123 -88h-48zM184 -51q16 0 26.5 -10.5t10.5 -26.5q0 -22 -14.5 -37.5t-35.5 -15.5q-39 0 -39 38q0 22 15 37t37 15z" />
    <glyph glyph-name="uni1EAE" unicode="&#x1eae;" horiz-adv-x="546" 
d="M363 672h47l52 -672h-58l-13 189h-252l-109 -189h-59zM389 239l-11 180q0 6 -1.5 28t-3.5 64t-5 87q-61 -118 -96 -179l-103 -180h220zM295 853h37v-8q0 -55 77 -55q71 0 107 63h37q-15 -57 -54 -88.5t-95 -31.5q-52 0 -81 26t-29 72q0 16 1 22zM499 942h114l-166 -108
h-59z" />
    <glyph glyph-name="uni1EAF" unicode="&#x1eaf;" horiz-adv-x="457" 
d="M155 355h-54q23 65 66.5 96t113.5 31q65 0 100.5 -26t35.5 -72q0 -23 -11 -67l-46 -186q-21 -82 -21 -131h-53q0 35 6 67q-57 -77 -145 -77q-56 0 -89 31t-33 84q0 104 121 150q51 19 193 48l15 3l4 17q7 28 7 54q0 28 -22.5 43t-63.5 15q-95 0 -124 -80zM330 213l14 54
q-147 -26 -206 -61t-59 -97q0 -34 21 -53t58 -19q72 0 123 62q30 37 49 114zM223 677h37q0 -41 15 -58.5t49 -17.5t55 17.5t38 58.5h37q-13 -60 -49 -93.5t-86 -33.5q-45 0 -71.5 27.5t-26.5 74.5q0 13 2 25zM419 759h90l-156 -114h-49z" />
    <glyph glyph-name="uni1EB0" unicode="&#x1eb0;" horiz-adv-x="546" 
d="M363 672h47l52 -672h-58l-13 189h-252l-109 -189h-59zM389 239l-11 180q0 6 -1.5 28t-3.5 64t-5 87q-61 -118 -96 -179l-103 -180h220zM295 853h37v-8q0 -55 77 -55q71 0 107 63h37q-15 -57 -54 -88.5t-95 -31.5q-52 0 -81 26t-29 72q0 16 1 22zM285 944h80l81 -115h-55z
" />
    <glyph glyph-name="uni1EB1" unicode="&#x1eb1;" horiz-adv-x="457" 
d="M155 355h-54q23 65 66.5 96t113.5 31q65 0 100.5 -26t35.5 -72q0 -23 -11 -67l-46 -186q-21 -82 -21 -131h-53q0 35 6 67q-57 -77 -145 -77q-56 0 -89 31t-33 84q0 104 121 150q51 19 193 48l15 3l4 17q7 28 7 54q0 28 -22.5 43t-63.5 15q-95 0 -124 -80zM330 213l14 54
q-147 -26 -206 -61t-59 -97q0 -34 21 -53t58 -19q72 0 123 62q30 37 49 114zM223 677h37q0 -41 15 -58.5t49 -17.5t55 17.5t38 58.5h37q-13 -60 -49 -93.5t-86 -33.5q-45 0 -71.5 27.5t-26.5 74.5q0 13 2 25zM234 771h71l61 -122h-46z" />
    <glyph glyph-name="uni1EB2" unicode="&#x1eb2;" horiz-adv-x="546" 
d="M363 672h47l52 -672h-58l-13 189h-252l-109 -189h-59zM389 239l-11 180q0 6 -1.5 28t-3.5 64t-5 87q-61 -118 -96 -179l-103 -180h220zM295 853h37v-8q0 -55 77 -55q71 0 107 63h37q-15 -57 -54 -88.5t-95 -31.5q-52 0 -81 26t-29 72q0 16 1 22zM405 832l20 78
q81 8 81 59q0 30 -42 30q-19 0 -52 -9l6 35q42 13 75 13q78 0 78 -53q0 -63 -85 -91l-25 -8l-16 -54h-40z" />
    <glyph glyph-name="uni1EB3" unicode="&#x1eb3;" horiz-adv-x="457" 
d="M155 355h-54q23 65 66.5 96t113.5 31q65 0 100.5 -26t35.5 -72q0 -23 -11 -67l-46 -186q-21 -82 -21 -131h-53q0 35 6 67q-57 -77 -145 -77q-56 0 -89 31t-33 84q0 104 121 150q51 19 193 48l15 3l4 17q7 28 7 54q0 28 -22.5 43t-63.5 15q-95 0 -124 -80zM330 213l14 54
q-147 -26 -206 -61t-59 -97q0 -34 21 -53t58 -19q72 0 123 62q30 37 49 114zM223 677h37q0 -41 15 -58.5t49 -17.5t55 17.5t38 58.5h37q-13 -60 -49 -93.5t-86 -33.5q-45 0 -71.5 27.5t-26.5 74.5q0 13 2 25zM312 645l20 78q81 7 81 59q0 30 -42 30q-19 0 -51 -9l6 35
q40 13 74 13q78 0 78 -53q0 -63 -85 -91l-25 -8l-16 -54h-40z" />
    <glyph glyph-name="uni1EB4" unicode="&#x1eb4;" horiz-adv-x="546" 
d="M363 672h47l52 -672h-58l-13 189h-252l-109 -189h-59zM389 239l-11 180q0 6 -1.5 28t-3.5 64t-5 87q-61 -118 -96 -179l-103 -180h220zM295 853h37v-8q0 -55 77 -55q71 0 107 63h37q-15 -57 -54 -88.5t-95 -31.5q-52 0 -81 26t-29 72q0 16 1 22zM308 890l-34 8
q44 90 111 90q26 0 60 -22q31 -23 52 -23q38 0 65 47l35 -9q-41 -92 -108 -92q-31 0 -68 26q-30 22 -48 22q-36 0 -65 -47z" />
    <glyph glyph-name="uni1EB5" unicode="&#x1eb5;" horiz-adv-x="457" 
d="M155 355h-54q23 65 66.5 96t113.5 31q65 0 100.5 -26t35.5 -72q0 -23 -11 -67l-46 -186q-21 -82 -21 -131h-53q0 35 6 67q-57 -77 -145 -77q-56 0 -89 31t-33 84q0 104 121 150q51 19 193 48l15 3l4 17q7 28 7 54q0 28 -22.5 43t-63.5 15q-95 0 -124 -80zM330 213l14 54
q-147 -26 -206 -61t-59 -97q0 -34 21 -53t58 -19q72 0 123 62q30 37 49 114zM223 677h37q0 -41 15 -58.5t49 -17.5t55 17.5t38 58.5h37q-13 -60 -49 -93.5t-86 -33.5q-45 0 -71.5 27.5t-26.5 74.5q0 13 2 25zM233 706l-34 9q42 99 104 99q28 0 58 -30q33 -32 51 -32
q33 0 54 65l36 -9q-37 -103 -102 -103q-30 0 -65 34q-29 28 -47 28q-30 0 -55 -61z" />
    <glyph glyph-name="uni1EB6" unicode="&#x1eb6;" horiz-adv-x="546" 
d="M363 672h47l52 -672h-58l-13 189h-252l-109 -189h-59zM389 239l-11 180q0 6 -1.5 28t-3.5 64t-5 87q-61 -118 -96 -179l-103 -180h220zM295 853h37v-8q0 -55 77 -55q71 0 107 63h37q-15 -57 -54 -88.5t-95 -31.5q-52 0 -81 26t-29 72q0 16 1 22zM224 -51q17 0 27 -10
t10 -27q0 -22 -14.5 -37.5t-35.5 -15.5q-18 0 -28.5 10.5t-10.5 27.5q0 22 15 37t37 15z" />
    <glyph glyph-name="uni1EB7" unicode="&#x1eb7;" horiz-adv-x="457" 
d="M155 355h-54q23 65 66.5 96t113.5 31q65 0 100.5 -26t35.5 -72q0 -23 -11 -67l-46 -186q-21 -82 -21 -131h-53q0 35 6 67q-57 -77 -145 -77q-56 0 -89 31t-33 84q0 104 121 150q51 19 193 48l15 3l4 17q7 28 7 54q0 28 -22.5 43t-63.5 15q-95 0 -124 -80zM330 213l14 54
q-147 -26 -206 -61t-59 -97q0 -34 21 -53t58 -19q72 0 123 62q30 37 49 114zM223 677h37q0 -41 15 -58.5t49 -17.5t55 17.5t38 58.5h37q-13 -60 -49 -93.5t-86 -33.5q-45 0 -71.5 27.5t-26.5 74.5q0 13 2 25zM189 -51q17 0 27 -10.5t10 -26.5q0 -22 -14.5 -37.5t-35.5 -15.5
q-39 0 -39 38q0 22 15 37t37 15z" />
    <glyph glyph-name="uni1EB8" unicode="&#x1eb8;" horiz-adv-x="494" 
d="M176 370h265l-13 -50h-264l-68 -270h302l-13 -50h-356l166 667h339l-13 -50h-283zM206 -51q37 0 37 -37q0 -23 -13.5 -38t-35.5 -15q-39 0 -39 38q0 22 14.5 37t36.5 15z" />
    <glyph glyph-name="uni1EB9" unicode="&#x1eb9;" horiz-adv-x="476" 
d="M424 237h-318q-10 -37 -10 -70q0 -61 29.5 -95.5t80.5 -34.5q48 0 81.5 27.5t58.5 86.5h56q-52 -161 -199 -161q-75 0 -118 46t-43 128q0 68 23.5 133t65.5 111q67 74 156 74q70 0 109 -42.5t39 -118.5q0 -45 -11 -84zM118 280h260q5 24 5 42q0 53 -26 82.5t-74 29.5
q-110 0 -165 -154zM206 -63q16 0 26.5 -10.5t10.5 -26.5q0 -22 -15 -38t-35 -16q-17 0 -28 11t-11 28q0 21 15.5 36.5t36.5 15.5z" />
    <glyph glyph-name="uni1EBA" unicode="&#x1eba;" horiz-adv-x="494" 
d="M176 370h265l-13 -50h-264l-68 -270h302l-13 -50h-356l166 667h339l-13 -50h-283zM337 723l21 78q81 8 81 59q0 30 -42 30q-19 0 -52 -9l6 35q42 13 75 13q78 0 78 -53q0 -62 -85 -91q-16 -6 -25 -8l-16 -54h-41z" />
    <glyph glyph-name="uni1EBB" unicode="&#x1ebb;" horiz-adv-x="476" 
d="M424 237h-318q-10 -37 -10 -70q0 -61 29.5 -95.5t80.5 -34.5q48 0 81.5 27.5t58.5 86.5h56q-52 -161 -199 -161q-75 0 -118 46t-43 128q0 68 23.5 133t65.5 111q67 74 156 74q70 0 109 -42.5t39 -118.5q0 -45 -11 -84zM118 280h260q5 24 5 42q0 53 -26 82.5t-74 29.5
q-110 0 -165 -154zM272 541l20 78q35 3 52 12q30 17 30 47q0 14 -11.5 22t-30.5 8q-20 0 -52 -9l6 35q40 13 74 13q79 0 79 -53q0 -32 -28 -60q-18 -17 -58 -31q-16 -6 -25 -8l-16 -54h-40z" />
    <glyph glyph-name="uni1EBC" unicode="&#x1ebc;" horiz-adv-x="494" 
d="M176 370h265l-13 -50h-264l-68 -270h302l-13 -50h-356l166 667h339l-13 -50h-283zM249 744l-34 8q43 90 111 90q28 0 60 -22q31 -23 52 -23q38 0 65 47l35 -9q-42 -92 -108 -92q-31 0 -68 26q-30 22 -48 22q-36 0 -65 -47z" />
    <glyph glyph-name="uni1EBD" unicode="&#x1ebd;" horiz-adv-x="476" 
d="M424 237h-318q-10 -37 -10 -70q0 -61 29.5 -95.5t80.5 -34.5q48 0 81.5 27.5t58.5 86.5h56q-52 -161 -199 -161q-75 0 -118 46t-43 128q0 68 23.5 133t65.5 111q67 74 156 74q70 0 109 -42.5t39 -118.5q0 -45 -11 -84zM118 280h260q5 24 5 42q0 53 -26 82.5t-74 29.5
q-110 0 -165 -154zM205 559l-34 8q42 100 104 100q28 0 58 -30q33 -32 50 -32q33 0 55 64l36 -8q-39 -103 -102 -103q-31 0 -65 34q-29 28 -47 28q-31 0 -55 -61z" />
    <glyph glyph-name="uni1EBE" unicode="&#x1ebe;" horiz-adv-x="494" 
d="M480 808l87 84h114l-166 -108h-17l36 -51h-55l-74 81l-129 -81h-52l145 120h79zM176 370h265l-13 -50h-264l-68 -270h302l-13 -50h-356l166 667h339l-13 -50h-283z" />
    <glyph glyph-name="uni1EBF" unicode="&#x1ebf;" horiz-adv-x="476" 
d="M408 622l92 91h91l-157 -114h-12l28 -49h-49l-60 88l-122 -88h-49l141 127h66zM424 237h-318q-10 -36 -10 -71q0 -60 29.5 -94.5t80.5 -34.5q48 0 81.5 27.5t58.5 86.5h56q-52 -161 -199 -161q-75 0 -118 46t-43 128q0 68 23.5 133t65.5 111q67 74 156 74
q71 0 109.5 -42.5t38.5 -119.5q0 -43 -11 -83zM118 280h260q5 24 5 42q0 53 -26 82.5t-74 29.5q-110 0 -165 -154z" />
    <glyph glyph-name="uni1EC0" unicode="&#x1ec0;" horiz-adv-x="494" 
d="M281 780h-25l-106 115h80l70 -99l69 57h79l86 -120h-55l-74 81l-129 -81h-52zM176 370h265l-13 -50h-264l-68 -270h302l-13 -50h-356l166 667h339l-13 -50h-283z" />
    <glyph glyph-name="uni1EC1" unicode="&#x1ec1;" horiz-adv-x="476" 
d="M224 599h-13l-86 121h71l51 -101l64 58h66l73 -127h-49l-60 88l-122 -88h-49zM424 237h-318q-10 -36 -10 -71q0 -60 29.5 -94.5t80.5 -34.5q48 0 81.5 27.5t58.5 86.5h56q-52 -161 -199 -161q-75 0 -118 46t-43 128q0 68 23.5 133t65.5 111q67 74 156 74
q71 0 109.5 -42.5t38.5 -119.5q0 -43 -11 -83zM118 280h260q5 24 5 42q0 53 -26 82.5t-74 29.5q-110 0 -165 -154z" />
    <glyph glyph-name="uni1EC2" unicode="&#x1ec2;" horiz-adv-x="494" 
d="M485 801l13 49q81 6 81 58q0 31 -42 31q-17 0 -52 -9l7 35q42 13 74 13q78 0 78 -53q0 -63 -85 -91q-14 -5 -25 -8l-16 -54h-12l28 -39h-55l-74 81l-129 -81h-52l145 120h79zM176 370h265l-13 -50h-264l-68 -270h302l-13 -50h-356l166 667h339l-13 -50h-283z" />
    <glyph glyph-name="uni1EC3" unicode="&#x1ec3;" horiz-adv-x="476" 
d="M408 623l14 56q82 8 82 59q0 14 -11.5 22.5t-30.5 8.5q-16 0 -52 -9l6 34q42 14 74 14q37 0 58 -14t21 -39q0 -32 -28 -60q-20 -19 -58 -31l-24 -9l-17 -54h-22l30 -51h-49l-60 88l-122 -88h-49l141 127h66zM424 237h-318q-10 -36 -10 -71q0 -60 29.5 -94.5t80.5 -34.5
q48 0 81.5 27.5t58.5 86.5h56q-52 -161 -199 -161q-75 0 -118 46t-43 128q0 68 23.5 133t65.5 111q67 74 156 74q71 0 109.5 -42.5t38.5 -119.5q0 -43 -11 -83zM118 280h260q5 24 5 42q0 53 -26 82.5t-74 29.5q-110 0 -165 -154z" />
    <glyph glyph-name="uni1EC4" unicode="&#x1ec4;" horiz-adv-x="494" 
d="M176 370h265l-13 -50h-264l-68 -270h302l-13 -50h-356l166 667h339l-13 -50h-283zM369 853h79l86 -120h-55l-74 81l-129 -81h-52zM301 873l-34 8q43 90 111 90q27 0 60 -22q33 -23 52 -23q37 0 65 47l35 -8q-41 -93 -108 -93q-33 0 -68 27q-28 21 -48 21q-37 0 -65 -47z
" />
    <glyph glyph-name="uni1EC5" unicode="&#x1ec5;" horiz-adv-x="476" 
d="M424 237h-318q-10 -36 -10 -71q0 -60 29.5 -94.5t80.5 -34.5q48 0 81.5 27.5t58.5 86.5h56q-52 -161 -199 -161q-75 0 -118 46t-43 128q0 68 23.5 133t65.5 111q67 74 156 74q71 0 109.5 -42.5t38.5 -119.5q0 -43 -11 -83zM118 280h260q5 24 5 42q0 53 -26 82.5t-74 29.5
q-110 0 -165 -154zM311 677h66l73 -127h-49l-60 88l-122 -88h-49zM241 689l-34 8q42 100 104 100q28 0 58 -30q33 -32 51 -32q32 0 54 65l36 -9q-39 -103 -102 -103q-30 0 -65 34q-29 28 -47 28q-30 0 -55 -61z" />
    <glyph glyph-name="uni1EC6" unicode="&#x1ec6;" horiz-adv-x="494" 
d="M176 370h265l-13 -50h-264l-68 -270h302l-13 -50h-356l166 667h339l-13 -50h-283zM369 853h79l86 -120h-55l-74 81l-129 -81h-52zM222 -51q17 0 27 -10t10 -27q0 -22 -14.5 -37.5t-35.5 -15.5q-18 0 -28.5 10.5t-10.5 27.5q0 22 15 37t37 15z" />
    <glyph glyph-name="uni1EC7" unicode="&#x1ec7;" horiz-adv-x="476" 
d="M424 237h-318q-10 -36 -10 -71q0 -60 29.5 -94.5t80.5 -34.5q48 0 81.5 27.5t58.5 86.5h56q-52 -161 -199 -161q-75 0 -118 46t-43 128q0 68 23.5 133t65.5 111q67 74 156 74q71 0 109.5 -42.5t38.5 -119.5q0 -43 -11 -83zM118 280h260q5 24 5 42q0 53 -26 82.5t-74 29.5
q-110 0 -165 -154zM311 677h66l73 -127h-49l-60 88l-122 -88h-49zM203 -51q37 0 37 -37q0 -23 -14 -38t-36 -15q-38 0 -38 38q0 22 14.5 37t36.5 15z" />
    <glyph glyph-name="uni1EC8" unicode="&#x1ec8;" horiz-adv-x="230" 
d="M87 0h-58l166 667h58zM216 728l21 78q81 6 81 59q0 30 -42 30q-20 0 -52 -9l6 35q42 13 74 13q79 0 79 -53q0 -62 -85 -91q-3 -1 -11.5 -3.5t-13.5 -4.5l-16 -54h-41z" />
    <glyph glyph-name="uni1EC9" unicode="&#x1ec9;" horiz-adv-x="201" 
d="M134 473h55l-118 -473h-55zM155 543l20 78q81 7 81 59q0 30 -42 30q-19 0 -51 -9l6 35q40 13 74 13q78 0 78 -53q0 -63 -85 -91q-11 -3 -25 -8l-16 -54h-40z" />
    <glyph glyph-name="uni1ECA" unicode="&#x1eca;" horiz-adv-x="218" 
d="M87 0h-58l167 667h57zM43 -51q17 0 27 -10t10 -27q0 -22 -14.5 -37.5t-35.5 -15.5q-18 0 -28.5 10.5t-10.5 27.5q0 22 15 37t37 15z" />
    <glyph glyph-name="uni1ECB" unicode="&#x1ecb;" horiz-adv-x="201" 
d="M134 473h56l-118 -473h-56zM207 674q16 0 26 -9.5t10 -25.5q0 -20 -15.5 -36.5t-34.5 -16.5q-15 0 -25.5 10.5t-10.5 24.5q0 22 15 37.5t35 15.5zM27 -51q17 0 27 -10t10 -27q0 -22 -14.5 -37.5t-35.5 -15.5q-18 0 -28.5 10.5t-10.5 27.5q0 22 15 37t37 15z" />
    <glyph glyph-name="uni1ECC" unicode="&#x1ecc;" horiz-adv-x="626" 
d="M407 680q96 0 150 -64t54 -178q0 -92 -32 -184t-87 -158q-93 -109 -218 -109q-98 0 -152 63t-54 177q0 94 33 189t89 160q89 104 217 104zM404 630q-111 0 -189 -118q-38 -59 -62 -139.5t-24 -152.5q0 -84 40 -133.5t108 -49.5q120 0 202 144q31 56 51 128.5t20 131.5
q0 85 -40 137t-106 52zM264 -56q16 0 26.5 -10t10.5 -27q0 -22 -15 -38t-35 -16q-17 0 -28 11t-11 28q0 22 15 37t37 15z" />
    <glyph glyph-name="uni1ECD" unicode="&#x1ecd;" horiz-adv-x="484" 
d="M290 482q72 0 114 -47.5t42 -128.5q0 -67 -24 -131.5t-66 -111.5q-67 -73 -156 -73q-74 0 -116.5 47.5t-42.5 130.5q0 68 28 137.5t74 114.5q62 62 147 62zM286 435q-82 0 -138 -90q-53 -84 -53 -179q0 -59 29 -94t79 -35q78 0 135 87q54 87 54 183q0 58 -29 93t-77 35z
M192 -51q37 0 37 -37q0 -23 -14 -38t-36 -15q-38 0 -38 38q0 22 14.5 37t36.5 15z" />
    <glyph glyph-name="uni1ECE" unicode="&#x1ece;" horiz-adv-x="626" 
d="M407 680q96 0 150 -64t54 -178q0 -92 -32 -184t-87 -158q-93 -109 -218 -109q-98 0 -152 63t-54 177q0 94 33 189t89 160q89 104 217 104zM404 630q-111 0 -189 -118q-38 -59 -62 -139.5t-24 -152.5q0 -84 40 -133.5t108 -49.5q120 0 202 144q31 56 51 128.5t20 131.5
q0 85 -40 137t-106 52zM407 738l20 78q81 7 81 59q0 30 -41 30q-20 0 -52 -9l6 35q40 13 74 13q78 0 78 -53q0 -63 -85 -91q-4 -1 -25 -8l-16 -54h-40z" />
    <glyph glyph-name="uni1ECF" unicode="&#x1ecf;" horiz-adv-x="484" 
d="M290 482q72 0 114 -47.5t42 -128.5q0 -67 -24 -131.5t-66 -111.5q-67 -73 -156 -73q-74 0 -116.5 47.5t-42.5 130.5q0 68 28 137.5t74 114.5q62 62 147 62zM286 435q-82 0 -138 -90q-53 -84 -53 -179q0 -59 29 -94t79 -35q78 0 135 87q54 87 54 183q0 58 -29 93t-77 35z
M282 543l21 78q81 6 81 59q0 30 -42 30q-20 0 -52 -9l6 35q42 13 74 13q79 0 79 -53q0 -62 -85 -91q-3 -1 -11.5 -3.5t-13.5 -4.5l-16 -54h-41z" />
    <glyph glyph-name="uni1ED0" unicode="&#x1ed0;" horiz-adv-x="626" 
d="M542 800l90 87h114l-167 -108h-21l32 -46h-55l-73 81l-129 -81h-52l144 120h79zM401 680q101 0 155.5 -63t54.5 -179q0 -92 -32 -184t-87 -158q-93 -109 -218 -109q-98 0 -152 63t-54 176q0 95 33 190t89 160q89 104 211 104zM404 630q-111 0 -189 -118
q-38 -59 -62 -139.5t-24 -152.5q0 -84 40 -133.5t108 -49.5q119 0 202 144q70 124 70 260q0 87 -39 138t-106 51z" />
    <glyph glyph-name="uni1ED1" unicode="&#x1ed1;" horiz-adv-x="484" 
d="M418 618l97 97h91l-157 -115h-20l29 -50h-49l-60 88l-123 -88h-48l141 127h65zM286 482q75 0 117.5 -47t42.5 -130q0 -66 -24 -130.5t-66 -111.5q-67 -73 -156 -73q-74 0 -116.5 47t-42.5 130q0 69 28 138.5t74 114.5q64 62 143 62zM286 435q-82 0 -138 -90
q-53 -84 -53 -179q0 -59 29 -94t79 -35q78 0 135 87q54 87 54 184q0 58 -29 92.5t-77 34.5z" />
    <glyph glyph-name="uni1ED2" unicode="&#x1ed2;" horiz-adv-x="626" 
d="M335 779h-18l-106 114h80l67 -95l67 55h79l86 -120h-55l-73 81l-129 -81h-52zM401 680q101 0 155.5 -63t54.5 -179q0 -92 -32 -184t-87 -158q-93 -109 -218 -109q-98 0 -152 63t-54 176q0 95 33 190t89 160q89 104 211 104zM404 630q-111 0 -189 -118q-38 -59 -62 -139.5
t-24 -152.5q0 -84 40 -133.5t108 -49.5q119 0 202 144q70 124 70 260q0 87 -39 138t-106 51z" />
    <glyph glyph-name="uni1ED3" unicode="&#x1ed3;" horiz-adv-x="484" 
d="M229 596h-25l-86 121h71l54 -108l76 68h65l74 -127h-49l-60 88l-123 -88h-48zM286 482q75 0 117.5 -47t42.5 -130q0 -66 -24 -130.5t-66 -111.5q-67 -73 -156 -73q-74 0 -116.5 47t-42.5 130q0 69 28 138.5t74 114.5q64 62 143 62zM286 435q-82 0 -138 -90
q-53 -84 -53 -179q0 -59 29 -94t79 -35q78 0 135 87q54 87 54 184q0 58 -29 92.5t-77 34.5z" />
    <glyph glyph-name="uni1ED4" unicode="&#x1ed4;" horiz-adv-x="626" 
d="M540 803l14 54q81 8 81 59q0 30 -42 30q-20 0 -51 -9l6 35q40 13 74 13q78 0 78 -53q0 -63 -85 -91q-11 -3 -25 -8l-16 -54h-17l33 -46h-55l-73 81l-129 -81h-52l144 120h79zM401 680q101 0 155.5 -63t54.5 -179q0 -92 -32 -184t-87 -158q-93 -109 -218 -109
q-98 0 -152 63t-54 176q0 95 33 190t89 160q89 104 211 104zM404 630q-111 0 -189 -118q-38 -59 -62 -139.5t-24 -152.5q0 -84 40 -133.5t108 -49.5q119 0 202 144q70 124 70 260q0 87 -39 138t-106 51z" />
    <glyph glyph-name="uni1ED5" unicode="&#x1ed5;" horiz-adv-x="484" 
d="M415 624l14 54q81 6 81 58q0 31 -42 31q-19 0 -52 -9l6 35q42 13 75 13q78 0 78 -53q0 -62 -85 -91q-3 -1 -11.5 -3.5t-13.5 -4.5l-16 -54h-20l29 -50h-49l-60 88l-123 -88h-48l141 127h65zM286 482q75 0 117.5 -47t42.5 -130q0 -66 -24 -130.5t-66 -111.5
q-67 -73 -156 -73q-74 0 -116.5 47t-42.5 130q0 69 28 138.5t74 114.5q64 62 143 62zM286 435q-82 0 -138 -90q-53 -84 -53 -179q0 -59 29 -94t79 -35q78 0 135 87q54 87 54 184q0 58 -29 92.5t-77 34.5z" />
    <glyph glyph-name="uni1ED6" unicode="&#x1ed6;" horiz-adv-x="626" 
d="M407 680q96 0 150 -64t54 -178q0 -92 -32 -184t-87 -158q-93 -109 -218 -109q-98 0 -152 63t-54 178q0 94 33.5 189t88.5 159q89 104 217 104zM404 630q-111 0 -189 -118q-38 -59 -62 -139.5t-24 -152.5q0 -84 40 -133.5t108 -49.5q120 0 202 144q31 56 51 128.5
t20 131.5q0 85 -40 137t-106 52zM425 853h79l86 -120h-55l-73 81l-129 -81h-52zM354 876l-34 8q45 90 112 90q27 0 59 -22q33 -23 52 -23q39 0 65 47l36 -9q-42 -92 -109 -92q-31 0 -67 26q-30 22 -49 22q-34 0 -65 -47z" />
    <glyph glyph-name="uni1ED7" unicode="&#x1ed7;" horiz-adv-x="484" 
d="M290 482q72 0 114 -47.5t42 -128.5q0 -67 -24 -131.5t-66 -111.5q-67 -73 -156 -73q-74 0 -116.5 47.5t-42.5 130.5q0 68 28 137.5t74 114.5q62 62 147 62zM286 435q-82 0 -138 -90q-53 -84 -53 -179q0 -59 29 -94t79 -35q78 0 135 87q54 87 54 184q0 58 -29 92.5
t-77 34.5zM319 677h65l74 -127h-49l-60 88l-123 -88h-48zM245 696l-34 8q42 100 104 100q28 0 59 -30q31 -32 50 -32q33 0 55 64l35 -8q-37 -103 -102 -103q-30 0 -65 34q-29 28 -47 28q-30 0 -55 -61z" />
    <glyph glyph-name="uni1ED8" unicode="&#x1ed8;" horiz-adv-x="626" 
d="M407 680q96 0 150 -64t54 -178q0 -92 -32 -184t-87 -158q-93 -109 -218 -109q-98 0 -152 63t-54 178q0 94 33.5 189t88.5 159q89 104 217 104zM404 630q-111 0 -189 -118q-38 -59 -62 -139.5t-24 -152.5q0 -84 40 -133.5t108 -49.5q120 0 202 144q31 56 51 128.5
t20 131.5q0 85 -40 137t-106 52zM425 853h79l86 -120h-55l-73 81l-129 -81h-52zM279 -51q17 0 27 -10t10 -27q0 -22 -14.5 -37.5t-35.5 -15.5q-18 0 -28.5 10.5t-10.5 27.5q0 22 15 37t37 15z" />
    <glyph glyph-name="uni1ED9" unicode="&#x1ed9;" horiz-adv-x="484" 
d="M290 482q72 0 114 -47.5t42 -128.5q0 -67 -24 -131.5t-66 -111.5q-67 -73 -156 -73q-74 0 -116.5 47.5t-42.5 130.5q0 68 28 137.5t74 114.5q62 62 147 62zM286 435q-82 0 -138 -90q-53 -84 -53 -179q0 -59 29 -94t79 -35q78 0 135 87q54 87 54 184q0 58 -29 92.5
t-77 34.5zM319 677h65l74 -127h-49l-60 88l-123 -88h-48zM197 -51q37 0 37 -37q0 -22 -14.5 -37.5t-35.5 -15.5q-18 0 -28.5 10.5t-10.5 27.5q0 22 15 37t37 15z" />
    <glyph glyph-name="uni1EDA" unicode="&#x1eda;" horiz-adv-x="626" 
d="M604 515h-1q8 -40 8 -77q0 -92 -32 -184t-87 -158q-93 -109 -218 -109q-98 0 -152 63t-54 176q0 96 33 190.5t89 159.5q89 104 214 104q70 0 119.5 -34t70.5 -96q44 40 58 72q-4 -1 -10 -1q-14 0 -23.5 9.5t-9.5 22.5q0 22 17.5 39t39.5 17q19 0 30.5 -12t11.5 -32
q0 -63 -104 -150zM404 630q-111 0 -189 -118q-38 -59 -62 -139.5t-24 -152.5q0 -84 40 -133.5t108 -49.5q120 0 202 144q31 56 51 128.5t20 131.5q0 85 -40 137t-106 52zM481 847h114l-166 -108h-59z" />
    <glyph glyph-name="uni1EDB" unicode="&#x1edb;" horiz-adv-x="484" 
d="M437 375q38 35 52 66q-4 -1 -10 -1q-13 0 -22 8.5t-9 21.5q0 20 16.5 36.5t37.5 16.5q19 0 29.5 -11t10.5 -31q0 -62 -98 -142q2 -11 2 -33q0 -66 -24 -131t-67 -112q-66 -73 -155 -73q-74 0 -116.5 47t-42.5 130q0 70 27.5 138.5t74.5 114.5q64 62 145 62q55 0 94 -28.5
t55 -78.5zM286 435q-82 0 -138 -90q-53 -84 -53 -179q0 -59 29 -94t79 -35q78 0 135 87q54 87 54 183q0 58 -29 93t-77 35zM385 671h91l-157 -115h-48z" />
    <glyph glyph-name="uni1EDC" unicode="&#x1edc;" horiz-adv-x="626" 
d="M604 515h-1q8 -40 8 -77q0 -92 -32 -184t-87 -158q-93 -109 -218 -109q-98 0 -152 63t-54 176q0 96 33 190.5t89 159.5q89 104 214 104q70 0 119.5 -34t70.5 -96q44 40 58 72q-4 -1 -10 -1q-14 0 -23.5 9.5t-9.5 22.5q0 22 17.5 39t39.5 17q19 0 30.5 -12t11.5 -32
q0 -63 -104 -150zM404 630q-111 0 -189 -118q-38 -59 -62 -139.5t-24 -152.5q0 -84 40 -133.5t108 -49.5q120 0 202 144q31 56 51 128.5t20 131.5q0 85 -40 137t-106 52zM278 851h80l81 -115h-55z" />
    <glyph glyph-name="uni1EDD" unicode="&#x1edd;" horiz-adv-x="484" 
d="M437 375q38 35 52 66q-4 -1 -10 -1q-13 0 -22 8.5t-9 21.5q0 20 16.5 36.5t37.5 16.5q19 0 29.5 -11t10.5 -31q0 -62 -98 -142q2 -11 2 -33q0 -66 -24 -131t-67 -112q-66 -73 -155 -73q-74 0 -116.5 47t-42.5 130q0 70 27.5 138.5t74.5 114.5q64 62 145 62q55 0 94 -28.5
t55 -78.5zM286 435q-82 0 -138 -90q-53 -84 -53 -179q0 -59 29 -94t79 -35q78 0 135 87q54 87 54 183q0 58 -29 93t-77 35zM194 664h71l61 -121h-46z" />
    <glyph glyph-name="uni1EDE" unicode="&#x1ede;" horiz-adv-x="626" 
d="M604 515h-1q8 -40 8 -77q0 -92 -32 -184t-87 -158q-93 -109 -218 -109q-98 0 -152 63t-54 176q0 96 33 190.5t89 159.5q89 104 214 104q70 0 119.5 -34t70.5 -96q44 40 58 72q-4 -1 -10 -1q-14 0 -23.5 9.5t-9.5 22.5q0 22 17.5 39t39.5 17q19 0 30.5 -12t11.5 -32
q0 -63 -104 -150zM404 630q-111 0 -189 -118q-38 -59 -62 -139.5t-24 -152.5q0 -84 40 -133.5t108 -49.5q120 0 202 144q31 56 51 128.5t20 131.5q0 85 -40 137t-106 52zM400 739l20 78q82 6 82 59q0 30 -42 30q-20 0 -52 -9l6 35q40 13 74 13q79 0 79 -53q0 -32 -28 -60
q-18 -17 -58 -31q-8 -2 -24 -8l-16 -54h-41z" />
    <glyph glyph-name="uni1EDF" unicode="&#x1edf;" horiz-adv-x="484" 
d="M437 375q38 35 52 66q-4 -1 -10 -1q-13 0 -22 8.5t-9 21.5q0 20 16.5 36.5t37.5 16.5q19 0 29.5 -11t10.5 -31q0 -62 -98 -142q2 -11 2 -33q0 -66 -24 -131t-67 -112q-66 -73 -155 -73q-74 0 -116.5 47t-42.5 130q0 70 27.5 138.5t74.5 114.5q64 62 145 62q55 0 94 -28.5
t55 -78.5zM286 435q-82 0 -138 -90q-53 -84 -53 -179q0 -59 29 -94t79 -35q78 0 135 87q54 87 54 183q0 58 -29 93t-77 35zM284 560l20 78q81 8 81 59q0 30 -42 30q-19 0 -51 -9l6 35q40 13 74 13q78 0 78 -53q0 -63 -85 -91q-11 -3 -25 -8l-16 -54h-40z" />
    <glyph glyph-name="uni1EE0" unicode="&#x1ee0;" horiz-adv-x="626" 
d="M604 515h-1q8 -40 8 -77q0 -92 -32 -184t-87 -158q-93 -109 -218 -109q-98 0 -152 63t-54 176q0 96 33 190.5t89 159.5q89 104 214 104q70 0 119.5 -34t70.5 -96q44 40 58 72q-4 -1 -10 -1q-14 0 -23.5 9.5t-9.5 22.5q0 22 17.5 39t39.5 17q19 0 30.5 -12t11.5 -32
q0 -63 -104 -150zM404 630q-111 0 -189 -118q-38 -59 -62 -139.5t-24 -152.5q0 -84 40 -133.5t108 -49.5q120 0 202 144q31 56 51 128.5t20 131.5q0 85 -40 137t-106 52zM315 744l-34 8q45 90 112 90q27 0 59 -22q33 -23 52 -23q38 0 65 47l36 -9q-42 -92 -109 -92
q-31 0 -67 26q-30 22 -49 22q-34 0 -65 -47z" />
    <glyph glyph-name="uni1EE1" unicode="&#x1ee1;" horiz-adv-x="484" 
d="M437 375q38 35 52 66q-4 -1 -10 -1q-13 0 -22 8.5t-9 21.5q0 20 16.5 36.5t37.5 16.5q19 0 29.5 -11t10.5 -31q0 -62 -98 -142q2 -11 2 -33q0 -66 -24 -131t-67 -112q-66 -73 -155 -73q-74 0 -116.5 47t-42.5 130q0 70 27.5 138.5t74.5 114.5q64 62 145 62q55 0 94 -28.5
t55 -78.5zM286 435q-82 0 -138 -90q-53 -84 -53 -179q0 -59 29 -94t79 -35q78 0 135 87q54 87 54 183q0 58 -29 93t-77 35zM209 559l-34 8q42 100 104 100q29 0 59 -30q33 -32 50 -32q33 0 55 64l36 -8q-39 -103 -102 -103q-31 0 -66 34q-29 28 -47 28q-30 0 -55 -61z" />
    <glyph glyph-name="uni1EE2" unicode="&#x1ee2;" horiz-adv-x="626" 
d="M604 515h-1q8 -40 8 -77q0 -92 -32 -184t-87 -158q-93 -109 -218 -109q-98 0 -152 63t-54 176q0 96 33 190.5t89 159.5q89 104 214 104q70 0 119.5 -34t70.5 -96q44 40 58 72q-4 -1 -10 -1q-14 0 -23.5 9.5t-9.5 22.5q0 22 17.5 39t39.5 17q19 0 30.5 -12t11.5 -32
q0 -63 -104 -150zM404 630q-111 0 -189 -118q-38 -59 -62 -139.5t-24 -152.5q0 -84 40 -133.5t108 -49.5q120 0 202 144q31 56 51 128.5t20 131.5q0 85 -40 137t-106 52zM278 -51q37 0 37 -37q0 -23 -14 -38t-36 -15q-38 0 -38 38q0 22 14.5 37t36.5 15z" />
    <glyph glyph-name="uni1EE3" unicode="&#x1ee3;" horiz-adv-x="484" 
d="M437 375q38 35 52 66q-4 -1 -10 -1q-13 0 -22 8.5t-9 21.5q0 20 16.5 36.5t37.5 16.5q19 0 29.5 -11t10.5 -31q0 -62 -98 -142q2 -11 2 -33q0 -66 -24 -131t-67 -112q-66 -73 -155 -73q-74 0 -116.5 47t-42.5 130q0 70 27.5 138.5t74.5 114.5q64 62 145 62q55 0 94 -28.5
t55 -78.5zM286 435q-82 0 -138 -90q-53 -84 -53 -179q0 -59 29 -94t79 -35q78 0 135 87q54 87 54 183q0 58 -29 93t-77 35zM215 -51q37 0 37 -37q0 -23 -14 -38t-36 -15q-18 0 -28.5 10.5t-10.5 27.5q0 22 15.5 37t36.5 15z" />
    <glyph glyph-name="uni1EE4" unicode="&#x1ee4;" horiz-adv-x="552" 
d="M166 667h55l-103 -416q-16 -65 -16 -102q0 -112 134 -112q112 0 164 80q15 23 23.5 49t28.5 105l98 396h55l-98 -397q-22 -92 -31.5 -119.5t-26.5 -56.5q-31 -51 -86.5 -79t-125.5 -28q-90 0 -140 40t-50 113q0 52 21 130zM221 -51q17 0 27 -10.5t10 -26.5
q0 -22 -14.5 -37.5t-35.5 -15.5q-39 0 -39 38q0 22 15 37t37 15z" />
    <glyph glyph-name="uni1EE5" unicode="&#x1ee5;" horiz-adv-x="464" 
d="M133 473h50l-74 -296q-12 -51 -12 -73q0 -31 22 -49t59 -18q64 0 112 61q29 36 47 108l66 267h50l-82 -331q-18 -74 -21.5 -93t-3.5 -49h-51v8q0 29 7 58q-54 -76 -135 -76q-54 0 -87 29t-33 76q0 29 14 90zM187 -51q37 0 37 -37q0 -23 -14 -38t-36 -15q-18 0 -28.5 10.5
t-10.5 27.5q0 22 15.5 37t36.5 15z" />
    <glyph glyph-name="uni1EE6" unicode="&#x1ee6;" horiz-adv-x="552" 
d="M166 667h55l-103 -416q-16 -65 -16 -102q0 -112 134 -112q112 0 164 80q15 23 23.5 49t28.5 105l98 396h55l-98 -397q-22 -92 -31.5 -119.5t-26.5 -56.5q-31 -51 -86.5 -79t-125.5 -28q-90 0 -140 40t-50 113q0 52 21 130zM366 740l20 78q81 8 81 59q0 30 -42 30
q-19 0 -51 -9l6 35q40 13 74 13q78 0 78 -53q0 -63 -85 -91q-11 -3 -25 -8l-16 -54h-40z" />
    <glyph glyph-name="uni1EE7" unicode="&#x1ee7;" horiz-adv-x="464" 
d="M133 473h50l-74 -296q-12 -51 -12 -73q0 -31 22 -49t59 -18q64 0 112 61q29 36 47 108l66 267h50l-82 -331q-18 -74 -21.5 -93t-3.5 -49h-51v8q0 29 7 58q-54 -76 -135 -76q-54 0 -87 29t-33 76q0 29 14 90zM280 559l21 78q81 6 81 59q0 30 -42 30q-20 0 -52 -9l6 35
q42 13 75 13q78 0 78 -53q0 -62 -85 -91q-3 -1 -11.5 -3.5t-13.5 -4.5l-16 -54h-41z" />
    <glyph glyph-name="uni1EE8" unicode="&#x1ee8;" horiz-adv-x="552" 
d="M166 667h55l-103 -416q-16 -65 -16 -102q0 -112 134 -112q112 0 164 80q15 23 23.5 49t28.5 105l98 396h55l-98 -397q-22 -92 -31.5 -119.5t-26.5 -56.5q-31 -51 -86.5 -79t-125.5 -28q-90 0 -140 40t-50 113q0 52 21 130zM692 523h-53q81 59 101 107h-10q-14 0 -23.5 9
t-9.5 22q0 22 18 39.5t39 17.5q19 0 30.5 -12.5t11.5 -32.5q0 -63 -104 -150zM444 847h114l-166 -108h-59z" />
    <glyph glyph-name="uni1EE9" unicode="&#x1ee9;" horiz-adv-x="464" 
d="M133 473h50l-74 -296q-12 -51 -12 -73q0 -31 22 -49t59 -18q64 0 112 61q29 36 47 108l66 267h50l-82 -331q-18 -74 -21.5 -93t-3.5 -49h-51v8q0 29 7 58q-54 -76 -135 -76q-54 0 -87 29t-33 76q0 29 14 90zM525 320h-50q76 55 96 102q-4 -1 -10 -1q-13 0 -22 8.5
t-9 21.5q0 21 16.5 37.5t37.5 16.5q18 0 29 -11.5t11 -30.5q0 -61 -99 -143zM376 671h90l-156 -115h-49z" />
    <glyph glyph-name="uni1EEA" unicode="&#x1eea;" horiz-adv-x="552" 
d="M166 667h55l-103 -416q-16 -65 -16 -102q0 -112 134 -112q112 0 164 80q15 23 23.5 49t28.5 105l98 396h55l-98 -397q-22 -92 -31.5 -119.5t-26.5 -56.5q-31 -51 -86.5 -79t-125.5 -28q-90 0 -140 40t-50 113q0 52 21 130zM692 523h-53q81 59 101 107h-10q-14 0 -23.5 9
t-9.5 22q0 22 18 39.5t39 17.5q19 0 30.5 -12.5t11.5 -32.5q0 -63 -104 -150zM243 844h80l81 -115h-55z" />
    <glyph glyph-name="uni1EEB" unicode="&#x1eeb;" horiz-adv-x="464" 
d="M133 473h50l-74 -296q-12 -51 -12 -73q0 -31 22 -49t59 -18q64 0 112 61q29 36 47 108l66 267h50l-82 -331q-18 -74 -21.5 -93t-3.5 -49h-51v8q0 29 7 58q-54 -76 -135 -76q-54 0 -87 29t-33 76q0 29 14 90zM525 320h-50q76 55 96 102q-4 -1 -10 -1q-13 0 -22 8.5
t-9 21.5q0 21 16.5 37.5t37.5 16.5q18 0 29 -11.5t11 -30.5q0 -61 -99 -143zM195 667h71l61 -123h-46z" />
    <glyph glyph-name="uni1EEC" unicode="&#x1eec;" horiz-adv-x="552" 
d="M166 667h55l-103 -416q-16 -65 -16 -102q0 -112 134 -112q112 0 164 80q15 23 23.5 49t28.5 105l98 396h55l-98 -397q-22 -92 -31.5 -119.5t-26.5 -56.5q-31 -51 -86.5 -79t-125.5 -28q-90 0 -140 40t-50 113q0 52 21 130zM692 523h-53q81 59 101 107h-10q-14 0 -23.5 9
t-9.5 22q0 22 18 39.5t39 17.5q19 0 30.5 -12.5t11.5 -32.5q0 -63 -104 -150zM378 723l20 78q81 7 81 59q0 30 -42 30q-19 0 -52 -9l6 35q42 13 75 13q78 0 78 -53q0 -63 -85 -91l-25 -8l-16 -54h-40z" />
    <glyph glyph-name="uni1EED" unicode="&#x1eed;" horiz-adv-x="464" 
d="M133 473h50l-74 -296q-12 -51 -12 -73q0 -31 22 -49t59 -18q64 0 112 61q29 36 47 108l66 267h50l-82 -331q-18 -74 -21.5 -93t-3.5 -49h-51v8q0 29 7 58q-54 -76 -135 -76q-54 0 -87 29t-33 76q0 29 14 90zM525 320h-50q76 55 96 102q-4 -1 -10 -1q-13 0 -22 8.5
t-9 21.5q0 21 16.5 37.5t37.5 16.5q18 0 29 -11.5t11 -30.5q0 -61 -99 -143zM273 539l20 78q81 7 81 59q0 30 -41 30q-20 0 -52 -9l6 35q40 13 74 13q78 0 78 -53q0 -63 -85 -91q-4 -1 -25 -8l-16 -54h-40z" />
    <glyph glyph-name="uni1EEE" unicode="&#x1eee;" horiz-adv-x="552" 
d="M166 667h55l-103 -416q-16 -65 -16 -102q0 -112 134 -112q112 0 164 80q15 23 23.5 49t28.5 105l98 396h55l-98 -397q-22 -92 -31.5 -119.5t-26.5 -56.5q-31 -51 -86.5 -79t-125.5 -28q-90 0 -140 40t-50 113q0 52 21 130zM692 523h-53q81 59 101 107h-10q-14 0 -23.5 9
t-9.5 22q0 22 18 39.5t39 17.5q19 0 30.5 -12.5t11.5 -32.5q0 -63 -104 -150zM279 744l-34 8q43 90 111 90q27 0 60 -22q31 -23 51 -23q39 0 65 47l36 -9q-42 -92 -109 -92q-31 0 -67 26q-30 22 -48 22q-36 0 -65 -47z" />
    <glyph glyph-name="uni1EEF" unicode="&#x1eef;" horiz-adv-x="464" 
d="M133 473h50l-74 -296q-12 -51 -12 -73q0 -31 22 -49t59 -18q64 0 112 61q29 36 47 108l66 267h50l-82 -331q-18 -74 -21.5 -93t-3.5 -49h-51v8q0 29 7 58q-54 -76 -135 -76q-54 0 -87 29t-33 76q0 29 14 90zM525 320h-50q76 55 96 102q-4 -1 -10 -1q-13 0 -22 8.5
t-9 21.5q0 21 16.5 37.5t37.5 16.5q18 0 29 -11.5t11 -30.5q0 -61 -99 -143zM200 559l-34 8q42 100 104 100q28 0 58 -30q33 -32 51 -32q32 0 54 64l36 -8q-39 -103 -102 -103q-31 0 -65 34q-29 28 -47 28q-31 0 -55 -61z" />
    <glyph glyph-name="uni1EF0" unicode="&#x1ef0;" horiz-adv-x="552" 
d="M166 667h55l-103 -416q-16 -65 -16 -102q0 -112 134 -112q112 0 164 80q15 23 23.5 49t28.5 105l98 396h55l-98 -397q-22 -92 -31.5 -119.5t-26.5 -56.5q-31 -51 -86.5 -79t-125.5 -28q-90 0 -140 40t-50 113q0 52 21 130zM692 523h-53q81 59 101 107h-10q-14 0 -23.5 9
t-9.5 22q0 22 18 39.5t39 17.5q19 0 30.5 -12.5t11.5 -32.5q0 -63 -104 -150zM226 -51q37 0 37 -37q0 -23 -13.5 -38t-35.5 -15q-39 0 -39 38q0 22 14.5 37t36.5 15z" />
    <glyph glyph-name="uni1EF1" unicode="&#x1ef1;" horiz-adv-x="464" 
d="M133 473h50l-74 -296q-12 -51 -12 -73q0 -31 22 -49t59 -18q64 0 112 61q29 36 47 108l66 267h50l-82 -331q-18 -74 -21.5 -93t-3.5 -49h-51v8q0 29 7 58q-54 -76 -135 -76q-54 0 -87 29t-33 76q0 29 14 90zM525 320h-50q76 55 96 102q-4 -1 -10 -1q-13 0 -22 8.5
t-9 21.5q0 21 16.5 37.5t37.5 16.5q18 0 29 -11.5t11 -30.5q0 -61 -99 -143zM179 -51q37 0 37 -37q0 -23 -14 -38t-36 -15q-18 0 -28.5 10.5t-10.5 27.5q0 21 15.5 36.5t36.5 15.5z" />
    <glyph glyph-name="uni1EF4" unicode="&#x1ef4;" horiz-adv-x="490" 
d="M130 667h63l76 -336l243 336h68l-294 -381l-70 -286h-55l72 286zM174 -51q17 0 27 -10t10 -27q0 -22 -14.5 -37.5t-35.5 -15.5q-18 0 -28.5 10.5t-10.5 27.5q0 22 15 37t37 15z" />
    <glyph glyph-name="uni1EF5" unicode="&#x1ef5;" horiz-adv-x="414" 
d="M82 473h54l28 -432l241 432h56l-252 -433q-74 -129 -121 -177q-60 -62 -147 -62q-9 0 -17 1l13 53q64 -1 98.5 25.5t89.5 120.5zM243 -51q37 0 37 -37q0 -23 -14 -38t-36 -15q-17 0 -28 10.5t-11 27.5q0 21 15.5 36.5t36.5 15.5z" />
    <glyph glyph-name="uni1EF6" unicode="&#x1ef6;" horiz-adv-x="490" 
d="M130 667h63l76 -336l243 336h67l-294 -381l-69 -286h-55l72 286zM329 736l20 78q81 8 81 59q0 30 -41 30q-20 0 -52 -9l6 35q40 13 74 13q78 0 78 -53q0 -63 -85 -91q-4 -1 -25 -8l-16 -54h-40z" />
    <glyph glyph-name="uni1EF7" unicode="&#x1ef7;" horiz-adv-x="414" 
d="M82 473h54l28 -432l241 432h56l-252 -433q-74 -129 -121 -177q-60 -62 -147 -62q-9 0 -17 1l13 53q64 -1 98.5 25.5t89.5 120.5zM244 540l20 78q81 8 81 59q0 30 -42 30q-19 0 -51 -9l6 35q40 13 74 13q78 0 78 -53q0 -63 -85 -91q-11 -3 -25 -8l-16 -54h-40z" />
    <glyph glyph-name="uni1EF8" unicode="&#x1ef8;" horiz-adv-x="490" 
d="M130 667h63l76 -336l243 336h67l-294 -381l-69 -286h-55l72 286zM247 744l-34 8q45 90 111 90q28 0 60 -22q33 -23 52 -23q38 0 65 47l35 -9q-40 -92 -108 -92q-31 0 -68 26q-30 22 -48 22q-36 0 -65 -47z" />
    <glyph glyph-name="uni1EF9" unicode="&#x1ef9;" horiz-adv-x="414" 
d="M82 473h54l28 -432l241 432h56l-252 -433q-74 -129 -121 -177q-60 -62 -147 -62q-9 0 -17 1l13 53q64 -1 98.5 25.5t89.5 120.5zM175 559l-34 8q40 100 104 100q28 0 58 -30q33 -32 50 -32q33 0 55 64l36 -8q-39 -103 -102 -103q-31 0 -66 34q-28 28 -46 28
q-31 0 -55 -61z" />
    <glyph glyph-name="uni2002" unicode="&#x2002;" 
 />
    <glyph glyph-name="uni2003" unicode="&#x2003;" horiz-adv-x="1000" 
 />
    <glyph glyph-name="uni2007" unicode="&#x2007;" horiz-adv-x="513" 
 />
    <glyph glyph-name="uni200A" unicode="&#x200a;" horiz-adv-x="125" 
 />
    <glyph glyph-name="uni2011" unicode="&#x2011;" horiz-adv-x="270" 
d="M12 274h270l-11 -44h-270z" />
    <glyph glyph-name="figuredash" unicode="&#x2012;" horiz-adv-x="513" 
d="M102 273h332l-11 -43h-332z" />
    <glyph glyph-name="endash" unicode="&#x2013;" horiz-adv-x="513" 
d="M102 273h332l-11 -43h-332z" />
    <glyph glyph-name="emdash" unicode="&#x2014;" horiz-adv-x="539" 
d="M12 273h539l-11 -43h-539z" />
    <glyph glyph-name="afii00208" unicode="&#x2015;" horiz-adv-x="539" 
d="M12 273h539l-11 -43h-539z" />
    <glyph glyph-name="underscoredbl" unicode="&#x2017;" 
d="M10 -61h500v-35h-500v35zM10 -178h500v-35h-500v35z" />
    <glyph glyph-name="quoteleft" unicode="&#x2018;" horiz-adv-x="251" 
d="M257 679h57q-37 -25 -68 -57.5t-41 -57.5q5 1 11 1q15 0 25 -10t10 -25q0 -23 -18.5 -41.5t-42.5 -18.5q-20 0 -32.5 13t-12.5 34q0 34 30 78t82 84z" />
    <glyph glyph-name="quoteright" unicode="&#x2019;" horiz-adv-x="251" 
d="M168 470h-58q39 27 68.5 58.5t40.5 57.5q-4 -1 -11 -1q-16 0 -25.5 9.5t-9.5 24.5q0 23 19 42t42 19q20 0 32.5 -13t12.5 -35q0 -34 -29.5 -76.5t-81.5 -85.5z" />
    <glyph glyph-name="quotesinglbase" unicode="&#x201a;" horiz-adv-x="251" 
d="M21 -119h-58q86 62 109 115h-11q-16 0 -25.5 9.5t-9.5 24.5q0 23 18.5 41.5t42.5 18.5q20 0 32.5 -12.5t12.5 -34.5q0 -68 -111 -162z" />
    <glyph glyph-name="quotedblleft" unicode="&#x201c;" horiz-adv-x="415" 
d="M421 679h57q-37 -25 -67.5 -57t-41.5 -58q5 1 11 1q15 0 25 -10t10 -25q0 -23 -18.5 -41.5t-42.5 -18.5q-20 0 -32.5 13t-12.5 34q0 34 30 78t82 84zM256 679h58q-37 -25 -68 -57.5t-41 -57.5q5 1 11 1q15 0 25 -10t10 -25q0 -23 -18.5 -41.5t-42.5 -18.5q-20 0 -32.5 13
t-12.5 34q0 34 29.5 77.5t81.5 84.5z" />
    <glyph glyph-name="quotedblright" unicode="&#x201d;" horiz-adv-x="415" 
d="M168 470h-58q39 27 68.5 58.5t40.5 57.5q-4 -1 -11 -1q-16 0 -25.5 9.5t-9.5 24.5q0 23 19 42t42 19q20 0 32.5 -13t12.5 -35q0 -34 -29.5 -76.5t-81.5 -85.5zM332 470h-58q39 27 68.5 58.5t40.5 57.5q-4 -1 -11 -1q-15 0 -25 9.5t-10 24.5q0 23 19 42t42 19
q20 0 32.5 -13t12.5 -35q0 -71 -111 -162z" />
    <glyph glyph-name="quotedblbase" unicode="&#x201e;" horiz-adv-x="415" 
d="M21 -119h-58q86 62 109 115h-11q-16 0 -25.5 9.5t-9.5 24.5q0 23 18.5 41.5t42.5 18.5q20 0 32.5 -12.5t12.5 -34.5q0 -68 -111 -162zM185 -119h-58q87 62 109 115h-11q-15 0 -25 9.5t-10 24.5q0 23 19 41.5t42 18.5q21 0 33 -12.5t12 -34.5q0 -69 -111 -162z" />
    <glyph glyph-name="dagger" unicode="&#x2020;" 
d="M331 650h52l-45 -178h190l-11 -46h-190l-140 -559h-51l139 559h-193l12 46h193z" />
    <glyph glyph-name="daggerdbl" unicode="&#x2021;" 
d="M331 650h49l-29 -119h192l-12 -47h-192l-108 -435h191l-11 -47h-192l-34 -135h-49l33 135h-193l12 47h193l108 435h-193l12 47h193z" />
    <glyph glyph-name="bullet" unicode="&#x2022;" horiz-adv-x="667" 
d="M345 477q60 0 95 -38q43 -46 43 -99q0 -24 -12 -51.5t-30 -47.5q-41 -41 -97 -41q-57 0 -97.5 41t-40.5 98q0 59 41 100q38 38 98 38z" />
    <glyph glyph-name="ellipsis" unicode="&#x2026;" horiz-adv-x="753" 
d="M87 90q18 0 29.5 -12t11.5 -30q0 -24 -16.5 -41.5t-39.5 -17.5q-18 0 -30.5 12t-12.5 29q0 24 17.5 42t40.5 18zM338 90q18 0 29.5 -12t11.5 -30q0 -24 -16.5 -41.5t-39.5 -17.5q-18 0 -30.5 12t-12.5 29q0 24 17.5 42t40.5 18zM589 90q18 0 29.5 -12t11.5 -30
q0 -23 -17 -41t-39 -18q-18 0 -30.5 12t-12.5 29q0 24 17.5 42t40.5 18z" />
    <glyph glyph-name="perthousand" unicode="&#x2030;" horiz-adv-x="884" 
d="M243 673q47 0 73 -31.5t26 -86.5q0 -82 -51 -149q-41 -53 -105 -53q-47 0 -73.5 30.5t-26.5 83.5q0 84 46.5 145t110.5 61zM239 629q-40 0 -71 -48t-31 -111q0 -73 53 -73q41 0 71 47.5t30 112.5q0 72 -52 72zM558 667h52l-527 -667h-51zM459 315q46 0 72.5 -31.5
t26.5 -86.5q0 -84 -51 -149q-43 -54 -105 -54q-46 0 -73 31t-27 84q0 84 46.5 145t110.5 61zM455 271q-41 0 -71.5 -47.5t-30.5 -110.5q0 -75 53 -75q40 0 70.5 48t30.5 113q0 72 -52 72zM752 315q47 0 73 -31.5t26 -86.5q0 -83 -46 -143t-109 -60q-47 0 -74 31t-27 84
q0 84 46.5 145t110.5 61zM748 271q-40 0 -71 -48t-31 -110q0 -75 53 -75q41 0 71 48t30 113q0 72 -52 72z" />
    <glyph glyph-name="minute" unicode="&#x2032;" horiz-adv-x="251" 
d="M168 470h-58q39 27 68.5 58.5t40.5 57.5q-4 -1 -11 -1q-15 0 -25 9.5t-10 24.5q0 23 19 42t42 19q20 0 32.5 -13t12.5 -35q0 -34 -29.5 -76.5t-81.5 -85.5z" />
    <glyph glyph-name="second" unicode="&#x2033;" horiz-adv-x="415" 
d="M168 470h-58q39 27 68.5 58.5t40.5 57.5q-4 -1 -11 -1q-16 0 -25.5 9.5t-9.5 24.5q0 23 19 42t42 19q20 0 32.5 -13t12.5 -35q0 -34 -29.5 -76.5t-81.5 -85.5zM332 470h-58q39 27 68.5 58.5t40.5 57.5q-4 -1 -11 -1q-15 0 -25 9.5t-10 24.5q0 23 19 42t42 19
q20 0 32.5 -13t12.5 -35q0 -71 -111 -162z" />
    <glyph glyph-name="guilsinglleft" unicode="&#x2039;" horiz-adv-x="211" 
d="M100 0h-33l-23 247l141 225h39l-133 -232z" />
    <glyph glyph-name="guilsinglright" unicode="&#x203a;" horiz-adv-x="211" 
d="M115 472h33l23 -247l-141 -225h-39l132 232z" />
    <glyph glyph-name="exclamdbl" unicode="&#x203c;" horiz-adv-x="391" 
d="M134 667v-178l-11 -309h-33l-11 309v178h55zM134 106v-106h-56v106h56zM332 667v-178l-11 -309h-33l-11 309v178h55zM333 106v-106h-56v106h56z" />
    <glyph glyph-name="uni203E" unicode="&#x203e;" 
d="M10 851h500v-47h-500v47z" />
    <glyph glyph-name="fraction" unicode="&#x2044;" horiz-adv-x="141" 
d="M348 650h59l-566 -650h-58z" />
    <glyph glyph-name="zerosuperior" unicode="&#x2070;" horiz-adv-x="335" 
d="M267 656q48 0 73.5 -31.5t25.5 -90.5q0 -53 -16.5 -109.5t-43.5 -96.5q-50 -73 -121 -73q-49 0 -75.5 31t-26.5 89q0 55 18 114t47 99q49 68 119 68zM263 620q-55 0 -97 -81q-39 -78 -39 -167q0 -81 62 -81q56 0 95 81q39 80 39 166q0 38 -16 60t-44 22z" />
    <glyph glyph-name="foursuperior" unicode="&#x2074;" horiz-adv-x="335" 
d="M282 395h61l-9 -37h-61l-25 -101h-42l25 100h-166l7 30l225 266h49zM242 395l55 207l-173 -207h118z" />
    <glyph glyph-name="fivesuperior" unicode="&#x2075;" horiz-adv-x="335" 
d="M193 650h185l-16 -37h-141l-40 -106q33 19 64 19q43 0 68.5 -26t25.5 -70q0 -71 -47 -123t-112 -52q-43 0 -69 22.5t-26 59.5q0 11 1 18h41v-10q0 -25 15.5 -39t43.5 -14q43 0 76.5 41.5t33.5 94.5q0 27 -16.5 43.5t-44.5 16.5q-44 0 -79 -44l-35 3z" />
    <glyph glyph-name="sixsuperior" unicode="&#x2076;" horiz-adv-x="335" 
d="M319 660h53q-95 -69 -155 -144q21 7 35 7q39 0 63 -28t24 -72q0 -69 -47 -122q-40 -46 -100 -46q-46 0 -72 26t-26 73q0 92 109 205q60 61 116 101zM238 487q-39 0 -70 -40.5t-31 -92.5q0 -29 16 -46t42 -17q40 0 70.5 39.5t30.5 90.5q0 30 -16 48t-42 18z" />
    <glyph glyph-name="sevensuperior" unicode="&#x2077;" horiz-adv-x="335" 
d="M160 650h244l-6 -31l-272 -359h-48l270 353l-196 -2z" />
    <glyph glyph-name="eightsuperior" unicode="&#x2078;" horiz-adv-x="335" 
d="M169 467q-28 27 -28 66q0 49 37.5 86t87.5 37q41 0 66 -24t25 -64q0 -35 -19.5 -65t-50.5 -42q38 -24 38 -72q0 -57 -39 -95.5t-96 -38.5q-49 0 -77.5 25t-28.5 67q0 85 85 120zM263 620q-31 0 -55 -27t-24 -62q0 -22 15 -36.5t37 -14.5q31 0 54.5 26.5t23.5 60.5
q0 23 -14.5 38t-36.5 15zM220 445q-38 0 -65.5 -28t-27.5 -68q0 -26 17 -42t46 -16q38 0 65 28.5t27 69.5q0 25 -17.5 40.5t-44.5 15.5z" />
    <glyph glyph-name="ninesuperior" unicode="&#x2079;" horiz-adv-x="335" 
d="M130 250h-53q98 69 155 144q-21 -7 -34 -7q-39 0 -63.5 28t-24.5 72q0 68 44 118.5t104 50.5q45 0 71 -27t26 -73q0 -49 -25.5 -97t-83.5 -108q-61 -63 -116 -101zM255 620q-39 0 -70.5 -40.5t-31.5 -90.5q0 -29 16 -47.5t42 -18.5q41 0 70.5 39.5t29.5 93.5q0 30 -15 47
t-41 17z" />
    <glyph glyph-name="parenleftsuperior" unicode="&#x207d;" horiz-adv-x="179" 
d="M251 667h37q-77 -63 -117 -141q-51 -102 -51 -211q0 -72 26 -163h-28q-40 80 -40 171q0 103 47.5 197t125.5 147z" />
    <glyph glyph-name="parenrightsuperior" unicode="&#x207e;" horiz-adv-x="186" 
d="M26 152h-37q77 62 116 141q52 103 52 211q0 69 -26 163h28q40 -80 40 -171q0 -103 -47.5 -197t-125.5 -147z" />
    <glyph glyph-name="zeroinferior" unicode="&#x2080;" horiz-adv-x="335" 
d="M202 395q99 0 99 -121q0 -53 -16.5 -109.5t-43.5 -96.5q-50 -73 -121 -73q-49 0 -75.5 31t-26.5 89q0 55 18 114t47 99q48 67 119 67zM198 359q-30 0 -52.5 -18.5t-44.5 -61.5q-39 -78 -39 -167q0 -81 62 -81q55 0 95 81q39 80 39 166q0 39 -15.5 60t-44.5 21z" />
    <glyph glyph-name="oneinferior" unicode="&#x2081;" horiz-adv-x="335" 
d="M107 306l8 31q39 2 60.5 14t34.5 42h30l-98 -393h-40l77 309z" />
    <glyph glyph-name="twoinferior" unicode="&#x2082;" horiz-adv-x="335" 
d="M112 271h-42q23 125 134 125q43 0 71 -22.5t28 -56.5q0 -39 -49 -93q-35 -38 -121 -123q-7 -8 -27.5 -28t-35.5 -36h172l-9 -37h-230l7 30q33 31 170 170q48 49 64 71.5t16 41.5q0 20 -17 32.5t-43 12.5q-71 0 -88 -87z" />
    <glyph glyph-name="threeinferior" unicode="&#x2083;" horiz-adv-x="335" 
d="M110 285h-42q26 110 126 110q47 0 75.5 -24t28.5 -64q0 -69 -77 -99q46 -20 46 -76q0 -58 -42.5 -97.5t-104.5 -39.5q-50 0 -80 26.5t-30 71.5q0 11 1 22h42v-12q0 -71 70 -71q42 0 71 29t29 70q0 61 -72 61h-18l9 37q9 -1 23 -1q37 0 63 22t26 54q0 25 -17 39t-46 14
q-33 0 -52 -16.5t-29 -55.5z" />
    <glyph glyph-name="fourinferior" unicode="&#x2084;" horiz-adv-x="335" 
d="M217 135h61l-9 -38h-61l-25 -100h-42l25 100h-166l7 30l225 266h49zM177 135l55 207l-173 -207h118z" />
    <glyph glyph-name="fiveinferior" unicode="&#x2085;" horiz-adv-x="335" 
d="M128 390h185l-16 -37h-141l-40 -105q32 18 64 18q44 0 69 -25.5t25 -69.5q0 -73 -47 -124.5t-112 -51.5q-43 0 -69 22.5t-26 59.5q0 11 1 18h41v-10q0 -25 15.5 -39t43.5 -14q43 0 76.5 41.5t33.5 94.5q0 28 -16.5 44.5t-44.5 16.5q-43 0 -79 -45l-35 3z" />
    <glyph glyph-name="sixinferior" unicode="&#x2086;" horiz-adv-x="335" 
d="M254 400h53q-98 -71 -155 -144q21 7 35 7q39 0 63 -27.5t24 -71.5q0 -69 -43.5 -119t-103.5 -50q-46 0 -72 26.5t-26 72.5q0 92 109 205q63 65 116 101zM173 227q-40 0 -70.5 -40t-30.5 -92q0 -29 16 -46.5t42 -17.5q39 0 70 40t31 90q0 31 -15.5 48.5t-42.5 17.5z" />
    <glyph glyph-name="seveninferior" unicode="&#x2087;" horiz-adv-x="335" 
d="M95 390h244l-6 -31l-272 -359h-48l270 353l-196 -2z" />
    <glyph glyph-name="eightinferior" unicode="&#x2088;" horiz-adv-x="335" 
d="M104 208q-28 25 -28 65q0 50 36.5 86t88.5 36q42 0 66.5 -23t24.5 -63q0 -36 -19.5 -65.5t-50.5 -41.5q38 -25 38 -73q0 -56 -39.5 -95t-95.5 -39q-48 0 -77 25.5t-29 67.5q0 40 22.5 71.5t62.5 48.5zM198 359q-32 0 -55.5 -26t-23.5 -61q0 -22 14.5 -36.5t37.5 -14.5
q31 0 54.5 25.5t23.5 60.5q0 24 -14 38t-37 14zM155 186q-38 0 -65.5 -28.5t-27.5 -67.5q0 -26 17.5 -42.5t45.5 -16.5q38 0 65 28.5t27 69.5q0 25 -17.5 41t-44.5 16z" />
    <glyph glyph-name="nineinferior" unicode="&#x2089;" horiz-adv-x="335" 
d="M65 -9h-53q98 69 155 143q-22 -7 -34 -7q-39 0 -63.5 28t-24.5 72q0 68 44.5 118.5t103.5 50.5q45 0 71 -27t26 -73q0 -49 -25.5 -97t-83.5 -108q-65 -66 -116 -100zM190 360q-39 0 -70.5 -40.5t-31.5 -90.5q0 -29 16 -47.5t42 -18.5q41 0 70.5 39.5t29.5 93.5
q0 30 -15 47t-41 17z" />
    <glyph glyph-name="franc" unicode="&#x20a3;" horiz-adv-x="598" 
d="M176 370h265l-13 -50h-261l-80 -320h-58l166 667h339l-13 -50h-283zM450 286h38v-12q0 -10 -3 -30q37 48 79 48q16 0 40 -9l-10 -39q-22 9 -37 9q-32 0 -59 -33.5t-41 -92.5l-32 -127h-39l45 183q18 72 19 103z" />
    <glyph glyph-name="lira" unicode="&#x20a4;" horiz-adv-x="513" 
d="M147 261h-84l10 40h90l27 71h-99l10 40h103q37 104 63 165q23 53 55.5 77t78.5 24q47 0 72.5 -26t25.5 -74q0 -14 -1 -25h-51q1 16 1 21q0 56 -53 56q-40 0 -64 -38.5t-73 -179.5h154l-10 -40h-158l-25 -71h165l-10 -40h-171q-56 -148 -106 -216q46 7 94 7h49
q20 -1 42 -1q52 0 72 15t36 65h51q-9 -77 -67 -111q-36 -20 -134 -20h-223q52 68 130 261z" />
    <glyph glyph-name="peseta" unicode="&#x20a7;" horiz-adv-x="892" 
d="M195 667h112q73 0 110 -7t62 -25q56 -42 56 -126q0 -67 -33.5 -123t-89.5 -82q-31 -14 -68 -19t-114 -5h-73l-70 -280h-58zM166 330h68q113 0 156 22q38 19 62.5 62.5t24.5 92.5q0 59 -34.5 84.5t-116.5 25.5h-88zM559 286h71l-8 -33h-72l-36 -148q-11 -44 -11 -53
q0 -22 24 -22q19 0 45 10l-9 -37q-26 -9 -44 -9q-28 0 -43 13.5t-15 37.5q0 19 12 61l38 147h-42l8 33h43l20 81h39zM848 203h-39q1 4 1 12q0 40 -53 40q-27 0 -42.5 -12t-15.5 -32q0 -15 8.5 -22.5t50.5 -27.5q40 -20 54 -35t14 -39q0 -40 -32.5 -66.5t-82.5 -26.5
q-46 0 -72 21.5t-26 58.5q0 11 1 17h41v-10q0 -51 58 -51q32 0 51 14t19 37q0 15 -8.5 24t-34.5 22q-52 25 -67.5 39.5t-15.5 40.5q0 37 29 60.5t74 23.5q42 0 65.5 -18.5t23.5 -51.5v-7z" />
    <glyph glyph-name="Euro" unicode="&#x20ac;" horiz-adv-x="513" 
d="M98 258h-86l31 46h60q4 26 14 63h-80l31 46h64q45 125 120 190t173 65q110 0 176 -77l-42 -60q-26 47 -58.5 68t-80.5 21q-143 0 -225 -207h293l-33 -46h-276q-11 -35 -15 -63h247l-32 -46h-221q-2 -30 -2 -38q0 -182 147 -182q59 0 106 25t92 81l-20 -93
q-82 -63 -187 -63q-198 0 -198 233q0 22 2 37z" />
    <glyph glyph-name="uni2101" unicode="&#x2101;" horiz-adv-x="836" 
d="M271 670h35l30 -403h-44l-7 111h-151l-68 -111h-45zM283 415l-6 100q0 7 -0.5 17.5t-1.5 18.5q-1 6 -1.5 17.5t-0.5 17.5q0 10 -1 22l-53 -93l-61 -100h125zM698 650h52l-521 -650h-51zM807 295h-43q1 6 1 14q0 29 -19 44.5t-53 15.5q-37 0 -58.5 -16t-21.5 -45
q0 -23 13 -37t63 -45q51 -31 67.5 -53t16.5 -57q0 -54 -39.5 -88.5t-101.5 -34.5q-58 0 -90.5 27.5t-32.5 76.5q0 14 2 27h43q-1 -5 -1 -11q-5 -83 82 -83q40 0 66 22t26 57q0 25 -14.5 42t-56.5 43q-53 33 -70.5 54.5t-17.5 54.5q0 46 35.5 75t92.5 29q52 0 82 -24.5
t30 -67.5z" />
    <glyph glyph-name="afii61248" unicode="&#x2105;" horiz-adv-x="590" 
d="M332 567h-51q0 62 -51 62q-41 0 -72.5 -48t-31.5 -111q0 -72 55 -72q53 0 79 65h53q-17 -53 -52 -81.5t-83 -28.5t-75.5 30.5t-27.5 83.5q0 82 48 147q45 59 111 59q45 0 70.5 -28t27.5 -78zM558 667h52l-527 -667h-51zM459 315q46 0 72.5 -31.5t26.5 -86.5
q0 -84 -51 -149q-43 -54 -105 -54q-46 0 -73 31t-27 84q0 84 46.5 145t110.5 61zM455 271q-41 0 -71.5 -47.5t-30.5 -110.5q0 -75 53 -75q40 0 70.5 48t30.5 113q0 72 -52 72z" />
    <glyph glyph-name="afii61289" unicode="&#x2113;" 
d="M254 270q-34 -171 -34 -218q0 -24 20 -24q28 0 54 58q8 17 18 17q11 0 11 -12q0 -15 -21 -50q-34 -55 -78 -55q-28 0 -45.5 21.5t-17.5 56.5q0 40 15 146q-44 -41 -57 -43q-4 0 -7.5 3.5t-3.5 7.5q0 9 23 28q29 26 52 51q42 218 88 320t103 102q26 0 41 -20.5t15 -54.5
q0 -88 -61 -191q-37 -62 -115 -143zM264 323q134 148 134 279q0 46 -26 46q-29 0 -52.5 -70.5t-55.5 -254.5z" />
    <glyph glyph-name="afii61352" unicode="&#x2116;" horiz-adv-x="829" 
d="M195 667h63l174 -601l146 601h55l-166 -667h-64l-173 598l-146 -598h-55zM756 460q42 0 67.5 -29t25.5 -77q0 -76 -44 -132.5t-103 -56.5q-44 0 -70 28.5t-26 77.5q0 40 17 82.5t44 69.5q39 37 89 37zM749 414q-38 0 -67.5 -42t-29.5 -95q0 -30 15 -48t40 -18
q38 0 67 41.5t29 96.5q0 29 -14.5 47t-39.5 18zM561 105h235l-11 -42h-235z" />
    <glyph glyph-name="trademark" unicode="&#x2122;" horiz-adv-x="688" 
d="M114 667h251l-10 -37h-105l-85 -343h-41l86 343h-105zM414 667h60l27 -329l189 329h62l-94 -380h-41l84 328l-190 -328h-43l-28 328l-80 -328h-41z" />
    <glyph glyph-name="uni2126" unicode="&#x2126;" horiz-adv-x="667" 
d="M38 0v47h195q-195 112 -195 315q0 136 88 228.5t217 92.5t217 -92.5t88 -228.5q0 -204 -195 -315h195v-47h-258v43q79 45 120 92q85 94 85 222q0 117 -73 198t-178 81q-108 0 -180.5 -80t-72.5 -199q0 -199 205 -314v-43h-258z" />
    <glyph glyph-name="onethird" unicode="&#x2153;" horiz-adv-x="811" 
d="M171 566l8 31q39 2 60.5 14t34.5 42h30l-98 -393h-40l77 309zM683 650h59l-566 -650h-58zM586 285h-42q26 110 126 110q47 0 75.5 -24t28.5 -64q0 -69 -77 -99q46 -20 46 -76q0 -58 -42.5 -97.5t-104.5 -39.5q-50 0 -80 26.5t-30 71.5q0 12 1 22h42v-12q0 -71 70 -71
q41 0 70.5 29t29.5 70q0 61 -72 61h-19l10 37q9 -1 23 -1q37 0 63 22.5t26 53.5q0 25 -17 39t-46 14q-33 0 -52 -16.5t-29 -55.5z" />
    <glyph glyph-name="twothirds" unicode="&#x2154;" horiz-adv-x="811" 
d="M176 530h-42q23 126 134 126q43 0 71 -22.5t28 -57.5q0 -39 -49 -93q-25 -27 -121 -122l-63 -64h172l-9 -37h-230l7 30l170 169q48 48 64 70.5t16 42.5t-17.5 33t-42.5 13q-70 0 -88 -88zM683 650h59l-567 -650h-57zM586 285h-43q28 110 127 110q47 0 75.5 -24t28.5 -64
q0 -68 -77 -99q46 -20 46 -76q0 -58 -42.5 -97.5t-104.5 -39.5q-57 0 -85.5 31.5t-23.5 88.5h42q0 -41 9 -55q16 -28 61 -28q41 0 70.5 29t29.5 70q0 61 -72 61h-19l10 37q8 -1 23 -1q37 0 63 22.5t26 53.5q0 25 -17 39t-46 14q-33 0 -52 -16.5t-29 -55.5z" />
    </font>
</defs>
</svg>
