<?xml version="1.0" standalone="no"?>
<!DOCTYPE svg PUBLIC "-//W3C//DTD SVG 1.1//EN" "http://www.w3.org/Graphics/SVG/1.1/DTD/svg11.dtd" >
<svg>
<metadata>
Created by FontForge 20090622 at Mon Aug  1 06:58:13 2016
 By deploy user
(URW)++,Copyright 2006 by (URW)++ Design &#38; Development
</metadata>
<defs>
<font id="CorporateS-Bold" horiz-adv-x="500" >
  <font-face 
    font-family="Corporate S"
    font-weight="700"
    font-stretch="normal"
    units-per-em="1000"
    panose-1="2 2 8 0 0 0 0 0 0 0"
    ascent="800"
    descent="-200"
    x-height="475"
    cap-height="667"
    bbox="-169 -296 1014 1120"
    underline-thickness="111"
    underline-position="6"
    unicode-range="U+0020-U+FB04"
  />
<missing-glyph horiz-adv-x="250" 
 />
    <glyph glyph-name="ff" unicode="ff" horiz-adv-x="623" 
d="M374 475v30q0 88 26 126q38 56 121 56q53 0 109 -22v-99q-50 15 -81 15q-32 0 -42 -18.5t-10 -75.5v-12h113v-96h-113v-379h-123v379h-172v-379h-123v379h-63v96h63v30q0 88 26 126q38 56 121 56q51 0 109 -22v-99q-52 15 -81 15q-32 0 -42 -17.5t-10 -71.5v-17h172z" />
    <glyph glyph-name="fi" unicode="fi" horiz-adv-x="564" 
d="M202 475h113v-96h-113v-379h-123v379h-63v96h63v30q0 88 26 126q38 56 121 56q53 0 109 -22v-99q-50 15 -81 15q-32 0 -42 -18.5t-10 -75.5v-12zM373 475h123v-475h-123v475zM437 680q31 0 50 -19.5t19 -51.5q0 -33 -19.5 -52.5t-51.5 -19.5t-52 19.5t-20 50.5
q0 33 20.5 53t53.5 20z" />
    <glyph glyph-name="fl" unicode="fl" horiz-adv-x="564" 
d="M202 475h113v-96h-113v-379h-123v379h-63v96h63v30q0 88 26 126q38 56 121 56q53 0 109 -22v-99q-50 15 -81 15q-32 0 -42 -18.5t-10 -75.5v-12zM373 671h123v-671h-123v671z" />
    <glyph glyph-name="ffi" unicode="ffi" horiz-adv-x="859" 
d="M374 475v30q0 88 26 126q38 56 121 56q53 0 109 -22v-99q-50 15 -81 15q-32 0 -42 -18.5t-10 -75.5v-12h113v-96h-113v-379h-123v379h-172v-379h-123v379h-63v96h63v30q0 88 26 126q38 56 121 56q51 0 109 -22v-99q-52 15 -81 15q-32 0 -42 -17.5t-10 -71.5v-17h172z
M668 475h123v-475h-123v475zM731 680q32 0 51 -19.5t19 -51.5t-20 -52t-52 -20t-51.5 19t-19.5 51q0 33 20 53t53 20z" />
    <glyph glyph-name="ffl" unicode="ffl" horiz-adv-x="859" 
d="M374 475v30q0 88 26 126q38 56 121 56q53 0 109 -22v-99q-50 15 -81 15q-32 0 -42 -18.5t-10 -75.5v-12h113v-96h-113v-379h-123v379h-172v-379h-123v379h-63v96h63v30q0 88 26 126q38 56 121 56q51 0 109 -22v-99q-52 15 -81 15q-32 0 -42 -17.5t-10 -71.5v-17h172z
M668 671h123v-671h-123v671z" />
    <glyph glyph-name=".notdef" horiz-adv-x="250" 
 />
    <glyph glyph-name=".null" horiz-adv-x="0" 
 />
    <glyph glyph-name="nonmarkingreturn" horiz-adv-x="333" 
 />
    <glyph glyph-name="space" unicode=" " horiz-adv-x="250" 
 />
    <glyph glyph-name="exclam" unicode="!" horiz-adv-x="252" 
d="M60 650h132l-14 -429h-106zM127 146q30 0 52.5 -23t22.5 -54q0 -32 -22 -54t-54 -22t-54.5 22t-22.5 53q0 32 23.5 55t54.5 23z" />
    <glyph glyph-name="quotedbl" unicode="&#x22;" 
d="M204 399h-74l-23 268h120zM369 399h-74l-23 268h120z" />
    <glyph glyph-name="numbersign" unicode="#" horiz-adv-x="600" 
d="M566 282l-13 -83h-118l-31 -199h-97l32 199h-122l-31 -199h-97l31 199h-114l13 83h115l18 116h-114l13 83h114l30 186h96l-29 -186h121l29 186h98l-30 -186h117l-13 -83h-117l-18 -116h117zM370 398h-121l-19 -116h121z" />
    <glyph glyph-name="dollar" unicode="$" horiz-adv-x="570" 
d="M316 569v-169q87 -27 125 -49q95 -54 95 -160q0 -85 -59.5 -140t-160.5 -63v-89h-61v89q-93 10 -142 50q-78 59 -78 171v13h120q2 -56 26 -86t74 -41v195q-91 29 -125 49q-79 48 -79 147q0 82 53.5 132.5t150.5 60.5v75h61v-77q90 -10 144.5 -66t51.5 -136h-118
q-7 75 -78 94zM255 420v150q-82 -16 -82 -74q0 -29 18 -45.5t64 -30.5zM316 270v-177q45 4 70 27t25 59q0 43 -37 67q-17 10 -58 24z" />
    <glyph glyph-name="percent" unicode="%" horiz-adv-x="713" 
d="M500 667h98l-387 -667h-98zM539 317q60 0 100.5 -46.5t40.5 -114.5t-41 -114.5t-101 -46.5q-58 0 -98.5 46.5t-40.5 114.5t40.5 114.5t99.5 46.5zM540 249q-29 0 -46 -25t-17 -68t16.5 -68t45.5 -25q28 0 45.5 25.5t17.5 67.5t-17 67.5t-45 25.5zM173 672q58 0 99.5 -47
t41.5 -114q0 -68 -41 -114.5t-101 -46.5q-59 0 -99.5 47t-40.5 114q0 68 41 114.5t100 46.5zM174 604q-29 0 -46.5 -25.5t-17.5 -67.5t17.5 -67.5t45.5 -25.5t45.5 26t17.5 67t-17.5 67t-44.5 26z" />
    <glyph glyph-name="ampersand" unicode="&#x26;" horiz-adv-x="580" 
d="M427 333h97v-35q0 -114 -53 -184l86 -114h-127l-28 44q-60 -55 -156 -55q-97 0 -158 53.5t-61 139.5q0 80 70 147l50 46q-42 55 -55 81.5t-13 59.5q0 61 46 100.5t117 39.5q68 0 111.5 -39.5t43.5 -101.5q0 -44 -21.5 -79.5t-76.5 -81.5l110 -150q12 22 15.5 39.5
t3.5 53.5q0 20 -1 36zM236 426q61 51 61 92q0 20 -15.5 34t-37.5 14q-23 0 -38.5 -14.5t-15.5 -35.5q0 -19 9 -37t37 -53zM340 121l-126 166q-42 -36 -58.5 -60.5t-16.5 -52.5q0 -40 29 -63t80 -23q58 0 92 33z" />
    <glyph glyph-name="quotesingle" unicode="'" horiz-adv-x="250" 
d="M162 399h-74l-23 268h120z" />
    <glyph glyph-name="parenleft" unicode="(" horiz-adv-x="306" 
d="M180 672h93q-105 -158 -105 -431q0 -281 105 -441h-93q-121 168 -121 436t121 436z" />
    <glyph glyph-name="parenright" unicode=")" horiz-adv-x="306" 
d="M125 -200h-93q105 160 105 431q0 282 -105 441h93q121 -167 121 -435q0 -265 -121 -437z" />
    <glyph glyph-name="asterisk" unicode="*" 
d="M223 532v118h54v-118l113 36l16 -51l-112 -37l69 -96l-43 -32l-70 96l-69 -96l-44 32l69 96l-112 37l16 51z" />
    <glyph glyph-name="plus" unicode="+" horiz-adv-x="570" 
d="M334 380h189v-94h-189v-196h-97v196h-189v94h189v196h97v-196z" />
    <glyph glyph-name="comma" unicode="," horiz-adv-x="251" 
d="M87 -227h-64q38 52 62.5 115.5t25.5 114.5q-73 9 -73 68q0 32 22.5 53.5t55.5 21.5q38 0 60 -29t22 -78q0 -58 -25.5 -119t-85.5 -147z" />
    <glyph glyph-name="hyphen" unicode="-" horiz-adv-x="261" 
d="M0 297h261v-89h-261v89z" />
    <glyph glyph-name="period" unicode="." horiz-adv-x="251" 
d="M127 146q30 0 52.5 -23t22.5 -54q0 -32 -22 -54t-54 -22t-54.5 22t-22.5 53q0 32 23.5 55t54.5 23z" />
    <glyph glyph-name="slash" unicode="/" horiz-adv-x="557" 
d="M21 -194l422 861h93l-422 -861h-93z" />
    <glyph glyph-name="zero" unicode="0" horiz-adv-x="570" 
d="M285 666q112 0 175 -90t63 -248t-63 -248t-174 -90q-113 0 -175.5 90t-62.5 253q0 155 63.5 244t173.5 89zM285 563q-45 0 -70 -39q-42 -67 -42 -193q0 -131 42 -199q25 -39 71 -39q45 0 70 39q42 68 42 196q0 131 -42 196q-25 39 -71 39z" />
    <glyph glyph-name="one" unicode="1" horiz-adv-x="570" 
d="M165 467v68q131 3 154 118h85v-653h-125v467h-114z" />
    <glyph glyph-name="two" unicode="2" horiz-adv-x="570" 
d="M189 467h-104q-1 91 55 145t151 54q91 0 146 -48t55 -127q0 -45 -20.5 -86t-81.5 -115q-70 -88 -155 -176h261v-114h-422v100l202 233q89 108 89 155q0 30 -22.5 49.5t-57.5 19.5q-40 0 -65.5 -23.5t-30.5 -66.5z" />
    <glyph glyph-name="three" unicode="3" horiz-adv-x="570" 
d="M189 477h-106q3 89 59 139t153 50q89 0 141.5 -47.5t52.5 -126.5q0 -105 -106 -146q115 -32 115 -153q0 -91 -61 -147t-161 -56q-106 0 -165.5 54t-59.5 151h112q1 -46 30 -72t80 -26q47 0 74.5 25.5t27.5 70.5q0 34 -20.5 57.5t-56.5 30.5q-38 6 -103 6v101q11 -1 24 -1
q145 0 145 94q0 35 -23 56.5t-60 21.5q-80 0 -92 -82z" />
    <glyph glyph-name="four" unicode="4" horiz-adv-x="570" 
d="M420 234h117v-99h-114v-143h-126v143h-269v99l249 419h143v-419zM304 234v283l-160 -283h160z" />
    <glyph glyph-name="five" unicode="5" horiz-adv-x="570" 
d="M139 650h327l-7 -111h-230l-26 -126q48 28 101 28q91 0 147.5 -59t56.5 -154q0 -104 -64.5 -171t-164.5 -67q-95 0 -153.5 52.5t-64.5 142.5h117q14 -86 96 -86q48 0 75.5 33t27.5 91q0 53 -26.5 85.5t-69.5 32.5q-55 0 -101 -53l-106 16z" />
    <glyph glyph-name="six" unicode="6" horiz-adv-x="570" 
d="M293 660h135q-116 -146 -160 -214q24 3 43 3q91 0 146.5 -60.5t55.5 -159.5q0 -104 -63 -171.5t-161 -67.5q-102 0 -166.5 67.5t-64.5 174.5q0 115 84 243q28 42 50.5 69.5t100.5 115.5zM285 353q-47 0 -74.5 -35t-27.5 -93t28 -93.5t73 -35.5q47 0 75.5 35t28.5 94
q0 58 -28.5 93t-74.5 35z" />
    <glyph glyph-name="seven" unicode="7" horiz-adv-x="570" 
d="M92 650h442v-95l-308 -555h-137l295 531h-292v119z" />
    <glyph glyph-name="eight" unicode="8" horiz-adv-x="570" 
d="M143 343q-73 46 -73 131q0 82 61.5 137t153.5 55t154 -55t62 -137q0 -86 -73 -131q86 -49 86 -147q0 -88 -65.5 -147t-163.5 -59t-163 58.5t-65 147.5q0 97 86 147zM287 566q-41 0 -66.5 -24t-25.5 -64q0 -39 25 -63t66 -24q40 0 65.5 24.5t25.5 62.5t-25.5 63t-64.5 25z
M286 291q-46 0 -75 -28t-29 -73q0 -44 29 -72t74 -28q46 0 75 28t29 72t-29 72.5t-74 28.5z" />
    <glyph glyph-name="nine" unicode="9" horiz-adv-x="570" 
d="M276 -10h-135q112 139 161 217q-28 -4 -43 -4q-88 0 -144.5 61.5t-56.5 158.5q0 107 63.5 175t163.5 68t164 -68.5t64 -175.5q0 -116 -85 -246q-28 -42 -54 -73.5t-98 -112.5zM287 560q-48 0 -76 -35.5t-28 -95.5q0 -58 28 -94t74 -36q47 0 75 36t28 95q0 58 -28 94
t-73 36z" />
    <glyph glyph-name="colon" unicode=":" horiz-adv-x="251" 
d="M127 146q30 0 52.5 -23t22.5 -54q0 -32 -22 -54t-54 -22t-54.5 22t-22.5 53q0 32 23.5 55t54.5 23zM127 477q30 0 52.5 -23t22.5 -54q0 -32 -22 -54t-54 -22t-54.5 22t-22.5 54q0 31 23.5 54t54.5 23z" />
    <glyph glyph-name="semicolon" unicode=";" horiz-adv-x="251" 
d="M119 477q30 0 52.5 -23t22.5 -54q0 -32 -22 -54t-54 -22t-54.5 22t-22.5 54q0 31 23.5 54t54.5 23zM87 -227h-64q38 52 62.5 115.5t25.5 114.5q-73 9 -73 68q0 32 22.5 53.5t55.5 21.5q38 0 60 -29t22 -78q0 -58 -25.5 -119t-85.5 -147z" />
    <glyph glyph-name="less" unicode="&#x3c;" 
d="M466 611v-123l-303 -148l303 -149v-122l-433 219v104z" />
    <glyph glyph-name="equal" unicode="=" horiz-adv-x="570" 
d="M48 464h475v-94h-475v94zM48 297h475v-94h-475v94z" />
    <glyph glyph-name="greater" unicode="&#x3e;" 
d="M33 69v122l303 149l-303 149v121l433 -219v-104z" />
    <glyph glyph-name="question" unicode="?" horiz-adv-x="417" 
d="M215 146q30 0 53 -23.5t23 -53.5q0 -32 -22.5 -54t-54.5 -22t-54 21.5t-22 53.5t23 55t54 23zM270 217h-114q0 86 9 113t56 79q36 38 45.5 54t9.5 38q0 25 -15.5 40t-41.5 15q-68 0 -71 -81h-97q2 51 10.5 80.5t30.5 52.5q51 55 143 55q80 0 125 -40.5t45 -111.5
q0 -41 -15 -69.5t-65 -83.5q-37 -40 -46 -57t-9 -43v-18v-14v-9z" />
    <glyph glyph-name="at" unicode="@" horiz-adv-x="733" 
d="M476 493h86l-38 -194q-7 -35 -7 -46q0 -17 7 -28.5t18 -11.5q31 0 58.5 54.5t27.5 115.5q0 99 -67.5 160.5t-175.5 61.5q-117 0 -192 -78q-79 -82 -79 -201q0 -118 75 -193q71 -71 209 -71q87 0 177 32l19 -76q-90 -31 -198 -31q-165 0 -260 89q-105 97 -105 251
q0 151 100.5 252t251.5 101q139 0 229.5 -84t90.5 -213q0 -94 -50.5 -167t-115.5 -73q-57 0 -77 64q-46 -64 -119 -64q-65 0 -106.5 44.5t-41.5 115.5q0 81 52.5 141t123.5 60q67 0 99 -52zM383 418q-38 0 -65.5 -34t-27.5 -81q0 -35 19.5 -57t51.5 -22q36 0 60.5 33.5
t24.5 82.5q0 37 -16.5 57.5t-46.5 20.5z" />
    <glyph glyph-name="A" unicode="A" horiz-adv-x="602" 
d="M235 667h130l227 -667h-133l-41 139h-235l-42 -139h-131zM386 248l-86 272l-85 -272h171z" />
    <glyph glyph-name="B" unicode="B" horiz-adv-x="588" 
d="M80 667h179q109 0 156 -17q48 -16 76 -56.5t28 -94.5q0 -55 -26.5 -89t-83.5 -52q146 -33 146 -166q0 -61 -34 -109t-90 -66q-34 -11 -70 -14t-123 -3h-158v667zM206 398h55q63 0 91 11q19 8 30.5 27.5t11.5 44.5q0 24 -11 43.5t-30 26.5q-27 12 -99 12h-48v-165z
M206 104h58q87 0 116 13q44 20 44 83q0 64 -50 85q-32 12 -107 12h-61v-193z" />
    <glyph glyph-name="C" unicode="C" horiz-adv-x="599" 
d="M565 450h-111q-20 119 -124 119q-74 0 -117.5 -64t-43.5 -173q0 -108 44 -171.5t118 -63.5q116 0 128 150h114q-12 -260 -237 -260q-120 0 -202 76q-98 93 -98 268q0 185 106 280q78 69 188 69q106 0 167 -60t68 -170z" />
    <glyph glyph-name="D" unicode="D" horiz-adv-x="646" 
d="M80 667h163q140 0 208 -34q74 -37 116.5 -117t42.5 -182q0 -97 -39 -176.5t-104 -116.5q-44 -25 -91.5 -33t-152.5 -8h-143v667zM208 109h59q56 0 86 6.5t54 24.5q72 53 72 195q0 137 -76 191q-28 20 -59 26t-108 6h-28v-449z" />
    <glyph glyph-name="E" unicode="E" horiz-adv-x="537" 
d="M208 400h265v-109h-265v-182h302v-109h-430v667h419v-109h-291v-158z" />
    <glyph glyph-name="F" unicode="F" horiz-adv-x="518" 
d="M208 400h265v-109h-265v-291h-128v667h419v-109h-291v-158z" />
    <glyph glyph-name="G" unicode="G" horiz-adv-x="641" 
d="M349 344h239v-277q-114 -80 -244 -80q-142 0 -225 93t-83 253q0 157 82 252t216 95q63 0 116 -23.5t85 -66.5q39 -53 43 -138h-110q-18 117 -131 117q-79 0 -123.5 -62.5t-44.5 -174.5q0 -111 45.5 -172.5t128.5 -61.5q77 0 139 44v107h-133v95z" />
    <glyph glyph-name="H" unicode="H" horiz-adv-x="681" 
d="M208 401h265v266h128v-667h-128v295h-265v-295h-128v667h128v-266z" />
    <glyph glyph-name="I" unicode="I" horiz-adv-x="288" 
d="M208 0h-128v667h128v-667z" />
    <glyph glyph-name="J" unicode="J" horiz-adv-x="335" 
d="M130 667h128v-531q0 -92 -4.5 -127t-19.5 -63q-44 -80 -200 -80q-21 0 -38 1v107h15h7q34 -2 63 6.5t38 23.5q7 12 9 33.5t2 95.5v534z" />
    <glyph glyph-name="K" unicode="K" horiz-adv-x="623" 
d="M454 667h148l-249 -309l265 -358h-163l-245 354zM80 667h128v-667h-128v667z" />
    <glyph glyph-name="L" unicode="L" horiz-adv-x="515" 
d="M80 667h131v-558h289v-109h-420v667z" />
    <glyph glyph-name="M" unicode="M" horiz-adv-x="806" 
d="M80 667h179l144 -530l146 530h177v-667h-116v520l-142 -520h-132l-140 520v-520h-116v667z" />
    <glyph glyph-name="N" unicode="N" horiz-adv-x="689" 
d="M80 667h137l270 -470v470h122v-667h-129l-278 470v-470h-122v667z" />
    <glyph glyph-name="O" unicode="O" horiz-adv-x="673" 
d="M337 680q122 0 204 -80q97 -94 97 -266q0 -175 -97 -267q-82 -80 -203 -80q-123 0 -206 80q-96 93 -96 272q0 168 96 261q83 80 205 80zM337 570q-78 0 -118 -56q-50 -69 -50 -177q0 -113 44.5 -176.5t123.5 -63.5q78 0 118 56q50 69 50 181q0 113 -50 180
q-40 56 -118 56z" />
    <glyph glyph-name="P" unicode="P" horiz-adv-x="565" 
d="M80 667h156q129 0 190 -20q57 -20 90 -71t33 -121q0 -71 -35 -123t-95 -69q-53 -14 -171 -14h-40v-249h-128v667zM208 358h41q87 0 116 11q53 19 53 87q0 63 -45 86q-33 16 -118 16h-47v-200z" />
    <glyph glyph-name="Q" unicode="Q" horiz-adv-x="693" 
d="M604 157l138 -157h-148l-55 64q-83 -77 -202 -77q-122 0 -205 80q-96 93 -96 267q0 173 96 266q83 80 205 80q136 0 218.5 -95t82.5 -250q0 -96 -34 -178zM337 570q-78 0 -118 -56q-50 -69 -50 -177q0 -113 44.5 -176.5t123.5 -63.5q78 0 118 56q50 69 50 181
q0 113 -50 180q-40 56 -118 56z" />
    <glyph glyph-name="R" unicode="R" horiz-adv-x="590" 
d="M80 667h166q88 0 131 -6.5t78 -25.5q45 -24 70 -69.5t25 -103.5q0 -131 -118 -185l153 -277h-149l-136 255h-92v-255h-128v667zM208 364h46q80 0 109 11q56 22 56 88q0 53 -42 78q-19 11 -42.5 14t-89.5 3h-37v-194z" />
    <glyph glyph-name="S" unicode="S" horiz-adv-x="565" 
d="M511 471h-123q-4 47 -32.5 72.5t-76.5 25.5q-42 0 -69.5 -20.5t-27.5 -51.5t34 -51q19 -10 109 -46t115.5 -50t46.5 -37q43 -46 43 -120q0 -95 -64.5 -150.5t-173.5 -55.5q-122 0 -189 61t-71 179h124q12 -129 137 -129q48 0 77 19.5t29 51.5q0 40 -46 64q-17 10 -115 50
q-105 45 -140 82q-44 50 -44 119q0 86 63.5 141t163.5 55q64 0 115.5 -24.5t81.5 -68.5q29 -44 33 -116z" />
    <glyph glyph-name="T" unicode="T" horiz-adv-x="503" 
d="M12 667h480v-109h-176v-558h-128v558h-176v109z" />
    <glyph glyph-name="U" unicode="U" horiz-adv-x="675" 
d="M73 667h128v-383q0 -84 12 -115q28 -71 124 -71q109 0 130 92q6 25 6 94v383h128v-385q0 -72 -5 -106t-21 -65q-29 -59 -91.5 -91.5t-146.5 -32.5t-146.5 32.5t-91.5 91.5q-16 31 -21 65t-5 106v385z" />
    <glyph glyph-name="V" unicode="V" horiz-adv-x="609" 
d="M7 667h137l160 -521l161 521h134l-230 -667h-134z" />
    <glyph glyph-name="W" unicode="W" horiz-adv-x="868" 
d="M9 667h120l127 -521l124 521h110l124 -521l129 521h117l-172 -667h-145l-110 434l-108 -434h-145z" />
    <glyph glyph-name="X" unicode="X" horiz-adv-x="584" 
d="M27 667h146l120 -207l123 207h146l-195 -320l207 -347h-146l-135 231l-137 -231h-146l208 347z" />
    <glyph glyph-name="Y" unicode="Y" horiz-adv-x="562" 
d="M0 667h143l140 -266l138 266h141l-217 -404v-263h-128v263z" />
    <glyph glyph-name="Z" unicode="Z" horiz-adv-x="501" 
d="M53 667h429v-90l-307 -468h297v-109h-449v100l305 460h-275v107z" />
    <glyph glyph-name="bracketleft" unicode="[" horiz-adv-x="306" 
d="M75 667h200v-97h-95v-666h95v-98h-200v861z" />
    <glyph glyph-name="backslash" unicode="\" horiz-adv-x="557" 
d="M536 -194h-93l-422 861h92z" />
    <glyph glyph-name="bracketright" unicode="]" horiz-adv-x="306" 
d="M231 -194h-200v97h95v666h-95v98h200v-861z" />
    <glyph glyph-name="asciicircum" unicode="^" 
d="M136 338h-129l162 332h162l162 -332h-129l-114 234z" />
    <glyph glyph-name="underscore" unicode="_" 
d="M0 -48h500v-111h-500v111z" />
    <glyph glyph-name="grave" unicode="`" 
d="M341 536h-93l-186 163h152z" />
    <glyph glyph-name="a" unicode="a" horiz-adv-x="512" 
d="M174 333h-117q10 75 56 110q56 42 151 42q128 0 163 -71q19 -38 19 -117v-191q0 -73 16 -106h-112q-6 23 -6 54q-39 -64 -131 -64q-81 0 -127 36t-46 99q0 101 108 142q31 12 55 17.5t124 23.5v8q0 38 -17 55t-55 17q-71 0 -81 -55zM327 199v27q-105 -13 -133 -33
t-28 -52q0 -25 20.5 -41t51.5 -16q61 0 80 46q9 18 9 69z" />
    <glyph glyph-name="b" unicode="b" horiz-adv-x="549" 
d="M68 671h123v-256q29 38 59 54t72 16q83 0 137.5 -69.5t54.5 -176.5q0 -110 -57.5 -179.5t-149.5 -69.5q-89 0 -127 74q-2 -37 -9 -64h-106q3 30 3 125v546zM293 382q-49 0 -75.5 -38.5t-26.5 -107.5q0 -67 26 -105t71 -38q47 0 73.5 39t26.5 108q0 67 -25 104.5t-70 37.5
z" />
    <glyph glyph-name="c" unicode="c" horiz-adv-x="497" 
d="M460 318h-121q-10 71 -77 71q-48 0 -75.5 -40.5t-27.5 -111.5q0 -73 26.5 -112t75.5 -39q73 0 83 83h119q-5 -78 -58 -130t-144 -52q-102 0 -165 69t-63 181q0 113 63 182t167 69q105 0 160 -71q29 -37 37 -99z" />
    <glyph glyph-name="d" unicode="d" horiz-adv-x="548" 
d="M479 671v-521q0 -108 9 -150h-115q-4 27 -4 42q0 14 1 24q-23 -40 -55 -58t-80 -18q-90 0 -146 67t-56 176q0 110 56.5 181t143.5 71q41 0 69 -14t54 -48v248h123zM261 382q-48 0 -75.5 -39.5t-27.5 -109.5q0 -64 26.5 -102t71.5 -38q48 0 75 38.5t27 106.5t-25.5 106
t-71.5 38z" />
    <glyph glyph-name="e" unicode="e" horiz-adv-x="515" 
d="M481 208h-325q3 -59 32.5 -90.5t82.5 -31.5q68 0 92 53l109 -5q-16 -68 -70.5 -107.5t-133.5 -39.5q-109 0 -172 66t-63 179q0 116 63.5 186t167.5 70q101 0 159 -68.5t58 -187.5v-24zM159 298h198q-15 95 -94 95q-80 0 -104 -95z" />
    <glyph glyph-name="f" unicode="f" horiz-adv-x="328" 
d="M202 475h113v-96h-113v-379h-123v379h-63v96h63v30q0 88 26 126q38 56 121 56q53 0 109 -22v-99q-50 15 -81 15q-32 0 -42 -18.5t-10 -75.5v-12z" />
    <glyph glyph-name="g" unicode="g" horiz-adv-x="530" 
d="M512 475v-88h-97q25 -36 25 -85q0 -86 -75 -119q-24 -10 -42 -13t-97 -11q-46 -3 -46 -28q0 -14 14.5 -18t89.5 -12q111 -11 150 -32q59 -33 59 -111q0 -76 -62 -117.5t-174 -41.5q-110 0 -173.5 37.5t-63.5 102.5q0 78 96 111q-53 20 -53 57q0 24 19 41t65 35
q-81 41 -81 135q0 76 54 121.5t144 45.5q38 0 91 -13zM256 392q-38 0 -61 -19.5t-23 -53.5q0 -32 22 -51t60 -19q37 0 60 19t23 51t-23 52.5t-58 20.5zM242 9q-54 0 -85.5 -16t-31.5 -44q0 -29 35.5 -45t97.5 -16q117 0 117 59q0 29 -35.5 45.5t-97.5 16.5z" />
    <glyph glyph-name="h" unicode="h" horiz-adv-x="555" 
d="M69 671h123v-248q56 62 137 62q45 0 82.5 -19t56.5 -51q13 -22 17.5 -50t4.5 -91v-274h-123v247q0 65 -13 90q-21 40 -68 40q-25 0 -48 -14.5t-34 -37.5q-12 -29 -12 -82v-243h-123v671z" />
    <glyph glyph-name="i" unicode="i" horiz-adv-x="261" 
d="M69 475h123v-475h-123v475zM132 680q32 0 51 -19.5t19 -51.5t-20 -52t-52 -20t-51.5 19t-19.5 51q0 33 20 53t53 20z" />
    <glyph glyph-name="j" unicode="j" horiz-adv-x="272" 
d="M83 475h123v-407q0 -76 -6 -108t-25 -63q-52 -81 -189 -81q-15 0 -26 1v105h15q83 0 100 44q6 13 7 26t1 75v408zM147 680q31 0 50 -19.5t19 -51.5q0 -33 -19.5 -52.5t-51.5 -19.5t-52 19.5t-20 50.5q0 33 20.5 53t53.5 20z" />
    <glyph glyph-name="k" unicode="k" horiz-adv-x="536" 
d="M368 475h148l-178 -220l194 -255h-165l-173 253zM69 671h123v-671h-123v671z" />
    <glyph glyph-name="l" unicode="l" horiz-adv-x="261" 
d="M69 671h123v-671h-123v671z" />
    <glyph glyph-name="m" unicode="m" horiz-adv-x="835" 
d="M56 475h119q10 -25 10 -46v-8v-9q54 73 145 73q95 0 137 -77q60 77 154 77q101 0 133 -71q11 -23 13.5 -44.5t2.5 -92.5v-277h-123v274q0 57 -13 75q-19 28 -64 28q-89 0 -89 -108v-269h-123v264q0 65 -11 82q-18 31 -65 31q-31 0 -53.5 -14.5t-30.5 -40.5q-6 -17 -6 -58
v-264h-123v363q0 77 -13 112z" />
    <glyph glyph-name="n" unicode="n" horiz-adv-x="548" 
d="M54 475h119q10 -21 10 -61q53 71 141 71q44 0 80.5 -18.5t55.5 -50.5q14 -24 18 -51t4 -91v-274h-123v247q0 68 -12 91q-19 39 -65 39q-26 0 -47.5 -14t-31.5 -37q-11 -23 -11 -83v-243h-123v305q0 86 -2 110t-13 60z" />
    <glyph glyph-name="o" unicode="o" horiz-adv-x="536" 
d="M268 488q102 0 168 -70.5t66 -180.5q0 -109 -66 -179.5t-168 -70.5q-104 0 -169.5 70.5t-65.5 183.5q0 107 66.5 177t168.5 70zM267 389q-49 0 -78.5 -41t-29.5 -109q0 -71 29.5 -112t79.5 -41q49 0 78.5 41.5t29.5 109.5q0 69 -30 110.5t-79 41.5z" />
    <glyph glyph-name="p" unicode="p" horiz-adv-x="548" 
d="M69 -197v521q0 109 -9 151h115q7 -16 8 -56q49 66 131 66q90 0 145.5 -67.5t55.5 -176.5q0 -110 -55.5 -180.5t-141.5 -70.5q-74 0 -126 61v-248h-123zM292 382q-48 0 -75 -39t-27 -108q0 -65 27.5 -103.5t73.5 -38.5t72.5 39t26.5 107t-32 113q-22 30 -66 30z" />
    <glyph glyph-name="q" unicode="q" horiz-adv-x="548" 
d="M356 -197v247q-25 -33 -52 -46.5t-66 -13.5q-91 0 -148 68.5t-57 176.5q0 111 56.5 180.5t147.5 69.5q87 0 128 -66q2 41 8 56h115q-9 -44 -9 -151v-521h-123zM258 382q-46 0 -73 -39t-27 -105t28 -105.5t74 -39.5q47 0 72.5 37.5t25.5 106.5q0 67 -27 106t-73 39z" />
    <glyph glyph-name="r" unicode="r" horiz-adv-x="377" 
d="M62 475h117q8 -32 8 -74q0 -14 -1 -25q28 58 60.5 83.5t76.5 25.5q13 0 37 -6v-125q-33 23 -74 23q-49 0 -72 -38t-23 -118v-221h-123v329q0 49 -1 84q0 29 -5 62z" />
    <glyph glyph-name="s" unicode="s" horiz-adv-x="485" 
d="M439 331h-119q-9 66 -77 66q-28 0 -46.5 -14t-18.5 -36q0 -23 17 -33t98 -34q96 -28 123 -60q26 -34 26 -80q0 -73 -50.5 -113t-142.5 -40q-211 0 -211 172h116q3 -42 24 -60.5t66 -18.5q75 0 75 51q0 13 -7 21.5t-26 16.5q-14 6 -100 32q-73 22 -101.5 51t-28.5 82
q0 70 52 112.5t138 42.5t137 -42t56 -116z" />
    <glyph glyph-name="t" unicode="t" horiz-adv-x="357" 
d="M221 475h97v-96h-99l-3 -183q0 -23 -1 -32q0 -36 11.5 -51t38.5 -15q32 0 70 16v-102q-57 -22 -109 -22q-83 0 -118 60q-19 31 -19 97l1 47l7 185h-74v96h78l3 137h119z" />
    <glyph glyph-name="u" unicode="u" horiz-adv-x="555" 
d="M65 475h123v-270q0 -59 18 -81q23 -26 63 -26q57 0 81 46q13 26 13 77v254h123v-328q0 -79 1.5 -97.5t10.5 -49.5h-116q-8 18 -10 55q-51 -65 -133 -65q-49 0 -88.5 20.5t-60.5 55.5q-25 41 -25 132v277z" />
    <glyph glyph-name="v" unicode="v" horiz-adv-x="501" 
d="M11 475h130l110 -341l110 341h128l-172 -478h-137z" />
    <glyph glyph-name="w" unicode="w" horiz-adv-x="749" 
d="M13 475h124l88 -335l99 335h99l98 -335l90 335h123l-142 -478h-132l-89 285l-87 -285h-132z" />
    <glyph glyph-name="x" unicode="x" horiz-adv-x="501" 
d="M25 475h147l78 -133l81 133h146l-151 -222l174 -253h-150l-100 157l-100 -157h-149l175 253z" />
    <glyph glyph-name="y" unicode="y" horiz-adv-x="499" 
d="M16 475h130l106 -362l110 362h128l-161 -462q-24 -67 -31 -83.5t-23 -41.5q-29 -48 -75.5 -68.5t-125.5 -20.5q-25 0 -46 1v107q79 -2 109.5 12t46.5 59z" />
    <glyph glyph-name="z" unicode="z" horiz-adv-x="424" 
d="M48 475h348v-93l-228 -280h232v-102h-377v95l225 278h-200v102z" />
    <glyph glyph-name="braceleft" unicode="{" horiz-adv-x="306" 
d="M207 493v-125q0 -56 -12 -82t-49 -50q37 -24 49 -50t12 -81v-126q0 -54 9 -66q13 -17 67 -17h20v-95q-18 -1 -47 -1q-61 0 -93.5 15t-48.5 50q-14 29 -14 90v155q0 41 -12.5 61t-42.5 26v78q31 7 43 26.5t12 60.5v155q0 76 24 108q34 48 132 48q22 0 47 -2v-95
q-9 1 -20 1q-60 0 -71 -24q-5 -14 -5 -60z" />
    <glyph glyph-name="bar" unicode="|" 
d="M188 667h123v-834h-123v834z" />
    <glyph glyph-name="braceright" unicode="}" horiz-adv-x="306" 
d="M99 -21v126q0 55 12 81t49 50q-37 24 -49 50t-12 82v125q0 54 -9 66q-12 18 -67 18q-11 0 -20 -1v95q10 0 20.5 0.5t16.5 1t10 0.5q59 0 92.5 -15.5t49.5 -50.5q14 -29 14 -90v-155q0 -41 12 -60.5t43 -26.5v-78q-30 -6 -42.5 -26t-12.5 -61v-155q0 -75 -24 -108
q-19 -26 -48.5 -36.5t-83.5 -10.5q-29 0 -47 1v95h20q60 0 71 23q5 12 5 60z" />
    <glyph glyph-name="asciitilde" unicode="~" horiz-adv-x="667" 
d="M158 196l-68 45l8 16q19 43 32 62t33 35q33 23 77 23q33 0 104 -26q65 -25 88 -25q25 0 40.5 11t33.5 42l70 -41q-22 -45 -37.5 -67t-37.5 -37q-38 -27 -83 -27q-24 0 -100 27q-50 18 -61.5 21t-29.5 3q-27 0 -47 -25q-10 -13 -22 -37z" />
    <glyph glyph-name="uni00A0" unicode="&#xa0;" horiz-adv-x="250" 
 />
    <glyph glyph-name="exclamdown" unicode="&#xa1;" horiz-adv-x="252" 
d="M192 -182h-132l14 429h105zM126 477q31 0 53.5 -23t22.5 -54q0 -33 -22 -54.5t-55 -21.5q-31 0 -53.5 22t-22.5 54q0 30 23 53.5t54 23.5z" />
    <glyph glyph-name="cent" unicode="&#xa2;" horiz-adv-x="570" 
d="M326 495v-292q49 15 55 78h119q-2 -70 -52 -121t-122 -58v-91h-61v92q-93 16 -144 79.5t-51 163.5q0 105 52 171t146 79v73h61v-74q71 -9 115.5 -52t55.5 -115h-124q-8 55 -50 67zM268 203v291q-72 -34 -72 -150q0 -117 72 -141z" />
    <glyph glyph-name="sterling" unicode="&#xa3;" horiz-adv-x="570" 
d="M276 392h155v-88h-172q-17 -126 -69 -206q63 18 109 18q13 0 78 -6q8 -1 21 -1q24 0 33 17.5t11 67.5h98q1 -11 1 -24q0 -83 -35.5 -130t-97.5 -47q-22 0 -69 5q-102 10 -150 10q-70 0 -159 -18q67 72 102 313h-80v89h97l1 6l11 57q20 111 66 166q47 56 139 56
q83 0 125.5 -42.5t49.5 -132.5h-107q-9 70 -65 70q-40 0 -58 -34t-33 -135z" />
    <glyph glyph-name="currency" unicode="&#xa4;" horiz-adv-x="667" 
d="M24 136l102 102q-45 66 -45 138q0 71 45 138l-103 103l67 67l103 -103q68 45 141 45q72 0 137 -44l103 101l66 -67l-101 -101q46 -70 46 -139q0 -72 -44 -137l102 -103l-66 -67l-102 102q-68 -46 -142 -46q-68 0 -141 45l-101 -101zM335 515q-59 0 -100 -40.5t-41 -99.5
q0 -58 41 -98.5t98 -40.5q59 0 99 40t40 99q0 58 -40 99t-97 41z" />
    <glyph glyph-name="yen" unicode="&#xa5;" horiz-adv-x="570" 
d="M443 447h86v-77h-125l-35 -67h160v-77h-181v-226h-128v226h-180v77h159l-34 67h-125v77h86l-112 220h143l128 -267l128 267h142z" />
    <glyph glyph-name="brokenbar" unicode="&#xa6;" 
d="M188 667h123v-345h-123v345zM188 153h123v-320h-123v320z" />
    <glyph glyph-name="section" unicode="&#xa7;" 
d="M435 479h-95q-7 46 -28 67.5t-60 21.5q-31 0 -51 -15t-20 -38q0 -22 19 -38q15 -13 107 -61q86 -44 113 -69q39 -39 39 -94q0 -86 -87 -136q66 -48 66 -125q0 -74 -49.5 -115t-139.5 -41q-135 0 -183 89q-22 42 -22 95v8h100q8 -51 31.5 -72.5t71.5 -21.5q38 0 58.5 16
t20.5 44q0 32 -41 57q-15 9 -101 52q-64 31 -104 71q-39 41 -39 96q0 38 20 69.5t65 65.5q-31 28 -43.5 52.5t-12.5 57.5q0 65 51.5 108t127.5 43q111 0 159 -76q24 -39 27 -111zM207 356q-31 -22 -43.5 -39t-12.5 -39q0 -31 24 -51.5t116 -65.5q34 23 47 40.5t13 38.5
q0 37 -46 63q-65 38 -98 53z" />
    <glyph glyph-name="dieresis" unicode="&#xa8;" 
d="M162 684q27 0 47 -20t20 -48q0 -27 -20.5 -47.5t-47.5 -20.5q-28 0 -48 20t-20 48q0 29 20 48.5t49 19.5zM339 684q28 0 48 -20t20 -48q0 -27 -20.5 -47.5t-48.5 -20.5t-47.5 20t-19.5 48q0 29 19.5 48.5t48.5 19.5z" />
    <glyph glyph-name="copyright" unicode="&#xa9;" horiz-adv-x="750" 
d="M542 406h-73q-12 70 -77 70q-47 0 -74 -37t-27 -101q0 -63 27.5 -100t74.5 -37q73 0 78 89h75q0 -73 -41.5 -116t-111.5 -43q-85 0 -137 56.5t-52 149.5q0 94 51 151.5t135 57.5q70 0 110.5 -37.5t41.5 -102.5zM379 680q140 0 241 -102t101 -244q0 -144 -101.5 -245.5
t-244.5 -101.5t-244.5 101.5t-101.5 244.5q0 145 102 246t248 101zM379 624q-121 0 -204.5 -84.5t-83.5 -206.5q0 -120 83 -205t201 -85t201 84.5t83 205.5q0 120 -82.5 205.5t-197.5 85.5z" />
    <glyph glyph-name="ordfeminine" unicode="&#xaa;" 
d="M198 575h-75q3 48 37 74t95 26q74 0 101 -41q9 -13 11 -25t2 -48v-113q0 -44 11 -64h-73q-4 14 -5 29q-25 -34 -81 -34q-50 0 -78.5 21.5t-28.5 59.5q0 53 54 81q16 9 32.5 13.5t79.5 18.5l13 3v4q0 34 -44 34q-45 0 -51 -39zM293 504v20q-59 -13 -79 -24t-20 -30
q0 -14 12 -23t31 -9q39 0 50 26q6 12 6 40zM108 326h278v-52h-278v52z" />
    <glyph glyph-name="guillemotleft" unicode="&#xab;" horiz-adv-x="489" 
d="M429 0h-104l-109 232l109 246h104l-90 -246zM240 0h-104l-109 232l109 246h104l-90 -246z" />
    <glyph glyph-name="logicalnot" unicode="&#xac;" 
d="M343 0v152h-310v115h433v-267h-123z" />
    <glyph glyph-name="uni00AD" unicode="&#xad;" horiz-adv-x="261" 
d="M0 297h261v-89h-261v89z" />
    <glyph glyph-name="registered" unicode="&#xae;" horiz-adv-x="750" 
d="M238 531h106q93 0 130 -19q60 -32 60 -105q0 -79 -72 -111l96 -165h-98l-84 151h-54v-151h-84v400zM322 351h27q49 0 66 7q34 11 34 50q0 30 -25 44q-18 10 -81 10h-21v-111zM379 680q140 0 241 -102t101 -244q0 -144 -101.5 -245.5t-244.5 -101.5t-244.5 101.5
t-101.5 244.5q0 145 102 246t248 101zM379 624q-121 0 -204.5 -84.5t-83.5 -206.5q0 -120 83 -205t201 -85t201 84.5t83 205.5q0 120 -82.5 205.5t-197.5 85.5z" />
    <glyph glyph-name="macron" unicode="&#xaf;" 
d="M106 652h289v-73h-289v73z" />
    <glyph glyph-name="degree" unicode="&#xb0;" 
d="M250 680q63 0 107.5 -44t44.5 -106t-44.5 -106t-107.5 -44q-64 0 -108.5 44t-44.5 108q0 61 45.5 104.5t107.5 43.5zM250 608q-32 0 -55.5 -23t-23.5 -54q0 -33 23 -56t56 -23q32 0 55 23t23 55t-23 55t-55 23z" />
    <glyph glyph-name="plusminus" unicode="&#xb1;" horiz-adv-x="570" 
d="M334 402h189v-94h-189v-161h-97v161h-189v94h189v197h97v-197zM48 94h475v-94h-475v94z" />
    <glyph glyph-name="twosuperior" unicode="&#xb2;" horiz-adv-x="370" 
d="M127 538h-68q-1 56 34 89t95 33q57 0 91.5 -29t34.5 -77q0 -28 -12.5 -51.5t-50.5 -69.5q-54 -62 -93 -101h159v-72h-265v63q8 8 35 38q90 98 117.5 134.5t27.5 57.5q0 16 -14 27.5t-33 11.5q-25 0 -40.5 -14.5t-17.5 -39.5z" />
    <glyph glyph-name="threesuperior" unicode="&#xb3;" horiz-adv-x="370" 
d="M127 550h-69q2 54 37 84.5t96 30.5q56 0 89 -28.5t33 -76.5q0 -61 -61 -85q67 -20 67 -91q0 -54 -38.5 -87.5t-101.5 -33.5q-68 0 -105 32.5t-36 91.5h73q0 -56 66 -56q29 0 45.5 14t16.5 39q0 19 -12.5 32.5t-33.5 17.5q-23 4 -66 4v63h17q88 0 88 53q0 19 -14 31
t-36 12q-47 0 -55 -47z" />
    <glyph glyph-name="acute" unicode="&#xb4;" 
d="M170 536l127 163h152l-186 -163h-93z" />
    <glyph glyph-name="mu" unicode="&#xb5;" 
d="M28 -173v653h123v-256q0 -49 7 -73.5t27 -42.5q29 -26 67 -26q46 0 73 37q25 33 25 109v252h123v-480h-123v59q-35 -69 -101 -69q-61 0 -98 62v-225h-123z" />
    <glyph glyph-name="paragraph" unicode="&#xb6;" horiz-adv-x="657" 
d="M218 -93v414q-6 -1 -13 -1q-79 0 -128.5 47.5t-49.5 123.5q0 51 23 91t64 60q48 25 143 25h327v-95h-72v-665h-104v665h-85v-665h-105z" />
    <glyph glyph-name="periodcentered" unicode="&#xb7;" horiz-adv-x="251" 
d="M127 328q29 0 52 -23.5t23 -53.5q0 -32 -22 -54t-54 -22t-54.5 22t-22.5 53q0 32 23.5 55t54.5 23z" />
    <glyph glyph-name="cedilla" unicode="&#xb8;" 
d="M202 0h66l-14 -45q91 -19 91 -93q0 -42 -30.5 -71.5t-73.5 -29.5t-86 29v48q40 -20 65 -20q22 0 36 14.5t14 37.5q0 25 -17 41t-44 16q-13 0 -31 -5z" />
    <glyph glyph-name="onesuperior" unicode="&#xb9;" horiz-adv-x="370" 
d="M76 537v45q81 0 96 70h57v-392h-82v277h-71z" />
    <glyph glyph-name="ordmasculine" unicode="&#xba;" 
d="M250 676q62 0 103 -42.5t41 -106.5q0 -66 -41 -108t-105 -42q-61 0 -102 42.5t-41 107.5t41 107t104 42zM250 615q-28 0 -46.5 -25t-18.5 -63t18 -63.5t46 -25.5q29 0 47 24.5t18 64.5q0 39 -18 63.5t-46 24.5zM111 326h278v-52h-278v52z" />
    <glyph glyph-name="guillemotright" unicode="&#xbb;" horiz-adv-x="489" 
d="M60 478h104l109 -232l-109 -246h-104l90 246zM249 478h104l109 -232l-109 -246h-104l90 246z" />
    <glyph glyph-name="onequarter" unicode="&#xbc;" horiz-adv-x="876" 
d="M76 537v45q81 0 96 70h57v-392h-82v277h-71zM577 650h98l-375 -650h-98zM777 143h73v-63h-71v-85h-82v85h-167v61l155 251h92v-249zM701 143v159l-94 -159h94z" />
    <glyph glyph-name="onehalf" unicode="&#xbd;" horiz-adv-x="876" 
d="M76 537v45q81 0 96 70h57v-392h-82v277h-71zM577 650h98l-375 -650h-98zM634 278h-68q-1 56 34 89t95 33q57 0 91.5 -29t34.5 -77q0 -28 -12.5 -51.5t-50.5 -69.5q-54 -62 -93 -101h159v-72h-265v63q110 120 125 139q55 62 55 90q0 17 -14 28.5t-33 11.5q-25 0 -40 -14
t-18 -40z" />
    <glyph glyph-name="threequarters" unicode="&#xbe;" horiz-adv-x="876" 
d="M127 550h-69q2 54 37 84.5t96 30.5q56 0 89 -28.5t33 -76.5q0 -61 -61 -85q67 -20 67 -91q0 -54 -38.5 -87.5t-101.5 -33.5q-68 0 -105 32.5t-36 91.5h73q0 -56 66 -56q29 0 45.5 14t16.5 39q0 19 -12.5 32.5t-33.5 17.5q-23 4 -66 4v63h17q88 0 88 53q0 19 -14 31
t-36 12q-47 0 -55 -47zM577 650h98l-376 -650h-98zM776 143h73v-63h-71v-85h-82v85h-167v61l155 251h92v-249zM700 143v159l-94 -159h94z" />
    <glyph glyph-name="questiondown" unicode="&#xbf;" horiz-adv-x="417" 
d="M222 477q31 0 53.5 -23t22.5 -54q0 -33 -22 -54.5t-55 -21.5q-31 0 -53.5 22.5t-22.5 53.5q0 30 23.5 53.5t53.5 23.5zM167 252h113q0 -86 -9 -113.5t-55 -78.5q-36 -39 -46 -55.5t-10 -38.5q0 -24 16 -39t43 -15q66 0 69 81h97q-2 -51 -10.5 -80.5t-30.5 -52.5
q-50 -55 -143 -55q-79 0 -124.5 40.5t-45.5 111.5q0 41 15 69t65 84q40 43 48 61t8 60v12v9z" />
    <glyph glyph-name="Agrave" unicode="&#xc0;" horiz-adv-x="602" 
d="M235 667h130l227 -667h-133l-41 139h-235l-42 -139h-131zM386 248l-86 272l-85 -272h171zM385 716h-114l-203 163h151z" />
    <glyph glyph-name="Aacute" unicode="&#xc1;" horiz-adv-x="602" 
d="M235 667h130l227 -667h-133l-41 139h-235l-42 -139h-131zM386 248l-86 272l-85 -272h171zM215 716l166 163h152l-203 -163h-115z" />
    <glyph glyph-name="Acircumflex" unicode="&#xc2;" horiz-adv-x="602" 
d="M235 667h130l227 -667h-133l-41 139h-235l-42 -139h-131zM386 248l-86 272l-85 -272h171zM114 727l137 141h99l138 -141h-117l-70 78l-70 -78h-117z" />
    <glyph glyph-name="Atilde" unicode="&#xc3;" horiz-adv-x="602" 
d="M235 667h130l227 -667h-133l-41 139h-235l-42 -139h-131zM386 248l-86 272l-85 -272h171zM189 733l-57 14q31 106 99 106q25 0 74 -16q50 -15 67 -15q30 0 53 40l51 -13q-11 -50 -38 -80.5t-62 -30.5q-26 0 -74 15q-52 17 -68 17q-29 0 -45 -37z" />
    <glyph glyph-name="Adieresis" unicode="&#xc4;" horiz-adv-x="602" 
d="M235 667h130l227 -667h-133l-41 139h-235l-42 -139h-131zM386 248l-86 272l-85 -272h171zM209 871q30 0 51 -21.5t21 -52.5t-21 -52t-52 -21t-52.5 21.5t-21.5 51.5q0 31 22 52.5t53 21.5zM395 871q30 0 51 -21.5t21 -52.5t-20.5 -52t-52.5 -21q-31 0 -52.5 21.5
t-21.5 51.5q0 31 22 52.5t53 21.5z" />
    <glyph glyph-name="Aring" unicode="&#xc5;" horiz-adv-x="602" 
d="M235 667h130l227 -667h-133l-41 139h-235l-42 -139h-131zM386 248l-86 272l-85 -272h171zM302 905q40 0 69 -29.5t29 -69.5q0 -41 -29 -70.5t-70 -29.5t-70 29t-29 70q0 42 29 71t71 29zM301 854q-21 0 -34.5 -13.5t-13.5 -35.5q0 -20 14 -34t34 -14t34 14t14 35
q0 20 -14 34t-34 14z" />
    <glyph glyph-name="AE" unicode="&#xc6;" horiz-adv-x="916" 
d="M409 667h471v-109h-282v-160h257v-109h-257v-180h291v-109h-421v138h-238l-81 -138h-138zM468 247v303l-174 -303h174z" />
    <glyph glyph-name="Ccedilla" unicode="&#xc7;" horiz-adv-x="599" 
d="M346 -13l-12 -39q106 -21 106 -108q0 -50 -35 -84t-87 -34q-50 0 -99 34v56q47 -24 77 -24q25 0 41 17t16 44q0 30 -19.5 48t-52.5 18q-19 0 -35 -5l25 82q-49 15 -71 25.5t-46 29.5q-118 97 -118 286q0 183 106 277q80 70 191 70q64 0 116.5 -27t81.5 -75
q30 -51 34 -128h-111q-19 119 -124 119q-74 0 -117.5 -64t-43.5 -173q0 -108 44 -171.5t119 -63.5q115 0 127 150h115q-5 -123 -62.5 -189.5t-165.5 -70.5z" />
    <glyph glyph-name="Egrave" unicode="&#xc8;" horiz-adv-x="537" 
d="M208 400h265v-109h-265v-182h303v-109h-431v667h420v-109h-292v-158zM386 716h-115l-203 163h152z" />
    <glyph glyph-name="Eacute" unicode="&#xc9;" horiz-adv-x="537" 
d="M208 400h265v-109h-265v-182h302v-109h-430v667h419v-109h-291v-158zM193 716l166 163h152l-203 -163h-115z" />
    <glyph glyph-name="Ecircumflex" unicode="&#xca;" horiz-adv-x="537" 
d="M208 400h265v-109h-265v-182h302v-109h-430v667h419v-109h-291v-158zM103 727l137 141h100l137 -141h-116l-71 78l-69 -78h-118z" />
    <glyph glyph-name="Edieresis" unicode="&#xcb;" horiz-adv-x="537" 
d="M208 400h265v-109h-265v-182h302v-109h-430v667h419v-109h-291v-158zM198 871q30 0 51 -21.5t21 -52.5t-21 -52t-52 -21t-52.5 21.5t-21.5 51.5q0 31 22 52.5t53 21.5zM384 871q29 0 51 -22t22 -52t-21.5 -51.5t-52.5 -21.5t-52 21t-21 52t21 52.5t53 21.5z" />
    <glyph glyph-name="Igrave" unicode="&#xcc;" horiz-adv-x="288" 
d="M208 0h-128v667h128v-667zM222 716h-108l-173 163h142z" />
    <glyph glyph-name="Iacute" unicode="&#xcd;" horiz-adv-x="288" 
d="M208 0h-128v667h128v-667zM67 716l139 163h142l-173 -163h-108z" />
    <glyph glyph-name="Icircumflex" unicode="&#xce;" horiz-adv-x="288" 
d="M208 0h-128v667h128v-667zM-20 727l114 141h99l115 -141h-114l-50 81l-50 -81h-114z" />
    <glyph glyph-name="Idieresis" unicode="&#xcf;" horiz-adv-x="288" 
d="M208 0h-128v667h128v-667zM57 866q29 0 49 -20.5t20 -49.5q0 -28 -21 -49t-49 -21t-49 21t-21 49q0 29 20.5 49.5t50.5 20.5zM234 866q28 0 48.5 -21t20.5 -49t-20.5 -49t-49.5 -21t-49.5 20.5t-20.5 49.5q0 30 20.5 50t50.5 20z" />
    <glyph glyph-name="Eth" unicode="&#xd0;" horiz-adv-x="646" 
d="M80 667h163q140 0 209 -34q74 -38 116.5 -118t42.5 -181q0 -96 -39 -176t-104 -117q-44 -25 -92 -33t-153 -8h-143v297h-60v100h60v270zM208 109h59q56 0 86 6.5t55 24.5q34 25 53 77t19 118q0 137 -76 191q-28 20 -59.5 26t-108.5 6h-28v-161h134v-100h-134v-188z" />
    <glyph glyph-name="Ntilde" unicode="&#xd1;" horiz-adv-x="689" 
d="M80 667h137l270 -470v470h122v-667h-129l-278 470v-470h-122v667zM240 733l-58 14q31 106 99 106q26 0 75 -16q48 -15 66 -15q29 0 54 40l51 -13q-11 -50 -38.5 -80.5t-61.5 -30.5q-26 0 -74 15q-53 17 -68 17q-29 0 -45 -37z" />
    <glyph glyph-name="Ograve" unicode="&#xd2;" horiz-adv-x="673" 
d="M337 680q139 0 220 -92.5t81 -252.5q0 -163 -80.5 -255.5t-223.5 -92.5q-96 0 -166 48q-132 88 -132 299t132 298q72 48 169 48zM337 570q-80 0 -124 -61.5t-44 -174.5q0 -112 44 -174.5t122 -62.5q82 0 126 61.5t44 176.5q0 111 -44.5 173t-123.5 62zM433 716h-115
l-203 163h152z" />
    <glyph glyph-name="Oacute" unicode="&#xd3;" horiz-adv-x="673" 
d="M337 680q139 0 220 -92.5t81 -252.5q0 -163 -80.5 -255.5t-223.5 -92.5q-96 0 -166 48q-132 88 -132 299t132 298q72 48 169 48zM337 570q-80 0 -124 -61.5t-44 -174.5q0 -112 44 -174.5t122 -62.5q82 0 126 61.5t44 176.5q0 111 -44.5 173t-123.5 62zM242 716l166 163
h152l-203 -163h-115z" />
    <glyph glyph-name="Ocircumflex" unicode="&#xd4;" horiz-adv-x="673" 
d="M337 680q139 0 220 -92.5t81 -252.5q0 -163 -80.5 -255.5t-223.5 -92.5q-96 0 -166 48q-132 88 -132 299t132 298q72 48 169 48zM337 570q-80 0 -124 -61.5t-44 -174.5q0 -112 44 -174.5t122 -62.5q82 0 126 61.5t44 176.5q0 111 -44.5 173t-123.5 62zM150 727l137 141
h99l138 -141h-116l-71 78l-69 -78h-118z" />
    <glyph glyph-name="Otilde" unicode="&#xd5;" horiz-adv-x="673" 
d="M337 680q139 0 220 -92.5t81 -252.5q0 -163 -80.5 -255.5t-223.5 -92.5q-96 0 -166 48q-132 88 -132 299t132 298q72 48 169 48zM337 570q-80 0 -124 -61.5t-44 -174.5q0 -112 44 -174.5t122 -62.5q82 0 126 61.5t44 176.5q0 111 -44.5 173t-123.5 62zM229 733l-58 14
q31 106 99 106q26 0 75 -16q48 -15 66 -15q29 0 54 40l51 -13q-11 -50 -38.5 -80.5t-61.5 -30.5q-26 0 -74 15q-53 17 -68 17q-29 0 -45 -37z" />
    <glyph glyph-name="Odieresis" unicode="&#xd6;" horiz-adv-x="673" 
d="M337 680q139 0 220 -92.5t81 -252.5q0 -163 -80.5 -255.5t-223.5 -92.5q-96 0 -166 48q-132 88 -132 299t132 298q72 48 169 48zM337 570q-80 0 -124 -61.5t-44 -174.5q0 -112 44 -174.5t122 -62.5q82 0 126 61.5t44 176.5q0 111 -44.5 173t-123.5 62zM245 871
q30 0 51 -21.5t21 -52.5t-20.5 -52t-52.5 -21q-31 0 -52.5 21.5t-21.5 51.5q0 31 22 52.5t53 21.5zM431 871q30 0 51 -21.5t21 -52.5t-20.5 -52t-52.5 -21q-31 0 -52.5 21.5t-21.5 51.5q0 31 22 52.5t53 21.5z" />
    <glyph glyph-name="multiply" unicode="&#xd7;" horiz-adv-x="570" 
d="M353 332l143 -142l-67 -66l-142 141l-146 -146l-68 68l147 146l-142 142l66 66l142 -141l143 142l67 -68z" />
    <glyph glyph-name="Oslash" unicode="&#xd8;" horiz-adv-x="673" 
d="M525 618l42 52h90l-81 -101l6 -12l19 -34q36 -63 36 -184q0 -163 -80 -257t-220 -94q-57 0 -100 13.5t-92 45.5l-42 -50h-90l82 103l-7 13q-31 59 -42 103.5t-11 111.5q0 163 80.5 257t219.5 94q120 0 190 -61zM188 208l254 320q-25 25 -46 33.5t-58 8.5q-101 0 -143 -98
q-10 -23 -18.5 -68.5t-8.5 -78.5q0 -70 20 -117zM484 467l-259 -328q39 -42 110 -42q80 0 124.5 65.5t44.5 181.5q0 66 -20 123z" />
    <glyph glyph-name="Ugrave" unicode="&#xd9;" horiz-adv-x="675" 
d="M73 667h128v-383q0 -84 12 -115q28 -71 124 -71q109 0 130 92q6 25 6 94v383h128v-385q0 -72 -5 -106t-21 -65q-29 -59 -91.5 -91.5t-146.5 -32.5t-146.5 32.5t-91.5 91.5q-16 31 -21 65t-5 106v385zM436 716h-115l-203 163h152z" />
    <glyph glyph-name="Uacute" unicode="&#xda;" horiz-adv-x="675" 
d="M73 667h128v-383q0 -84 12 -115q28 -71 124 -71q109 0 130 92q6 25 6 94v383h128v-385q0 -72 -5 -106t-21 -65q-29 -59 -91.5 -91.5t-146.5 -32.5t-146.5 32.5t-91.5 91.5q-16 31 -21 65t-5 106v385zM238 716l167 163h151l-203 -163h-115z" />
    <glyph glyph-name="Ucircumflex" unicode="&#xdb;" horiz-adv-x="675" 
d="M73 667h128v-383q0 -84 12 -115q28 -71 124 -71q109 0 130 92q6 25 6 94v383h128v-385q0 -72 -5 -106t-21 -65q-29 -59 -91.5 -91.5t-146.5 -32.5t-146.5 32.5t-91.5 91.5q-16 31 -21 65t-5 106v385zM150 727l137 141h99l138 -141h-116l-71 78l-70 -78h-117z" />
    <glyph glyph-name="Udieresis" unicode="&#xdc;" horiz-adv-x="675" 
d="M73 667h128v-383q0 -84 12 -115q28 -71 124 -71q109 0 130 92q6 25 6 94v383h128v-385q0 -72 -5 -106t-21 -65q-29 -59 -91.5 -91.5t-146.5 -32.5t-146.5 32.5t-91.5 91.5q-16 31 -21 65t-5 106v385zM245 871q30 0 51 -21.5t21 -52.5t-20.5 -52t-52.5 -21
q-31 0 -52.5 21.5t-21.5 51.5q0 31 22 52.5t53 21.5zM431 871q30 0 51 -21.5t21 -52.5t-20.5 -52t-52.5 -21q-31 0 -52.5 21.5t-21.5 51.5q0 31 22 52.5t53 21.5z" />
    <glyph glyph-name="Yacute" unicode="&#xdd;" horiz-adv-x="562" 
d="M0 667h143l139 -266l139 266h141l-217 -404v-263h-128v263zM184 716l166 163h152l-203 -163h-115z" />
    <glyph glyph-name="Thorn" unicode="&#xde;" horiz-adv-x="565" 
d="M80 667h128v-78h28q129 0 190 -20q58 -19 90.5 -70t32.5 -122t-35 -123t-95 -69q-53 -14 -171 -14h-40v-171h-128v667zM208 280h41q87 0 116 11q53 19 53 87q0 63 -45 86q-33 16 -118 16h-47v-200z" />
    <glyph glyph-name="germandbls" unicode="&#xdf;" horiz-adv-x="544" 
d="M57 0v418q0 86 5 116.5t22 60.5q25 39 72 61t107 22q88 0 143 -46.5t55 -120.5q0 -97 -93 -132q63 -18 96 -52q47 -50 47 -136q0 -85 -50 -141.5t-126 -56.5q-44 0 -80 21v107q34 -20 61 -20q33 0 51 21.5t18 61.5q0 62 -37.5 98t-103.5 36h-14v106h21q38 -1 63 21t25 56
q0 35 -21.5 56.5t-56.5 21.5q-56 0 -73 -47q-8 -22 -8 -100v-432h-123z" />
    <glyph glyph-name="agrave" unicode="&#xe0;" horiz-adv-x="512" 
d="M174 333h-117q10 75 56 110q56 42 151 42q128 0 163 -71q19 -38 19 -117v-191q0 -73 16 -106h-112q-6 23 -6 54q-39 -64 -131 -64q-81 0 -127 36t-46 99q0 101 108 142q31 12 55 17.5t124 23.5v8q0 38 -17 55t-55 17q-71 0 -81 -55zM327 199v27q-105 -13 -133 -33
t-28 -52q0 -25 20.5 -41t51.5 -16q61 0 80 46q9 18 9 69zM340 536h-93l-186 163h152z" />
    <glyph glyph-name="aacute" unicode="&#xe1;" horiz-adv-x="512" 
d="M174 333h-117q10 75 56 110q56 42 151 42q128 0 163 -71q19 -38 19 -117v-191q0 -73 16 -106h-112q-6 23 -6 54q-39 -64 -131 -64q-81 0 -127 36t-46 99q0 101 108 142q31 12 55 17.5t124 23.5v8q0 38 -17 55t-55 17q-71 0 -81 -55zM327 199v27q-105 -13 -133 -33
t-28 -52q0 -25 20.5 -41t51.5 -16q61 0 80 46q9 18 9 69zM174 536l127 163h152l-186 -163h-93z" />
    <glyph glyph-name="acircumflex" unicode="&#xe2;" horiz-adv-x="512" 
d="M174 333h-117q10 75 56 110q56 42 151 42q128 0 163 -71q19 -38 19 -117v-191q0 -73 16 -106h-112q-6 23 -6 54q-39 -64 -131 -64q-81 0 -127 36t-46 99q0 101 108 142q31 12 55 17.5t124 23.5v8q0 38 -17 55t-55 17q-71 0 -81 -55zM327 199v27q-105 -13 -133 -33
t-28 -52q0 -25 20.5 -41t51.5 -16q61 0 80 46q9 18 9 69zM89 541l121 152h99l121 -152h-111l-60 86l-58 -86h-112z" />
    <glyph glyph-name="atilde" unicode="&#xe3;" horiz-adv-x="512" 
d="M174 333h-117q10 75 56 110q56 42 151 42q128 0 163 -71q19 -38 19 -117v-191q0 -73 16 -106h-112q-6 23 -6 54q-39 -64 -131 -64q-81 0 -127 36t-46 99q0 101 108 142q31 12 55 17.5t124 23.5v8q0 38 -17 55t-55 17q-71 0 -81 -55zM327 199v27q-105 -13 -133 -33
t-28 -52q0 -25 20.5 -41t51.5 -16q61 0 80 46q9 18 9 69zM156 553l-52 14q28 106 89 106q23 0 67 -15q43 -16 60 -16q25 0 48 40l46 -13q-11 -52 -35 -81.5t-55 -29.5q-22 0 -67 16q-47 16 -60 16q-28 0 -41 -37z" />
    <glyph glyph-name="adieresis" unicode="&#xe4;" horiz-adv-x="512" 
d="M174 333h-117q10 75 56 110q56 42 151 42q128 0 163 -71q19 -38 19 -117v-191q0 -73 16 -106h-112q-6 23 -6 54q-39 -64 -131 -64q-81 0 -127 36t-46 99q0 101 108 142q31 12 55 17.5t124 23.5v8q0 38 -17 55t-55 17q-71 0 -81 -55zM327 199v27q-105 -13 -133 -33
t-28 -52q0 -25 20.5 -41t51.5 -16q61 0 80 46q9 18 9 69zM170 684q28 0 48 -20t20 -48q0 -27 -20.5 -47.5t-47.5 -20.5q-28 0 -48 20t-20 48q0 29 19.5 48.5t48.5 19.5zM348 684q28 0 47.5 -20t19.5 -48t-20 -48t-48 -20q-27 0 -47.5 20.5t-20.5 47.5q0 28 20 48t49 20z" />
    <glyph glyph-name="aring" unicode="&#xe5;" horiz-adv-x="512" 
d="M174 333h-117q10 75 56 110q56 42 151 42q128 0 163 -71q19 -38 19 -117v-191q0 -73 16 -106h-112q-6 23 -6 54q-39 -64 -131 -64q-81 0 -127 36t-46 99q0 101 108 142q31 12 55 17.5t124 23.5v8q0 38 -17 55t-55 17q-71 0 -81 -55zM327 199v27q-105 -13 -133 -33
t-28 -52q0 -25 20.5 -41t51.5 -16q61 0 80 46q9 18 9 69zM261 722q40 0 69 -29t29 -70t-29 -70.5t-70 -29.5q-40 0 -69.5 29.5t-29.5 69.5q0 42 29.5 71t70.5 29zM261 671q-21 0 -35 -13.5t-14 -35.5q0 -20 14 -34t34 -14q21 0 34.5 14t13.5 35q0 20 -13.5 34t-33.5 14z" />
    <glyph glyph-name="ae" unicode="&#xe6;" horiz-adv-x="817" 
d="M784 208h-335q1 -58 33.5 -91t90.5 -33q67 0 92 55l109 -4q-14 -69 -67.5 -108.5t-131.5 -39.5q-135 0 -194 99q-39 -99 -166 -99q-80 0 -127 37t-47 100q0 80 73.5 125t209.5 48v23q0 38 -15.5 54t-51.5 16q-67 0 -80 -67h-120q8 80 60.5 122.5t145.5 42.5
q55 0 89 -13.5t63 -46.5q64 60 149 60q102 0 161 -71.5t59 -194.5v-14zM455 296h199q-16 97 -95 97q-41 0 -68 -25t-36 -72zM324 209h-10h-6q-67 0 -104 -20t-37 -55q0 -53 65 -53q92 0 92 121v7z" />
    <glyph glyph-name="ccedilla" unicode="&#xe7;" horiz-adv-x="497" 
d="M272 -14l-8 -31q91 -19 91 -93q0 -43 -30 -72t-74 -29q-43 0 -86 29v48q39 -20 65 -20q22 0 36 14.5t14 37.5q0 25 -17 41t-44 16q-12 0 -31 -4l20 68q-85 24 -130 87t-45 159q0 114 63 182.5t167 68.5q105 0 159 -71q29 -37 37 -100h-120q-10 73 -77 73q-48 0 -75.5 -41
t-27.5 -112q0 -73 26.5 -112.5t75.5 -39.5q73 0 83 84h119q-6 -80 -59 -130.5t-132 -52.5z" />
    <glyph glyph-name="egrave" unicode="&#xe8;" horiz-adv-x="515" 
d="M481 208h-325q3 -59 32.5 -90.5t82.5 -31.5q68 0 92 53l109 -5q-16 -68 -70.5 -107.5t-133.5 -39.5q-109 0 -172 66t-63 179q0 116 63.5 186t167.5 70q101 0 159 -68.5t58 -187.5v-24zM159 298h198q-15 95 -94 95q-80 0 -104 -95zM348 536h-93l-186 163h152z" />
    <glyph glyph-name="eacute" unicode="&#xe9;" horiz-adv-x="515" 
d="M481 208h-325q3 -59 32.5 -90.5t82.5 -31.5q68 0 92 53l109 -5q-16 -68 -70.5 -107.5t-133.5 -39.5q-109 0 -172 66t-63 179q0 116 63.5 186t167.5 70q101 0 159 -68.5t58 -187.5v-24zM159 298h198q-15 95 -94 95q-80 0 -104 -95zM181 536l127 163h152l-187 -163h-92z
" />
    <glyph glyph-name="ecircumflex" unicode="&#xea;" horiz-adv-x="515" 
d="M481 208h-325q3 -59 32.5 -90.5t82.5 -31.5q68 0 92 53l109 -5q-16 -68 -70.5 -107.5t-133.5 -39.5q-109 0 -172 66t-63 179q0 116 63.5 186t167.5 70q101 0 159 -68.5t58 -187.5v-24zM159 298h198q-15 95 -94 95q-80 0 -104 -95zM97 541l121 152h99l121 -152h-111
l-60 86l-58 -86h-112z" />
    <glyph glyph-name="edieresis" unicode="&#xeb;" horiz-adv-x="515" 
d="M481 208h-325q3 -59 32.5 -90.5t82.5 -31.5q68 0 92 53l109 -5q-16 -68 -70.5 -107.5t-133.5 -39.5q-109 0 -172 66t-63 179q0 116 63.5 186t167.5 70q101 0 159 -68.5t58 -187.5v-24zM159 298h198q-15 95 -94 95q-80 0 -104 -95zM179 684q28 0 47.5 -20t19.5 -48
t-20 -48t-48 -20q-27 0 -47.5 20.5t-20.5 47.5q0 28 20 48t49 20zM357 684q27 0 47 -20t20 -48q0 -27 -20 -47.5t-48 -20.5t-48 20t-20 48q0 29 20 48.5t49 19.5z" />
    <glyph glyph-name="igrave" unicode="&#xec;" horiz-adv-x="261" 
d="M69 475h123v-475h-123v475zM199 536h-86l-156 163h142z" />
    <glyph glyph-name="iacute" unicode="&#xed;" horiz-adv-x="261" 
d="M69 475h123v-475h-123v475zM62 536l101 163h141l-156 -163h-86z" />
    <glyph glyph-name="icircumflex" unicode="&#xee;" horiz-adv-x="261" 
d="M69 475h123v-475h-123v475zM-18 541l99 152h99l100 -152h-106l-43 89l-42 -89h-107z" />
    <glyph glyph-name="idieresis" unicode="&#xef;" horiz-adv-x="261" 
d="M69 475h123v-475h-123v475zM49 681q27 0 45.5 -18.5t18.5 -46.5q0 -26 -19 -45.5t-46 -19.5q-26 0 -45.5 19.5t-19.5 45.5q0 28 19 46.5t47 18.5zM213 681q27 0 45.5 -18.5t18.5 -46.5q0 -27 -19 -46t-46 -19q-26 0 -45.5 19.5t-19.5 45.5q0 27 19 46t47 19z" />
    <glyph glyph-name="eth" unicode="&#xf0;" horiz-adv-x="536" 
d="M274 632l76 41l41 -48l-72 -41q61 -61 121 -144q62 -85 62 -197q0 -116 -62.5 -186t-166.5 -70q-107 0 -173.5 69t-66.5 179q0 103 61.5 173t151.5 70q34 0 65 -21q-29 47 -67 88l-67 -39l-39 50l65 38l-46 46l60 40q38 -31 57 -48zM269 388q-50 0 -80 -41.5t-30 -110.5
q0 -67 30 -109t78 -42q49 0 79 41.5t30 109.5q0 67 -30 109.5t-77 42.5z" />
    <glyph glyph-name="ntilde" unicode="&#xf1;" horiz-adv-x="548" 
d="M54 475h119q10 -21 10 -61q53 71 141 71q44 0 80.5 -18.5t55.5 -50.5q14 -24 18 -51t4 -91v-274h-123v247q0 68 -12 91q-19 39 -65 39q-26 0 -47.5 -14t-31.5 -37q-11 -23 -11 -83v-243h-123v305q0 86 -2 110t-13 60zM161 553l-51 14q28 106 89 106q23 0 67 -15
q43 -16 59 -16q26 0 49 40l46 -13q-11 -52 -35 -81.5t-55 -29.5q-24 0 -67 16q-47 16 -61 16q-27 0 -41 -37z" />
    <glyph glyph-name="ograve" unicode="&#xf2;" horiz-adv-x="536" 
d="M268 488q102 0 168 -70.5t66 -180.5q0 -109 -66 -179.5t-168 -70.5q-104 0 -169.5 70.5t-65.5 183.5q0 107 66.5 177t168.5 70zM267 389q-49 0 -78.5 -41t-29.5 -109q0 -71 29.5 -112t79.5 -41q49 0 78.5 41.5t29.5 109.5q0 69 -30 110.5t-79 41.5zM350 536h-93l-186 163
h151z" />
    <glyph glyph-name="oacute" unicode="&#xf3;" horiz-adv-x="536" 
d="M268 488q102 0 168 -70.5t66 -180.5q0 -109 -66 -179.5t-168 -70.5q-104 0 -169.5 70.5t-65.5 183.5q0 107 66.5 177t168.5 70zM267 389q-49 0 -78.5 -41t-29.5 -109q0 -71 29.5 -112t79.5 -41q49 0 78.5 41.5t29.5 109.5q0 69 -30 110.5t-79 41.5zM186 536l128 163h151
l-186 -163h-93z" />
    <glyph glyph-name="ocircumflex" unicode="&#xf4;" horiz-adv-x="536" 
d="M268 488q102 0 168 -70.5t66 -180.5q0 -109 -66 -179.5t-168 -70.5q-104 0 -169.5 70.5t-65.5 183.5q0 107 66.5 177t168.5 70zM267 389q-49 0 -78.5 -41t-29.5 -109q0 -71 29.5 -112t79.5 -41q49 0 78.5 41.5t29.5 109.5q0 69 -30 110.5t-79 41.5zM97 541l121 152h99
l121 -152h-111l-59 86l-59 -86h-112z" />
    <glyph glyph-name="otilde" unicode="&#xf5;" horiz-adv-x="536" 
d="M268 488q102 0 168 -70.5t66 -180.5q0 -109 -66 -179.5t-168 -70.5q-104 0 -169.5 70.5t-65.5 183.5q0 107 66.5 177t168.5 70zM267 389q-49 0 -78.5 -41t-29.5 -109q0 -71 29.5 -112t79.5 -41q49 0 78.5 41.5t29.5 109.5q0 69 -30 110.5t-79 41.5zM169 553l-52 14
q28 106 89 106q25 0 67 -15q45 -16 60 -16q27 0 48 40l46 -13q-10 -52 -33.5 -81.5t-55.5 -29.5q-23 0 -68 16q-47 16 -60 16q-27 0 -41 -37z" />
    <glyph glyph-name="odieresis" unicode="&#xf6;" horiz-adv-x="536" 
d="M268 488q102 0 168 -70.5t66 -180.5q0 -109 -66 -179.5t-168 -70.5q-104 0 -169.5 70.5t-65.5 183.5q0 107 66.5 177t168.5 70zM267 389q-49 0 -78.5 -41t-29.5 -109q0 -71 29.5 -112t79.5 -41q49 0 78.5 41.5t29.5 109.5q0 69 -30 110.5t-79 41.5zM180 684q27 0 47 -20
t20 -48q0 -27 -20.5 -47.5t-47.5 -20.5q-28 0 -48 20t-20 48q0 29 20 48.5t49 19.5zM357 684q28 0 47.5 -20t19.5 -48t-20 -48t-48 -20q-27 0 -47.5 20.5t-20.5 47.5q0 28 20 48t49 20z" />
    <glyph glyph-name="divide" unicode="&#xf7;" horiz-adv-x="570" 
d="M286 242q28 0 47.5 -20t19.5 -49q0 -30 -19 -49t-49 -19q-28 0 -48.5 20t-20.5 48t21 48.5t49 20.5zM286 562q29 0 48 -19.5t19 -49.5q0 -29 -19 -48.5t-49 -19.5q-28 0 -48.5 20t-20.5 48t20.5 48.5t49.5 20.5zM48 380h475v-94h-475v94z" />
    <glyph glyph-name="oslash" unicode="&#xf8;" horiz-adv-x="536" 
d="M-9 -3l82 90q-23 44 -31.5 75.5t-8.5 73.5q0 111 66 181.5t170 70.5q40 0 66 -9.5t79 -41.5l42 43h88l-86 -92q44 -63 44 -152q0 -109 -66 -179t-169 -70q-77 0 -150 53l-42 -43h-84zM166 176l166 184q-21 30 -63 30q-50 0 -80 -41.5t-30 -111.5q0 -29 7 -61zM365 303
l-169 -188q21 -19 34.5 -24.5t35.5 -5.5q50 0 80 41.5t30 109.5q0 32 -11 67z" />
    <glyph glyph-name="ugrave" unicode="&#xf9;" horiz-adv-x="555" 
d="M65 475h123v-270q0 -59 18 -81q23 -26 63 -26q57 0 81 46q13 26 13 77v254h123v-328q0 -79 1.5 -97.5t10.5 -49.5h-116q-8 18 -10 55q-51 -65 -133 -65q-49 0 -88.5 20.5t-60.5 55.5q-25 41 -25 132v277zM357 536h-93l-186 163h152z" />
    <glyph glyph-name="uacute" unicode="&#xfa;" horiz-adv-x="555" 
d="M65 475h123v-270q0 -59 18 -81q23 -26 63 -26q57 0 81 46q13 26 13 77v254h123v-328q0 -79 1.5 -97.5t10.5 -49.5h-116q-8 18 -10 55q-51 -65 -133 -65q-49 0 -88.5 20.5t-60.5 55.5q-25 41 -25 132v277zM194 536l128 163h151l-186 -163h-93z" />
    <glyph glyph-name="ucircumflex" unicode="&#xfb;" horiz-adv-x="555" 
d="M65 475h123v-270q0 -59 18 -81q23 -26 63 -26q57 0 81 46q13 26 13 77v254h123v-328q0 -79 1.5 -97.5t10.5 -49.5h-116q-8 18 -10 55q-51 -65 -133 -65q-49 0 -88.5 20.5t-60.5 55.5q-25 41 -25 132v277zM105 541l121 152h99l121 -152h-111l-60 86l-58 -86h-112z" />
    <glyph glyph-name="udieresis" unicode="&#xfc;" horiz-adv-x="555" 
d="M65 475h123v-270q0 -59 18 -81q23 -26 63 -26q57 0 81 46q13 26 13 77v254h123v-328q0 -79 1.5 -97.5t10.5 -49.5h-116q-8 18 -10 55q-51 -65 -133 -65q-49 0 -88.5 20.5t-60.5 55.5q-25 41 -25 132v277zM187 684q27 0 47.5 -20t20.5 -48q0 -27 -20.5 -47.5t-48.5 -20.5
t-47.5 20t-19.5 48q0 29 19.5 48.5t48.5 19.5zM365 684q28 0 47.5 -20t19.5 -48q0 -27 -20 -47.5t-48 -20.5t-48 20t-20 48q0 29 20 48.5t49 19.5z" />
    <glyph glyph-name="yacute" unicode="&#xfd;" horiz-adv-x="499" 
d="M16 475h130l106 -362l110 362h128l-161 -462q-24 -67 -31 -83.5t-23 -41.5q-29 -48 -75.5 -68.5t-125.5 -20.5q-25 0 -46 1v107q79 -2 109.5 12t46.5 59zM169 536l127 163h152l-186 -163h-93z" />
    <glyph glyph-name="thorn" unicode="&#xfe;" horiz-adv-x="548" 
d="M69 -197v868h123v-252q44 66 123 66q89 0 144.5 -68t55.5 -176q0 -110 -55.5 -180.5t-141.5 -70.5q-75 0 -126 61v-248h-123zM292 382q-48 0 -75 -39t-27 -108q0 -66 27 -104t74 -38q46 0 72.5 39t26.5 107t-32 113q-22 30 -66 30z" />
    <glyph glyph-name="ydieresis" unicode="&#xff;" horiz-adv-x="499" 
d="M16 475h130l106 -362l110 362h128l-161 -462q-24 -67 -31 -83.5t-23 -41.5q-29 -48 -75.5 -68.5t-125.5 -20.5q-25 0 -46 1v107q79 -2 109.5 12t46.5 59zM165 684q28 0 47.5 -20t19.5 -48t-20 -48t-48 -20q-27 0 -47.5 20.5t-20.5 47.5q0 28 20 48t49 20zM343 684
q27 0 47 -20t20 -48q0 -27 -20 -47.5t-48 -20.5t-48 20t-20 48q0 29 20 48.5t49 19.5z" />
    <glyph glyph-name="Amacron" unicode="&#x100;" horiz-adv-x="602" 
d="M235 667h130l227 -667h-133l-41 139h-235l-42 -139h-131zM386 248l-86 272l-85 -272h171zM143 832h316v-75h-316v75z" />
    <glyph glyph-name="amacron" unicode="&#x101;" horiz-adv-x="512" 
d="M174 333h-117q10 75 56 110q56 42 151 42q128 0 163 -71q19 -38 19 -117v-191q0 -73 16 -106h-112q-6 23 -6 54q-39 -64 -131 -64q-81 0 -127 36t-46 99q0 101 108 142q31 12 55 17.5t124 23.5v8q0 38 -17 55t-55 17q-71 0 -81 -55zM327 199v27q-105 -13 -133 -33
t-28 -52q0 -25 20.5 -41t51.5 -16q61 0 80 46q9 18 9 69zM115 652h289v-73h-289v73z" />
    <glyph glyph-name="Abreve" unicode="&#x102;" horiz-adv-x="602" 
d="M235 667h130l227 -667h-133l-41 139h-235l-42 -139h-131zM386 248l-86 272l-85 -272h171zM154 869h47q20 -37 43.5 -53.5t56.5 -16.5t56 16t44 54h47q-8 -66 -47 -104t-100 -38q-60 0 -100 38.5t-47 103.5z" />
    <glyph glyph-name="abreve" unicode="&#x103;" horiz-adv-x="512" 
d="M174 333h-117q10 75 56 110q56 42 151 42q128 0 163 -71q19 -38 19 -117v-191q0 -73 16 -106h-112q-6 23 -6 54q-39 -64 -131 -64q-81 0 -127 36t-46 99q0 101 108 142q31 12 55 17.5t124 23.5v8q0 38 -17 55t-55 17q-71 0 -81 -55zM327 199v27q-105 -13 -133 -33
t-28 -52q0 -25 20.5 -41t51.5 -16q61 0 80 46q9 18 9 69zM124 683h51q18 -37 38.5 -53t48.5 -16q26 0 44 15.5t37 53.5h51q-8 -69 -42 -106.5t-89 -37.5q-58 0 -94.5 38t-44.5 106z" />
    <glyph glyph-name="Aogonek" unicode="&#x104;" horiz-adv-x="602" 
d="M365 667l226 -667q-88 -62 -86 -107q1 -44 50 -44q23 0 48 11v-55q-33 -18 -73 -18q-50 0 -81.5 28t-31.5 73q0 37 20 61t72 51h-50l-41 139h-235l-42 -139h-131l225 667h130zM385 248l-85 272l-85 -272h170z" />
    <glyph glyph-name="aogonek" unicode="&#x105;" horiz-adv-x="512" 
d="M446 297v-191q0 -74 16 -106q-28 -23 -62 -58q-23 -26 -23 -47q0 -19 12.5 -29.5t34.5 -10.5q20 0 47 11v-52q-29 -16 -67 -16q-50 0 -79 26t-29 70q0 35 20 59.5t66 46.5h-32q-6 23 -6 54q-39 -64 -131 -64q-81 0 -127 36t-46 99q0 101 108 142q31 12 55 17.5t124 23.5
v8q0 38 -17 55t-55 17q-71 0 -81 -55h-117q10 75 56 110q56 42 151 42q128 0 163 -71q19 -38 19 -117zM327 199v27q-105 -13 -133 -33t-28 -52q0 -25 20.5 -41t51.5 -16q61 0 80 46q9 18 9 69z" />
    <glyph glyph-name="Cacute" unicode="&#x106;" horiz-adv-x="599" 
d="M565 450h-111q-20 119 -124 119q-74 0 -117.5 -64t-43.5 -173t43.5 -171.5t118.5 -62.5q116 0 128 149h114q-6 -128 -65.5 -194t-169.5 -66q-121 0 -203 77q-99 93 -99 268q0 184 106 278q80 70 191 70q64 0 116 -27t81 -75q29 -47 35 -128zM230 716l166 163h151
l-202 -163h-115z" />
    <glyph glyph-name="cacute" unicode="&#x107;" horiz-adv-x="497" 
d="M460 318h-121q-10 71 -77 71q-48 0 -75.5 -40.5t-27.5 -111.5q0 -73 26.5 -112t75.5 -39q73 0 83 83h119q-5 -78 -58 -130t-144 -52q-102 0 -165 69t-63 181q0 114 63 182.5t167 68.5q105 0 160 -70q29 -39 37 -100zM177 536l127 163h152l-186 -163h-93z" />
    <glyph glyph-name="Ccircumflex" unicode="&#x108;" horiz-adv-x="599" 
d="M565 450h-111q-20 119 -124 119q-74 0 -117.5 -64t-43.5 -173t43.5 -171.5t118.5 -62.5q116 0 128 149h114q-6 -128 -65.5 -194t-169.5 -66q-121 0 -203 77q-99 93 -99 268q0 184 106 278q80 70 191 70q64 0 116 -27t81 -75q29 -47 35 -128zM145 727l137 141h99l138 -141
h-117l-70 78l-70 -78h-117z" />
    <glyph glyph-name="Cdotaccent" unicode="&#x10a;" horiz-adv-x="599" 
d="M565 450h-111q-20 119 -124 119q-74 0 -117.5 -64t-43.5 -173t43.5 -171.5t118.5 -62.5q116 0 128 149h114q-6 -128 -65.5 -194t-169.5 -66q-121 0 -203 77q-99 93 -99 268q0 184 106 278q80 70 191 70q64 0 116 -27t81 -75q29 -47 35 -128zM333 876q32 0 54.5 -22.5
t22.5 -56.5q0 -33 -22.5 -56t-55.5 -23t-56.5 23.5t-23.5 55.5q0 33 23.5 56t57.5 23z" />
    <glyph glyph-name="cdotaccent" unicode="&#x10b;" horiz-adv-x="497" 
d="M460 318h-121q-10 71 -77 71q-48 0 -75.5 -40.5t-27.5 -111.5q0 -73 26.5 -112t75.5 -39q73 0 83 83h119q-5 -78 -58 -130t-144 -52q-102 0 -165 69t-63 181q0 114 63 182.5t167 68.5q105 0 160 -70q29 -39 37 -100zM264 684q27 0 47 -20t20 -48q0 -27 -20.5 -47.5
t-47.5 -20.5q-28 0 -48 20t-20 48q0 29 20 48.5t49 19.5z" />
    <glyph glyph-name="Ccaron" unicode="&#x10c;" horiz-adv-x="599" 
d="M565 450h-111q-20 119 -124 119q-74 0 -117.5 -64t-43.5 -173t43.5 -171.5t118.5 -62.5q116 0 128 149h114q-6 -128 -65.5 -194t-169.5 -66q-121 0 -203 77q-99 93 -99 268q0 184 106 278q80 70 191 70q64 0 116 -27t81 -75q29 -47 35 -128zM519 868l-138 -141h-99
l-137 141h116l70 -78l70 78h118z" />
    <glyph glyph-name="ccaron" unicode="&#x10d;" horiz-adv-x="497" 
d="M460 318h-121q-10 71 -77 71q-48 0 -75.5 -40.5t-27.5 -111.5q0 -73 26.5 -112t75.5 -39q73 0 83 83h119q-5 -78 -58 -130t-144 -52q-102 0 -165 69t-63 181q0 114 63 182.5t167 68.5q105 0 160 -70q29 -39 37 -100zM433 693l-120 -152h-99l-121 152h111l59 -86l58 86
h112z" />
    <glyph glyph-name="Dcaron" unicode="&#x10e;" horiz-adv-x="646" 
d="M80 667h163q140 0 208 -34q74 -37 116.5 -117t42.5 -182q0 -97 -39 -176.5t-104 -116.5q-44 -25 -91.5 -33t-152.5 -8h-143v667zM208 109h59q56 0 86 6.5t54 24.5q72 53 72 195q0 137 -76 191q-28 20 -59 26t-108 6h-28v-449zM496 868l-138 -141h-99l-138 141h117l70 -78
l70 78h118z" />
    <glyph glyph-name="dcaron" unicode="&#x10f;" horiz-adv-x="655" 
d="M479 671v-521q0 -108 9 -150h-115q-4 27 -4 42q0 14 1 24q-23 -40 -55 -58t-80 -18q-90 0 -146 67t-56 176q0 110 56.5 181t143.5 71q41 0 69 -14t54 -48v248h123zM261 382q-48 0 -75.5 -39.5t-27.5 -109.5q0 -64 26.5 -102t71.5 -38q48 0 75 38.5t27 106.5t-25.5 106
t-71.5 38zM606 437h-57q47 57 49 115q-66 10 -66 62q0 28 20.5 47t49.5 19q33 0 53 -24.5t20 -65.5q0 -69 -69 -153z" />
    <glyph glyph-name="Dcroat" unicode="&#x110;" horiz-adv-x="646" 
d="M80 667h163q140 0 209 -34q74 -38 116.5 -118t42.5 -181q0 -96 -39 -176t-104 -117q-44 -25 -92 -33t-153 -8h-143v297h-60v100h60v270zM208 109h59q56 0 86 6.5t55 24.5q34 25 53 77t19 118q0 137 -76 191q-28 20 -59.5 26t-108.5 6h-28v-161h134v-100h-134v-188z" />
    <glyph glyph-name="dcroat" unicode="&#x111;" horiz-adv-x="548" 
d="M479 671v-63h60v-80h-60v-378q0 -108 9 -150h-115q-4 27 -4 42q0 14 1 24q-23 -40 -55 -58t-80 -18q-90 0 -146 67t-56 176q0 66 22.5 122.5t61.5 87.5q49 39 119 39q73 0 120 -66v112h-120v80h120v63h123zM261 383q-47 0 -75 -40.5t-28 -109.5q0 -64 26.5 -102t71.5 -38
q48 0 75 38.5t27 106.5q0 67 -26 106t-71 39z" />
    <glyph glyph-name="Emacron" unicode="&#x112;" horiz-adv-x="537" 
d="M208 400h265v-109h-265v-182h302v-109h-430v667h419v-109h-291v-158zM132 832h316v-75h-316v75z" />
    <glyph glyph-name="emacron" unicode="&#x113;" horiz-adv-x="515" 
d="M481 208h-325q3 -59 32.5 -90.5t82.5 -31.5q68 0 92 53l109 -5q-16 -68 -70.5 -107.5t-133.5 -39.5q-109 0 -172 66t-63 179q0 116 63.5 186t167.5 70q101 0 159 -68.5t58 -187.5v-24zM159 298h198q-15 95 -94 95q-80 0 -104 -95zM123 652h289v-73h-289v73z" />
    <glyph glyph-name="Ebreve" unicode="&#x114;" horiz-adv-x="537" 
d="M208 400h265v-109h-265v-182h302v-109h-430v667h419v-109h-291v-158zM143 869h47q21 -38 44 -54t56 -16t56.5 16.5t43.5 53.5h47q-7 -66 -46.5 -104t-100.5 -38q-60 0 -100 38.5t-47 103.5z" />
    <glyph glyph-name="ebreve" unicode="&#x115;" horiz-adv-x="515" 
d="M481 208h-325q3 -59 32.5 -90.5t82.5 -31.5q68 0 92 53l109 -5q-16 -68 -70.5 -107.5t-133.5 -39.5q-109 0 -172 66t-63 179q0 116 63.5 186t167.5 70q101 0 159 -68.5t58 -187.5v-24zM159 298h198q-15 95 -94 95q-80 0 -104 -95zM132 683h51q18 -37 38.5 -53t48.5 -16
q26 0 44 15.5t37 53.5h51q-8 -69 -42 -106.5t-89 -37.5q-58 0 -94.5 38t-44.5 106z" />
    <glyph glyph-name="Edotaccent" unicode="&#x116;" horiz-adv-x="537" 
d="M208 400h265v-109h-265v-182h302v-109h-430v667h419v-109h-291v-158zM291 876q33 0 55.5 -23t22.5 -56t-23 -56t-56 -23q-32 0 -55.5 23.5t-23.5 55.5q0 34 23 56.5t57 22.5z" />
    <glyph glyph-name="edotaccent" unicode="&#x117;" horiz-adv-x="515" 
d="M481 208h-325q3 -59 32.5 -90.5t82.5 -31.5q68 0 92 53l109 -5q-16 -68 -70.5 -107.5t-133.5 -39.5q-109 0 -172 66t-63 179q0 116 63.5 186t167.5 70q101 0 159 -68.5t58 -187.5v-24zM159 298h198q-15 95 -94 95q-80 0 -104 -95zM267 684q28 0 47.5 -20t19.5 -48
t-20 -48t-48 -20q-27 0 -47.5 20.5t-20.5 47.5q0 29 20 48.5t49 19.5z" />
    <glyph glyph-name="Eogonek" unicode="&#x118;" horiz-adv-x="537" 
d="M510 109v-109q-34 -25 -65 -61q-22 -25 -22 -47q0 -43 51 -43q22 0 48 11v-55q-35 -18 -73 -18q-50 0 -82 28.5t-32 72.5q0 70 94 112h-349v667h419v-109h-291v-158h265v-109h-265v-182h302z" />
    <glyph glyph-name="eogonek" unicode="&#x119;" horiz-adv-x="515" 
d="M429 -134v-52q-29 -16 -66 -16q-48 0 -78.5 26t-30.5 67q0 28 14.5 50.5t51.5 50.5q-29 -5 -54 -5q-106 0 -169.5 66.5t-63.5 178.5q0 116 63.5 186t167.5 70q120 0 178 -95q22 -35 30.5 -76t8.5 -109h-325q3 -59 33 -90.5t83 -31.5q67 0 91 53l109 -5q-6 -27 -16.5 -46
t-37.5 -51q-50 -58 -66 -88q-17 -31 -17 -49q0 -45 47 -45q20 0 47 11zM159 298h198q-13 95 -94 95q-80 0 -104 -95z" />
    <glyph glyph-name="Ecaron" unicode="&#x11a;" horiz-adv-x="537" 
d="M208 400h265v-109h-265v-182h302v-109h-430v667h419v-109h-291v-158zM477 868l-137 -141h-99l-138 141h117l70 -78l70 78h117z" />
    <glyph glyph-name="ecaron" unicode="&#x11b;" horiz-adv-x="515" 
d="M481 208h-325q3 -59 32.5 -90.5t82.5 -31.5q68 0 92 53l109 -5q-16 -68 -70.5 -107.5t-133.5 -39.5q-109 0 -172 66t-63 179q0 116 63.5 186t167.5 70q101 0 159 -68.5t58 -187.5v-24zM159 298h198q-15 95 -94 95q-80 0 -104 -95zM438 693l-121 -152h-99l-121 152h111
l59 -86l59 86h112z" />
    <glyph glyph-name="Gcircumflex" unicode="&#x11c;" horiz-adv-x="641" 
d="M349 344h239v-277q-114 -80 -243 -80q-142 0 -225.5 93.5t-83.5 253.5q0 155 82 250.5t216 95.5q63 0 116 -23.5t85 -66.5q39 -53 43 -138h-110q-18 117 -131 117q-79 0 -123.5 -62.5t-44.5 -174.5q0 -111 45.5 -172.5t128.5 -61.5q77 0 139 44v107h-133v95zM149 727
l138 141h99l138 -141h-117l-70 78l-70 -78h-118z" />
    <glyph glyph-name="gcircumflex" unicode="&#x11d;" horiz-adv-x="530" 
d="M512 475v-88h-97q25 -36 25 -85q0 -86 -75 -119q-24 -10 -42 -13t-97 -11q-46 -3 -46 -28q0 -14 14.5 -18t89.5 -12q111 -11 150 -32q59 -33 59 -111q0 -76 -62 -117.5t-174 -41.5q-110 0 -173.5 37.5t-63.5 102.5q0 78 96 111q-53 20 -53 57q0 24 19 41t65 35
q-81 41 -81 135q0 76 54 121.5t144 45.5q38 0 91 -13zM256 392q-38 0 -61 -19.5t-23 -53.5q0 -32 22 -51t60 -19q37 0 60 19t23 51t-23 52.5t-58 20.5zM242 9q-54 0 -85.5 -16t-31.5 -44q0 -29 35.5 -45t97.5 -16q117 0 117 59q0 29 -35.5 45.5t-97.5 16.5zM99 541l121 152
h99l121 -152h-111l-60 86l-58 -86h-112z" />
    <glyph glyph-name="Gbreve" unicode="&#x11e;" horiz-adv-x="641" 
d="M349 344h239v-277q-114 -80 -243 -80q-142 0 -225.5 93.5t-83.5 253.5q0 155 82 250.5t216 95.5q63 0 116 -23.5t85 -66.5q39 -53 43 -138h-110q-18 117 -131 117q-79 0 -123.5 -62.5t-44.5 -174.5q0 -111 45.5 -172.5t128.5 -61.5q77 0 139 44v107h-133v95zM191 869h47
q20 -37 43.5 -53.5t56.5 -16.5t56 16t44 54h47q-8 -66 -47 -104t-100 -38q-60 0 -100 38.5t-47 103.5z" />
    <glyph glyph-name="gbreve" unicode="&#x11f;" horiz-adv-x="530" 
d="M512 475v-88h-97q25 -36 25 -85q0 -86 -75 -119q-24 -10 -42 -13t-97 -11q-46 -3 -46 -28q0 -14 14.5 -18t89.5 -12q111 -11 150 -32q59 -33 59 -111q0 -76 -62 -117.5t-174 -41.5q-110 0 -173.5 37.5t-63.5 102.5q0 78 96 111q-53 20 -53 57q0 24 19 41t65 35
q-81 41 -81 135q0 76 54 121.5t144 45.5q38 0 91 -13zM256 392q-38 0 -61 -19.5t-23 -53.5q0 -32 22 -51t60 -19q37 0 60 19t23 51t-23 52.5t-58 20.5zM242 9q-54 0 -85.5 -16t-31.5 -44q0 -29 35.5 -45t97.5 -16q117 0 117 59q0 29 -35.5 45.5t-97.5 16.5zM134 683h51
q18 -37 38.5 -53t48.5 -16q26 0 44 15.5t38 53.5h50q-8 -69 -42 -106.5t-89 -37.5q-58 0 -94.5 38t-44.5 106z" />
    <glyph glyph-name="Gdotaccent" unicode="&#x120;" horiz-adv-x="641" 
d="M349 344h239v-277q-114 -80 -243 -80q-142 0 -225.5 93.5t-83.5 253.5q0 155 82 250.5t216 95.5q63 0 116 -23.5t85 -66.5q39 -53 43 -138h-110q-18 117 -131 117q-79 0 -123.5 -62.5t-44.5 -174.5q0 -111 45.5 -172.5t128.5 -61.5q77 0 139 44v107h-133v95zM339 876
q32 0 55 -23t23 -56q0 -32 -23.5 -55.5t-55.5 -23.5q-33 0 -56 23t-23 56q0 34 23 56.5t57 22.5z" />
    <glyph glyph-name="gdotaccent" unicode="&#x121;" horiz-adv-x="530" 
d="M512 475v-88h-97q25 -36 25 -85q0 -86 -75 -119q-24 -10 -42 -13t-97 -11q-46 -3 -46 -28q0 -14 14.5 -18t89.5 -12q111 -11 150 -32q59 -33 59 -111q0 -76 -62 -117.5t-174 -41.5q-110 0 -173.5 37.5t-63.5 102.5q0 78 96 111q-53 20 -53 57q0 24 19 41t65 35
q-81 41 -81 135q0 76 54 121.5t144 45.5q38 0 91 -13zM256 392q-38 0 -61 -19.5t-23 -53.5q0 -32 22 -51t60 -19q37 0 60 19t23 51t-23 52.5t-58 20.5zM242 9q-54 0 -85.5 -16t-31.5 -44q0 -29 35.5 -45t97.5 -16q117 0 117 59q0 29 -35.5 45.5t-97.5 16.5zM270 684
q28 0 47.5 -20t19.5 -48t-20 -48t-48 -20q-27 0 -47.5 20.5t-20.5 47.5q0 28 20 48t49 20z" />
    <glyph glyph-name="Gcommaaccent" unicode="&#x122;" horiz-adv-x="641" 
d="M349 344h239v-277q-114 -80 -243 -80q-142 0 -225.5 93.5t-83.5 253.5q0 155 82 250.5t216 95.5q63 0 116 -23.5t85 -66.5q39 -53 43 -138h-110q-18 117 -131 117q-79 0 -123.5 -62.5t-44.5 -174.5q0 -111 45.5 -172.5t128.5 -61.5q77 0 139 44v107h-133v95zM338 -289
h-55q46 55 48 112q-64 7 -64 59q0 27 19.5 45.5t48.5 18.5q32 0 51 -23.5t19 -63.5q0 -66 -67 -148z" />
    <glyph glyph-name="gcommaaccent" unicode="&#x123;" horiz-adv-x="530" 
d="M512 475v-88h-97q25 -36 25 -85q0 -86 -75 -119q-24 -10 -42 -13t-97 -11q-46 -3 -46 -28q0 -14 14.5 -18t89.5 -12q111 -11 150 -32q59 -33 59 -111q0 -76 -62 -117.5t-174 -41.5q-110 0 -173.5 37.5t-63.5 102.5q0 78 96 111q-53 20 -53 57q0 24 19 41t65 35
q-81 41 -81 135q0 76 54 121.5t144 45.5q38 0 91 -13zM256 392q-38 0 -61 -19.5t-23 -53.5q0 -32 22 -51t60 -19q37 0 60 19t23 51t-23 52.5t-58 20.5zM242 9q-54 0 -85.5 -16t-31.5 -44q0 -29 35.5 -45t97.5 -16q117 0 117 59q0 29 -35.5 45.5t-97.5 16.5zM271 780h56
q-47 -57 -49 -115q66 -9 66 -61q0 -28 -20.5 -47.5t-49.5 -19.5q-32 0 -52.5 25.5t-20.5 64.5q0 69 70 153z" />
    <glyph glyph-name="Hcircumflex" unicode="&#x124;" horiz-adv-x="681" 
d="M208 401h265v266h128v-667h-128v295h-265v-295h-128v667h128v-266zM153 727l138 141h99l138 -141h-117l-70 78l-70 -78h-118z" />
    <glyph glyph-name="Hbar" unicode="&#x126;" horiz-adv-x="681" 
d="M473 580v87h128v-87h60v-100h-60v-480h-128v295h-265v-295h-128v480h-60v100h60v87h128v-87h265zM473 480h-265v-79h265v79z" />
    <glyph glyph-name="hbar" unicode="&#x127;" horiz-adv-x="555" 
d="M69 671h123v-63h134v-80h-134v-105q55 62 137 62q45 0 82.5 -19t56.5 -51q13 -22 17.5 -50t4.5 -91v-274h-123v247q0 65 -13 90q-21 40 -68 40q-26 0 -48.5 -14.5t-32.5 -37.5q-13 -29 -13 -82v-243h-123v528h-60v80h60v63z" />
    <glyph glyph-name="Imacron" unicode="&#x12a;" horiz-adv-x="288" 
d="M209 0h-128v667h128v-667zM13 832h263v-75h-263v75z" />
    <glyph glyph-name="imacron" unicode="&#x12b;" horiz-adv-x="261" 
d="M69 475h123v-475h-123v475zM13 652h236v-73h-236v73z" />
    <glyph glyph-name="ibreve" unicode="&#x12d;" horiz-adv-x="261" 
d="M68 475h123v-475h-123v475zM1 680h51q23 -66 77 -66q56 0 79 66h51q-5 -67 -38 -104t-89 -37q-58 0 -94 38.5t-37 102.5z" />
    <glyph glyph-name="Iogonek" unicode="&#x12e;" horiz-adv-x="288" 
d="M137 0h-57v667h128v-667q-59 -62 -59 -105q0 -47 42 -47q16 0 34 9v-52q-24 -18 -63 -18q-42 0 -71 29.5t-29 71.5q0 67 75 112z" />
    <glyph glyph-name="iogonek" unicode="&#x12f;" horiz-adv-x="261" 
d="M192 475v-475q-35 -46 -46 -66.5t-11 -39.5q0 -16 10.5 -27t26.5 -11q18 0 37 8v-50q-28 -16 -56 -16q-42 0 -70.5 27.5t-28.5 67.5q0 60 73 107h-58v475h123zM133 680q31 0 50 -19.5t19 -51.5t-19.5 -52t-51.5 -20q-33 0 -52.5 19t-19.5 51q0 33 20 53t54 20z" />
    <glyph glyph-name="Idotaccent" unicode="&#x130;" horiz-adv-x="288" 
d="M208 0h-128v667h128v-667zM145 876q33 0 55.5 -23t22.5 -56t-23 -56t-56 -23q-32 0 -55.5 23.5t-23.5 55.5q0 34 23 56.5t57 22.5z" />
    <glyph glyph-name="dotlessi" unicode="&#x131;" horiz-adv-x="261" 
d="M69 475h123v-475h-123v475z" />
    <glyph glyph-name="IJ" unicode="&#x132;" horiz-adv-x="603" 
d="M208 0h-128v667h128v-667zM399 667h128v-531q0 -93 -4.5 -127.5t-19.5 -62.5q-44 -80 -201 -80q-21 0 -38 1v107q95 0 117 22q12 11 15 33t3 104v534z" />
    <glyph glyph-name="ij" unicode="&#x133;" horiz-adv-x="528" 
d="M69 475h123v-475h-123v475zM132 680q32 0 51 -19.5t19 -51.5t-20 -52t-52 -20t-51.5 19t-19.5 51q0 33 20 53t53 20zM340 475h123v-407q0 -76 -6 -108t-25 -63q-52 -81 -189 -81q-15 0 -26 1v105h15q83 0 100 44q6 13 7 26t1 75v408zM404 680q31 0 50 -19.5t19 -51.5
q0 -33 -19.5 -52.5t-51.5 -19.5q-33 0 -52.5 19t-19.5 51q0 33 20 53t54 20z" />
    <glyph glyph-name="Kcommaaccent" unicode="&#x136;" horiz-adv-x="623" 
d="M454 667h148l-249 -309l265 -358h-163l-245 354zM80 667h128v-667h-128v667zM326 -289h-55q46 55 48 112q-64 8 -64 59q0 27 19.5 45.5t48.5 18.5q32 0 51 -23.5t19 -63.5q0 -66 -67 -148z" />
    <glyph glyph-name="kcommaaccent" unicode="&#x137;" horiz-adv-x="536" 
d="M368 475h148l-178 -220l194 -255h-165l-173 253zM69 671h123v-671h-123v671zM281 -296h-57q21 25 35 57.5t14 57.5q-65 9 -65 61q0 28 20 47.5t49 19.5q32 0 52.5 -25t20.5 -65q0 -69 -69 -153z" />
    <glyph glyph-name="kgreenlandic" unicode="&#x138;" horiz-adv-x="536" 
d="M368 475h148l-178 -220l194 -255h-165l-173 253zM69 475h123v-475h-123v475z" />
    <glyph glyph-name="Lacute" unicode="&#x139;" horiz-adv-x="515" 
d="M80 667h131v-558h290v-109h-421v667zM67 716l166 163h152l-203 -163h-115z" />
    <glyph glyph-name="lacute" unicode="&#x13a;" horiz-adv-x="261" 
d="M68 671h123v-671h-123v671zM56 716l139 163h142l-186 -163h-95z" />
    <glyph glyph-name="Lcommaaccent" unicode="&#x13b;" horiz-adv-x="515" 
d="M80 667h131v-558h289v-109h-420v667zM293 -289h-55q47 57 47 112q-63 7 -63 59q0 27 19.5 45.5t47.5 18.5q32 0 51.5 -23.5t19.5 -63.5q0 -66 -67 -148z" />
    <glyph glyph-name="lcommaaccent" unicode="&#x13c;" horiz-adv-x="260" 
d="M69 671h123v-671h-123v671zM129 -296h-56q48 58 48 115q-65 9 -65 61q0 28 20 47.5t49 19.5q33 0 53 -24.5t20 -65.5q0 -69 -69 -153z" />
    <glyph glyph-name="Lcaron" unicode="&#x13d;" horiz-adv-x="515" 
d="M80 667h131v-558h289v-109h-420v667zM375 445h-54q45 55 47 112q-64 8 -64 59q0 27 19.5 45.5t48.5 18.5q32 0 51.5 -24t19.5 -63q0 -66 -68 -148z" />
    <glyph glyph-name="lcaron" unicode="&#x13e;" horiz-adv-x="368" 
d="M69 671h123v-671h-123v671zM319 437h-57q47 57 49 115q-65 10 -65 62q0 28 20 47t49 19q33 0 53 -24.5t20 -65.5q0 -69 -69 -153z" />
    <glyph glyph-name="Ldot" unicode="&#x13f;" horiz-adv-x="515" 
d="M80 667h131v-558h289v-109h-420v667zM401 416q36 0 60.5 -25t24.5 -61t-24.5 -61t-61.5 -25q-35 0 -60.5 25.5t-25.5 60.5q0 37 25 61.5t62 24.5z" />
    <glyph glyph-name="ldot" unicode="&#x140;" horiz-adv-x="421" 
d="M69 671h123v-671h-123v671zM339 429q30 0 53 -23.5t23 -53.5q0 -32 -22.5 -54t-54.5 -22t-54 21.5t-22 53.5q0 31 23 54.5t54 23.5z" />
    <glyph glyph-name="Lslash" unicode="&#x141;" horiz-adv-x="515" 
d="M80 355v312h131v-242l155 118v-108l-155 -117v-209h289v-109h-420v248l-67 -53v107z" />
    <glyph glyph-name="lslash" unicode="&#x142;" horiz-adv-x="267" 
d="M72 381v290h123v-231l71 48v-91l-71 -49v-348h-123v289l-71 -50v91z" />
    <glyph glyph-name="Nacute" unicode="&#x143;" horiz-adv-x="689" 
d="M80 667h137l270 -470v470h122v-667h-129l-278 470v-470h-122v667zM246 716l166 163h152l-203 -163h-115z" />
    <glyph glyph-name="nacute" unicode="&#x144;" horiz-adv-x="548" 
d="M54 475h119q10 -21 10 -61q53 71 141 71q44 0 80.5 -18.5t55.5 -50.5q14 -24 18 -51t4 -91v-274h-123v247q0 68 -12 91q-19 39 -65 39q-26 0 -47.5 -14t-31.5 -37q-11 -23 -11 -83v-243h-123v305q0 86 -2 110t-13 60zM184 536l127 163h152l-186 -163h-93z" />
    <glyph glyph-name="Ncommaaccent" unicode="&#x145;" horiz-adv-x="689" 
d="M80 667h137l270 -470v470h122v-667h-129l-278 470v-470h-122v667zM335 -289h-55q46 55 48 112q-64 7 -64 59q0 27 19.5 45.5t48.5 18.5q32 0 51 -23.5t19 -63.5q0 -66 -67 -148z" />
    <glyph glyph-name="ncommaaccent" unicode="&#x146;" horiz-adv-x="548" 
d="M54 475h119q10 -21 10 -61q53 71 141 71q44 0 80.5 -18.5t55.5 -50.5q14 -24 18 -51t4 -91v-274h-123v247q0 68 -12 91q-19 39 -65 39q-26 0 -47.5 -14t-31.5 -37q-11 -23 -11 -83v-243h-123v305q0 86 -2 110t-13 60zM273 -296h-56q47 57 49 115q-66 9 -66 61
q0 28 20.5 47.5t49.5 19.5q32 0 52.5 -25t20.5 -65q0 -69 -70 -153z" />
    <glyph glyph-name="Ncaron" unicode="&#x147;" horiz-adv-x="689" 
d="M80 667h137l270 -470v470h122v-667h-129l-278 470v-470h-122v667zM532 868l-138 -141h-99l-137 141h116l71 -78l69 78h118z" />
    <glyph glyph-name="ncaron" unicode="&#x148;" horiz-adv-x="548" 
d="M54 475h119q10 -21 10 -61q53 71 141 71q44 0 80.5 -18.5t55.5 -50.5q14 -24 18 -51t4 -91v-274h-123v247q0 68 -12 91q-19 39 -65 39q-26 0 -47.5 -14t-31.5 -37q-11 -23 -11 -83v-243h-123v305q0 86 -2 110t-13 60zM435 693l-120 -152h-100l-121 152h111l60 -86l58 86
h112z" />
    <glyph glyph-name="napostrophe" unicode="&#x149;" horiz-adv-x="670" 
d="M100 437h-56q48 60 48 115q-65 9 -65 61q0 28 20 47.5t49 19.5q33 0 53 -24.5t20 -65.5q0 -69 -69 -153zM176 475h119q10 -21 10 -61q53 71 142 71q44 0 80.5 -18.5t55.5 -50.5q14 -24 18 -51t4 -91v-274h-123v247q0 68 -12 91q-19 39 -65 39q-26 0 -48 -14t-32 -37
q-11 -23 -11 -83v-243h-123v305q0 86 -2 110t-13 60z" />
    <glyph glyph-name="Eng" unicode="&#x14a;" horiz-adv-x="699" 
d="M66 667h122q14 -34 14 -86q74 98 199 98q63 0 113 -25.5t76 -70.5q20 -34 26 -71t6 -128v-298q0 -91 -4.5 -126.5t-19.5 -63.5q-44 -80 -200 -80q-21 0 -38 1v107q94 0 116 22q12 12 15 34t3 103v263q0 118 -21 159q-33 65 -114 65q-95 0 -129 -87q-16 -39 -16 -153v-330
h-128v427q0 124 -2.5 155t-17.5 85z" />
    <glyph glyph-name="eng" unicode="&#x14b;" horiz-adv-x="548" 
d="M54 475h119q10 -21 10 -61q53 71 141 71q44 0 80.5 -18.5t55.5 -50.5q14 -24 18 -51t4 -91v-206q0 -76 -6 -108t-25 -63q-52 -81 -189 -81q-15 0 -26 1v106q7 -1 15 -1q82 0 100 44q6 13 7 26t1 75v180q0 68 -12 91q-19 39 -65 39q-26 0 -47.5 -14t-31.5 -37
q-11 -22 -11 -83v-243h-123v305q0 86 -2 110.5t-13 59.5z" />
    <glyph glyph-name="Omacron" unicode="&#x14c;" horiz-adv-x="673" 
d="M337 680q122 0 204 -80q97 -94 97 -266q0 -175 -97 -267q-82 -80 -203 -80q-123 0 -206 80q-96 93 -96 272q0 168 96 261q83 80 205 80zM337 570q-78 0 -118 -56q-50 -69 -50 -177q0 -113 44.5 -176.5t123.5 -63.5q78 0 118 56q50 69 50 181q0 113 -50 180
q-40 56 -118 56zM179 832h316v-75h-316v75z" />
    <glyph glyph-name="omacron" unicode="&#x14d;" horiz-adv-x="536" 
d="M268 488q102 0 168 -70.5t66 -180.5q0 -109 -66 -179.5t-168 -70.5q-104 0 -169.5 70.5t-65.5 183.5q0 107 66.5 177t168.5 70zM267 389q-49 0 -78.5 -41t-29.5 -109q0 -71 29.5 -112t79.5 -41q49 0 78.5 41.5t29.5 109.5q0 69 -30 110.5t-79 41.5zM123 652h289v-73h-289
v73z" />
    <glyph glyph-name="Ohungarumlaut" unicode="&#x150;" horiz-adv-x="673" 
d="M337 680q139 0 220 -92.5t81 -252.5q0 -163 -80.5 -255.5t-223.5 -92.5q-96 0 -166 48q-132 88 -132 299t132 298q72 48 169 48zM337 570q-80 0 -124 -61.5t-44 -174.5q0 -112 44 -174.5t122 -62.5q82 0 126 61.5t44 176.5q0 111 -44.5 173t-123.5 62zM196 716l139 163
h140l-186 -163h-93zM380 716l138 163h140l-186 -163h-92z" />
    <glyph glyph-name="ohungarumlaut" unicode="&#x151;" horiz-adv-x="536" 
d="M268 488q102 0 168 -70.5t66 -180.5q0 -109 -66 -179.5t-168 -70.5q-104 0 -169.5 70.5t-65.5 183.5q0 107 66.5 177t168.5 70zM267 389q-49 0 -78.5 -41t-29.5 -109q0 -71 29.5 -112t79.5 -41q49 0 78.5 41.5t29.5 109.5q0 69 -30 110.5t-79 41.5zM150 536l105 163h135
l-158 -163h-82zM322 536l105 163h135l-158 -163h-82z" />
    <glyph glyph-name="OE" unicode="&#x152;" horiz-adv-x="963" 
d="M507 622v45h419v-109h-292v-158h266v-109h-266v-182h303v-109h-430v45q-35 -32 -73 -45t-96 -13q-119 0 -198 68q-104 89 -104 278q0 162 80.5 254.5t221.5 92.5q107 0 169 -58zM339 571q-80 0 -125 -62.5t-45 -172.5q0 -115 44 -177.5t124 -62.5q79 0 124.5 63.5
t45.5 174.5q0 110 -45 173.5t-123 63.5z" />
    <glyph glyph-name="oe" unicode="&#x153;" horiz-adv-x="858" 
d="M824 208h-334q2 -59 33 -91.5t88 -32.5q74 0 95 55l109 -4q-16 -69 -69.5 -108.5t-132.5 -39.5q-110 0 -178 78q-68 -79 -163 -79q-105 0 -172 70.5t-67 182.5q0 110 66 179.5t171 69.5q110 0 165 -81q38 44 77.5 62.5t93.5 18.5q103 0 160.5 -68t57.5 -190v-22zM495 294
h206q-15 100 -100 100q-86 0 -106 -100zM268 390q-50 0 -79.5 -41.5t-29.5 -111.5q0 -68 30 -110.5t79 -42.5q48 0 78.5 43t30.5 111t-30 110t-79 42z" />
    <glyph glyph-name="Racute" unicode="&#x154;" horiz-adv-x="590" 
d="M80 667h166q88 0 131 -6.5t78 -25.5q45 -24 70 -69.5t25 -103.5q0 -131 -118 -185l153 -277h-149l-136 255h-92v-255h-128v667zM208 364h46q80 0 109 11q56 22 56 88q0 53 -42 78q-19 11 -42.5 14t-89.5 3h-37v-194zM203 716l166 163h152l-203 -163h-115z" />
    <glyph glyph-name="racute" unicode="&#x155;" horiz-adv-x="377" 
d="M62 475h117q8 -32 8 -74q0 -14 -1 -25q28 58 60.5 83.5t76.5 25.5q13 0 37 -6v-125q-33 23 -74 23q-49 0 -72 -38t-23 -118v-221h-123v329q0 49 -1 84q0 29 -5 62zM130 536l128 163h151l-186 -163h-93z" />
    <glyph glyph-name="Rcommaaccent" unicode="&#x156;" horiz-adv-x="590" 
d="M80 667h166q88 0 131 -6.5t78 -25.5q45 -24 70 -69.5t25 -103.5q0 -131 -118 -185l153 -277h-149l-136 255h-92v-255h-128v667zM208 364h46q80 0 109 11q56 22 56 88q0 53 -42 78q-19 11 -42.5 14t-89.5 3h-37v-194zM318 -289h-55q47 57 47 112q-63 7 -63 59q0 28 19 46
t48 18q32 0 51.5 -24t19.5 -63q0 -66 -67 -148z" />
    <glyph glyph-name="rcommaaccent" unicode="&#x157;" horiz-adv-x="377" 
d="M63 475h117q8 -32 8 -74q0 -14 -1 -25q29 58 61 83.5t75 25.5q13 0 37 -6v-125q-33 23 -73 23q-49 0 -72 -38t-23 -118v-221h-123v329q0 49 -1 84q0 29 -5 62zM133 -296h-56q48 58 48 115q-65 9 -65 61q0 28 20 47.5t49 19.5q33 0 53 -24.5t20 -65.5q0 -69 -69 -153z" />
    <glyph glyph-name="Rcaron" unicode="&#x158;" horiz-adv-x="590" 
d="M80 667h166q88 0 131 -6.5t78 -25.5q45 -24 70 -69.5t25 -103.5q0 -131 -118 -185l153 -277h-149l-136 255h-92v-255h-128v667zM208 364h46q80 0 109 11q56 22 56 88q0 53 -42 78q-19 11 -42.5 14t-89.5 3h-37v-194zM489 868l-137 -141h-99l-138 141h116l71 -78l69 78
h118z" />
    <glyph glyph-name="rcaron" unicode="&#x159;" horiz-adv-x="377" 
d="M62 475h117q8 -32 8 -74q0 -14 -1 -25q28 58 60.5 83.5t76.5 25.5q13 0 37 -6v-125q-33 23 -74 23q-49 0 -72 -38t-23 -118v-221h-123v329q0 49 -1 84q0 29 -5 62zM378 693l-121 -152h-99l-121 152h111l59 -86l59 86h112z" />
    <glyph glyph-name="Sacute" unicode="&#x15a;" horiz-adv-x="565" 
d="M511 471h-123q-4 47 -32.5 72.5t-76.5 25.5q-42 0 -69.5 -20.5t-27.5 -51.5t34 -51q19 -10 109 -46t115.5 -50t46.5 -37q43 -46 43 -120q0 -95 -64.5 -150.5t-173.5 -55.5q-122 0 -189 61t-71 179h124q12 -129 137 -129q48 0 77 19.5t29 51.5q0 40 -46 64q-17 10 -115 50
q-105 45 -140 82q-44 50 -44 119q0 86 63.5 141t163.5 55q64 0 115.5 -24.5t81.5 -68.5q29 -44 33 -116zM185 716l167 163h151l-203 -163h-115z" />
    <glyph glyph-name="sacute" unicode="&#x15b;" horiz-adv-x="485" 
d="M439 331h-119q-9 66 -77 66q-28 0 -46.5 -14t-18.5 -36q0 -23 17 -33t98 -34q96 -28 123 -60q26 -34 26 -80q0 -73 -50.5 -113t-142.5 -40q-211 0 -211 172h116q3 -42 24 -60.5t66 -18.5q75 0 75 51q0 13 -7 21.5t-26 16.5q-14 6 -100 32q-73 22 -101.5 51t-28.5 82
q0 70 52 112.5t138 42.5t137 -42t56 -116zM165 536l127 163h152l-186 -163h-93z" />
    <glyph glyph-name="Scircumflex" unicode="&#x15c;" horiz-adv-x="565" 
d="M511 471h-123q-4 47 -32.5 72.5t-76.5 25.5q-42 0 -69.5 -20.5t-27.5 -51.5t34 -51q19 -10 109 -46t115.5 -50t46.5 -37q43 -46 43 -120q0 -95 -64.5 -150.5t-173.5 -55.5q-122 0 -189 61t-71 179h124q12 -129 137 -129q48 0 77 19.5t29 51.5q0 40 -46 64q-17 10 -115 50
q-105 45 -140 82q-44 50 -44 119q0 86 63.5 141t163.5 55q64 0 115.5 -24.5t81.5 -68.5q29 -44 33 -116zM99 727l137 141h99l138 -141h-117l-70 78l-70 -78h-117z" />
    <glyph glyph-name="scircumflex" unicode="&#x15d;" horiz-adv-x="485" 
d="M439 331h-119q-9 66 -77 66q-28 0 -46.5 -14t-18.5 -36q0 -23 17 -33t98 -34q96 -28 123 -60q26 -34 26 -80q0 -73 -50.5 -113t-142.5 -40q-211 0 -211 172h116q3 -42 24 -60.5t66 -18.5q75 0 75 51q0 13 -7 21.5t-26 16.5q-14 6 -100 32q-73 22 -101.5 51t-28.5 82
q0 70 52 112.5t138 42.5t137 -42t56 -116zM77 541l121 152h99l121 -152h-111l-59 86l-59 -86h-112z" />
    <glyph glyph-name="Scedilla" unicode="&#x15e;" horiz-adv-x="565" 
d="M298 -13l-13 -38q106 -23 106 -109q0 -50 -35 -84t-87 -34q-50 0 -99 34v56q47 -24 77 -24q25 0 41 17t16 44q0 30 -20 48.5t-52 18.5q-15 0 -35 -5l25 82q-90 17 -140 78t-50 156h124q12 -129 137 -129q47 0 76.5 19.5t29.5 51.5q0 39 -46 64q-18 10 -115 50
q-107 45 -140 82q-45 50 -45 119q0 86 64 141t164 55q64 0 115.5 -24.5t80.5 -68.5q30 -43 34 -116h-123q-4 47 -32.5 72.5t-76.5 25.5q-41 0 -69.5 -21t-28.5 -51q0 -32 35 -51q18 -10 109 -46q90 -36 115.5 -50t46.5 -37q43 -46 43 -120q0 -65 -34 -115.5t-94 -72.5
q-37 -15 -104 -18z" />
    <glyph glyph-name="scedilla" unicode="&#x15f;" horiz-adv-x="485" 
d="M254 -13l-10 -32q91 -19 91 -93q0 -42 -30.5 -71.5t-73.5 -29.5t-86 29v48q39 -20 65 -20q22 0 36 14.5t14 37.5q0 25 -17 41t-44 16q-12 0 -31 -4l21 68q-74 11 -113.5 55t-37.5 113h116q3 -41 21 -58q24 -22 69 -22q35 0 55 14t20 38q0 25 -34 38q-14 6 -99 32
q-72 22 -97 47q-34 34 -34 86q0 69 53 112t138 43q86 0 136.5 -42t55.5 -116h-118q-9 66 -77 66q-28 0 -47 -14.5t-19 -35.5q0 -22 20 -34q19 -11 96 -33q55 -16 81.5 -29t40.5 -31q27 -33 27 -80t-24 -84t-67 -53q-30 -12 -97 -16z" />
    <glyph glyph-name="Scaron" unicode="&#x160;" horiz-adv-x="565" 
d="M511 471h-123q-4 47 -32.5 72.5t-76.5 25.5q-42 0 -69.5 -20.5t-27.5 -51.5t34 -51q19 -10 109 -46t115.5 -50t46.5 -37q43 -46 43 -120q0 -95 -64.5 -150.5t-173.5 -55.5q-122 0 -189 61t-71 179h124q12 -129 137 -129q48 0 77 19.5t29 51.5q0 40 -46 64q-17 10 -115 50
q-105 45 -140 82q-44 50 -44 119q0 86 63.5 141t163.5 55q64 0 115.5 -24.5t81.5 -68.5q29 -44 33 -116zM470 868l-138 -141h-99l-137 141h116l70 -78l70 78h118z" />
    <glyph glyph-name="scaron" unicode="&#x161;" horiz-adv-x="485" 
d="M439 331h-119q-9 66 -77 66q-28 0 -46.5 -14t-18.5 -36q0 -23 17 -33t98 -34q96 -28 123 -60q26 -34 26 -80q0 -73 -50.5 -113t-142.5 -40q-211 0 -211 172h116q3 -42 24 -60.5t66 -18.5q75 0 75 51q0 13 -7 21.5t-26 16.5q-14 6 -100 32q-73 22 -101.5 51t-28.5 82
q0 70 52 112.5t138 42.5t137 -42t56 -116zM418 693l-120 -152h-100l-121 152h111l60 -86l58 86h112z" />
    <glyph glyph-name="Tcommaaccent" unicode="&#x162;" horiz-adv-x="503" 
d="M12 667h480v-109h-176v-558h-128v558h-176v109zM252 -289h-55q46 55 48 112q-64 8 -64 59q0 27 19.5 45.5t48.5 18.5q32 0 51 -23.5t19 -63.5q0 -66 -67 -148z" />
    <glyph glyph-name="tcommaaccent" unicode="&#x163;" horiz-adv-x="357" 
d="M221 475h96v-96h-97l-4 -183v-19v-13q0 -37 10.5 -51.5t38.5 -14.5q32 0 71 16l-2 -102q-56 -22 -108 -22q-83 0 -118 61q-18 31 -18 96q0 34 1 47l6 185h-74l2 96h76l4 137h119zM193 -296h-57q49 57 49 115q-65 9 -65 61q0 28 20 47.5t49 19.5q33 0 53 -24.5t20 -65.5
q0 -71 -69 -153z" />
    <glyph glyph-name="Tcaron" unicode="&#x164;" horiz-adv-x="503" 
d="M12 667h480v-109h-176v-558h-128v558h-176v109zM439 868l-137 -141h-99l-138 141h116l71 -78l69 78h118z" />
    <glyph glyph-name="tcaron" unicode="&#x165;" horiz-adv-x="392" 
d="M221 475h97v-96h-99l-3 -183q0 -23 -1 -32q0 -36 11.5 -51t38.5 -15q32 0 70 16v-102q-57 -22 -109 -22q-83 0 -118 60q-19 31 -19 97l1 47l7 185h-74v96h78l3 137h119zM343 528h-57q49 57 49 115q-65 9 -65 61q0 28 20 47.5t49 19.5q33 0 53 -24.5t20 -65.5
q0 -71 -69 -153z" />
    <glyph glyph-name="Tbar" unicode="&#x166;" horiz-adv-x="503" 
d="M12 667h480v-109h-176v-123h128v-100h-128v-335h-128v335h-128v100h128v123h-176v109z" />
    <glyph glyph-name="tbar" unicode="&#x167;" horiz-adv-x="357" 
d="M220 475h96v-96h-98v-60h91v-80h-93v-43l-1 -19l1 -13v-17q0 -49 48 -49q30 0 71 16l-2 -102q-54 -22 -108 -22q-83 0 -118 61q-18 31 -18 96q0 36 1 47l1 45h-68v80h72l1 60h-73v96h77l4 137h119z" />
    <glyph glyph-name="utilde" unicode="&#x169;" horiz-adv-x="555" 
d="M65 475h123v-270q0 -59 18 -81q23 -26 63 -26q57 0 81 46q13 26 13 77v254h123v-328q0 -79 1.5 -97.5t10.5 -49.5h-116q-8 18 -10 55q-51 -65 -133 -65q-49 0 -88.5 20.5t-60.5 55.5q-25 41 -25 132v277zM172 553l-52 14q28 106 89 106q23 0 67 -15q43 -16 60 -16
q25 0 48 40l46 -13q-10 -52 -34 -81.5t-55 -29.5q-23 0 -68 16q-47 16 -60 16q-28 0 -41 -37z" />
    <glyph glyph-name="Umacron" unicode="&#x16a;" horiz-adv-x="675" 
d="M73 667h128v-383q0 -84 12 -115q28 -71 124 -71q109 0 130 92q6 25 6 94v383h128v-385q0 -72 -5 -106t-21 -65q-29 -59 -91.5 -91.5t-146.5 -32.5t-146.5 32.5t-91.5 91.5q-16 31 -21 65t-5 106v385zM179 832h316v-75h-316v75z" />
    <glyph glyph-name="umacron" unicode="&#x16b;" horiz-adv-x="555" 
d="M65 475h123v-270q0 -59 18 -81q23 -26 63 -26q57 0 81 46q13 26 13 77v254h123v-328q0 -79 1.5 -97.5t10.5 -49.5h-116q-8 18 -10 55q-51 -65 -133 -65q-49 0 -88.5 20.5t-60.5 55.5q-25 41 -25 132v277zM131 652h289v-73h-289v73z" />
    <glyph glyph-name="ubreve" unicode="&#x16d;" horiz-adv-x="555" 
d="M65 475h123v-270q0 -59 18 -81q23 -26 63 -26q57 0 81 46q13 26 13 77v254h123v-328q0 -79 1.5 -97.5t10.5 -49.5h-116q-8 18 -10 55q-51 -65 -133 -65q-49 0 -88.5 20.5t-60.5 55.5q-25 41 -25 132v277zM140 683h51q18 -37 38.5 -53t48.5 -16q26 0 44 15.5t38 53.5h50
q-8 -69 -42 -106.5t-89 -37.5q-58 0 -94.5 38t-44.5 106z" />
    <glyph glyph-name="Uring" unicode="&#x16e;" horiz-adv-x="675" 
d="M73 667h128v-383q0 -84 12 -115q28 -71 124 -71q109 0 130 92q6 25 6 94v383h128v-385q0 -72 -5 -106t-21 -65q-29 -59 -91.5 -91.5t-146.5 -32.5t-146.5 32.5t-91.5 91.5q-16 31 -21 65t-5 106v385zM338 905q40 0 69 -29t29 -70t-29 -70.5t-70 -29.5t-70 29t-29 70
q0 42 29 71t71 29zM338 854q-22 0 -35.5 -13.5t-13.5 -35.5q0 -20 14 -34t34 -14t34 14t14 35q0 20 -13.5 34t-33.5 14z" />
    <glyph glyph-name="uring" unicode="&#x16f;" horiz-adv-x="555" 
d="M65 475h123v-270q0 -59 18 -81q23 -26 63 -26q57 0 81 46q13 26 13 77v254h123v-328q0 -79 1.5 -97.5t10.5 -49.5h-116q-8 18 -10 55q-51 -65 -133 -65q-49 0 -88.5 20.5t-60.5 55.5q-25 41 -25 132v277zM276 722q40 0 69 -29t29 -70t-29 -70.5t-70 -29.5t-70 29.5
t-29 69.5q0 42 29.5 71t70.5 29zM276 671q-21 0 -35 -14t-14 -35q0 -20 14 -34t34 -14q21 0 34.5 14t13.5 35q0 20 -13.5 34t-33.5 14z" />
    <glyph glyph-name="Uhungarumlaut" unicode="&#x170;" horiz-adv-x="675" 
d="M73 667h128v-383q0 -84 12 -115q28 -71 124 -71q109 0 130 92q6 25 6 94v383h128v-385q0 -72 -5 -106t-21 -65q-29 -59 -91.5 -91.5t-146.5 -32.5t-146.5 32.5t-91.5 91.5q-16 31 -21 65t-5 106v385zM193 716l138 163h141l-186 -163h-93zM376 716l139 163h140l-186 -163
h-93z" />
    <glyph glyph-name="uhungarumlaut" unicode="&#x171;" horiz-adv-x="555" 
d="M65 475h123v-270q0 -59 18 -81q23 -26 63 -26q57 0 81 46q13 26 13 77v254h123v-328q0 -79 1.5 -97.5t10.5 -49.5h-116q-8 18 -10 55q-51 -65 -133 -65q-49 0 -88.5 20.5t-60.5 55.5q-25 41 -25 132v277zM158 536l105 163h135l-159 -163h-81zM330 536l105 163h135
l-159 -163h-81z" />
    <glyph glyph-name="Uogonek" unicode="&#x172;" horiz-adv-x="675" 
d="M528 -140v-55q-35 -18 -73 -18q-50 0 -82 28.5t-32 72.5q0 31 18 55.5t60 52.5q-46 -9 -81 -9q-85 0 -148 32.5t-91 91.5q-16 31 -21 65t-5 106v385h128v-383q0 -84 12 -115q28 -71 124 -71q109 0 130 92q6 25 6 94v383h128v-385q0 -106 -17 -152q-10 -25 -24.5 -46
t-50.5 -62q-45 -49 -62.5 -78t-17.5 -54q0 -19 14 -30t37 -11t48 11z" />
    <glyph glyph-name="uogonek" unicode="&#x173;" horiz-adv-x="555" 
d="M486 475v-328q0 -78 1.5 -96.5t10.5 -50.5q-48 -39 -66 -62t-18 -43q0 -40 46 -40q20 0 47 11v-52q-29 -16 -66 -16q-49 0 -78.5 26t-29.5 69q0 24 8 39.5t31 36.5q20 19 46 31h-36q-8 18 -10 55q-51 -65 -133 -65q-49 0 -88.5 20.5t-60.5 55.5q-25 41 -25 132v277h123
v-270q0 -59 18 -81q23 -26 63 -26q57 0 81 46q13 26 13 77v254h123z" />
    <glyph glyph-name="Wcircumflex" unicode="&#x174;" horiz-adv-x="868" 
d="M9 667h120l127 -521l124 521h110l124 -521l129 521h117l-172 -667h-145l-110 434l-108 -434h-145zM247 727l138 141h99l137 -141h-116l-70 78l-70 -78h-118z" />
    <glyph glyph-name="Ycircumflex" unicode="&#x176;" horiz-adv-x="562" 
d="M0 667h143l140 -266l138 266h141l-217 -404v-263h-128v263zM94 727l138 141h99l137 -141h-116l-71 78l-69 -78h-118z" />
    <glyph glyph-name="ycircumflex" unicode="&#x177;" horiz-adv-x="499" 
d="M16 475h130l106 -362l110 362h128l-161 -462q-24 -67 -31 -83.5t-23 -41.5q-29 -48 -75.5 -68.5t-125.5 -20.5q-25 0 -46 1v107q79 -2 109.5 12t46.5 59zM83 541l120 152h100l121 -152h-111l-60 86l-58 -86h-112z" />
    <glyph glyph-name="Ydieresis" unicode="&#x178;" horiz-adv-x="562" 
d="M0 667h143l140 -266l138 266h141l-217 -404v-263h-128v263zM189 871q29 0 51 -22t22 -52t-21.5 -51.5t-52.5 -21.5t-52 21t-21 52t21.5 52.5t52.5 21.5zM375 871q30 0 51.5 -22t21.5 -52q0 -31 -21.5 -52t-52.5 -21t-52 21t-21 52t21.5 52.5t52.5 21.5z" />
    <glyph glyph-name="Zacute" unicode="&#x179;" horiz-adv-x="501" 
d="M53 667h429v-90l-307 -468h297v-109h-449v100l305 460h-275v107zM172 716l166 163h152l-203 -163h-115z" />
    <glyph glyph-name="zacute" unicode="&#x17a;" horiz-adv-x="424" 
d="M48 475h348v-93l-228 -280h232v-102h-377v95l225 278h-200v102zM142 536l127 163h152l-186 -163h-93z" />
    <glyph glyph-name="Zdotaccent" unicode="&#x17b;" horiz-adv-x="501" 
d="M53 667h429v-90l-307 -468h297v-109h-449v100l305 460h-275v107zM271 876q33 0 55.5 -23t22.5 -56t-23 -56t-56 -23q-32 0 -55.5 23.5t-23.5 55.5q0 34 23 56.5t57 22.5z" />
    <glyph glyph-name="zdotaccent" unicode="&#x17c;" horiz-adv-x="424" 
d="M48 475h348v-93l-228 -280h232v-102h-377v95l225 278h-200v102zM223 684q28 0 47.5 -20t19.5 -48t-20 -48t-48 -20q-27 0 -47.5 20.5t-20.5 47.5q0 28 20 48t49 20z" />
    <glyph glyph-name="Zcaron" unicode="&#x17d;" horiz-adv-x="501" 
d="M53 667h429v-90l-307 -468h297v-109h-449v100l305 460h-275v107zM456 868l-137 -141h-99l-138 141h117l70 -78l70 78h117z" />
    <glyph glyph-name="zcaron" unicode="&#x17e;" horiz-adv-x="424" 
d="M48 475h348v-93l-228 -280h232v-102h-377v95l225 278h-200v102zM394 693l-121 -152h-99l-121 152h111l59 -86l59 86h112z" />
    <glyph glyph-name="florin" unicode="&#x192;" horiz-adv-x="570" 
d="M399 475h112v-87h-127l-42 -237q-18 -103 -26.5 -136.5t-23.5 -62.5q-44 -84 -133 -84q-69 0 -143 46l17 95q69 -39 113 -39q22 0 34 13t20 45q12 45 24 118l43 242h-97v87h112l8 48q19 102 47 143q41 55 117 55q57 0 115 -35l-16 -92q-59 26 -84 26q-26 0 -39 -23
t-26 -93z" />
    <glyph glyph-name="Ohorn" unicode="&#x1a0;" horiz-adv-x="673" 
d="M576 560l1 3l2 4q12 27 13 55q-63 8 -63 59q0 27 19.5 45.5t47.5 18.5q32 0 51.5 -24t19.5 -63q0 -66 -64 -145q35 -76 35 -183q0 -154 -83 -248.5t-218 -94.5q-122 0 -205 80q-96 93 -96 267q0 173 96 266q83 80 205 80q73 0 135.5 -31.5t103.5 -88.5zM337 570
q-78 0 -118 -56q-50 -69 -50 -177q0 -113 44.5 -176.5t123.5 -63.5q78 0 118 56q50 69 50 181q0 113 -50 180q-40 56 -118 56z" />
    <glyph glyph-name="ohorn" unicode="&#x1a1;" horiz-adv-x="536" 
d="M456 394q15 33 16 63q-65 9 -65 60q0 28 20 47.5t49 19.5q33 0 53 -24.5t20 -65.5q0 -71 -67 -150q20 -49 20 -107q0 -109 -66 -179.5t-169 -70.5q-102 0 -168 70.5t-66 179.5q0 110 66 180.5t169 70.5q119 0 188 -94zM267 389q-49 0 -78.5 -41t-29.5 -109
q0 -71 29.5 -112t79.5 -41q49 0 78.5 41.5t29.5 109.5q0 69 -30 110.5t-79 41.5z" />
    <glyph glyph-name="Uhorn" unicode="&#x1af;" horiz-adv-x="675" 
d="M73 667h128v-383q0 -84 12 -115q28 -71 124 -71q109 0 130 92q6 25 6 94v383h128v-385q0 -72 -5 -106t-21 -65q-29 -59 -91.5 -91.5t-146.5 -32.5t-146.5 32.5t-91.5 91.5q-16 31 -21 65t-5 106v385zM724 500h-55q47 57 47 112q-63 7 -63 59q0 28 19 46t48 18
q32 0 51.5 -24t19.5 -63q0 -66 -67 -148z" />
    <glyph glyph-name="uhorn" unicode="&#x1b0;" horiz-adv-x="555" 
d="M65 475h123v-270q0 -59 18 -81q23 -26 63 -26q57 0 81 46q13 26 13 77v254h123v-328q0 -79 1.5 -97.5t10.5 -49.5h-116q-8 18 -10 55q-51 -65 -133 -65q-49 0 -88.5 20.5t-60.5 55.5q-25 41 -25 132v277zM579 315h-56q47 57 49 115q-66 9 -66 61q0 28 20.5 47.5
t49.5 19.5q32 0 52 -25t20 -65q0 -69 -69 -153z" />
    <glyph glyph-name="uni01CD" unicode="&#x1cd;" horiz-adv-x="602" 
d="M235 667h130l227 -667h-133l-41 139h-235l-42 -139h-131zM386 248l-86 272l-85 -272h171zM488 868l-137 -141h-99l-138 141h116l71 -78l69 78h118z" />
    <glyph glyph-name="uni01CE" unicode="&#x1ce;" horiz-adv-x="512" 
d="M174 333h-117q10 75 56 110q56 42 151 42q128 0 163 -71q19 -38 19 -117v-191q0 -73 16 -106h-112q-6 23 -6 54q-39 -64 -131 -64q-81 0 -127 36t-46 99q0 101 108 142q31 12 55 17.5t124 23.5v8q0 38 -17 55t-55 17q-71 0 -81 -55zM327 199v27q-105 -13 -133 -33
t-28 -52q0 -25 20.5 -41t51.5 -16q61 0 80 46q9 18 9 69zM430 693l-121 -152h-99l-121 152h111l59 -86l59 86h112z" />
    <glyph glyph-name="uni01D3" unicode="&#x1d3;" horiz-adv-x="675" 
d="M73 667h128v-383q0 -84 12 -115q28 -71 124 -71q109 0 130 92q6 25 6 94v383h128v-385q0 -72 -5 -106t-21 -65q-29 -59 -91.5 -91.5t-146.5 -32.5t-146.5 32.5t-91.5 91.5q-16 31 -21 65t-5 106v385zM524 868l-137 -141h-99l-138 141h116l71 -78l70 78h117z" />
    <glyph glyph-name="uni01D4" unicode="&#x1d4;" horiz-adv-x="555" 
d="M65 475h123v-270q0 -59 18 -81q23 -26 63 -26q57 0 81 46q13 26 13 77v254h123v-328q0 -79 1.5 -97.5t10.5 -49.5h-116q-8 18 -10 55q-51 -65 -133 -65q-49 0 -88.5 20.5t-60.5 55.5q-25 41 -25 132v277zM446 693l-121 -152h-99l-121 152h111l59 -86l59 86h112z" />
    <glyph glyph-name="Gcaron" unicode="&#x1e6;" horiz-adv-x="641" 
d="M349 344h239v-277q-114 -80 -243 -80q-142 0 -225.5 93.5t-83.5 253.5q0 155 82 250.5t216 95.5q63 0 116 -23.5t85 -66.5q39 -53 43 -138h-110q-18 117 -131 117q-79 0 -123.5 -62.5t-44.5 -174.5q0 -111 45.5 -172.5t128.5 -61.5q77 0 139 44v107h-133v95zM525 868
l-137 -141h-99l-138 141h116l71 -78l69 78h118z" />
    <glyph glyph-name="gcaron" unicode="&#x1e7;" horiz-adv-x="530" 
d="M512 475v-88h-97q25 -36 25 -85q0 -86 -75 -119q-24 -10 -42 -13t-97 -11q-46 -3 -46 -28q0 -14 14.5 -18t89.5 -12q111 -11 150 -32q59 -33 59 -111q0 -76 -62 -117.5t-174 -41.5q-110 0 -173.5 37.5t-63.5 102.5q0 78 96 111q-53 20 -53 57q0 24 19 41t65 35
q-81 41 -81 135q0 76 54 121.5t144 45.5q38 0 91 -13zM256 392q-38 0 -61 -19.5t-23 -53.5q0 -32 22 -51t60 -19q37 0 60 19t23 51t-23 52.5t-58 20.5zM242 9q-54 0 -85.5 -16t-31.5 -44q0 -29 35.5 -45t97.5 -16q117 0 117 59q0 29 -35.5 45.5t-97.5 16.5zM440 693
l-121 -152h-99l-121 152h111l59 -86l59 86h112z" />
    <glyph glyph-name="uni01F4" unicode="&#x1f4;" horiz-adv-x="641" 
d="M349 344h239v-277q-114 -80 -243 -80q-142 0 -225.5 93.5t-83.5 253.5q0 155 82 250.5t216 95.5q63 0 116 -23.5t85 -66.5q39 -53 43 -138h-110q-18 117 -131 117q-79 0 -123.5 -62.5t-44.5 -174.5q0 -111 45.5 -172.5t128.5 -61.5q77 0 139 44v107h-133v95zM226 716
l166 163h152l-203 -163h-115z" />
    <glyph glyph-name="Scommaaccent" unicode="&#x218;" horiz-adv-x="565" 
d="M511 471h-123q-4 47 -32.5 72.5t-76.5 25.5q-42 0 -69.5 -20.5t-27.5 -51.5t34 -51q19 -10 109 -46t115.5 -50t46.5 -37q43 -46 43 -120q0 -95 -64.5 -150.5t-173.5 -55.5q-122 0 -189 61t-71 179h124q12 -129 137 -129q48 0 77 19.5t29 51.5q0 40 -46 64q-17 10 -115 50
q-105 45 -140 82q-44 50 -44 119q0 86 63.5 141t163.5 55q64 0 115.5 -24.5t81.5 -68.5q29 -44 33 -116zM283 -289h-55q47 57 47 112q-63 7 -63 59q0 27 19.5 45.5t47.5 18.5q32 0 51.5 -23.5t19.5 -63.5q0 -66 -67 -148z" />
    <glyph glyph-name="scommaaccent" unicode="&#x219;" horiz-adv-x="485" 
d="M439 331h-119q-9 66 -77 66q-28 0 -46.5 -14t-18.5 -36q0 -23 17 -33t98 -34q96 -28 123 -60q26 -34 26 -80q0 -73 -50.5 -113t-142.5 -40q-211 0 -211 172h116q3 -42 24 -60.5t66 -18.5q75 0 75 51q0 13 -7 21.5t-26 16.5q-14 6 -100 32q-73 22 -101.5 51t-28.5 82
q0 70 52 112.5t138 42.5t137 -42t56 -116zM245 -296h-56q47 57 49 115q-66 9 -66 61q0 28 20.5 47.5t49.5 19.5q32 0 52.5 -25t20.5 -65q0 -69 -70 -153z" />
    <glyph glyph-name="afii57929" unicode="&#x2bc;" horiz-adv-x="207" 
d="M100 437h-56q48 60 48 115q-65 9 -65 61q0 28 20 47.5t49 19.5q33 0 53 -24.5t20 -65.5q0 -69 -69 -153z" />
    <glyph glyph-name="circumflex" unicode="&#x2c6;" 
d="M80 541l121 152h99l121 -152h-111l-59 86l-59 -86h-112z" />
    <glyph glyph-name="caron" unicode="&#x2c7;" 
d="M421 693l-121 -152h-99l-121 152h111l59 -86l59 86h112z" />
    <glyph glyph-name="uni02C9" unicode="&#x2c9;" 
d="M106 652h289v-73h-289v73z" />
    <glyph glyph-name="breve" unicode="&#x2d8;" 
d="M115 683h51q18 -37 38.5 -53t48.5 -16q26 0 44 15.5t38 53.5h50q-8 -69 -42 -106.5t-89 -37.5q-58 0 -94.5 38t-44.5 106z" />
    <glyph glyph-name="dotaccent" unicode="&#x2d9;" 
d="M251 684q27 0 47 -20t20 -48q0 -27 -20 -47.5t-48 -20.5t-48 20t-20 48q0 29 20 48.5t49 19.5z" />
    <glyph glyph-name="ring" unicode="&#x2da;" 
d="M251 722q40 0 69 -29t29 -70t-29 -70.5t-70 -29.5q-40 0 -69.5 29.5t-29.5 69.5q0 42 29.5 71t70.5 29zM251 671q-21 0 -35 -14t-14 -35q0 -20 14 -34t34 -14q21 0 34.5 14t13.5 35q0 20 -13.5 34t-33.5 14z" />
    <glyph glyph-name="ogonek" unicode="&#x2db;" 
d="M314 0h94q-54 -36 -76.5 -60t-22.5 -45q0 -18 13 -29t34 -11q20 0 47 11v-52q-29 -16 -66 -16q-49 0 -79 26t-30 70q0 64 86 106z" />
    <glyph glyph-name="tilde" unicode="&#x2dc;" 
d="M147 553l-52 14q28 106 89 106q23 0 67 -15q43 -16 60 -16q25 0 48 40l46 -13q-11 -52 -35 -81.5t-55 -29.5q-24 0 -67 16q-47 16 -61 16q-27 0 -40 -37z" />
    <glyph glyph-name="hungarumlaut" unicode="&#x2dd;" 
d="M126 536l105 163h135l-158 -163h-82zM298 536l105 163h135l-158 -163h-82z" />
    <glyph glyph-name="tonos" unicode="&#x384;" horiz-adv-x="253" 
d="M164 535h-74l-23 172h120z" />
    <glyph glyph-name="dieresistonos" unicode="&#x385;" 
d="M108 684q27 0 47 -20t20 -48q0 -27 -20.5 -47.5t-47.5 -20.5q-28 0 -48 20t-20 48q0 29 20 48.5t49 19.5zM394 684q27 0 47 -20t20 -48q0 -27 -20.5 -47.5t-47.5 -20.5q-28 0 -48 20t-20 48q0 29 20 48.5t49 19.5zM287 535h-74l-23 172h120z" />
    <glyph glyph-name="Alphatonos" unicode="&#x386;" horiz-adv-x="612" 
d="M245 667h130l227 -667h-133l-41 139h-235l-42 -139h-131zM396 248l-86 272l-85 -272h171zM145 535h-74l-23 172h120z" />
    <glyph glyph-name="anoteleia" unicode="&#x387;" horiz-adv-x="251" 
d="M127 328q29 0 52 -23.5t23 -53.5q0 -32 -22 -54t-54 -22t-54.5 22t-22.5 53q0 32 23.5 55t54.5 23z" />
    <glyph glyph-name="Epsilontonos" unicode="&#x388;" horiz-adv-x="610" 
d="M281 400h265v-109h-265v-182h303v-109h-431v667h420v-109h-292v-158zM97 535h-74l-23 172h120z" />
    <glyph glyph-name="Etatonos" unicode="&#x389;" horiz-adv-x="755" 
d="M281 401h266v266h128v-667h-128v295h-266v-295h-128v667h128v-266zM97 535h-74l-23 172h120z" />
    <glyph glyph-name="Iotatonos" unicode="&#x38a;" horiz-adv-x="362" 
d="M282 0h-128v667h128v-667zM97 535h-74l-23 172h120z" />
    <glyph glyph-name="Omicrontonos" unicode="&#x38c;" horiz-adv-x="730" 
d="M393 680q122 0 205 -80q96 -93 96 -266q0 -174 -96 -267q-83 -80 -204 -80q-138 0 -220 95.5t-82 256.5q0 169 97 261q82 80 204 80zM393 570q-78 0 -118 -56q-50 -69 -50 -177q0 -113 44.5 -176.5t124.5 -63.5q78 0 122.5 63t44.5 174q0 110 -44.5 173t-123.5 63z
M97 535h-74l-23 172h120z" />
    <glyph glyph-name="Upsilontonos" unicode="&#x38e;" horiz-adv-x="679" 
d="M118 667h143l140 -266l138 266h141l-217 -404v-263h-128v263zM84 535h-74l-23 172h120z" />
    <glyph glyph-name="Omegatonos" unicode="&#x38f;" horiz-adv-x="750" 
d="M97 535h-74l-23 172h120zM560 126v-17h143v-109h-250v162l4 1l4 1q113 33 113 195q0 105 -46 160t-132 55t-132 -55t-46 -160q0 -163 117 -196l4 -1v-162h-251v109h144v17q-67 20 -105.5 84.5t-38.5 156.5q0 140 74 218q86 95 234 95q82 0 149 -32t107 -90
q51 -73 51 -191q0 -92 -38 -156.5t-105 -84.5z" />
    <glyph glyph-name="iotadieresistonos" unicode="&#x390;" horiz-adv-x="287" 
d="M82 475h123v-475h-123v475zM2 684q27 0 47 -20t20 -48q0 -27 -20.5 -47.5t-47.5 -20.5q-28 0 -48 20t-20 48q0 29 20 48.5t49 19.5zM288 684q27 0 47 -20t20 -48q0 -27 -20.5 -47.5t-47.5 -20.5q-28 0 -48 20t-20 48q0 29 20 48.5t49 19.5zM181 535h-74l-23 172h120z" />
    <glyph glyph-name="Alpha" unicode="&#x391;" horiz-adv-x="602" 
d="M235 667h130l227 -667h-133l-41 139h-235l-42 -139h-131zM386 248l-86 272l-85 -272h171z" />
    <glyph glyph-name="Beta" unicode="&#x392;" horiz-adv-x="588" 
d="M80 667h179q109 0 156 -17q48 -16 76 -56.5t28 -94.5q0 -55 -26.5 -89t-83.5 -52q146 -33 146 -166q0 -61 -34 -109t-90 -66q-34 -11 -70 -14t-123 -3h-158v667zM206 398h55q63 0 91 11q19 8 30.5 27.5t11.5 44.5q0 24 -11 43.5t-30 26.5q-27 12 -99 12h-48v-165z
M206 104h58q87 0 116 13q44 20 44 83q0 64 -50 85q-32 12 -107 12h-61v-193z" />
    <glyph glyph-name="Gamma" unicode="&#x393;" horiz-adv-x="515" 
d="M80 0v667h420v-109h-289v-558h-131z" />
    <glyph glyph-name="uni0394" unicode="&#x394;" horiz-adv-x="602" 
d="M10 0l225 667h130l227 -667h-582zM426 109l-126 411l-125 -411h251z" />
    <glyph glyph-name="Epsilon" unicode="&#x395;" horiz-adv-x="537" 
d="M208 400h265v-109h-265v-182h302v-109h-430v667h419v-109h-291v-158z" />
    <glyph glyph-name="Zeta" unicode="&#x396;" horiz-adv-x="501" 
d="M53 667h429v-90l-307 -468h297v-109h-449v100l305 460h-275v107z" />
    <glyph glyph-name="Eta" unicode="&#x397;" horiz-adv-x="681" 
d="M208 401h265v266h128v-667h-128v295h-265v-295h-128v667h128v-266z" />
    <glyph glyph-name="Theta" unicode="&#x398;" horiz-adv-x="673" 
d="M337 680q122 0 204 -80q97 -94 97 -266q0 -175 -97 -267q-82 -80 -203 -80q-123 0 -206 80q-96 93 -96 272q0 168 96 261q83 80 205 80zM337 570q-78 0 -118 -56q-50 -69 -50 -177q0 -113 44.5 -176.5t123.5 -63.5q78 0 118 56q50 69 50 181q0 113 -50 180
q-40 56 -118 56zM227 386h220v-106h-220v106z" />
    <glyph glyph-name="Iota" unicode="&#x399;" horiz-adv-x="288" 
d="M208 0h-128v667h128v-667z" />
    <glyph glyph-name="Kappa" unicode="&#x39a;" horiz-adv-x="623" 
d="M454 667h148l-249 -309l265 -358h-163l-245 354zM80 667h128v-667h-128v667z" />
    <glyph glyph-name="Lambda" unicode="&#x39b;" horiz-adv-x="609" 
d="M602 0h-137l-160 521l-160 -521h-135l231 667h134z" />
    <glyph glyph-name="Mu" unicode="&#x39c;" horiz-adv-x="806" 
d="M80 667h179l144 -530l146 530h177v-667h-116v520l-142 -520h-132l-140 520v-520h-116v667z" />
    <glyph glyph-name="Nu" unicode="&#x39d;" horiz-adv-x="689" 
d="M80 667h137l270 -470v470h122v-667h-129l-278 470v-470h-122v667z" />
    <glyph glyph-name="Xi" unicode="&#x39e;" horiz-adv-x="536" 
d="M64 291v109h408v-109h-408zM27 0v109h483v-109h-483zM38 558v109h461v-109h-461z" />
    <glyph glyph-name="Omicron" unicode="&#x39f;" horiz-adv-x="673" 
d="M337 680q122 0 204 -80q97 -94 97 -266q0 -175 -97 -267q-82 -80 -203 -80q-123 0 -206 80q-96 93 -96 272q0 168 96 261q83 80 205 80zM337 570q-78 0 -118 -56q-50 -69 -50 -177q0 -113 44.5 -176.5t123.5 -63.5q78 0 118 56q50 69 50 181q0 113 -50 180
q-40 56 -118 56z" />
    <glyph glyph-name="Pi" unicode="&#x3a0;" horiz-adv-x="681" 
d="M208 561v-561h-128v667h521v-667h-128v561h-265z" />
    <glyph glyph-name="Rho" unicode="&#x3a1;" horiz-adv-x="565" 
d="M80 667h156q129 0 190 -20q57 -20 90 -71t33 -121q0 -71 -35 -123t-95 -69q-53 -14 -171 -14h-40v-249h-128v667zM208 358h41q87 0 116 11q53 19 53 87q0 63 -45 86q-33 16 -118 16h-47v-200z" />
    <glyph glyph-name="Sigma" unicode="&#x3a3;" horiz-adv-x="485" 
d="M238 335l-195 242v90h429v-107h-260l172 -227l-205 -224h283v-109h-449v100z" />
    <glyph glyph-name="Tau" unicode="&#x3a4;" horiz-adv-x="503" 
d="M12 667h480v-109h-176v-558h-128v558h-176v109z" />
    <glyph glyph-name="Upsilon" unicode="&#x3a5;" horiz-adv-x="562" 
d="M0 667h143l140 -266l138 266h141l-217 -404v-263h-128v263z" />
    <glyph glyph-name="Phi" unicode="&#x3a6;" horiz-adv-x="748" 
d="M313 495h-3q-67 -9 -99 -40q-51 -49 -51 -133q0 -73 39.5 -115.5t113.5 -48.5v337zM435 495v-337q66 5 102 36q51 45 51 127q0 66 -34 115q-16 22 -49 38.5t-70 20.5zM435 667v-68q130 -7 205 -80t75 -192t-75 -192t-205 -81v-54h-122v54q-130 8 -205 81t-75 192t75 192
t205 80v68h122z" />
    <glyph glyph-name="Chi" unicode="&#x3a7;" horiz-adv-x="584" 
d="M27 667h146l120 -207l123 207h146l-195 -320l207 -347h-146l-135 231l-137 -231h-146l208 347z" />
    <glyph glyph-name="Psi" unicode="&#x3a8;" horiz-adv-x="741" 
d="M432 667v-422q80 8 111 52q16 21 21 48t5 88v234h125v-236q0 -91 -11 -131q-43 -150 -251 -163v-137h-123v137q-154 10 -219 97q-26 35 -34.5 74.5t-8.5 122.5v236h125v-234q0 -61 5 -88t21 -48q31 -44 111 -52v422h123z" />
    <glyph glyph-name="uni03A9" unicode="&#x3a9;" horiz-adv-x="709" 
d="M519 126v-17h143v-109h-250v162l4 1l4 1q113 33 113 195q0 105 -46 160t-132 55t-132 -55t-46 -160q0 -163 117 -196l4 -1v-162h-251v109h144v17q-67 20 -105.5 84.5t-38.5 156.5q0 140 74 218q86 95 234 95q82 0 149 -32t107 -90q51 -73 51 -191q0 -92 -38 -156.5
t-105 -84.5z" />
    <glyph glyph-name="Iotadieresis" unicode="&#x3aa;" horiz-adv-x="288" 
d="M208 0h-128v667h128v-667zM57 866q29 0 49 -20.5t20 -49.5q0 -28 -21 -49t-49 -21t-49 21t-21 49q0 29 20.5 49.5t50.5 20.5zM234 866q28 0 48.5 -21t20.5 -49t-20.5 -49t-49.5 -21t-49.5 20.5t-20.5 49.5q0 30 20.5 50t50.5 20z" />
    <glyph glyph-name="Upsilondieresis" unicode="&#x3ab;" horiz-adv-x="562" 
d="M0 667h143l140 -266l138 266h141l-217 -404v-263h-128v263zM189 871q29 0 51 -22t22 -52t-21.5 -51.5t-52.5 -21.5t-52 21t-21 52t21.5 52.5t52.5 21.5zM375 871q30 0 51.5 -22t21.5 -52q0 -31 -21.5 -52t-52.5 -21t-52 21t-21 52t21.5 52.5t52.5 21.5z" />
    <glyph glyph-name="alphatonos" unicode="&#x3ac;" horiz-adv-x="564" 
d="M357 237q-24 82 -49.5 117t-61.5 35q-40 0 -63.5 -41t-23.5 -111q0 -68 24 -110t63 -42q47 0 79 67q13 25 32 85zM404 377l34 98h112l-80 -235l84 -240h-125l-27 101q-23 -45 -40 -65q-43 -49 -122 -49q-92 0 -149.5 69t-57.5 181q0 113 57.5 182t151.5 69q61 0 98 -25.5
t64 -85.5zM319 535h-75l-22 172h120z" />
    <glyph glyph-name="epsilontonos" unicode="&#x3ad;" horiz-adv-x="470" 
d="M272 535h-75l-22 172h120zM270 285v-96h-31q-42 0 -58 -8q-23 -15 -23 -42q0 -25 19.5 -39.5t52.5 -14.5q76 0 87 77l119 -8q-6 -65 -58 -115q-52 -52 -152 -52q-92 0 -142.5 37t-50.5 105q0 95 104 110q-96 15 -96 106q0 67 50.5 105t138.5 38q87 0 140.5 -43t61.5 -119
l-116 -12l-5 14q-11 36 -27 47q-22 15 -49 15q-31 0 -50 -15t-19 -40q0 -36 33 -46q13 -4 46 -4h25z" />
    <glyph glyph-name="etatonos" unicode="&#x3ae;" horiz-adv-x="548" 
d="M54 475h119q10 -21 10 -61q53 71 141 71q44 0 80.5 -18.5t55.5 -50.5q14 -24 18 -51t4 -91v-471h-123v444q0 68 -12 91q-19 39 -65 39q-26 0 -47.5 -14t-31.5 -37q-11 -23 -11 -83v-243h-123v305q0 86 -2 110t-13 60zM311 535h-74l-23 172h120z" />
    <glyph glyph-name="iotatonos" unicode="&#x3af;" horiz-adv-x="261" 
d="M69 475h123v-475h-123v475zM168 535h-75l-22 172h120z" />
    <glyph glyph-name="upsilondieresistonos" unicode="&#x3b0;" horiz-adv-x="551" 
d="M363 475h123v-293q0 -94 -55 -145t-155 -51t-155 51t-55 145v293h123v-292q0 -46 16 -66q25 -32 71 -32q55 0 77 42q10 19 10 56v292zM134 684q27 0 47 -20t20 -48q0 -27 -20.5 -47.5t-47.5 -20.5q-28 0 -48 20t-20 48q0 29 20 48.5t49 19.5zM420 684q27 0 47 -20t20 -48
q0 -27 -20.5 -47.5t-47.5 -20.5q-28 0 -48 20t-20 48q0 29 20 48.5t49 19.5zM313 535h-74l-23 172h120z" />
    <glyph glyph-name="alpha" unicode="&#x3b1;" horiz-adv-x="564" 
d="M357 237q-24 82 -49.5 117t-61.5 35q-40 0 -63.5 -41t-23.5 -111q0 -68 24 -110t63 -42q47 0 79 67q13 25 32 85zM404 377l34 98h112l-80 -235l84 -240h-125l-27 101q-23 -45 -40 -65q-43 -49 -122 -49q-92 0 -149.5 69t-57.5 181q0 113 57.5 182t151.5 69q61 0 98 -25.5
t64 -85.5z" />
    <glyph glyph-name="beta" unicode="&#x3b2;" horiz-adv-x="552" 
d="M69 -197v614q0 80 9 115q17 75 72.5 115.5t138.5 40.5q100 0 155 -49.5t55 -138.5q0 -106 -80 -145q45 -16 70.5 -56.5t25.5 -96.5q0 -91 -56 -151.5t-139 -60.5q-77 0 -128 61v-248h-123zM276 308v96h22q0 3 25 5q8 0 20 10.5t19 24.5q11 20 11 52q0 43 -23 68t-63 25
q-59 0 -81 -48q-14 -27 -14 -97v-192q0 -79 23 -115q29 -44 80 -44q44 0 69 29.5t25 80.5q0 68 -46 93q-20 12 -67 12z" />
    <glyph glyph-name="gamma" unicode="&#x3b3;" horiz-adv-x="488" 
d="M306 -197h-123v197l-176 475h131l106 -330l107 330h130l-175 -475v-197z" />
    <glyph glyph-name="delta" unicode="&#x3b4;" horiz-adv-x="536" 
d="M226 471l-129 107v93h348v-102h-191l133 -111q64 -53 89 -101.5t25 -118.5q0 -110 -65.5 -180.5t-168.5 -70.5q-104 0 -169 71t-65 183q0 159 119 213q38 17 74 17zM267 389q-49 0 -78.5 -41t-29.5 -109q0 -71 29 -112t79 -41q49 0 78.5 41t29.5 110q0 70 -29 111t-79 41
z" />
    <glyph glyph-name="epsilon" unicode="&#x3b5;" horiz-adv-x="470" 
d="M270 285v-96h-31q-42 0 -58 -8q-23 -15 -23 -42q0 -25 19.5 -39.5t52.5 -14.5q76 0 87 77l119 -8q-12 -72 -58 -115q-52 -52 -152 -52q-92 0 -142.5 37t-50.5 105q0 95 104 110q-96 15 -96 106q0 67 50.5 105t138.5 38q87 0 140.5 -43t61.5 -119l-116 -12l-5 14
q-11 36 -27 47q-22 15 -49 15q-31 0 -50 -15t-19 -40q0 -36 33 -46q13 -4 46 -4h25z" />
    <glyph glyph-name="zeta" unicode="&#x3b6;" horiz-adv-x="415" 
d="M267 569h-201v102h348v-93q-142 -101 -198.5 -177.5t-56.5 -165.5q0 -81 37 -121q15 -16 35 -25t63 -18q45 -9 60.5 -14t29.5 -16q29 -22 29 -68q0 -56 -60 -170h-119q56 109 56 145q0 16 -9 20.5t-58 15.5q-82 17 -125 62q-65 68 -65 183q0 94 53 171t181 169z" />
    <glyph glyph-name="eta" unicode="&#x3b7;" horiz-adv-x="548" 
d="M54 475h119q10 -21 10 -61q53 71 141 71q44 0 80.5 -18.5t55.5 -50.5q14 -24 18 -51t4 -91v-471h-123v444q0 68 -12 91q-19 39 -65 39q-26 0 -47.5 -14t-31.5 -37q-11 -23 -11 -83v-243h-123v305q0 86 -2 110t-13 60z" />
    <glyph glyph-name="theta" unicode="&#x3b8;" horiz-adv-x="536" 
d="M160 383h215q-6 93 -35 149.5t-72 56.5t-72.5 -56t-35.5 -150zM374 287h-214q6 -91 35.5 -146t71.5 -55q43 0 72.5 55t34.5 146zM267 687q103 0 169 -98.5t66 -251.5q0 -152 -66.5 -251.5t-167.5 -99.5q-43 0 -84.5 21.5t-71.5 59.5q-79 100 -79 275q0 149 66.5 247
t167.5 98z" />
    <glyph glyph-name="iota" unicode="&#x3b9;" horiz-adv-x="261" 
d="M69 475h123v-475h-123v475z" />
    <glyph glyph-name="kappa" unicode="&#x3ba;" horiz-adv-x="536" 
d="M368 475h148l-178 -220l194 -255h-165l-173 253zM69 475h123v-475h-123v475z" />
    <glyph glyph-name="lambda" unicode="&#x3bb;" horiz-adv-x="488" 
d="M244 319l-106 -319h-131l180 484l-64 188h123l235 -672h-130z" />
    <glyph glyph-name="uni03BC" unicode="&#x3bc;" horiz-adv-x="555" 
d="M188 -4v-193h-123v672h123v-270q0 -59 18 -81q23 -26 63 -26q57 0 81 46q13 26 13 77v254h123v-328q0 -79 1.5 -97.5t10.5 -49.5h-116q-8 18 -10 55q-28 -35 -59 -50t-75 -15q-24 0 -50 6z" />
    <glyph glyph-name="nu" unicode="&#x3bd;" horiz-adv-x="501" 
d="M11 475h130l110 -341l110 341h128l-172 -478h-137z" />
    <glyph glyph-name="xi" unicode="&#x3be;" horiz-adv-x="418" 
d="M395 667v-93q-94 0 -127 -11q-63 -20 -63 -71q0 -27 33.5 -45.5t82.5 -18.5q8 0 15 1v-102h-26q-74 0 -105 -23q-43 -29 -43 -97q0 -63 29 -93.5t103 -45.5q46 -9 61.5 -14t29.5 -16q29 -22 29 -68q0 -60 -58 -165h-119q54 102 54 140q0 16 -9 20.5t-59 15.5
q-45 10 -72.5 23.5t-51.5 38.5q-61 64 -61 159q0 76 40 128q32 39 100 61q-86 27 -86 90q0 53 48 84h-93v102h348z" />
    <glyph glyph-name="omicron" unicode="&#x3bf;" horiz-adv-x="536" 
d="M268 488q102 0 168 -70.5t66 -180.5q0 -109 -66 -179.5t-168 -70.5q-104 0 -169.5 70.5t-65.5 183.5q0 107 66.5 177t168.5 70zM267 389q-49 0 -78.5 -41t-29.5 -109q0 -71 29.5 -112t79.5 -41q49 0 78.5 41.5t29.5 109.5q0 69 -30 110.5t-79 41.5z" />
    <glyph glyph-name="pi" unicode="&#x3c0;" horiz-adv-x="527" 
d="M197 379v-379h-123v379h-67v96h324h123h67v-96h-67v-379h-123v379h-134z" />
    <glyph glyph-name="rho" unicode="&#x3c1;" horiz-adv-x="530" 
d="M50 -197v395q0 92 5.5 124.5t27.5 67.5q62 99 199 99q92 0 143 -52q71 -71 71 -195q0 -110 -55.5 -181t-141.5 -71q-74 0 -126 61v-248h-123zM273 391q-47 0 -74.5 -41t-27.5 -111q0 -67 27 -106.5t74 -39.5q46 0 72.5 40t26.5 111q0 68 -26.5 107.5t-71.5 39.5z" />
    <glyph glyph-name="uni03C2" unicode="&#x3c2;" horiz-adv-x="480" 
d="M460 318h-121q-10 71 -77 71q-48 0 -75.5 -40.5t-27.5 -111.5q0 -82 37 -123q26 -28 98 -42q71 -15 91 -30q28 -22 28 -68q0 -57 -60 -171h-119q56 106 56 145q0 16 -9.5 21t-57.5 15q-81 17 -125 63q-65 70 -65 186q0 117 62.5 186t168.5 69q104 0 159 -71
q29 -37 37 -99z" />
    <glyph glyph-name="sigma" unicode="&#x3c3;" horiz-adv-x="543" 
d="M537 475v-96q-57 0 -82 4q47 -57 47 -144q0 -111 -65.5 -181.5t-168.5 -70.5t-169 70.5t-66 179.5q0 112 67 181.5t175 69.5q31 0 86 -8q35 -5 176 -5zM268 389q-49 0 -79 -41.5t-30 -108.5q0 -70 29.5 -111.5t79.5 -41.5q49 0 78.5 41t29.5 110q0 70 -29 111t-79 41z
" />
    <glyph glyph-name="tau" unicode="&#x3c4;" horiz-adv-x="411" 
d="M267 379v-379h-123v379h-137v96h398v-96h-138z" />
    <glyph glyph-name="upsilon" unicode="&#x3c5;" horiz-adv-x="551" 
d="M362 475h123v-293q0 -94 -55 -145t-155 -51t-155 51t-55 145v293h123v-292q0 -46 16 -66q25 -32 71 -32q55 0 77 42q10 19 10 56v292z" />
    <glyph glyph-name="phi" unicode="&#x3c6;" horiz-adv-x="680" 
d="M400 -14v-183h-120v183q-109 2 -178 72t-69 179t68.5 179.5t178.5 72.5v182h120v-182q110 -2 178.5 -72.5t68.5 -179.5t-69 -179t-178 -72zM400 390v-305q54 1 87.5 43t33.5 109q0 68 -33.5 110t-87.5 43zM280 85v305q-54 -1 -87.5 -43t-33.5 -110q0 -67 33.5 -109
t87.5 -43z" />
    <glyph glyph-name="chi" unicode="&#x3c7;" horiz-adv-x="447" 
d="M224 285l77 190h137l-148 -320l170 -352h-139l-98 228l-97 -228h-139l171 352l-147 320h137z" />
    <glyph glyph-name="psi" unicode="&#x3c8;" horiz-adv-x="680" 
d="M400 -197h-120v183h-9q-101 0 -156 51t-55 145v293h120v-292q0 -46 17 -66q24 -32 73 -32q3 0 7 1h3v389h120v-389h3l7 -1q56 0 80 42q10 22 10 56v292h120v-293q0 -94 -55 -145t-156 -51h-9v-183z" />
    <glyph glyph-name="omega" unicode="&#x3c9;" horiz-adv-x="643" 
d="M154 478l54 -95q-28 -26 -38.5 -57.5t-10.5 -91.5q0 -148 53 -148q50 0 50 93v104h119v-104q0 -93 50 -93q24 0 33 23q20 40 20 120q0 76 -16 113q-5 16 -31 43l51 92q40 -23 58.5 -41.5t34.5 -54.5q29 -66 29 -152q0 -110 -47 -176t-126 -66q-46 0 -72 18.5t-43 62.5
l-2 -4l-1 -2q-28 -75 -113 -75q-79 0 -126 65.5t-47 175.5q0 140 69 211q18 18 52 39z" />
    <glyph glyph-name="iotadieresis" unicode="&#x3ca;" horiz-adv-x="261" 
d="M69 475h123v-475h-123v475zM49 681q27 0 45.5 -18.5t18.5 -46.5q0 -26 -19 -45.5t-46 -19.5q-26 0 -45.5 19.5t-19.5 45.5q0 28 19 46.5t47 18.5zM213 681q27 0 45.5 -18.5t18.5 -46.5q0 -27 -19 -46t-46 -19q-26 0 -45.5 19.5t-19.5 45.5q0 27 19 46t47 19z" />
    <glyph glyph-name="upsilondieresis" unicode="&#x3cb;" horiz-adv-x="551" 
d="M362 475h123v-293q0 -94 -55 -145t-155 -51t-155 51t-55 145v293h123v-292q0 -46 16 -66q25 -32 71 -32q55 0 77 42q10 19 10 56v292zM187 684q27 0 47.5 -20t20.5 -48q0 -27 -20.5 -47.5t-48.5 -20.5t-47.5 20t-19.5 48q0 29 19.5 48.5t48.5 19.5zM365 684
q28 0 47.5 -20t19.5 -48q0 -27 -20 -47.5t-48 -20.5t-48 20t-20 48q0 29 20 48.5t49 19.5z" />
    <glyph glyph-name="omicrontonos" unicode="&#x3cc;" horiz-adv-x="536" 
d="M268 488q102 0 168 -70.5t66 -180.5q0 -109 -66 -179.5t-168 -70.5q-104 0 -169.5 70.5t-65.5 183.5q0 107 66.5 177t168.5 70zM267 389q-49 0 -78.5 -41t-29.5 -109q0 -71 29.5 -112t79.5 -41q49 0 78.5 41.5t29.5 109.5q0 69 -30 110.5t-79 41.5zM305 535h-75l-23 172
h121z" />
    <glyph glyph-name="upsilontonos" unicode="&#x3cd;" horiz-adv-x="551" 
d="M362 475h123v-293q0 -94 -55 -145t-155 -51t-155 51t-55 145v293h123v-292q0 -46 16 -66q25 -32 71 -32q55 0 77 42q10 19 10 56v292zM312 535h-74l-23 172h120z" />
    <glyph glyph-name="omegatonos" unicode="&#x3ce;" horiz-adv-x="643" 
d="M359 535h-75l-23 172h121zM432 383l46 91q33 -13 50 -26.5t34 -39.5q48 -72 48 -182t-52 -178q-45 -61 -121 -61q-46 0 -72 18.5t-43 62.5l-2 -4l-1 -2q-28 -75 -113 -75q-79 0 -126 66t-47 177t47 180q21 31 75 67l51 -92q-28 -28 -37 -58q-10 -38 -10 -97
q0 -80 20 -121q9 -23 33 -23q50 0 50 93v104h119v-104q0 -93 50 -93q53 0 53 147q0 63 -11 94.5t-41 55.5z" />
    <glyph glyph-name="theta1" unicode="&#x3d1;" horiz-adv-x="583" 
d="M92 162h-82v96h202v-96q0 -77 62 -77q72 0 101 114q17 66 16 176q-75 0 -111.5 6.5t-69.5 26.5q-75 45 -75 136q0 65 42 104t113 39q181 0 221 -216h62v-96h-53v-2v-10q2 -45 -8 -124q-19 -121 -80.5 -187t-155.5 -66q-115 0 -162 72q-22 34 -22 104zM384 471
q-18 117 -83 117q-21 0 -33 -13t-12 -35q0 -48 60 -63q26 -6 68 -6z" />
    <glyph glyph-name="Upsilon1" unicode="&#x3d2;" horiz-adv-x="556" 
d="M342 0h-128v138q0 164 -56 276q-30 59 -69.5 101.5t-101.5 81.5l78 87q70 -33 126 -105t87 -168q31 96 87 168t126 105l78 -87q-61 -38 -101 -81t-70 -102q-56 -112 -56 -276v-138z" />
    <glyph glyph-name="phi1" unicode="&#x3d5;" horiz-adv-x="680" 
d="M158 457l60 -69q-59 -54 -59 -151q0 -67 33.5 -109t87.5 -43v403q50 2 56 2q137 0 206 -43q50 -32 77.5 -87.5t27.5 -122.5q0 -109 -69 -179t-178 -72v-183h-120v183q-110 2 -178.5 72.5t-68.5 179.5q0 72 32.5 129t92.5 90zM400 390v-305q54 1 87.5 43t33.5 109
q0 68 -33.5 110t-87.5 43z" />
    <glyph glyph-name="afii10023" unicode="&#x401;" horiz-adv-x="537" 
d="M208 400h265v-109h-265v-182h302v-109h-430v667h419v-109h-291v-158zM198 871q30 0 51 -21.5t21 -52.5t-21 -52t-52 -21t-52.5 21.5t-21.5 51.5q0 31 22 52.5t53 21.5zM384 871q29 0 51 -22t22 -52t-21.5 -51.5t-52.5 -21.5t-52 21t-21 52t21 52.5t53 21.5z" />
    <glyph glyph-name="afii10051" unicode="&#x402;" horiz-adv-x="623" 
d="M368 -183v106q7 -1 15 -1q62 0 86 23q8 7 15.5 24t5.5 25l-1 6v216q0 62 -13 87q-25 45 -93 45q-79 0 -117 -48v-300h-128v558h-126v109h480v-109h-226v-144q63 42 163 42q91 0 139.5 -46.5t48.5 -134.5v-30v-245q0 -10 -4.5 -42.5t-6.5 -37.5q-44 -104 -211 -104
q-15 0 -27 1z" />
    <glyph glyph-name="afii10052" unicode="&#x403;" horiz-adv-x="515" 
d="M80 0v667h420v-109h-289v-558h-131zM208 727l144 141h140l-175 -141h-109z" />
    <glyph glyph-name="afii10053" unicode="&#x404;" horiz-adv-x="597" 
d="M172 386h196v-106h-196q10 -87 51.5 -134.5t106.5 -47.5q59 0 88 34t40 116l118 -18q-4 -60 -16 -94.5t-40 -68.5q-66 -80 -184 -80q-137 0 -219 94t-82 251q0 183 107 279q78 69 188 69q95 0 163 -54q34 -28 50.5 -60t25.5 -91l-118 -15q-14 57 -43 83t-79 26
q-64 0 -105.5 -48.5t-51.5 -134.5z" />
    <glyph glyph-name="afii10054" unicode="&#x405;" horiz-adv-x="565" 
d="M511 471h-123q-4 47 -32.5 72.5t-76.5 25.5q-42 0 -69.5 -20.5t-27.5 -51.5t34 -51q19 -10 109 -46t115.5 -50t46.5 -37q43 -46 43 -120q0 -95 -64.5 -150.5t-173.5 -55.5q-122 0 -189 61t-71 179h124q12 -129 137 -129q48 0 77 19.5t29 51.5q0 40 -46 64q-17 10 -115 50
q-105 45 -140 82q-44 50 -44 119q0 86 63.5 141t163.5 55q64 0 115.5 -24.5t81.5 -68.5q29 -44 33 -116z" />
    <glyph glyph-name="afii10055" unicode="&#x406;" horiz-adv-x="288" 
d="M208 0h-128v667h128v-667z" />
    <glyph glyph-name="afii10056" unicode="&#x407;" horiz-adv-x="288" 
d="M208 0h-128v667h128v-667zM57 866q29 0 49 -20.5t20 -49.5q0 -28 -21 -49t-49 -21t-49 21t-21 49q0 29 20.5 49.5t50.5 20.5zM234 866q28 0 48.5 -21t20.5 -49t-20.5 -49t-49.5 -21t-49.5 20.5t-20.5 49.5q0 30 20.5 50t50.5 20z" />
    <glyph glyph-name="afii10057" unicode="&#x408;" horiz-adv-x="335" 
d="M130 667h128v-531q0 -92 -4.5 -127t-19.5 -63q-44 -80 -200 -80q-21 0 -38 1v107h15h7q34 -2 63 6.5t38 23.5q7 12 9 33.5t2 95.5v534z" />
    <glyph glyph-name="afii10058" unicode="&#x409;" horiz-adv-x="926" 
d="M569 667v-249h40q118 0 171 -14q60 -17 95 -68.5t35 -122.5t-32.5 -122t-90.5 -71q-61 -20 -190 -20h-156v561h-193l-23 -377q-3 -94 -54.5 -140t-155.5 -47v105h6q73 0 77 83l26 482h445zM569 309v-200h47q85 0 118 16q45 23 45 86q0 68 -53 87q-29 11 -116 11h-41z" />
    <glyph glyph-name="afii10059" unicode="&#x40a;" horiz-adv-x="958" 
d="M473 407v260h128v-260h40q118 0 171 -14q60 -16 95 -66.5t35 -119.5t-32.5 -118.5t-90.5 -69.5q-62 -19 -190 -19h-156v301h-265v-301h-128v667h128v-260h265zM601 301v-192h47q86 0 118 16q45 20 45 82q0 65 -53 84q-30 10 -116 10h-41z" />
    <glyph glyph-name="afii10060" unicode="&#x40b;" horiz-adv-x="711" 
d="M489 0v216q0 62 -13 87q-25 45 -93 45q-79 0 -117 -48v-300h-128v558h-126v109h480v-109h-226v-144q63 42 163 42q91 0 139.5 -46.5t48.5 -134.5v-30v-245h-128z" />
    <glyph glyph-name="afii10061" unicode="&#x40c;" horiz-adv-x="623" 
d="M454 667h148l-249 -309l265 -358h-163l-245 354zM80 667h128v-667h-128v667zM266 727l144 141h141l-176 -141h-109z" />
    <glyph glyph-name="afii10062" unicode="&#x40e;" horiz-adv-x="559" 
d="M143 869h47q20 -37 43.5 -53.5t56.5 -16.5t56 16t44 54h47q-8 -66 -47 -104t-100 -38q-60 0 -100 38.5t-47 103.5zM281 345l143 322h141l-314 -667h-128l93 203l-213 464h143z" />
    <glyph glyph-name="afii10145" unicode="&#x40f;" horiz-adv-x="681" 
d="M404 0v-100h-128v100h-196v667h128v-561h265v561h128v-667h-197z" />
    <glyph glyph-name="afii10017" unicode="&#x410;" horiz-adv-x="602" 
d="M235 667h130l227 -667h-133l-41 139h-235l-42 -139h-131zM386 248l-86 272l-85 -272h171z" />
    <glyph glyph-name="afii10018" unicode="&#x411;" horiz-adv-x="570" 
d="M208 558v-140h40q118 0 171 -14q60 -17 95 -68.5t35 -122.5t-32.5 -122t-90.5 -71q-61 -20 -190 -20h-156v667h397v-109h-269zM208 309v-200h47q86 0 119 16q44 23 44 86q0 68 -52 87q-31 11 -117 11h-41z" />
    <glyph glyph-name="afii10019" unicode="&#x412;" horiz-adv-x="588" 
d="M80 667h179q109 0 156 -17q48 -16 76 -56.5t28 -94.5q0 -55 -26.5 -89t-83.5 -52q146 -33 146 -166q0 -61 -34 -109t-90 -66q-34 -11 -70 -14t-123 -3h-158v667zM206 398h55q63 0 91 11q19 8 30.5 27.5t11.5 44.5q0 24 -11 43.5t-30 26.5q-27 12 -99 12h-48v-165z
M206 104h58q87 0 116 13q44 20 44 83q0 64 -50 85q-32 12 -107 12h-61v-193z" />
    <glyph glyph-name="afii10020" unicode="&#x413;" horiz-adv-x="515" 
d="M80 0v667h420v-109h-289v-558h-131z" />
    <glyph glyph-name="afii10021" unicode="&#x414;" horiz-adv-x="675" 
d="M589 106h78v-206h-128v100h-408v-100h-128v206h37q39 0 57 19t21 63l25 479h446v-561zM461 106v455h-194l-23 -374q-3 -56 -14 -81h231z" />
    <glyph glyph-name="afii10022" unicode="&#x415;" horiz-adv-x="537" 
d="M208 400h265v-109h-265v-182h302v-109h-430v667h419v-109h-291v-158z" />
    <glyph glyph-name="afii10024" unicode="&#x416;" horiz-adv-x="885" 
d="M380 667h125v-266h38l188 266h147l-229 -319l246 -348h-163l-192 295h-35v-295h-125v295h-35l-192 -295h-163l246 348l-229 319h147l188 -266h38v266z" />
    <glyph glyph-name="afii10025" unicode="&#x417;" horiz-adv-x="558" 
d="M145 456l-111 11q10 62 26.5 96.5t50.5 63.5q62 53 175 53q103 0 163 -42q35 -24 55 -64t20 -86q0 -61 -25 -102t-69 -53q94 -25 94 -145q0 -94 -68 -149q-65 -52 -173 -52q-136 0 -199 76q-27 33 -40 68t-22 99l119 17q6 -77 38 -113t95 -36q55 0 86 25.5t31 71.5
q0 85 -103 85h-57v106h57q49 0 76 23.5t27 64.5q0 45 -30 70t-85 25t-85.5 -26.5t-45.5 -86.5z" />
    <glyph glyph-name="afii10026" unicode="&#x418;" horiz-adv-x="689" 
d="M80 0v667h122v-417l285 351v66h122v-667h-122v417l-285 -351v-66h-122z" />
    <glyph glyph-name="afii10027" unicode="&#x419;" horiz-adv-x="689" 
d="M198 869h47q20 -37 43.5 -53.5t56.5 -16.5t56 16t44 54h47q-8 -66 -47 -104t-100 -38q-60 0 -100 38.5t-47 103.5zM80 0v667h122v-417l285 351v66h122v-667h-122v417l-285 -351v-66h-122z" />
    <glyph glyph-name="afii10028" unicode="&#x41a;" horiz-adv-x="623" 
d="M454 667h148l-249 -309l265 -358h-163l-245 354zM80 667h128v-667h-128v667z" />
    <glyph glyph-name="afii10029" unicode="&#x41b;" horiz-adv-x="649" 
d="M15 -3v106h7h4q68 0 72 82l26 482h446v-667h-128v561h-194l-23 -377q-3 -94 -54.5 -140t-155.5 -47z" />
    <glyph glyph-name="afii10030" unicode="&#x41c;" horiz-adv-x="806" 
d="M80 667h179l144 -530l146 530h177v-667h-116v520l-142 -520h-132l-140 520v-520h-116v667z" />
    <glyph glyph-name="afii10031" unicode="&#x41d;" horiz-adv-x="681" 
d="M208 401h265v266h128v-667h-128v295h-265v-295h-128v667h128v-266z" />
    <glyph glyph-name="afii10032" unicode="&#x41e;" horiz-adv-x="673" 
d="M337 680q122 0 204 -80q97 -94 97 -266q0 -175 -97 -267q-82 -80 -203 -80q-123 0 -206 80q-96 93 -96 272q0 168 96 261q83 80 205 80zM337 570q-78 0 -118 -56q-50 -69 -50 -177q0 -113 44.5 -176.5t123.5 -63.5q78 0 118 56q50 69 50 181q0 113 -50 180
q-40 56 -118 56z" />
    <glyph glyph-name="afii10033" unicode="&#x41f;" horiz-adv-x="681" 
d="M208 561v-561h-128v667h521v-667h-128v561h-265z" />
    <glyph glyph-name="afii10034" unicode="&#x420;" horiz-adv-x="565" 
d="M80 667h156q129 0 190 -20q57 -20 90 -71t33 -121q0 -71 -35 -123t-95 -69q-53 -14 -171 -14h-40v-249h-128v667zM208 358h41q87 0 116 11q53 19 53 87q0 63 -45 86q-33 16 -118 16h-47v-200z" />
    <glyph glyph-name="afii10035" unicode="&#x421;" horiz-adv-x="599" 
d="M565 450h-111q-20 119 -124 119q-74 0 -117.5 -64t-43.5 -173q0 -108 44 -171.5t118 -63.5q116 0 128 150h114q-12 -260 -237 -260q-120 0 -202 76q-98 93 -98 268q0 185 106 280q78 69 188 69q106 0 167 -60t68 -170z" />
    <glyph glyph-name="afii10036" unicode="&#x422;" horiz-adv-x="503" 
d="M12 667h480v-109h-176v-558h-128v558h-176v109z" />
    <glyph glyph-name="afii10037" unicode="&#x423;" horiz-adv-x="559" 
d="M281 345l143 322h141l-314 -667h-128l93 203l-213 464h143z" />
    <glyph glyph-name="afii10038" unicode="&#x424;" horiz-adv-x="748" 
d="M435 54v-54h-122v54q-130 8 -205 83t-75 197q0 121 75 196t205 83v54h122v-54q130 -8 205 -83t75 -196q0 -122 -75 -197t-205 -83zM313 158v351q-72 -5 -112.5 -52t-40.5 -124t40.5 -123.5t112.5 -51.5zM435 509v-351q74 7 113.5 52.5t39.5 122.5q0 78 -39.5 123.5
t-113.5 52.5z" />
    <glyph glyph-name="afii10039" unicode="&#x425;" horiz-adv-x="584" 
d="M27 667h146l120 -207l123 207h146l-195 -320l207 -347h-146l-135 231l-137 -231h-146l208 347z" />
    <glyph glyph-name="afii10040" unicode="&#x426;" horiz-adv-x="687" 
d="M601 106h78v-206h-128v100h-471v667h128v-561h265v561h128v-561z" />
    <glyph glyph-name="afii10041" unicode="&#x427;" horiz-adv-x="619" 
d="M412 0v253q-63 -42 -163 -42q-117 0 -163 74q-15 25 -20 52t-5 85v245h128v-216q0 -62 13 -87q24 -45 93 -45q80 0 117 48v300h128v-667h-128z" />
    <glyph glyph-name="afii10042" unicode="&#x428;" horiz-adv-x="927" 
d="M527 106h192v561h128v-667h-767v667h128v-561h191v561h128v-561z" />
    <glyph glyph-name="afii10043" unicode="&#x429;" horiz-adv-x="933" 
d="M797 0h-717v667h128v-561h191v561h128v-561h192v561h128v-561h78v-206h-128v100z" />
    <glyph glyph-name="afii10044" unicode="&#x42a;" horiz-adv-x="677" 
d="M3 667h317v-249h40q118 0 171 -14q60 -17 95 -68.5t35 -122.5t-32.5 -122t-90.5 -71q-61 -20 -190 -20h-156v558h-189v109zM320 309v-200h47q85 0 118 16q45 23 45 86q0 68 -53 87q-29 11 -116 11h-41z" />
    <glyph glyph-name="afii10045" unicode="&#x42b;" horiz-adv-x="831" 
d="M80 0v667h128v-249h40q118 0 171 -14q60 -17 95 -68.5t35 -122.5t-32.5 -122t-90.5 -71q-61 -20 -190 -20h-156zM208 309v-200h47q85 0 118 16q45 23 45 86q0 68 -53 87q-29 11 -116 11h-41zM751 0h-128v667h128v-667z" />
    <glyph glyph-name="afii10046" unicode="&#x42c;" horiz-adv-x="565" 
d="M80 0v667h128v-249h40q118 0 171 -14q60 -17 95 -68.5t35 -122.5t-32.5 -122t-90.5 -71q-61 -20 -190 -20h-156zM208 309v-200h47q85 0 118 16q45 23 45 86q0 68 -53 87q-29 11 -116 11h-41z" />
    <glyph glyph-name="afii10047" unicode="&#x42d;" horiz-adv-x="597" 
d="M238 386h196q-10 86 -51.5 134.5t-105.5 48.5q-50 0 -79 -26t-43 -83l-118 15q11 59 27.5 91.5t48.5 59.5q65 54 163 54q111 0 188 -69q107 -96 107 -279q0 -157 -82 -251t-219 -94q-119 0 -184 80q-27 31 -38.5 65.5t-17.5 97.5l118 18q13 -150 127 -150q66 0 107 47.5
t52 134.5h-196v106z" />
    <glyph glyph-name="afii10048" unicode="&#x42e;" horiz-adv-x="958" 
d="M208 401h117q15 105 64 167q40 54 101 83t132 29q136 0 218.5 -95t82.5 -251q0 -157 -82.5 -252t-218.5 -95q-83 0 -151 39t-105 108q-36 65 -44 161h-114v-295h-128v667h128v-266zM622 571q-77 0 -122.5 -63.5t-45.5 -170.5q0 -113 44.5 -176.5t123.5 -63.5q78 0 118 56
q50 69 50 181t-50 181q-42 56 -118 56z" />
    <glyph glyph-name="afii10049" unicode="&#x42f;" horiz-adv-x="599" 
d="M519 667v-667h-128v255h-92l-136 -255h-149l153 277q-118 54 -118 185q0 58 25 103.5t70 69.5q35 19 78 25.5t131 6.5h166zM391 364v194h-37q-66 0 -89.5 -3t-42.5 -14q-42 -25 -42 -78q0 -66 56 -88q29 -11 109 -11h46z" />
    <glyph glyph-name="afii10065" unicode="&#x430;" horiz-adv-x="512" 
d="M174 333h-117q10 75 56 110q56 42 151 42q128 0 163 -71q19 -38 19 -117v-191q0 -73 16 -106h-112q-6 23 -6 54q-39 -64 -131 -64q-81 0 -127 36t-46 99q0 101 108 142q31 12 55 17.5t124 23.5v8q0 38 -17 55t-55 17q-71 0 -81 -55zM327 199v27q-105 -13 -133 -33
t-28 -52q0 -25 20.5 -41t51.5 -16q61 0 80 46q9 18 9 69z" />
    <glyph glyph-name="afii10066" unicode="&#x431;" horiz-adv-x="537" 
d="M476 707v-99q-21 -18 -40 -24.5t-52 -6.5q-19 0 -40 4q-40 8 -61 8q-48 0 -76 -35t-43 -114q47 48 125 48q98 0 156.5 -68t58.5 -180t-65.5 -182.5t-168.5 -70.5q-61 0 -112.5 27.5t-83.5 77.5q-39 63 -39 175q0 235 78 340q60 81 161 81q20 0 83 -9q14 -3 35 -3
q44 0 84 31zM270 389q-49 0 -79 -41.5t-30 -108.5q0 -70 29.5 -111.5t79.5 -41.5q49 0 78.5 41t29.5 110q0 70 -29 111t-79 41z" />
    <glyph glyph-name="afii10067" unicode="&#x432;" horiz-adv-x="487" 
d="M69 0v475h222q67 0 103 -26q47 -33 47 -96q0 -38 -16 -63t-53 -43q82 -30 82 -107q0 -62 -44 -103q-23 -21 -51.5 -29t-82.5 -8h-207zM192 197v-105h63q77 0 77 53q0 52 -73 52h-67zM192 383v-96h56q70 0 70 49q0 31 -25 41q-13 6 -43 6h-58z" />
    <glyph glyph-name="afii10068" unicode="&#x433;" horiz-adv-x="384" 
d="M192 379v-379h-123v475h309v-96h-186z" />
    <glyph glyph-name="afii10069" unicode="&#x434;" horiz-adv-x="538" 
d="M99 475h370v-379h58v-196h-123v100h-274v-100h-123v196q39 -1 57.5 20.5t19.5 67.5zM180 96h166v283h-132l-15 -204q-3 -51 -19 -79z" />
    <glyph glyph-name="afii10070" unicode="&#x435;" horiz-adv-x="515" 
d="M481 208h-325q3 -59 32.5 -90.5t82.5 -31.5q68 0 92 53l109 -5q-16 -68 -70.5 -107.5t-133.5 -39.5q-109 0 -172 66t-63 179q0 116 63.5 186t167.5 70q101 0 159 -68.5t58 -187.5v-24zM159 298h198q-15 95 -94 95q-80 0 -104 -95z" />
    <glyph glyph-name="afii10072" unicode="&#x436;" horiz-adv-x="686" 
d="M283 0v202h-29l-119 -202h-142l166 252l-163 223h135l122 -177h30v177h119v-177h30l122 177h135l-163 -223l166 -252h-142l-119 202h-29v-202h-119z" />
    <glyph glyph-name="afii10073" unicode="&#x437;" horiz-adv-x="470" 
d="M200 285h25q33 0 46 4q33 10 33 46q0 25 -19 40t-50 15q-27 0 -49 -15q-16 -11 -27 -47l-5 -14l-115 12q23 162 201 162q88 0 138.5 -38t50.5 -105q0 -91 -96 -106q104 -15 104 -110q0 -68 -50.5 -105t-142.5 -37q-115 0 -169 71q-31 37 -41 96l119 8q11 -77 87 -77
q33 0 52.5 14.5t19.5 39.5q0 33 -29 44q-13 6 -52 6h-31v96z" />
    <glyph glyph-name="afii10074" unicode="&#x438;" horiz-adv-x="562" 
d="M376 260l-187 -216v-44h-120v475h120v-260l187 216v44h120v-475h-120v260z" />
    <glyph glyph-name="afii10075" unicode="&#x439;" horiz-adv-x="562" 
d="M159 683h51q34 -69 86 -69q27 0 45 15.5t37 53.5h51q-8 -69 -42 -106.5t-89 -37.5q-58 0 -94.5 38t-44.5 106zM376 260l-187 -216v-44h-120v475h120v-260l187 216v44h120v-475h-120v260z" />
    <glyph glyph-name="afii10076" unicode="&#x43a;" horiz-adv-x="536" 
d="M368 475h148l-178 -220l194 -255h-165l-173 253zM69 475h123v-475h-123v475z" />
    <glyph glyph-name="afii10077" unicode="&#x43b;" horiz-adv-x="545" 
d="M353 379h-131l-15 -208q-7 -97 -50.5 -136t-143.5 -38v96h6h4q35 -2 55 28q10 17 13 59l16 295h369v-475h-123v379z" />
    <glyph glyph-name="afii10078" unicode="&#x43c;" horiz-adv-x="702" 
d="M412 0h-121l-109 365v-365h-113v475h181l102 -350l101 350h181v-475h-113v365z" />
    <glyph glyph-name="afii10079" unicode="&#x43d;" horiz-adv-x="551" 
d="M360 202h-168v-202h-123v475h123v-177h168v177h123v-475h-123v202z" />
    <glyph glyph-name="afii10080" unicode="&#x43e;" horiz-adv-x="536" 
d="M268 488q102 0 168 -70.5t66 -180.5q0 -109 -66 -179.5t-168 -70.5q-104 0 -169.5 70.5t-65.5 183.5q0 107 66.5 177t168.5 70zM267 389q-49 0 -78.5 -41t-29.5 -109q0 -71 29.5 -112t79.5 -41q49 0 78.5 41.5t29.5 109.5q0 69 -30 110.5t-79 41.5z" />
    <glyph glyph-name="afii10081" unicode="&#x43f;" horiz-adv-x="551" 
d="M360 379h-168v-379h-123v475h414v-475h-123v379z" />
    <glyph glyph-name="afii10082" unicode="&#x440;" horiz-adv-x="548" 
d="M69 -197v521q0 109 -9 151h115q7 -16 8 -56q49 66 131 66q90 0 145.5 -67.5t55.5 -176.5q0 -110 -55.5 -180.5t-141.5 -70.5q-74 0 -126 61v-248h-123zM292 382q-48 0 -75 -39t-27 -108q0 -65 27.5 -103.5t73.5 -38.5t72.5 39t26.5 107t-32 113q-22 30 -66 30z" />
    <glyph glyph-name="afii10083" unicode="&#x441;" horiz-adv-x="497" 
d="M460 318h-121q-10 71 -77 71q-48 0 -75.5 -40.5t-27.5 -111.5q0 -73 26.5 -112t75.5 -39q73 0 83 83h119q-5 -78 -58 -130t-144 -52q-102 0 -165 69t-63 181q0 113 63 182t167 69q105 0 160 -71q29 -37 37 -99z" />
    <glyph glyph-name="afii10084" unicode="&#x442;" horiz-adv-x="411" 
d="M267 379v-379h-123v379h-137v96h398v-96h-138z" />
    <glyph glyph-name="afii10085" unicode="&#x443;" horiz-adv-x="499" 
d="M16 475h130l106 -362l110 362h128l-161 -462q-24 -67 -31 -83.5t-23 -41.5q-29 -48 -75.5 -68.5t-125.5 -20.5q-25 0 -46 1v107q79 -2 109.5 12t46.5 59z" />
    <glyph glyph-name="afii10086" unicode="&#x444;" horiz-adv-x="720" 
d="M300 671h120v-222q36 39 92 39q82 0 128.5 -66.5t46.5 -183.5q0 -118 -46.5 -184.5t-129.5 -66.5q-31 0 -50 8t-41 30v-222h-120v222q-22 -22 -41 -30t-50 -8q-83 0 -129.5 66.5t-46.5 184.5q0 116 46.5 183t127.5 67q57 0 93 -39v222zM485 389q-37 0 -52 -37
q-13 -33 -13 -117q0 -81 13 -112q15 -37 53 -37q75 0 75 153q0 150 -76 150zM235 389q-76 0 -76 -150q0 -153 75 -153q38 0 53 37q13 31 13 112q0 86 -14.5 120t-50.5 34z" />
    <glyph glyph-name="afii10087" unicode="&#x445;" horiz-adv-x="501" 
d="M25 475h147l78 -133l81 133h146l-151 -222l174 -253h-150l-100 157l-100 -157h-149l175 253z" />
    <glyph glyph-name="afii10088" unicode="&#x446;" horiz-adv-x="552" 
d="M483 96h58v-196h-123v100h-349v475h123v-379h168v379h123v-379z" />
    <glyph glyph-name="afii10089" unicode="&#x447;" horiz-adv-x="523" 
d="M332 0v170q-58 -40 -134 -40q-71 0 -111 42t-40 117v186h123v-152q0 -45 16.5 -65t54.5 -20q56 0 91 37v200h123v-475h-123z" />
    <glyph glyph-name="afii10090" unicode="&#x448;" horiz-adv-x="762" 
d="M570 96v379h123v-475h-624v475h123v-379h127v379h123v-379h128z" />
    <glyph glyph-name="afii10091" unicode="&#x449;" horiz-adv-x="763" 
d="M693 96h59v-196h-123v100h-560v475h123v-379h127v379h123v-379h128v379h123v-379z" />
    <glyph glyph-name="afii10092" unicode="&#x44a;" horiz-adv-x="525" 
d="M0 475h250v-165h79q88 0 129 -30q54 -41 54 -120q0 -71 -44 -115.5t-115 -44.5h-226v379h-127v96zM250 217v-125h67q35 0 54 16.5t19 46.5q0 29 -19.5 45.5t-53.5 16.5h-67z" />
    <glyph glyph-name="afii10093" unicode="&#x44b;" horiz-adv-x="693" 
d="M192 217v-125h67q72 0 72 63q0 62 -72 62h-67zM192 310h79q88 0 129 -30q54 -41 54 -119q0 -71 -44.5 -116t-114.5 -45h-226v475h123v-165zM501 475h123v-475h-123v475z" />
    <glyph glyph-name="afii10094" unicode="&#x44c;" horiz-adv-x="467" 
d="M192 217v-125h67q72 0 72 63q0 62 -72 62h-67zM192 310h79q88 0 129 -30q54 -41 54 -119q0 -71 -44.5 -116t-114.5 -45h-226v475h123v-165z" />
    <glyph glyph-name="afii10095" unicode="&#x44d;" horiz-adv-x="497" 
d="M203 285h133q-21 104 -99 104q-65 0 -77 -71l-118 12q11 74 62 116t132 42q104 0 167 -68.5t63 -182.5q0 -113 -62.5 -181.5t-165.5 -68.5q-107 0 -161 71q-26 33 -40 98l119 8q12 -79 82 -79q40 0 64 25t35 79h-134v96z" />
    <glyph glyph-name="afii10096" unicode="&#x44e;" horiz-adv-x="773" 
d="M192 298h85q19 88 80.5 139t147.5 51q103 0 169 -70.5t66 -180.5q0 -109 -66 -179.5t-169 -70.5q-93 0 -157 59t-75 156h-81v-202h-123v475h123v-177zM505 389q-48 0 -78 -41.5t-30 -108.5q0 -71 29.5 -112t79.5 -41q49 0 78.5 41.5t29.5 109.5t-30 110t-79 42z" />
    <glyph glyph-name="afii10097" unicode="&#x44f;" 
d="M247 165l-91 -165h-123l104 177q-43 14 -67 50.5t-24 87.5q0 71 44 115.5t115 44.5h226v-475h-123v165h-61zM308 258v125h-67q-34 0 -53.5 -16.5t-19.5 -45.5q0 -30 19 -46.5t54 -16.5h67z" />
    <glyph glyph-name="afii10071" unicode="&#x451;" horiz-adv-x="515" 
d="M481 208h-325q3 -59 32.5 -90.5t82.5 -31.5q68 0 92 53l109 -5q-16 -68 -70.5 -107.5t-133.5 -39.5q-109 0 -172 66t-63 179q0 116 63.5 186t167.5 70q101 0 159 -68.5t58 -187.5v-24zM159 298h198q-15 95 -94 95q-80 0 -104 -95zM179 684q28 0 47.5 -20t19.5 -48
t-20 -48t-48 -20q-27 0 -47.5 20.5t-20.5 47.5q0 28 20 48t49 20zM357 684q27 0 47 -20t20 -48q0 -27 -20 -47.5t-48 -20.5t-48 20t-20 48q0 29 20 48.5t49 19.5z" />
    <glyph glyph-name="afii10099" unicode="&#x452;" horiz-adv-x="555" 
d="M245 -169v105h15q53 0 79 16q28 21 28 51v244q0 65 -13 90q-22 40 -68 40q-26 0 -48.5 -14.5t-33.5 -37.5q-12 -30 -12 -82v-243h-123v528h-60v80h60v63h123v-63h133v-80h-133v-105q53 62 136 62q46 0 83.5 -19t56.5 -51q13 -22 17.5 -50t4.5 -91v-276q0 -82 -56 -125
t-162 -43q-15 0 -27 1z" />
    <glyph glyph-name="afii10100" unicode="&#x453;" horiz-adv-x="384" 
d="M192 379v-379h-123v475h309v-96h-186zM140 541l119 152h149l-173 -152h-95z" />
    <glyph glyph-name="afii10101" unicode="&#x454;" horiz-adv-x="497" 
d="M163 285h133v-96h-134q11 -54 35 -79t64 -25q70 0 82 79l119 -8q-18 -81 -58 -117q-53 -52 -143 -52q-103 0 -165.5 68.5t-62.5 181.5q0 114 63 182.5t167 68.5q81 0 132 -42t62 -116l-118 -12q-12 71 -77 71q-78 0 -99 -104z" />
    <glyph glyph-name="afii10102" unicode="&#x455;" horiz-adv-x="485" 
d="M439 331h-119q-9 66 -77 66q-28 0 -46.5 -14t-18.5 -36q0 -23 17 -33t98 -34q96 -28 123 -60q26 -34 26 -80q0 -73 -50.5 -113t-142.5 -40q-211 0 -211 172h116q3 -42 24 -60.5t66 -18.5q75 0 75 51q0 13 -7 21.5t-26 16.5q-14 6 -100 32q-73 22 -101.5 51t-28.5 82
q0 70 52 112.5t138 42.5t137 -42t56 -116z" />
    <glyph glyph-name="afii10103" unicode="&#x456;" horiz-adv-x="261" 
d="M69 475h123v-475h-123v475zM132 680q32 0 51 -19.5t19 -51.5t-20 -52t-52 -20t-51.5 19t-19.5 51q0 33 20 53t53 20z" />
    <glyph glyph-name="afii10104" unicode="&#x457;" horiz-adv-x="261" 
d="M69 475h123v-475h-123v475zM49 681q27 0 45.5 -18.5t18.5 -46.5q0 -26 -19 -45.5t-46 -19.5q-26 0 -45.5 19.5t-19.5 45.5q0 28 19 46.5t47 18.5zM213 681q27 0 45.5 -18.5t18.5 -46.5q0 -27 -19 -46t-46 -19q-26 0 -45.5 19.5t-19.5 45.5q0 27 19 46t47 19z" />
    <glyph glyph-name="afii10105" unicode="&#x458;" horiz-adv-x="272" 
d="M83 475h123v-407q0 -76 -6 -108t-25 -63q-52 -81 -189 -81q-15 0 -26 1v105h15q83 0 100 44q6 13 7 26t1 75v408zM147 680q31 0 50 -19.5t19 -51.5q0 -33 -19.5 -52.5t-51.5 -19.5t-52 19.5t-20 50.5q0 33 20.5 53t53.5 20z" />
    <glyph glyph-name="afii10106" unicode="&#x459;" horiz-adv-x="751" 
d="M476 217v-125h67q72 0 72 63q0 62 -72 62h-67zM476 310h79q88 0 129 -30q54 -41 54 -119q0 -71 -44.5 -116t-114.5 -45h-226v379h-131l-15 -208q-7 -97 -50.5 -136t-143.5 -38v96h5h5q36 0 55 28q10 17 13 59l16 295h369v-165z" />
    <glyph glyph-name="afii10107" unicode="&#x45a;" horiz-adv-x="757" 
d="M359 209h-167v-209h-123v475h123v-170h167v170h123v-170h79q88 0 128 -30q55 -39 55 -117q0 -70 -44 -114t-115 -44h-226v209zM482 209v-117h67q34 0 53.5 15.5t19.5 43.5q0 27 -19.5 42.5t-53.5 15.5h-67z" />
    <glyph glyph-name="afii10108" unicode="&#x45b;" horiz-adv-x="555" 
d="M192 608h133v-80h-133v-105q56 62 136 62q46 0 83.5 -19t56.5 -51q13 -22 17.5 -50t4.5 -91v-274h-123v247q0 65 -13 90q-21 40 -68 40q-26 0 -48.5 -14.5t-33.5 -37.5q-12 -30 -12 -82v-243h-123v528h-60v80h60v63h123v-63z" />
    <glyph glyph-name="afii10109" unicode="&#x45c;" horiz-adv-x="536" 
d="M368 475h148l-178 -220l194 -255h-165l-173 253zM69 475h123v-475h-123v475zM210 541l118 152h150l-174 -152h-94z" />
    <glyph glyph-name="afii10110" unicode="&#x45e;" horiz-adv-x="499" 
d="M16 475h130l106 -362l110 362h128l-161 -462q-24 -67 -31 -83.5t-23 -41.5q-29 -48 -75.5 -68.5t-125.5 -20.5q-25 0 -46 1v107q79 -2 109.5 12t46.5 59zM125 683h51q34 -69 86 -69q27 0 45 15.5t37 53.5h51q-8 -69 -42 -106.5t-89 -37.5q-58 0 -94.5 38t-44.5 106z" />
    <glyph glyph-name="afii10193" unicode="&#x45f;" horiz-adv-x="551" 
d="M214 0h-145v475h123v-379h168v379h123v-475h-146v-100h-123v100z" />
    <glyph glyph-name="afii10050" unicode="&#x490;" horiz-adv-x="515" 
d="M500 749v-191h-289v-558h-131v667h289v82h131z" />
    <glyph glyph-name="afii10098" unicode="&#x491;" horiz-adv-x="384" 
d="M378 530v-151h-186v-379h-123v475h186v55h123z" />
    <glyph glyph-name="uni04C0" unicode="&#x4c0;" horiz-adv-x="288" 
d="M208 0h-128v667h128v-667z" />
    <glyph glyph-name="Wdieresis" unicode="&#x1e84;" horiz-adv-x="868" 
d="M9 667h120l127 -521l124 521h110l124 -521l129 521h117l-172 -667h-145l-110 434l-108 -434h-145zM342 871q30 0 51.5 -22t21.5 -52q0 -31 -21.5 -52t-52.5 -21t-52 21t-21 52t21.5 52.5t52.5 21.5zM528 871q30 0 51.5 -22t21.5 -52q0 -31 -21.5 -52t-52.5 -21t-52 21
t-21 52t21.5 52.5t52.5 21.5z" />
    <glyph glyph-name="uni1EA0" unicode="&#x1ea0;" horiz-adv-x="602" 
d="M235 667h130l227 -667h-133l-41 139h-235l-42 -139h-131zM386 248l-86 272l-85 -272h171zM302 -47q32 0 55 -23.5t23 -55.5q0 -33 -23 -56t-56 -23t-56 23t-23 56q0 34 23 56.5t57 22.5z" />
    <glyph glyph-name="uni1EA1" unicode="&#x1ea1;" horiz-adv-x="512" 
d="M174 333h-117q10 75 56 110q56 42 151 42q128 0 163 -71q19 -38 19 -117v-191q0 -73 16 -106h-112q-6 23 -6 54q-39 -64 -131 -64q-81 0 -127 36t-46 99q0 101 108 142q31 12 55 17.5t124 23.5v8q0 38 -17 55t-55 17q-71 0 -81 -55zM327 199v27q-105 -13 -133 -33
t-28 -52q0 -25 20.5 -41t51.5 -16q61 0 80 46q9 18 9 69zM216 -52q32 0 55 -23t23 -56q0 -34 -22.5 -56.5t-56.5 -22.5q-33 0 -56 23t-23 56t23.5 56t56.5 23z" />
    <glyph glyph-name="uni1EA2" unicode="&#x1ea2;" horiz-adv-x="602" 
d="M235 667h130l227 -667h-133l-41 139h-235l-42 -139h-131zM386 248l-86 272l-85 -272h171zM271 724v89q20 -5 35 -5q32 0 52 18.5t20 47.5q0 27 -16 44.5t-41 17.5q-29 0 -77 -24v55q49 35 99 35q51 0 86.5 -34.5t35.5 -84.5q0 -48 -37 -78q-34 -28 -104 -33v-48h-53z" />
    <glyph glyph-name="uni1EA3" unicode="&#x1ea3;" horiz-adv-x="512" 
d="M174 333h-117q10 75 56 110q56 42 151 42q128 0 163 -71q19 -38 19 -117v-191q0 -73 16 -106h-112q-6 23 -6 54q-39 -64 -131 -64q-81 0 -127 36t-46 99q0 101 108 142q31 12 55 17.5t124 23.5v8q0 38 -17 55t-55 17q-71 0 -81 -55zM327 199v27q-105 -13 -133 -33
t-28 -52q0 -25 20.5 -41t51.5 -16q61 0 80 46q9 18 9 69zM225 541v89q20 -5 35 -5q32 0 52 18.5t20 47.5q0 27 -16 44.5t-41 17.5q-29 0 -77 -24v55q49 35 99 35q51 0 86.5 -34.5t35.5 -84.5q0 -48 -37 -78q-34 -28 -104 -33v-48h-53z" />
    <glyph glyph-name="uni1EA4" unicode="&#x1ea4;" horiz-adv-x="602" 
d="M409 808l141 138h152l-203 -163h-66l55 -56h-117l-70 77l-70 -77h-117l137 141h99zM235 667h130l227 -667h-133l-41 139h-235l-42 -139h-131zM386 248l-86 272l-85 -272h171z" />
    <glyph glyph-name="uni1EA5" unicode="&#x1ea5;" horiz-adv-x="512" 
d="M359 630l102 130h151l-186 -163h-41l45 -56h-111l-60 86l-58 -86h-112l121 152h99zM174 333h-117q10 75 56 110q56 42 151 42q128 0 163 -71q19 -38 19 -117v-191q0 -73 16 -106h-112q-6 23 -6 54q-39 -64 -131 -64q-81 0 -127 36t-46 99q0 101 108 142q31 12 55 17.5
t124 23.5v8q0 38 -17 55t-55 17q-71 0 -81 -55zM327 199v27q-105 -13 -133 -33t-28 -52q0 -25 20.5 -41t51.5 -16q61 0 80 46q9 18 9 69z" />
    <glyph glyph-name="uni1EA6" unicode="&#x1ea6;" horiz-adv-x="602" 
d="M178 793h-68l-203 163h152l142 -140l50 52h99l138 -141h-117l-70 78l-70 -78h-117zM235 667h130l227 -667h-133l-41 139h-235l-42 -139h-131zM386 248l-86 272l-85 -272h171z" />
    <glyph glyph-name="uni1EA7" unicode="&#x1ea7;" horiz-adv-x="512" 
d="M151 620h-45l-186 163h152l103 -133l34 43h99l122 -152h-111l-60 86l-58 -86h-112zM174 333h-117q10 75 56 110q56 42 151 42q128 0 163 -71q19 -38 19 -117v-191q0 -73 16 -106h-112q-6 23 -6 54q-39 -64 -131 -64q-81 0 -127 36t-46 99q0 101 108 142q31 12 55 17.5
t124 23.5v8q0 38 -17 55t-55 17q-71 0 -81 -55zM327 199v27q-105 -13 -133 -33t-28 -52q0 -25 20.5 -41t51.5 -16q61 0 80 46q9 18 9 69z" />
    <glyph glyph-name="uni1EA8" unicode="&#x1ea8;" horiz-adv-x="602" 
d="M407 810v56q20 -5 35 -5q32 0 52 18.5t20 47.5q0 27 -16 44.5t-41 17.5q-29 0 -77 -24v56q49 34 99 34q51 0 86.5 -34.5t35.5 -83.5t-37 -79q-34 -28 -104 -33v-48h-21l49 -50h-117l-70 78l-70 -78h-117l137 141h99zM235 667h130l227 -667h-133l-41 139h-235l-42 -139
h-131zM386 248l-86 272l-85 -272h171z" />
    <glyph glyph-name="uni1EA9" unicode="&#x1ea9;" horiz-adv-x="512" 
d="M355 636v44q20 -5 35 -5q32 0 52 18.5t20 48.5q0 26 -16 43.5t-41 17.5q-30 0 -78 -24v56q51 34 100 34q52 0 87 -34t35 -84q0 -49 -37 -79q-33 -27 -104 -32v-49h-18l40 -50h-112l-59 86l-59 -86h-112l121 152h99zM174 333h-117q10 75 56 110q56 42 151 42
q128 0 163 -71q19 -38 19 -117v-191q0 -73 16 -106h-112q-6 23 -6 54q-39 -64 -131 -64q-81 0 -127 36t-46 99q0 101 108 142q31 12 55 17.5t124 23.5v8q0 38 -17 55t-55 17q-71 0 -81 -55zM327 199v27q-105 -13 -133 -33t-28 -52q0 -25 20.5 -41t51.5 -16q61 0 80 46
q9 18 9 69z" />
    <glyph glyph-name="uni1EAA" unicode="&#x1eaa;" horiz-adv-x="602" 
d="M235 667h130l227 -667h-133l-41 139h-235l-42 -139h-131zM386 248l-86 272l-85 -272h171zM114 727l137 141h99l138 -141h-117l-70 78l-70 -78h-117zM186 892l-57 14q30 106 98 106q26 0 75 -16q48 -15 66 -15q30 0 54 40l51 -13q-10 -50 -37.5 -80.5t-62.5 -30.5
q-27 0 -74 16q-53 16 -68 16q-29 0 -45 -37z" />
    <glyph glyph-name="uni1EAB" unicode="&#x1eab;" horiz-adv-x="512" 
d="M174 333h-117q10 75 56 110q56 42 151 42q128 0 163 -71q19 -38 19 -117v-191q0 -73 16 -106h-112q-6 23 -6 54q-39 -64 -131 -64q-81 0 -127 36t-46 99q0 101 108 142q31 12 55 17.5t124 23.5v8q0 38 -17 55t-55 17q-71 0 -81 -55zM327 199v27q-105 -13 -133 -33
t-28 -52q0 -25 20.5 -41t51.5 -16q61 0 80 46q9 18 9 69zM89 541l121 152h99l121 -152h-111l-60 86l-58 -86h-112zM152 717l-51 14q27 106 89 106q23 0 67 -15q43 -16 59 -16q26 0 49 40l46 -13q-11 -52 -35 -81.5t-55 -29.5q-24 0 -67 16q-47 16 -61 16q-27 0 -41 -37z" />
    <glyph glyph-name="uni1EAC" unicode="&#x1eac;" horiz-adv-x="602" 
d="M235 667h130l227 -667h-133l-41 139h-235l-42 -139h-131zM386 248l-86 272l-85 -272h171zM114 727l137 141h99l138 -141h-117l-70 78l-70 -78h-117zM302 -46q33 0 55.5 -23t22.5 -56q0 -32 -23.5 -55.5t-55.5 -23.5t-55.5 23.5t-23.5 55.5q0 34 22.5 56.5t57.5 22.5z" />
    <glyph glyph-name="uni1EAD" unicode="&#x1ead;" horiz-adv-x="512" 
d="M174 333h-117q10 75 56 110q56 42 151 42q128 0 163 -71q19 -38 19 -117v-191q0 -73 16 -106h-112q-6 23 -6 54q-39 -64 -131 -64q-81 0 -127 36t-46 99q0 101 108 142q31 12 55 17.5t124 23.5v8q0 38 -17 55t-55 17q-71 0 -81 -55zM327 199v27q-105 -13 -133 -33
t-28 -52q0 -25 20.5 -41t51.5 -16q61 0 80 46q9 18 9 69zM89 541l121 152h99l121 -152h-111l-60 86l-58 -86h-112zM257 -59q32 0 55 -23t23 -56q0 -32 -23.5 -55.5t-55.5 -23.5q-33 0 -56 23t-23 56q0 34 22.5 56.5t57.5 22.5z" />
    <glyph glyph-name="uni1EAE" unicode="&#x1eae;" horiz-adv-x="602" 
d="M235 667h130l227 -667h-133l-41 139h-235l-42 -139h-131zM386 248l-86 272l-85 -272h171zM154 869h47q20 -37 43.5 -53.5t56.5 -16.5t56 16t44 54h47q-8 -66 -47 -104t-100 -38q-60 0 -100 38.5t-47 103.5zM232 848l167 163h151l-203 -163h-115z" />
    <glyph glyph-name="uni1EAF" unicode="&#x1eaf;" horiz-adv-x="512" 
d="M174 333h-117q10 75 56 110q56 42 151 42q128 0 163 -71q19 -38 19 -117v-191q0 -73 16 -106h-112q-6 23 -6 54q-39 -64 -131 -64q-81 0 -127 36t-46 99q0 101 108 142q31 12 55 17.5t124 23.5v8q0 38 -17 55t-55 17q-71 0 -81 -55zM327 199v27q-105 -13 -133 -33
t-28 -52q0 -25 20.5 -41t51.5 -16q61 0 80 46q9 18 9 69zM124 683h51q18 -37 38.5 -53t48.5 -16q26 0 44 15.5t37 53.5h51q-8 -69 -42 -106.5t-89 -37.5q-58 0 -94.5 38t-44.5 106zM206 657l127 163h152l-186 -163h-93z" />
    <glyph glyph-name="uni1EB0" unicode="&#x1eb0;" horiz-adv-x="602" 
d="M235 667h130l227 -667h-133l-41 139h-235l-42 -139h-131zM386 248l-86 272l-85 -272h171zM154 869h47q20 -37 43.5 -53.5t56.5 -16.5t56 16t44 54h47q-8 -66 -47 -104t-100 -38q-60 0 -100 38.5t-47 103.5zM359 846h-115l-203 163h152z" />
    <glyph glyph-name="uni1EB1" unicode="&#x1eb1;" horiz-adv-x="512" 
d="M175 333h-117q10 75 56 110q56 42 151 42q128 0 163 -71q19 -38 19 -117v-191q0 -73 16 -106h-112q-6 23 -6 54q-39 -64 -131 -64q-81 0 -127 36t-46 99q0 101 108 142q31 12 55 17.5t124 23.5v8q0 38 -17 55t-55 17q-71 0 -81 -55zM328 199v27q-105 -13 -133 -33
t-28 -52q0 -25 20.5 -41t51.5 -16q61 0 80 46q9 18 9 69zM124 683h51q18 -37 38.5 -53t48.5 -16q26 0 44 15.5t38 53.5h50q-8 -69 -42 -106.5t-89 -37.5q-58 0 -94.5 38t-44.5 106zM308 657h-93l-186 163h152z" />
    <glyph glyph-name="uni1EB2" unicode="&#x1eb2;" horiz-adv-x="602" 
d="M235 667h130l227 -667h-133l-41 139h-235l-42 -139h-131zM386 248l-86 272l-85 -272h171zM154 869h47q20 -37 43.5 -53.5t56.5 -16.5t56 16t44 54h47q-8 -66 -47 -104t-100 -38q-60 0 -100 38.5t-47 103.5zM277 842v89q20 -5 35 -5q32 0 52 18.5t20 47.5q0 27 -16 44.5
t-41 17.5q-29 0 -77 -24v55q49 35 99 35q51 0 86.5 -34.5t35.5 -84.5q0 -48 -37 -78q-34 -28 -104 -33v-48h-53z" />
    <glyph glyph-name="uni1EB3" unicode="&#x1eb3;" horiz-adv-x="512" 
d="M174 333h-117q10 75 56 110q56 42 151 42q128 0 163 -71q19 -38 19 -117v-191q0 -73 16 -106h-112q-6 23 -6 54q-39 -64 -131 -64q-81 0 -127 36t-46 99q0 101 108 142q31 12 55 17.5t124 23.5v8q0 38 -17 55t-55 17q-71 0 -81 -55zM327 199v27q-105 -13 -133 -33
t-28 -52q0 -25 20.5 -41t51.5 -16q61 0 80 46q9 18 9 69zM124 683h51q18 -37 38.5 -53t48.5 -16q26 0 44 15.5t37 53.5h51q-8 -69 -42 -106.5t-89 -37.5q-58 0 -94.5 38t-44.5 106zM236 658v89q20 -5 35 -5q32 0 52 18.5t20 47.5q0 27 -16 44.5t-41 17.5q-29 0 -77 -24v55
q49 35 99 35q51 0 86.5 -34.5t35.5 -84.5q0 -48 -37 -78q-34 -28 -104 -33v-48h-53z" />
    <glyph glyph-name="uni1EB4" unicode="&#x1eb4;" horiz-adv-x="602" 
d="M235 667h130l227 -667h-133l-41 139h-235l-42 -139h-131zM386 248l-86 272l-85 -272h171zM154 869h47q20 -37 43.5 -53.5t56.5 -16.5t56 16t44 54h47q-8 -66 -47 -104t-100 -38q-60 0 -100 38.5t-47 103.5zM198 901l-57 14q32 106 99 106q21 0 74 -16q46 -15 67 -15
q30 0 53 40l52 -13q-11 -51 -38 -81t-62 -30q-24 0 -75 15q-52 17 -67 17q-30 0 -46 -37z" />
    <glyph glyph-name="uni1EB5" unicode="&#x1eb5;" horiz-adv-x="512" 
d="M174 333h-117q10 75 56 110q56 42 151 42q128 0 163 -71q19 -38 19 -117v-191q0 -73 16 -106h-112q-6 23 -6 54q-39 -64 -131 -64q-81 0 -127 36t-46 99q0 101 108 142q31 12 55 17.5t124 23.5v8q0 38 -17 55t-55 17q-71 0 -81 -55zM327 199v27q-105 -13 -133 -33
t-28 -52q0 -25 20.5 -41t51.5 -16q61 0 80 46q9 18 9 69zM124 683h51q18 -37 38.5 -53t48.5 -16q26 0 44 15.5t37 53.5h51q-8 -69 -42 -106.5t-89 -37.5q-58 0 -94.5 38t-44.5 106zM152 708l-51 15q27 105 89 105q23 0 67 -15q43 -16 59 -16q26 0 49 40l46 -13
q-11 -52 -35 -81.5t-55 -29.5q-24 0 -67 16q-44 16 -61 16q-27 0 -41 -37z" />
    <glyph glyph-name="uni1EB6" unicode="&#x1eb6;" horiz-adv-x="602" 
d="M235 667h130l227 -667h-133l-41 139h-235l-42 -139h-131zM386 248l-86 272l-85 -272h171zM154 869h47q20 -37 43.5 -53.5t56.5 -16.5t56 16t44 54h47q-8 -66 -47 -104t-100 -38q-60 0 -100 38.5t-47 103.5zM302 -44q32 0 55 -23t23 -56t-23 -56t-56 -23t-56 23t-23 56
q0 34 23 56.5t57 22.5z" />
    <glyph glyph-name="uni1EB7" unicode="&#x1eb7;" horiz-adv-x="512" 
d="M174 333h-117q10 75 56 110q56 42 151 42q128 0 163 -71q19 -38 19 -117v-191q0 -73 16 -106h-112q-6 23 -6 54q-39 -64 -131 -64q-81 0 -127 36t-46 99q0 101 108 142q31 12 55 17.5t124 23.5v8q0 38 -17 55t-55 17q-71 0 -81 -55zM327 199v27q-105 -13 -133 -33
t-28 -52q0 -25 20.5 -41t51.5 -16q61 0 80 46q9 18 9 69zM124 683h51q18 -37 38.5 -53t48.5 -16q26 0 44 15.5t37 53.5h51q-8 -69 -42 -106.5t-89 -37.5q-58 0 -94.5 38t-44.5 106zM257 -40q32 0 55 -23t23 -56q0 -32 -23.5 -55.5t-55.5 -23.5q-33 0 -56 23.5t-23 55.5
q0 34 22.5 56.5t57.5 22.5z" />
    <glyph glyph-name="uni1EB8" unicode="&#x1eb8;" horiz-adv-x="537" 
d="M208 400h265v-109h-265v-182h302v-109h-430v667h419v-109h-291v-158zM281 -52q33 0 55 -22.5t22 -55.5q0 -34 -23 -57t-55 -23t-56 23.5t-24 55.5q0 34 23 56.5t58 22.5z" />
    <glyph glyph-name="uni1EB9" unicode="&#x1eb9;" horiz-adv-x="515" 
d="M481 208h-325q3 -59 32.5 -90.5t82.5 -31.5q68 0 92 53l109 -5q-16 -68 -70.5 -107.5t-133.5 -39.5q-109 0 -172 66t-63 179q0 116 63.5 186t167.5 70q101 0 159 -68.5t58 -187.5v-24zM159 298h198q-15 95 -94 95q-80 0 -104 -95zM258 -62q33 0 55.5 -22.5t22.5 -56.5
q0 -32 -23 -55.5t-56 -23.5q-32 0 -55.5 23.5t-23.5 55.5q0 34 23 56.5t57 22.5z" />
    <glyph glyph-name="uni1EBA" unicode="&#x1eba;" horiz-adv-x="537" 
d="M208 400h265v-109h-265v-182h302v-109h-430v667h419v-109h-291v-158zM253 724v89q20 -5 35 -5q32 0 52 18.5t20 47.5q0 27 -16 44.5t-41 17.5q-29 0 -77 -24v55q49 35 99 35q51 0 86.5 -34.5t35.5 -84.5q0 -48 -37 -78q-34 -28 -104 -33v-48h-53z" />
    <glyph glyph-name="uni1EBB" unicode="&#x1ebb;" horiz-adv-x="515" 
d="M481 208h-325q3 -59 32.5 -90.5t82.5 -31.5q68 0 92 53l109 -5q-16 -68 -70.5 -107.5t-133.5 -39.5q-109 0 -172 66t-63 179q0 116 63.5 186t167.5 70q101 0 159 -68.5t58 -187.5v-24zM159 298h198q-15 95 -94 95q-80 0 -104 -95zM238 541v89q20 -5 35 -5q32 0 52 18.5
t20 47.5q0 27 -16 44.5t-41 17.5q-29 0 -77 -24v55q49 35 99 35q51 0 86.5 -34.5t35.5 -84.5q0 -48 -37 -78q-34 -28 -104 -33v-48h-53z" />
    <glyph glyph-name="uni1EBC" unicode="&#x1ebc;" horiz-adv-x="537" 
d="M208 400h265v-109h-265v-182h302v-109h-430v667h419v-109h-291v-158zM153 733l-57 14q31 106 99 106q25 0 74 -16q50 -15 67 -15q30 0 53 40l52 -13q-11 -50 -38.5 -80.5t-61.5 -30.5q-25 0 -75 15q-52 17 -67 17q-30 0 -46 -37z" />
    <glyph glyph-name="uni1EBD" unicode="&#x1ebd;" horiz-adv-x="515" 
d="M481 208h-325q3 -59 32.5 -90.5t82.5 -31.5q68 0 92 53l109 -5q-16 -68 -70.5 -107.5t-133.5 -39.5q-109 0 -172 66t-63 179q0 116 63.5 186t167.5 70q101 0 159 -68.5t58 -187.5v-24zM159 298h198q-15 95 -94 95q-80 0 -104 -95zM154 553l-52 14q28 106 89 106
q23 0 67 -15q43 -16 60 -16q25 0 48 40l46 -13q-11 -52 -35 -81.5t-55 -29.5q-22 0 -67 16q-47 16 -60 16q-28 0 -41 -37z" />
    <glyph glyph-name="uni1EBE" unicode="&#x1ebe;" horiz-adv-x="537" 
d="M399 807l138 135h151l-203 -163h-59l51 -52h-116l-71 77l-69 -77h-118l137 141h100zM208 400h265v-109h-265v-182h302v-109h-430v667h419v-109h-291v-158z" />
    <glyph glyph-name="uni1EBF" unicode="&#x1ebf;" horiz-adv-x="515" 
d="M369 627l105 135h151l-186 -163h-48l47 -58h-111l-60 86l-58 -86h-112l121 152h99zM481 208h-325q3 -59 32.5 -90.5t82.5 -31.5q68 0 92 53l109 -5q-16 -68 -70.5 -107.5t-133.5 -39.5q-109 0 -172 66t-63 179q0 116 63.5 186t167.5 70q101 0 159 -68.5t58 -187.5v-24z
M159 298h198q-15 95 -94 95q-80 0 -104 -95z" />
    <glyph glyph-name="uni1EC0" unicode="&#x1ec0;" horiz-adv-x="537" 
d="M160 785h-60l-203 163h152l138 -135l53 55h99l138 -141h-116l-71 78l-70 -78h-117zM208 400h265v-109h-265v-182h302v-109h-430v667h419v-109h-291v-158z" />
    <glyph glyph-name="uni1EC1" unicode="&#x1ec1;" horiz-adv-x="515" 
d="M147 604h-43l-186 163h152l102 -132l46 58h99l121 -152h-111l-59 86l-59 -86h-112zM482 208h-325q3 -59 32.5 -90.5t82.5 -31.5q68 0 92 53l109 -5q-16 -68 -70.5 -107.5t-133.5 -39.5q-109 0 -172 66t-63 179q0 116 63 186t168 70q101 0 159 -68.5t58 -187.5v-24z
M160 298h198q-15 95 -94 95q-82 0 -104 -95z" />
    <glyph glyph-name="uni1EC2" unicode="&#x1ec2;" horiz-adv-x="537" 
d="M400 806v54q20 -5 35 -5q32 0 52 18.5t20 48.5q0 26 -16 43.5t-41 17.5q-32 0 -77 -24v56q49 34 99 34q52 0 87 -34t35 -84q0 -49 -37 -79q-34 -28 -104 -33v-48h-19l43 -44h-116l-71 78l-69 -78h-118l138 141h99zM208 400h265v-109h-265v-182h302v-109h-430v667h419
v-109h-291v-158z" />
    <glyph glyph-name="uni1EC3" unicode="&#x1ec3;" horiz-adv-x="515" 
d="M359 640v47q20 -5 35 -5q32 0 52 18.5t20 47.5q0 27 -16 44t-41 17q-31 0 -77 -23v55q49 34 99 34q52 0 87 -34t35 -84q0 -48 -37 -78q-19 -16 -41 -22.5t-63 -10.5v-48h-20l45 -57h-111l-59 86l-59 -86h-112l121 152h99zM481 208h-325q3 -59 32.5 -90.5t82.5 -31.5
q68 0 92 53l109 -5q-16 -68 -70.5 -107.5t-133.5 -39.5q-109 0 -172 66t-63 179q0 116 63.5 186t167.5 70q101 0 159 -68.5t58 -187.5v-24zM159 298h198q-15 95 -94 95q-80 0 -104 -95z" />
    <glyph glyph-name="uni1EC4" unicode="&#x1ec4;" horiz-adv-x="537" 
d="M208 400h265v-109h-265v-182h302v-109h-430v667h419v-109h-291v-158zM103 727l137 141h100l137 -141h-116l-71 78l-69 -78h-118zM177 885l-57 14q31 106 99 106q26 0 74 -15q48 -16 67 -16q29 0 53 40l51 -13q-10 -50 -37.5 -80.5t-62.5 -30.5q-26 0 -74 16
q-53 16 -68 16q-29 0 -45 -37z" />
    <glyph glyph-name="uni1EC5" unicode="&#x1ec5;" horiz-adv-x="515" 
d="M481 208h-325q3 -59 32.5 -90.5t82.5 -31.5q68 0 92 53l109 -5q-16 -68 -70.5 -107.5t-133.5 -39.5q-109 0 -172 66t-63 179q0 116 63.5 186t167.5 70q101 0 159 -68.5t58 -187.5v-24zM159 298h198q-15 95 -94 95q-80 0 -104 -95zM97 541l121 152h99l121 -152h-111
l-60 86l-58 -86h-112zM168 720l-52 15q9 34 21 57q27 49 68 49q19 0 67 -16t60 -16q25 0 48 40l46 -13q-11 -51 -34.5 -81t-54.5 -30q-18 0 -68 16q-50 17 -60 17q-28 0 -41 -38z" />
    <glyph glyph-name="uni1EC6" unicode="&#x1ec6;" horiz-adv-x="537" 
d="M208 400h265v-109h-265v-182h302v-109h-430v667h419v-109h-291v-158zM103 727l137 141h100l137 -141h-116l-71 78l-69 -78h-118zM294 -42q34 0 56 -22.5t22 -55.5q0 -34 -23 -57t-56 -23q-32 0 -55.5 23.5t-23.5 55.5q0 34 23 56.5t57 22.5z" />
    <glyph glyph-name="uni1EC7" unicode="&#x1ec7;" horiz-adv-x="515" 
d="M481 208h-325q3 -59 32.5 -90.5t82.5 -31.5q68 0 92 53l109 -5q-16 -68 -70.5 -107.5t-133.5 -39.5q-109 0 -172 66t-63 179q0 116 63.5 186t167.5 70q101 0 159 -68.5t58 -187.5v-24zM159 298h198q-15 95 -94 95q-80 0 -104 -95zM97 541l121 152h99l121 -152h-111
l-60 86l-58 -86h-112zM258 -43q33 0 55.5 -23t22.5 -56t-23 -56t-56 -23q-32 0 -55.5 23.5t-23.5 55.5q0 34 23 56.5t57 22.5z" />
    <glyph glyph-name="uni1EC8" unicode="&#x1ec8;" horiz-adv-x="288" 
d="M208 0h-128v667h128v-667zM116 724v89q20 -5 35 -5q32 0 52 18.5t20 47.5q0 27 -16 44.5t-41 17.5q-29 0 -77 -24v55q49 35 99 35q51 0 86.5 -34.5t35.5 -84.5q0 -48 -37 -78q-34 -28 -104 -33v-48h-53z" />
    <glyph glyph-name="uni1EC9" unicode="&#x1ec9;" horiz-adv-x="261" 
d="M69 475h123v-475h-123v475zM104 541v89q20 -5 35 -5q32 0 52 18.5t20 47.5q0 27 -16 44.5t-41 17.5q-29 0 -77 -24v55q49 35 99 35q51 0 86.5 -34.5t35.5 -84.5q0 -48 -37 -78q-34 -28 -104 -33v-48h-53z" />
    <glyph glyph-name="uni1ECA" unicode="&#x1eca;" horiz-adv-x="288" 
d="M208 0h-128v667h128v-667zM142 -55q33 0 55.5 -23t22.5 -56t-23 -56t-56 -23q-32 0 -55.5 23.5t-23.5 55.5q0 34 23 56.5t57 22.5z" />
    <glyph glyph-name="uni1ECB" unicode="&#x1ecb;" horiz-adv-x="261" 
d="M69 475h123v-475h-123v475zM132 680q31 0 50.5 -19.5t19.5 -51.5t-20 -52t-52 -20t-51.5 19t-19.5 51q0 33 20 53t53 20zM131 -50q33 0 55.5 -22.5t22.5 -56.5q0 -33 -23 -56t-56 -23q-32 0 -55.5 23.5t-23.5 55.5q0 34 23 56.5t57 22.5z" />
    <glyph glyph-name="uni1ECC" unicode="&#x1ecc;" horiz-adv-x="673" 
d="M337 680q122 0 204 -80q97 -94 97 -266q0 -175 -97 -267q-82 -80 -203 -80q-123 0 -206 80q-96 93 -96 272q0 168 96 261q83 80 205 80zM337 570q-78 0 -118 -56q-50 -69 -50 -177q0 -113 44.5 -176.5t123.5 -63.5q78 0 118 56q50 69 50 181q0 113 -50 180
q-40 56 -118 56zM338 -58q33 0 55.5 -23t22.5 -56q0 -32 -23 -55.5t-56 -23.5q-32 0 -55.5 23.5t-23.5 55.5q0 34 23 56.5t57 22.5z" />
    <glyph glyph-name="uni1ECD" unicode="&#x1ecd;" horiz-adv-x="536" 
d="M268 488q102 0 168 -70.5t66 -180.5q0 -109 -66 -179.5t-168 -70.5q-104 0 -169.5 70.5t-65.5 183.5q0 107 66.5 177t168.5 70zM267 389q-49 0 -78.5 -41t-29.5 -109q0 -71 29.5 -112t79.5 -41q49 0 78.5 41.5t29.5 109.5q0 69 -30 110.5t-79 41.5zM268 -47
q33 0 55.5 -22.5t22.5 -56.5q0 -33 -22.5 -56t-56.5 -23q-32 0 -55.5 23.5t-23.5 55.5q0 33 23 56t57 23z" />
    <glyph glyph-name="uni1ECE" unicode="&#x1ece;" horiz-adv-x="673" 
d="M337 680q122 0 204 -80q97 -94 97 -266q0 -175 -97 -267q-82 -80 -203 -80q-123 0 -206 80q-96 93 -96 272q0 168 96 261q83 80 205 80zM337 570q-78 0 -118 -56q-50 -69 -50 -177q0 -113 44.5 -176.5t123.5 -63.5q78 0 118 56q50 69 50 181q0 113 -50 180
q-40 56 -118 56zM304 724v89q20 -5 35 -5q32 0 52 18.5t20 47.5q0 27 -16 44.5t-41 17.5q-29 0 -77 -24v55q49 35 99 35q51 0 86.5 -34.5t35.5 -84.5q0 -48 -37 -78q-34 -28 -104 -33v-48h-53z" />
    <glyph glyph-name="uni1ECF" unicode="&#x1ecf;" horiz-adv-x="536" 
d="M268 488q102 0 168 -70.5t66 -180.5q0 -109 -66 -179.5t-168 -70.5q-104 0 -169.5 70.5t-65.5 183.5q0 107 66.5 177t168.5 70zM267 389q-49 0 -78.5 -41t-29.5 -109q0 -71 29.5 -112t79.5 -41q49 0 78.5 41.5t29.5 109.5q0 69 -30 110.5t-79 41.5zM239 541v89
q20 -5 35 -5q32 0 52 18.5t20 47.5q0 27 -16 44.5t-41 17.5q-29 0 -77 -24v55q49 35 99 35q51 0 86.5 -34.5t35.5 -84.5q0 -48 -37 -78q-34 -28 -104 -33v-48h-53z" />
    <glyph glyph-name="uni1ED0" unicode="&#x1ed0;" horiz-adv-x="673" 
d="M448 805l135 133h152l-203 -163h-55l47 -48h-116l-71 77l-69 -77h-118l137 141h99zM337 680q99 0 169 -48q132 -87 132 -298q0 -212 -132 -299q-71 -48 -166 -48q-143 0 -223.5 92t-80.5 256q0 102 34 179t98 118q72 48 169 48zM337 570q-80 0 -124 -61.5t-44 -174.5
q0 -112 44 -174.5t122 -62.5q82 0 126 61.5t44 176.5q0 111 -44.5 173t-123.5 62z" />
    <glyph glyph-name="uni1ED1" unicode="&#x1ed1;" horiz-adv-x="536" 
d="M368 628l101 129h151l-186 -163h-38l42 -53h-111l-59 86l-59 -86h-112l121 152h99zM268 488q102 0 168 -71t66 -180t-66 -179.5t-168 -70.5t-168.5 70t-66.5 177q0 113 65.5 183.5t169.5 70.5zM267 389q-49 0 -78.5 -41t-29.5 -109q0 -71 29.5 -112t79.5 -41
q49 0 78.5 41.5t29.5 109.5q0 69 -30 110.5t-79 41.5z" />
    <glyph glyph-name="uni1ED2" unicode="&#x1ed2;" horiz-adv-x="673" 
d="M206 785h-50l-203 163h152l133 -131l49 51h99l138 -141h-117l-70 78l-70 -78h-117zM337 680q140 0 220.5 -93t80.5 -253q0 -210 -132 -299q-70 -48 -166 -48q-143 0 -223.5 92t-80.5 256q0 63 15.5 123.5t41.5 99.5q38 58 102 90t142 32zM337 570q-80 0 -124 -61.5
t-44 -174.5q0 -112 43.5 -174.5t121.5 -62.5q82 0 126.5 61.5t44.5 176.5q0 111 -44.5 173t-123.5 62z" />
    <glyph glyph-name="uni1ED3" unicode="&#x1ed3;" horiz-adv-x="536" 
d="M151 609h-46l-186 163h152l104 -133l43 54h99l121 -152h-111l-59 86l-59 -86h-112zM268 488q103 0 168.5 -70.5t65.5 -180.5t-65.5 -180t-168.5 -70q-102 0 -168.5 70t-66.5 177q0 113 65.5 183.5t169.5 70.5zM268 389q-49 0 -79 -41.5t-30 -108.5q0 -70 29.5 -111.5
t79.5 -41.5q49 0 78.5 41.5t29.5 109.5q0 69 -29.5 110.5t-78.5 41.5z" />
    <glyph glyph-name="uni1ED4" unicode="&#x1ed4;" horiz-adv-x="673" 
d="M439 815v51q20 -5 35 -5q32 0 52 18.5t20 47.5q0 27 -16 44.5t-41 17.5q-29 0 -77 -24v56q49 34 99 34q51 0 86.5 -34.5t35.5 -83.5t-37 -79q-34 -28 -104 -33v-48h-16l48 -50h-116l-71 78l-69 -78h-118l138 141h99zM337 680q99 0 169 -48q132 -87 132 -298
q0 -212 -132 -299q-71 -48 -166 -48q-143 0 -223.5 92t-80.5 256q0 102 34 179t98 118q72 48 169 48zM337 570q-80 0 -124 -61.5t-44 -174.5q0 -112 44 -174.5t122 -62.5q82 0 126 61.5t44 176.5q0 111 -44.5 173t-123.5 62z" />
    <glyph glyph-name="uni1ED5" unicode="&#x1ed5;" horiz-adv-x="536" 
d="M372 625v58q20 -5 35 -5q32 0 52 18.5t20 47.5q0 27 -16 44.5t-41 17.5q-29 0 -77 -24v56q49 34 99 34q51 0 86.5 -34.5t35.5 -83.5t-37 -79q-33 -27 -104 -32v-49h-29l42 -53h-111l-59 86l-59 -86h-112l121 152h99zM268 488q102 0 168 -71t66 -180t-66 -179.5
t-168 -70.5t-168.5 70t-66.5 177q0 113 65.5 183.5t169.5 70.5zM267 389q-49 0 -78.5 -41t-29.5 -109q0 -71 29.5 -112t79.5 -41q49 0 78.5 41.5t29.5 109.5q0 69 -30 110.5t-79 41.5z" />
    <glyph glyph-name="uni1ED6" unicode="&#x1ed6;" horiz-adv-x="673" 
d="M337 680q139 0 220 -92.5t81 -252.5q0 -163 -80.5 -255.5t-223.5 -92.5q-96 0 -166 48q-132 88 -132 299t132 298q72 48 169 48zM337 570q-80 0 -124 -61.5t-44 -174.5q0 -112 44 -174.5t122 -62.5q82 0 126 61.5t44 176.5q0 111 -44.5 173t-123.5 62zM150 727l137 141
h99l138 -141h-116l-71 78l-69 -78h-118zM222 875l-57 14q11 36 23 57q29 49 75 49q21 0 75 -16q53 -16 66 -16q30 0 54 40l51 -13q-11 -50 -38.5 -80.5t-61.5 -30.5q-20 0 -74 16q-56 17 -68 17q-29 0 -45 -37z" />
    <glyph glyph-name="uni1ED7" unicode="&#x1ed7;" horiz-adv-x="536" 
d="M268 488q102 0 168 -70.5t66 -180.5q0 -109 -66 -179.5t-168 -70.5q-104 0 -169.5 70.5t-65.5 183.5q0 107 66.5 177t168.5 70zM267 389q-49 0 -78.5 -41t-29.5 -109q0 -71 29.5 -112t79.5 -41q49 0 78.5 41.5t29.5 109.5q0 69 -30 110.5t-79 41.5zM97 541l121 152h99
l121 -152h-111l-59 86l-59 -86h-112zM164 697l-52 14q28 106 89 106q25 0 67 -15q45 -16 60 -16q27 0 48 40l46 -13q-10 -52 -33.5 -81.5t-55.5 -29.5q-23 0 -68 16q-47 16 -60 16q-27 0 -41 -37z" />
    <glyph glyph-name="uni1ED8" unicode="&#x1ed8;" horiz-adv-x="673" 
d="M337 680q139 0 220 -92.5t81 -252.5q0 -163 -80.5 -255.5t-223.5 -92.5q-96 0 -166 48q-132 88 -132 299t132 298q72 48 169 48zM337 570q-80 0 -124 -61.5t-44 -174.5q0 -112 44 -174.5t122 -62.5q82 0 126 61.5t44 176.5q0 111 -44.5 173t-123.5 62zM150 727l137 141
h99l138 -141h-116l-71 78l-69 -78h-118zM338 -51q32 0 55 -23.5t23 -55.5q0 -33 -23 -56t-56 -23t-56 23t-23 56t23 56t57 23z" />
    <glyph glyph-name="uni1ED9" unicode="&#x1ed9;" horiz-adv-x="536" 
d="M268 488q102 0 168 -70.5t66 -180.5q0 -109 -66 -179.5t-168 -70.5q-104 0 -169.5 70.5t-65.5 183.5q0 107 66.5 177t168.5 70zM267 389q-49 0 -78.5 -41t-29.5 -109q0 -71 29.5 -112t79.5 -41q49 0 78.5 41.5t29.5 109.5q0 69 -30 110.5t-79 41.5zM97 541l121 152h99
l121 -152h-111l-59 86l-59 -86h-112zM268 -49q33 0 55.5 -23t22.5 -56q0 -34 -22.5 -56.5t-56.5 -22.5q-32 0 -55.5 23t-23.5 56t23.5 56t56.5 23z" />
    <glyph glyph-name="uni1EDA" unicode="&#x1eda;" horiz-adv-x="673" 
d="M576 560l1 3l2 4q12 27 13 55q-63 8 -63 59q0 27 19.5 45.5t47.5 18.5q32 0 51.5 -24t19.5 -63q0 -66 -64 -145q35 -76 35 -183q0 -154 -83 -248.5t-218 -94.5q-122 0 -205 80q-96 93 -96 267q0 173 96 266q83 80 205 80q73 0 135.5 -31.5t103.5 -88.5zM337 570
q-78 0 -118 -56q-50 -69 -50 -177q0 -113 44.5 -176.5t123.5 -63.5q78 0 118 56q50 69 50 181q0 113 -50 180q-40 56 -118 56zM268 716l167 163h151l-203 -163h-115z" />
    <glyph glyph-name="uni1EDB" unicode="&#x1edb;" horiz-adv-x="536" 
d="M456 394q15 33 16 63q-65 9 -65 60q0 28 20 47.5t49 19.5q33 0 53 -24.5t20 -65.5q0 -71 -67 -150q20 -49 20 -107q0 -109 -66 -179.5t-169 -70.5q-102 0 -168 70.5t-66 179.5q0 110 66 180.5t169 70.5q119 0 188 -94zM267 389q-49 0 -78.5 -41t-29.5 -109
q0 -71 29.5 -112t79.5 -41q49 0 78.5 41.5t29.5 109.5q0 69 -30 110.5t-79 41.5zM188 536l127 163h152l-186 -163h-93z" />
    <glyph glyph-name="uni1EDC" unicode="&#x1edc;" horiz-adv-x="673" 
d="M576 560l1 3l2 4q12 27 13 55q-63 8 -63 59q0 27 19.5 45.5t47.5 18.5q32 0 51.5 -24t19.5 -63q0 -66 -64 -145q35 -76 35 -183q0 -154 -83 -248.5t-218 -94.5q-122 0 -205 80q-96 93 -96 267q0 173 96 266q83 80 205 80q73 0 135.5 -31.5t103.5 -88.5zM337 570
q-78 0 -118 -56q-50 -69 -50 -177q0 -113 44.5 -176.5t123.5 -63.5q78 0 118 56q50 69 50 181q0 113 -50 180q-40 56 -118 56zM420 716h-115l-203 163h151z" />
    <glyph glyph-name="uni1EDD" unicode="&#x1edd;" horiz-adv-x="536" 
d="M456 394q15 33 16 63q-65 9 -65 60q0 28 20 47.5t49 19.5q33 0 53 -24.5t20 -65.5q0 -71 -67 -150q20 -49 20 -107q0 -109 -66 -179.5t-169 -70.5q-102 0 -168 70.5t-66 179.5q0 110 66 180.5t169 70.5q119 0 188 -94zM267 389q-49 0 -78.5 -41t-29.5 -109
q0 -71 29.5 -112t79.5 -41q49 0 78.5 41.5t29.5 109.5q0 69 -30 110.5t-79 41.5zM358 536h-92l-186 163h151z" />
    <glyph glyph-name="uni1EDE" unicode="&#x1ede;" horiz-adv-x="673" 
d="M576 560l1 3l2 4q12 27 13 55q-63 8 -63 59q0 27 19.5 45.5t47.5 18.5q32 0 51.5 -24t19.5 -63q0 -66 -64 -145q35 -76 35 -183q0 -154 -83 -248.5t-218 -94.5q-122 0 -205 80q-96 93 -96 267q0 173 96 266q83 80 205 80q73 0 135.5 -31.5t103.5 -88.5zM337 570
q-78 0 -118 -56q-50 -69 -50 -177q0 -113 44.5 -176.5t123.5 -63.5q78 0 118 56q50 69 50 181q0 113 -50 180q-40 56 -118 56zM306 724v89q20 -5 35 -5q32 0 52 18.5t20 47.5q0 27 -16 44.5t-41 17.5q-30 0 -76 -24v55q46 35 98 35q51 0 86.5 -34.5t35.5 -84.5
q0 -48 -37 -78q-34 -28 -104 -33v-48h-53z" />
    <glyph glyph-name="uni1EDF" unicode="&#x1edf;" horiz-adv-x="536" 
d="M456 394q15 33 16 63q-65 9 -65 60q0 28 20 47.5t49 19.5q33 0 53 -24.5t20 -65.5q0 -71 -67 -150q20 -49 20 -107q0 -109 -66 -179.5t-169 -70.5q-102 0 -168 70.5t-66 179.5q0 110 66 180.5t169 70.5q119 0 188 -94zM267 389q-49 0 -78.5 -41t-29.5 -109
q0 -71 29.5 -112t79.5 -41q49 0 78.5 41.5t29.5 109.5q0 69 -30 110.5t-79 41.5zM240 541v89q20 -5 35 -5q32 0 52 18.5t20 47.5q0 27 -16 44.5t-41 17.5q-30 0 -76 -24v55q46 35 98 35q51 0 86.5 -34.5t35.5 -84.5q0 -48 -37 -78q-34 -28 -104 -33v-48h-53z" />
    <glyph glyph-name="uni1EE0" unicode="&#x1ee0;" horiz-adv-x="673" 
d="M576 560l1 3l2 4q12 27 13 55q-63 8 -63 59q0 27 19.5 45.5t47.5 18.5q32 0 51.5 -24t19.5 -63q0 -66 -64 -145q35 -76 35 -183q0 -154 -83 -248.5t-218 -94.5q-122 0 -205 80q-96 93 -96 267q0 173 96 266q83 80 205 80q73 0 135.5 -31.5t103.5 -88.5zM337 570
q-78 0 -118 -56q-50 -69 -50 -177q0 -113 44.5 -176.5t123.5 -63.5q78 0 118 56q50 69 50 181q0 113 -50 180q-40 56 -118 56zM222 733l-57 14q30 106 98 106q26 0 75 -16q48 -15 66 -15q31 0 54 40l51 -13q-10 -50 -37.5 -80.5t-62.5 -30.5q-26 0 -74 15q-52 17 -68 17
q-29 0 -45 -37z" />
    <glyph glyph-name="uni1EE1" unicode="&#x1ee1;" horiz-adv-x="536" 
d="M456 394q15 33 16 63q-65 9 -65 60q0 28 20 47.5t49 19.5q33 0 53 -24.5t20 -65.5q0 -71 -67 -150q20 -49 20 -107q0 -109 -66 -179.5t-169 -70.5q-102 0 -168 70.5t-66 179.5q0 110 66 180.5t169 70.5q119 0 188 -94zM267 389q-49 0 -78.5 -41t-29.5 -109
q0 -71 29.5 -112t79.5 -41q49 0 78.5 41.5t29.5 109.5q0 69 -30 110.5t-79 41.5zM164 553l-52 14q28 106 89 106q25 0 67 -15q45 -16 60 -16q27 0 48 40l46 -13q-10 -52 -33.5 -81.5t-55.5 -29.5q-23 0 -68 16q-47 16 -60 16q-27 0 -41 -37z" />
    <glyph glyph-name="uni1EE2" unicode="&#x1ee2;" horiz-adv-x="673" 
d="M576 560l1 3l2 4q12 27 13 55q-63 8 -63 59q0 27 19.5 45.5t47.5 18.5q32 0 51.5 -24t19.5 -63q0 -66 -64 -145q35 -76 35 -183q0 -154 -83 -248.5t-218 -94.5q-122 0 -205 80q-96 93 -96 267q0 173 96 266q83 80 205 80q73 0 135.5 -31.5t103.5 -88.5zM337 570
q-78 0 -118 -56q-50 -69 -50 -177q0 -113 44.5 -176.5t123.5 -63.5q78 0 118 56q50 69 50 181q0 113 -50 180q-40 56 -118 56zM338 -43q33 0 55.5 -23t22.5 -56t-23 -56t-56 -23q-32 0 -55.5 23.5t-23.5 55.5q0 34 23 56.5t57 22.5z" />
    <glyph glyph-name="uni1EE3" unicode="&#x1ee3;" horiz-adv-x="536" 
d="M456 394q15 33 16 63q-65 9 -65 60q0 28 20 47.5t49 19.5q33 0 53 -24.5t20 -65.5q0 -71 -67 -150q20 -49 20 -107q0 -109 -66 -179.5t-169 -70.5q-102 0 -168 70.5t-66 179.5q0 110 66 180.5t169 70.5q119 0 188 -94zM267 389q-49 0 -78.5 -41t-29.5 -109
q0 -71 29.5 -112t79.5 -41q49 0 78.5 41.5t29.5 109.5q0 69 -30 110.5t-79 41.5zM268 -52q33 0 55.5 -22.5t22.5 -56.5q0 -33 -22.5 -56t-56.5 -23q-32 0 -55.5 23.5t-23.5 55.5q0 33 23 56t57 23z" />
    <glyph glyph-name="uni1EE4" unicode="&#x1ee4;" horiz-adv-x="675" 
d="M73 667h128v-383q0 -84 12 -115q28 -71 124 -71q109 0 130 92q6 25 6 94v383h128v-385q0 -72 -5 -106t-21 -65q-29 -59 -91.5 -91.5t-146.5 -32.5t-146.5 32.5t-91.5 91.5q-16 31 -21 65t-5 106v385zM338 -62q33 0 55.5 -23t22.5 -56q0 -32 -23.5 -55.5t-55.5 -23.5
t-55.5 23.5t-23.5 55.5q0 34 23 56.5t57 22.5z" />
    <glyph glyph-name="uni1EE5" unicode="&#x1ee5;" horiz-adv-x="555" 
d="M65 475h123v-270q0 -59 18 -81q23 -26 63 -26q57 0 81 46q13 26 13 77v254h123v-328q0 -79 1.5 -97.5t10.5 -49.5h-116q-8 18 -10 55q-51 -65 -133 -65q-49 0 -88.5 20.5t-60.5 55.5q-25 41 -25 132v277zM278 -66q33 0 55.5 -22.5t22.5 -56.5q0 -33 -23 -56t-56 -23
q-32 0 -55.5 23.5t-23.5 55.5q0 34 23 56.5t57 22.5z" />
    <glyph glyph-name="uni1EE6" unicode="&#x1ee6;" horiz-adv-x="675" 
d="M73 667h128v-383q0 -84 12 -115q28 -71 124 -71q109 0 130 92q6 25 6 94v383h128v-385q0 -72 -5 -106t-21 -65q-29 -59 -91.5 -91.5t-146.5 -32.5t-146.5 32.5t-91.5 91.5q-16 31 -21 65t-5 106v385zM298 735v89q20 -5 35 -5q32 0 52 18.5t20 47.5q0 27 -16 44.5
t-41 17.5q-29 0 -77 -24v55q49 35 99 35q51 0 86.5 -34.5t35.5 -84.5q0 -48 -37 -78q-34 -28 -104 -33v-48h-53z" />
    <glyph glyph-name="uni1EE7" unicode="&#x1ee7;" horiz-adv-x="555" 
d="M65 475h123v-270q0 -59 18 -81q23 -26 63 -26q57 0 81 46q13 26 13 77v254h123v-328q0 -79 1.5 -97.5t10.5 -49.5h-116q-8 18 -10 55q-51 -65 -133 -65q-49 0 -88.5 20.5t-60.5 55.5q-25 41 -25 132v277zM239 558v89q20 -5 35 -5q32 0 52 18.5t20 47.5q0 27 -16 44.5
t-41 17.5q-29 0 -77 -24v55q49 35 99 35q51 0 86.5 -34.5t35.5 -84.5q0 -48 -37 -78q-34 -28 -104 -33v-48h-53z" />
    <glyph glyph-name="uni1EE8" unicode="&#x1ee8;" horiz-adv-x="675" 
d="M73 667h128v-383q0 -84 12 -115q28 -71 124 -71q109 0 130 92q6 25 6 94v383h128v-385q0 -72 -5 -106t-21 -65q-29 -59 -91.5 -91.5t-146.5 -32.5t-146.5 32.5t-91.5 91.5q-16 31 -21 65t-5 106v385zM724 500h-55q47 57 47 112q-63 7 -63 59q0 28 19 46t48 18
q32 0 51.5 -24t19.5 -63q0 -66 -67 -148zM268 716l167 163h151l-203 -163h-115z" />
    <glyph glyph-name="uni1EE9" unicode="&#x1ee9;" horiz-adv-x="555" 
d="M65 475h123v-270q0 -59 18 -81q23 -26 63 -26q57 0 81 46q13 26 13 77v254h123v-328q0 -79 1.5 -97.5t10.5 -49.5h-116q-8 18 -10 55q-51 -65 -133 -65q-49 0 -88.5 20.5t-60.5 55.5q-25 41 -25 132v277zM579 315h-56q47 57 49 115q-66 9 -66 61q0 28 20.5 47.5
t49.5 19.5q32 0 52 -25t20 -65q0 -69 -69 -153zM198 536l127 163h151l-186 -163h-92z" />
    <glyph glyph-name="uni1EEA" unicode="&#x1eea;" horiz-adv-x="675" 
d="M73 667h128v-383q0 -84 12 -115q28 -71 124 -71q109 0 130 92q6 25 6 94v383h128v-385q0 -72 -5 -106t-21 -65q-29 -59 -91.5 -91.5t-146.5 -32.5t-146.5 32.5t-91.5 91.5q-16 31 -21 65t-5 106v385zM724 500h-55q47 57 47 112q-63 7 -63 59q0 28 19 46t48 18
q32 0 51.5 -24t19.5 -63q0 -66 -67 -148zM420 716h-115l-203 163h151z" />
    <glyph glyph-name="uni1EEB" unicode="&#x1eeb;" horiz-adv-x="555" 
d="M65 475h123v-270q0 -59 18 -81q23 -26 63 -26q57 0 81 46q13 26 13 77v254h123v-328q0 -79 1.5 -97.5t10.5 -49.5h-116q-8 18 -10 55q-51 -65 -133 -65q-49 0 -88.5 20.5t-60.5 55.5q-25 41 -25 132v277zM579 315h-56q47 57 49 115q-66 9 -66 61q0 28 20.5 47.5
t49.5 19.5q32 0 52 -25t20 -65q0 -69 -69 -153zM368 536h-93l-186 163h152z" />
    <glyph glyph-name="uni1EEC" unicode="&#x1eec;" horiz-adv-x="675" 
d="M73 667h128v-383q0 -84 12 -115q28 -71 124 -71q109 0 130 92q6 25 6 94v383h128v-385q0 -72 -5 -106t-21 -65q-29 -59 -91.5 -91.5t-146.5 -32.5t-146.5 32.5t-91.5 91.5q-16 31 -21 65t-5 106v385zM724 500h-55q47 57 47 112q-63 7 -63 59q0 28 19 46t48 18
q32 0 51.5 -24t19.5 -63q0 -66 -67 -148zM310 724v89q20 -5 35 -5q32 0 52 18.5t20 47.5q0 27 -16 44.5t-41 17.5q-29 0 -77 -24v55q49 35 99 35q51 0 86.5 -34.5t35.5 -84.5q0 -48 -37 -78q-34 -28 -104 -33v-48h-53z" />
    <glyph glyph-name="uni1EED" unicode="&#x1eed;" horiz-adv-x="555" 
d="M65 475h123v-270q0 -59 18 -81q23 -26 63 -26q57 0 81 46q13 26 13 77v254h123v-328q0 -79 1.5 -97.5t10.5 -49.5h-116q-8 18 -10 55q-51 -65 -133 -65q-49 0 -88.5 20.5t-60.5 55.5q-25 41 -25 132v277zM579 315h-56q47 57 49 115q-66 9 -66 61q0 28 20.5 47.5
t49.5 19.5q32 0 52 -25t20 -65q0 -69 -69 -153zM252 541v89q20 -5 35 -5q32 0 52 18.5t20 47.5q0 27 -16 44.5t-41 17.5q-29 0 -77 -24v55q49 35 99 35q51 0 86.5 -34.5t35.5 -84.5q0 -48 -37 -78q-34 -28 -104 -33v-48h-53z" />
    <glyph glyph-name="uni1EEE" unicode="&#x1eee;" horiz-adv-x="675" 
d="M73 667h128v-383q0 -84 12 -115q28 -71 124 -71q109 0 130 92q6 25 6 94v383h128v-385q0 -72 -5 -106t-21 -65q-29 -59 -91.5 -91.5t-146.5 -32.5t-146.5 32.5t-91.5 91.5q-16 31 -21 65t-5 106v385zM724 500h-55q47 57 47 112q-63 7 -63 59q0 28 19 46t48 18
q32 0 51.5 -24t19.5 -63q0 -66 -67 -148zM222 733l-57 14q30 106 98 106q26 0 75 -16q48 -15 66 -15q31 0 54 40l51 -13q-10 -50 -37.5 -80.5t-62.5 -30.5q-26 0 -74 15q-52 17 -68 17q-29 0 -45 -37z" />
    <glyph glyph-name="uni1EEF" unicode="&#x1eef;" horiz-adv-x="555" 
d="M65 475h123v-270q0 -59 18 -81q23 -26 63 -26q57 0 81 46q13 26 13 77v254h123v-328q0 -79 1.5 -97.5t10.5 -49.5h-116q-8 18 -10 55q-51 -65 -133 -65q-49 0 -88.5 20.5t-60.5 55.5q-25 41 -25 132v277zM579 315h-56q47 57 49 115q-66 9 -66 61q0 28 20.5 47.5
t49.5 19.5q32 0 52 -25t20 -65q0 -69 -69 -153zM174 553l-52 14q28 106 89 106q23 0 67 -15q43 -16 60 -16q25 0 48 40l46 -13q-10 -52 -34 -81.5t-55 -29.5q-23 0 -68 16q-47 16 -60 16q-28 0 -41 -37z" />
    <glyph glyph-name="uni1EF0" unicode="&#x1ef0;" horiz-adv-x="675" 
d="M73 667h128v-383q0 -84 12 -115q28 -71 124 -71q109 0 130 92q6 25 6 94v383h128v-385q0 -72 -5 -106t-21 -65q-29 -59 -91.5 -91.5t-146.5 -32.5t-146.5 32.5t-91.5 91.5q-16 31 -21 65t-5 106v385zM724 500h-55q47 57 47 112q-63 7 -63 59q0 28 19 46t48 18
q32 0 51.5 -24t19.5 -63q0 -66 -67 -148zM338 -44q32 0 55 -23t23 -56t-23 -56t-56 -23t-56 23t-23 56q0 34 23 56.5t57 22.5z" />
    <glyph glyph-name="uni1EF1" unicode="&#x1ef1;" horiz-adv-x="555" 
d="M65 475h123v-270q0 -59 18 -81q23 -26 63 -26q57 0 81 46q13 26 13 77v254h123v-328q0 -79 1.5 -97.5t10.5 -49.5h-116q-8 18 -10 55q-51 -65 -133 -65q-49 0 -88.5 20.5t-60.5 55.5q-25 41 -25 132v277zM579 315h-56q47 57 49 115q-66 9 -66 61q0 28 20.5 47.5
t49.5 19.5q32 0 52 -25t20 -65q0 -69 -69 -153zM278 -47q32 0 55 -23t23 -56t-22.5 -56t-56.5 -23q-33 0 -56 23t-23 56t23 56t57 23z" />
    <glyph glyph-name="uni1EF4" unicode="&#x1ef4;" horiz-adv-x="562" 
d="M0 667h143l140 -266l138 266h141l-217 -404v-263h-128v263zM280 -52q33 0 55.5 -23t22.5 -56q0 -34 -22.5 -56.5t-55.5 -22.5t-56.5 23t-23.5 56q0 32 23.5 55.5t56.5 23.5z" />
    <glyph glyph-name="uni1EF5" unicode="&#x1ef5;" horiz-adv-x="499" 
d="M16 475h130l106 -362l110 362h128l-161 -462q-24 -67 -31 -83.5t-23 -41.5q-29 -48 -75.5 -68.5t-125.5 -20.5q-25 0 -46 1v107q79 -2 109.5 12t46.5 59zM419 -43q33 0 55.5 -22.5t22.5 -56.5t-22.5 -56.5t-55.5 -22.5t-56.5 23.5t-23.5 55.5q0 33 23.5 56t56.5 23z" />
    <glyph glyph-name="uni1EF6" unicode="&#x1ef6;" horiz-adv-x="562" 
d="M0 667h143l140 -266l138 266h141l-217 -404v-263h-128v263zM241 724v89q20 -5 35 -5q32 0 52 18.5t20 47.5q0 27 -16 44.5t-41 17.5q-29 0 -77 -24v55q49 35 99 35q51 0 86.5 -34.5t35.5 -84.5q0 -48 -37 -78q-34 -28 -104 -33v-48h-53z" />
    <glyph glyph-name="uni1EF7" unicode="&#x1ef7;" horiz-adv-x="499" 
d="M16 475h130l106 -362l110 362h128l-161 -462q-24 -67 -31 -83.5t-23 -41.5q-29 -48 -75.5 -68.5t-125.5 -20.5q-25 0 -46 1v107q79 -2 109.5 12t46.5 59zM229 541v89q20 -5 35 -5q32 0 52 18.5t20 47.5q0 27 -16 44.5t-41 17.5q-29 0 -77 -24v55q49 35 99 35
q51 0 86.5 -34.5t35.5 -84.5q0 -48 -37 -78q-34 -28 -104 -33v-48h-53z" />
    <glyph glyph-name="uni1EF8" unicode="&#x1ef8;" horiz-adv-x="562" 
d="M0 667h143l140 -266l138 266h141l-217 -404v-263h-128v263zM166 733l-57 14q31 106 99 106q25 0 74 -16q50 -15 67 -15q30 0 53 40l51 -13q-11 -50 -38 -80.5t-62 -30.5q-26 0 -74 15q-52 17 -68 17q-29 0 -45 -37z" />
    <glyph glyph-name="uni1EF9" unicode="&#x1ef9;" horiz-adv-x="499" 
d="M16 475h130l106 -362l110 362h128l-161 -462q-24 -67 -31 -83.5t-23 -41.5q-29 -48 -75.5 -68.5t-125.5 -20.5q-25 0 -46 1v107q79 -2 109.5 12t46.5 59zM146 553l-52 14q28 106 89 106q25 0 67 -15q45 -16 60 -16q27 0 48 40l46 -13q-10 -52 -33.5 -81.5t-55.5 -29.5
q-23 0 -68 16q-47 16 -60 16q-27 0 -41 -37z" />
    <glyph glyph-name="uni2002" unicode="&#x2002;" 
 />
    <glyph glyph-name="uni2003" unicode="&#x2003;" horiz-adv-x="1000" 
 />
    <glyph glyph-name="uni2007" unicode="&#x2007;" horiz-adv-x="570" 
 />
    <glyph glyph-name="uni200A" unicode="&#x200a;" horiz-adv-x="125" 
 />
    <glyph glyph-name="uni2011" unicode="&#x2011;" horiz-adv-x="261" 
d="M0 297h261v-89h-261v89z" />
    <glyph glyph-name="figuredash" unicode="&#x2012;" 
d="M44 297h411v-89h-411v89z" />
    <glyph glyph-name="endash" unicode="&#x2013;" 
d="M44 297h411v-89h-411v89z" />
    <glyph glyph-name="emdash" unicode="&#x2014;" horiz-adv-x="633" 
d="M0 297h633v-89h-633v89z" />
    <glyph glyph-name="afii00208" unicode="&#x2015;" horiz-adv-x="633" 
d="M0 297h633v-89h-633v89z" />
    <glyph glyph-name="underscoredbl" unicode="&#x2017;" 
d="M0 -49h500v-74h-500v74zM0 -167h500v-74h-500v74z" />
    <glyph glyph-name="quoteleft" unicode="&#x2018;" horiz-adv-x="207" 
d="M107 679h57q-20 -22 -34.5 -56t-14.5 -58q65 -9 65 -61q0 -28 -20 -47.5t-49 -19.5q-33 0 -53 24.5t-20 65.5q0 73 69 152z" />
    <glyph glyph-name="quoteright" unicode="&#x2019;" horiz-adv-x="207" 
d="M100 437h-56q48 60 48 115q-65 9 -65 61q0 28 20 47.5t49 19.5q33 0 53 -24.5t20 -65.5q0 -69 -69 -153z" />
    <glyph glyph-name="quotesinglbase" unicode="&#x201a;" horiz-adv-x="207" 
d="M100 -113h-56q48 60 48 115q-65 9 -65 61q0 28 20 47.5t49 19.5q33 0 53 -24.5t20 -65.5q0 -69 -69 -153z" />
    <glyph glyph-name="quotedblleft" unicode="&#x201c;" horiz-adv-x="379" 
d="M279 679h57q-20 -22 -34 -55.5t-15 -58.5q66 -9 66 -61q0 -28 -20.5 -47.5t-49.5 -19.5q-32 0 -52.5 25t-20.5 65q0 73 69 152zM107 679h57q-20 -22 -34.5 -56t-14.5 -58q65 -9 65 -61q0 -28 -20 -47.5t-49 -19.5q-33 0 -53 24.5t-20 65.5q0 73 69 152z" />
    <glyph glyph-name="quotedblright" unicode="&#x201d;" horiz-adv-x="379" 
d="M100 437h-56q48 60 48 115q-65 9 -65 61q0 28 20 47.5t49 19.5q33 0 53 -24.5t20 -65.5q0 -69 -69 -153zM272 437h-56q47 59 49 115q-66 9 -66 61q0 28 20.5 47.5t49.5 19.5q32 0 52.5 -25t20.5 -65q0 -69 -70 -153z" />
    <glyph glyph-name="quotedblbase" unicode="&#x201e;" horiz-adv-x="379" 
d="M100 -113h-56q48 60 48 115q-65 9 -65 61q0 28 20 47.5t49 19.5q33 0 53 -24.5t20 -65.5q0 -69 -69 -153zM272 -113h-56q47 59 49 115q-66 9 -66 61q0 28 20.5 47.5t49.5 19.5q32 0 52.5 -25.5t20.5 -64.5q0 -69 -70 -153z" />
    <glyph glyph-name="dagger" unicode="&#x2020;" 
d="M192 650h117v-183h140v-94h-140v-504h-117v504h-141v94h141v183z" />
    <glyph glyph-name="daggerdbl" unicode="&#x2021;" 
d="M191 650h115v-92h144v-95h-144v-380h144v-95h-144v-119h-115v119h-141v95h141v380h-141v95h141v92z" />
    <glyph glyph-name="bullet" unicode="&#x2022;" horiz-adv-x="667" 
d="M336 477q59 0 94 -38q43 -45 43 -99q0 -55 -42 -97.5t-97 -42.5q-57 0 -97.5 41t-40.5 99t41 99q38 38 99 38z" />
    <glyph glyph-name="ellipsis" unicode="&#x2026;" horiz-adv-x="714" 
d="M127 146q30 0 52.5 -23t22.5 -54q0 -32 -22 -54t-54 -22t-54.5 22t-22.5 53q0 32 23.5 55t54.5 23zM358 146q29 0 53 -24q22 -19 22 -53q0 -33 -22 -54.5t-54 -21.5t-54.5 22t-22.5 53t23.5 54.5t54.5 23.5zM589 146q30 0 53 -23.5t23 -53.5q0 -32 -22.5 -54t-54.5 -22
t-54 22t-22 53t23 54.5t54 23.5z" />
    <glyph glyph-name="perthousand" unicode="&#x2030;" horiz-adv-x="1046" 
d="M500 667h98l-387 -667h-98zM539 317q60 0 100.5 -46.5t40.5 -114.5t-41 -114.5t-101 -46.5q-58 0 -98.5 46.5t-40.5 114.5t40.5 114.5t99.5 46.5zM540 249q-29 0 -46 -25t-17 -68t16.5 -68t45.5 -25q28 0 45.5 25.5t17.5 67.5t-17 67.5t-45 25.5zM873 317q59 0 100 -47
t41 -114t-41.5 -114t-100.5 -47q-58 0 -99 47t-41 114q0 68 41 114.5t100 46.5zM873 249q-29 0 -46 -25t-17 -68q0 -42 17.5 -67.5t45.5 -25.5t45.5 26t17.5 67t-17.5 67t-45.5 26zM173 672q58 0 99.5 -47t41.5 -114q0 -68 -41 -114.5t-101 -46.5q-59 0 -99.5 47t-40.5 114
q0 68 41 114.5t100 46.5zM174 604q-29 0 -46.5 -25.5t-17.5 -67.5t17.5 -67.5t45.5 -25.5t45.5 26t17.5 67t-17.5 67t-44.5 26z" />
    <glyph glyph-name="guilsinglleft" unicode="&#x2039;" horiz-adv-x="304" 
d="M244 0h-108l-109 232l109 246h108l-90 -246z" />
    <glyph glyph-name="guilsinglright" unicode="&#x203a;" horiz-adv-x="304" 
d="M60 478h108l109 -232l-109 -246h-108l90 246z" />
    <glyph glyph-name="exclamdbl" unicode="&#x203c;" horiz-adv-x="491" 
d="M184 667v-178l-35 -288h-64l-34 286v180h133zM187 140v-140h-138v140h138zM439 667v-178l-35 -288h-64l-34 286v180h133zM441 140v-140h-138v140h138z" />
    <glyph glyph-name="uni203E" unicode="&#x203e;" 
d="M0 890h500v-111h-500v111z" />
    <glyph glyph-name="fraction" unicode="&#x2044;" horiz-adv-x="136" 
d="M206 650h98l-375 -650h-98z" />
    <glyph glyph-name="zerosuperior" unicode="&#x2070;" horiz-adv-x="370" 
d="M185 660q70 0 109.5 -54t39.5 -149t-39 -149t-109 -54q-71 0 -110.5 54t-39.5 152q0 92 40 146t109 54zM185 595q-32 0 -49.5 -36t-17.5 -100q0 -140 67 -140t67 138t-67 138z" />
    <glyph glyph-name="foursuperior" unicode="&#x2074;" horiz-adv-x="370" 
d="M270 410h73v-63h-71v-85h-82v85h-167v61l155 250h92v-248zM194 410v158l-94 -158h94z" />
    <glyph glyph-name="fivesuperior" unicode="&#x2075;" horiz-adv-x="370" 
d="M93 650h206l-4 -70h-143l-16 -71q34 17 64 17q54 0 89.5 -36.5t35.5 -91.5q0 -62 -41.5 -103t-102.5 -41q-60 0 -96.5 32t-40.5 88h77q6 -52 57 -52q27 0 44.5 20.5t17.5 52.5q0 30 -16 49t-41 19q-33 0 -62 -32l-69 10z" />
    <glyph glyph-name="sixsuperior" unicode="&#x2076;" horiz-adv-x="370" 
d="M189 656h89q-70 -83 -99 -127q11 2 22 2q57 0 92 -37t35 -96q0 -63 -39.5 -103.5t-101.5 -40.5q-64 0 -104.5 41t-40.5 105q0 57 31.5 112.5t115.5 143.5zM185 470q-28 0 -45 -21t-17 -54q0 -32 17 -53t44 -21q28 0 45.5 20.5t17.5 54.5q0 32 -17.5 53t-44.5 21z" />
    <glyph glyph-name="sevensuperior" unicode="&#x2077;" horiz-adv-x="370" 
d="M64 650h277v-58l-191 -332h-90l183 316h-179v74z" />
    <glyph glyph-name="eightsuperior" unicode="&#x2078;" horiz-adv-x="370" 
d="M92 466q-43 27 -43 77t39 83.5t97 33.5q57 0 96 -33.5t39 -82.5q0 -51 -43 -78q51 -30 51 -88q0 -53 -41 -88.5t-102 -35.5q-62 0 -103 35.5t-41 88.5q0 60 51 88zM186 597q-24 0 -40 -14.5t-16 -36.5t15.5 -36t39.5 -14t39 14t15 36t-15 36.5t-38 14.5zM185 433
q-28 0 -45.5 -16t-17.5 -42q0 -24 18.5 -41t44.5 -17t44 16.5t18 41.5t-17.5 41.5t-44.5 16.5z" />
    <glyph glyph-name="ninesuperior" unicode="&#x2079;" horiz-adv-x="370" 
d="M180 252h-89q71 84 100 128q-10 -1 -22 -1q-57 0 -92 36.5t-35 96.5q0 64 39.5 105t100.5 41q64 0 105 -41.5t41 -106.5q0 -57 -32 -113t-116 -145zM186 591q-28 0 -45.5 -21t-17.5 -56q0 -33 17 -53.5t45 -20.5t45 21t17 54t-17.5 54.5t-43.5 21.5z" />
    <glyph glyph-name="parenleftsuperior" unicode="&#x207d;" horiz-adv-x="206" 
d="M119 670h62q-66 -96 -66 -258q0 -166 66 -264h-62q-76 101 -76 261q0 159 76 261z" />
    <glyph glyph-name="parenrightsuperior" unicode="&#x207e;" horiz-adv-x="206" 
d="M87 148h-62q66 97 66 258q0 170 -66 264h62q76 -98 76 -260q0 -160 -76 -262z" />
    <glyph glyph-name="zeroinferior" unicode="&#x2080;" horiz-adv-x="370" 
d="M185 399q71 0 110 -53t39 -149t-39 -149.5t-109 -53.5q-71 0 -110.5 54t-39.5 152q0 93 40 146t109 53zM185 334q-32 0 -49.5 -35t-17.5 -100q0 -140 67 -140t67 138q0 137 -67 137z" />
    <glyph glyph-name="oneinferior" unicode="&#x2081;" horiz-adv-x="370" 
d="M76 277v45q82 1 96 70h57v-392h-82v277h-71z" />
    <glyph glyph-name="twoinferior" unicode="&#x2082;" horiz-adv-x="370" 
d="M127 278h-68q-1 56 34 89t95 33q57 0 91.5 -29t34.5 -77q0 -28 -12.5 -51.5t-50.5 -69.5q-54 -62 -93 -101h159v-72h-265v63q122 135 125 139q55 62 55 91q0 16 -14 27.5t-33 11.5q-25 0 -40.5 -14.5t-17.5 -39.5z" />
    <glyph glyph-name="threeinferior" unicode="&#x2083;" horiz-adv-x="370" 
d="M127 284h-69q2 54 36.5 84t96.5 30q56 0 89 -28t33 -76q0 -62 -61 -86q67 -19 67 -91q0 -54 -38.5 -87.5t-101.5 -33.5q-68 0 -105 32.5t-36 91.5h73q0 -56 66 -56q29 0 45.5 14t16.5 39q0 19 -12.5 32.5t-33.5 17.5t-66 4v64h17q88 0 88 53q0 19 -14 31t-36 12
q-47 0 -55 -47z" />
    <glyph glyph-name="fourinferior" unicode="&#x2084;" horiz-adv-x="370" 
d="M270 143h73v-63h-71v-85h-82v85h-167v61l155 251h92v-249zM194 143v159l-94 -159h94z" />
    <glyph glyph-name="fiveinferior" unicode="&#x2085;" horiz-adv-x="370" 
d="M93 390h206l-4 -70h-143l-16 -71q33 17 64 17q55 0 90 -36t35 -92q0 -62 -41 -103t-103 -41q-60 0 -96.5 32t-40.5 88h77q6 -52 57 -52q27 0 44.5 20.5t17.5 52.5q0 30 -16 49t-41 19q-33 0 -62 -32l-69 10z" />
    <glyph glyph-name="sixinferior" unicode="&#x2086;" horiz-adv-x="370" 
d="M189 396h89q-75 -89 -99 -127q10 2 22 2q57 0 92 -37t35 -96q0 -63 -39.5 -103.5t-101.5 -40.5q-64 0 -104.5 41t-40.5 105q0 57 31 111.5t116 144.5zM185 210q-28 0 -45 -20.5t-17 -53.5t17 -54t44 -21q28 0 45.5 20.5t17.5 54.5q0 32 -17.5 53t-44.5 21z" />
    <glyph glyph-name="seveninferior" unicode="&#x2087;" horiz-adv-x="370" 
d="M64 390h277v-58l-191 -332h-90l183 316h-179v74z" />
    <glyph glyph-name="eightinferior" unicode="&#x2088;" horiz-adv-x="370" 
d="M92 206q-43 27 -43 77t38.5 83t97.5 33q58 0 96.5 -33t38.5 -83t-43 -77q51 -28 51 -88q0 -53 -41 -88.5t-102 -35.5q-62 0 -103 35.5t-41 88.5q0 59 51 88zM186 336q-25 0 -40.5 -14t-15.5 -36t15.5 -36t39.5 -14t39 14t15 36t-15 36t-38 14zM185 173q-27 0 -45 -16.5
t-18 -41.5t18 -41.5t45 -16.5q26 0 44 16.5t18 41.5t-17.5 41.5t-44.5 16.5z" />
    <glyph glyph-name="nineinferior" unicode="&#x2089;" horiz-adv-x="370" 
d="M180 -8h-89q74 90 100 129q-11 -2 -22 -2q-57 0 -92 37t-35 96q0 64 39.5 105t100.5 41q64 0 105 -41.5t41 -105.5q0 -65 -44 -133q-18 -29 -32.5 -46l-63.5 -72zM186 331q-28 0 -45.5 -21t-17.5 -55q0 -33 17 -54t45 -21q27 0 44.5 21t17.5 54t-17.5 54.5t-43.5 21.5z
" />
    <glyph glyph-name="franc" unicode="&#x20a3;" horiz-adv-x="718" 
d="M208 400h265v-109h-262v-291h-131v667h419v-109h-291v-158zM513 286h76q4 -17 5 -46v-6q33 57 82 57q8 0 25 -3v-80q-21 15 -47 15q-30 0 -43.5 -21.5t-13.5 -68.5v-133h-80v197v50q-2 25 -4 39z" />
    <glyph glyph-name="lira" unicode="&#x20a4;" horiz-adv-x="570" 
d="M270 359l-10 -56h159v-77h-174q-15 -65 -55 -128q63 18 109 18q13 0 78 -6q9 -1 22 -1q23 0 32.5 18t10.5 67h98q1 -11 1 -24q0 -82 -35 -129.5t-97 -47.5q-24 0 -69 5q-104 10 -151 10q-70 0 -159 -18q31 35 51.5 90t37.5 146h-78v77h92l5 28l3 14l2 14h-91v77h105
q24 131 71.5 186t137.5 55q83 0 125.5 -42.5t49.5 -132.5h-107q-5 37 -20 53.5t-44 16.5q-49 0 -68 -56q-9 -25 -19 -80h147v-77h-160z" />
    <glyph glyph-name="peseta" unicode="&#x20a7;" horiz-adv-x="1031" 
d="M80 667h156q129 0 190 -20q57 -19 90.5 -70.5t33.5 -121.5q0 -71 -35.5 -123t-95.5 -69q-53 -14 -170 -14h-39v-249h-130v667zM208 358h41q86 0 117 11q24 9 38.5 32.5t14.5 54.5q0 62 -45 86q-33 16 -119 16h-47v-200zM644 283h60l-1 -61h-60l-2 -104l-1 -11
q-3 -45 29 -45q20 0 46 11l-1 -65q-34 -14 -69 -14q-87 0 -87 96q0 14 1 27l4 105h-46l1 61h47l3 85h77zM996 197h-78q-2 20 -12.5 28.5t-33.5 8.5q-39 0 -39 -26q0 -12 11 -18t60 -19q61 -19 77 -37q17 -22 17 -49q0 -43 -32.5 -67.5t-89.5 -24.5q-66 0 -100 26.5t-33 78.5
h76q2 -25 14 -35.5t40 -10.5q20 0 32.5 7.5t12.5 20.5q0 11 -11 16t-71 23q-45 14 -63.5 32t-18.5 50q0 42 32.5 67t87.5 25t87 -25t35 -71z" />
    <glyph glyph-name="Euro" unicode="&#x20ac;" horiz-adv-x="570" 
d="M212 424h277l-32 -70h-253q-1 -18 -1 -32q0 -17 1 -29h225l-32 -70h-180q9 -68 41.5 -98.5t96.5 -30.5q66 0 112 29.5t82 95.5v-145q-44 -47 -94.5 -67.5t-120.5 -20.5q-149 0 -210 109q-25 43 -38 128h-86l31 70h48q-1 12 -1 34q0 18 1 27h-72l31 70h49q23 125 90.5 190
t176.5 65q133 0 209 -93l-52 -113q-38 57 -72.5 80t-83.5 23q-59 0 -93.5 -36.5t-49.5 -115.5z" />
    <glyph glyph-name="uni2101" unicode="&#x2101;" horiz-adv-x="947" 
d="M172 667h84l141 -400h-86l-25 82h-143l-26 -82h-86zM264 418l-50 153l-50 -153h100zM670 667h104l-387 -667h-103zM916 280h-81q-4 58 -67 58q-26 0 -42.5 -12.5t-16.5 -31.5q0 -16 14.5 -24.5t74.5 -28.5q79 -26 102 -52q28 -30 28 -73q0 -59 -40 -91.5t-111 -32.5
q-107 0 -144 64q-18 30 -18 83h80q2 -41 21.5 -59t60.5 -18q28 0 47 13.5t19 33.5q0 24 -21 36q-16 8 -79 30q-68 22 -90 44q-27 29 -27 72q0 53 39.5 85t103.5 32q67 0 106.5 -34.5t40.5 -93.5z" />
    <glyph glyph-name="afii61248" unicode="&#x2105;" horiz-adv-x="713" 
d="M500 667h98l-386 -667h-99zM540 317q59 0 99.5 -46.5t40.5 -114.5t-40.5 -114.5t-101.5 -46.5q-58 0 -98.5 47t-40.5 114q0 68 40.5 114.5t100.5 46.5zM540 249q-29 0 -46 -25t-17 -68q0 -42 17.5 -67.5t45.5 -25.5t45 25t17 68t-17 68t-45 25zM303 561h-78q-6 46 -49 46
q-31 0 -49 -26.5t-18 -71.5t17.5 -71t48.5 -26q47 0 53 54h77q-3 -52 -39 -84.5t-91 -32.5q-65 0 -106 44.5t-41 115.5q0 73 41 117.5t108 44.5q53 0 86 -28.5t40 -81.5z" />
    <glyph glyph-name="afii61289" unicode="&#x2113;" 
d="M261 267l-2 -10l-12 -60q-16 -78 -16 -115q0 -30 16 -30q20 0 42 49q10 20 22 20q18 0 18 -20q0 -41 -35.5 -78.5t-74.5 -37.5q-77 0 -77 132q0 24 3 65l-7 -6l-9 -9q-13 -13 -19 -13q-7 0 -13 8t-6 17q0 12 15 28q23 24 46 53q34 180 81 293q52 124 127 124
q35 0 55.5 -24.5t20.5 -67.5q0 -91 -71 -196q-28 -42 -104 -122zM276 355q48 55 75.5 113.5t27.5 107.5q0 40 -18 40q-19 0 -32 -40q-29 -81 -53 -221z" />
    <glyph glyph-name="afii61352" unicode="&#x2116;" horiz-adv-x="963" 
d="M80 667h137l271 -470v470h122v-667h-129l-279 470v-470h-122v667zM673 134h277v-96h-277v96zM811 461q61 0 100 -42t39 -107q0 -64 -39 -106t-99 -42q-62 0 -100.5 41.5t-38.5 109.5q0 63 39 104.5t99 41.5zM811 379q-21 0 -34 -18.5t-13 -47.5q0 -30 13 -48.5t34 -18.5
t34.5 18.5t13.5 47.5q0 30 -13.5 48.5t-34.5 18.5z" />
    <glyph glyph-name="trademark" unicode="&#x2122;" horiz-adv-x="828" 
d="M5 667h301v-69h-108v-331h-84v331h-109v69zM347 667h115l108 -311l109 311h114v-400h-76v299l-105 -299h-86l-103 299v-299h-76v400z" />
    <glyph glyph-name="uni2126" unicode="&#x2126;" horiz-adv-x="667" 
d="M29 0v111h142q-60 37 -92 80q-50 70 -50 175q0 136 87 226.5t218 90.5t217.5 -90t86.5 -227q0 -89 -33 -149t-107 -106h140v-111h-268v99q61 34 91 76q51 72 51 178q0 94 -50.5 156.5t-126.5 62.5q-72 0 -125 -58q-54 -60 -54 -162q0 -90 34.5 -151.5t108.5 -101.5v-99
h-270z" />
    <glyph glyph-name="onethird" unicode="&#x2153;" horiz-adv-x="876" 
d="M76 537v45q81 0 96 70h57v-392h-82v277h-71zM577 650h98l-375 -650h-98zM634 284h-69q2 54 36.5 84t96.5 30q56 0 89 -28t33 -76q0 -62 -61 -86q67 -19 67 -91q0 -54 -38.5 -87.5t-101.5 -33.5q-67 0 -104 32.5t-37 91.5h73q0 -56 66 -56q29 0 45.5 14t16.5 39
q0 19 -12.5 32.5t-33.5 17.5t-66 4v64h17q88 0 88 53q0 19 -14 31t-36 12q-47 0 -55 -47z" />
    <glyph glyph-name="twothirds" unicode="&#x2154;" horiz-adv-x="876" 
d="M127 538h-68q-1 56 34 89t95 33q57 0 91.5 -29t34.5 -77q0 -28 -12.5 -51.5t-50.5 -69.5q-54 -62 -93 -101h159v-72h-265v63q8 8 35 38q90 98 117.5 134.5t27.5 57.5q0 16 -14 27.5t-33 11.5q-25 0 -40.5 -14.5t-17.5 -39.5zM576 650h98l-375 -650h-98zM633 284h-69
q2 54 36.5 84t96.5 30q56 0 89 -28t33 -76q0 -62 -61 -86q67 -19 67 -91q0 -54 -38.5 -87.5t-101.5 -33.5q-67 0 -104 32.5t-37 91.5h73q0 -56 66 -56q29 0 45.5 14t16.5 39q0 19 -12.5 32.5t-33.5 17.5t-66 4v64h17q88 0 88 53q0 19 -14 31t-36 12q-47 0 -55 -47z" />
    <glyph glyph-name="oneeighth" unicode="&#x215b;" horiz-adv-x="876" 
d="M76 537v45q81 0 96 70h57v-392h-82v277h-71zM577 650h98l-375 -650h-98zM599 206q-43 27 -43 77t38.5 83t96.5 33q59 0 97.5 -33t38.5 -83t-43 -77q51 -29 51 -88q0 -53 -41 -88.5t-103 -35.5q-61 0 -102 35.5t-41 88.5q0 60 51 88zM692 336q-25 0 -40 -14t-15 -36
t15.5 -36t39.5 -14t39 14t15 36t-15 36t-39 14zM692 173q-28 0 -45.5 -16t-17.5 -42q0 -25 18 -41.5t44 -16.5q27 0 45 16.5t18 41.5t-18 41.5t-44 16.5z" />
    <glyph glyph-name="threeeighths" unicode="&#x215c;" horiz-adv-x="876" 
d="M127 550h-69q2 54 37 84.5t96 30.5q56 0 89 -28.5t33 -76.5q0 -61 -61 -85q67 -20 67 -91q0 -54 -38.5 -87.5t-101.5 -33.5q-68 0 -105 32.5t-36 91.5h73q0 -56 66 -56q29 0 45.5 14t16.5 39q0 19 -12.5 32.5t-33.5 17.5q-23 4 -66 4v63h17q88 0 88 53q0 19 -14 31
t-36 12q-47 0 -55 -47zM577 650h98l-376 -650h-98zM598 206q-43 27 -43 77t38.5 83t97.5 33q58 0 96.5 -33t38.5 -83q0 -51 -43 -77q51 -28 51 -88q0 -53 -41 -88.5t-102 -35.5q-62 0 -103 35.5t-41 88.5q0 59 51 88zM692 336q-25 0 -40.5 -14t-15.5 -36t15.5 -36t39.5 -14
q25 0 39.5 13.5t14.5 36.5q0 22 -15 36t-38 14zM691 173q-27 0 -45 -16.5t-18 -41.5t18.5 -41.5t44.5 -16.5q27 0 44.5 16.5t17.5 41.5t-17.5 41.5t-44.5 16.5z" />
    <glyph glyph-name="fiveeighths" unicode="&#x215d;" horiz-adv-x="876" 
d="M93 650h206l-4 -70h-143l-16 -71q34 17 64 17q54 0 89.5 -36.5t35.5 -91.5q0 -62 -41.5 -103t-102.5 -41q-60 0 -96.5 32t-40.5 88h77q6 -52 57 -52q27 0 44.5 20.5t17.5 52.5q0 30 -16 49t-41 19q-33 0 -62 -32l-69 10zM576 650h98l-375 -650h-98zM598 206
q-43 27 -43 77t38.5 83t97.5 33q58 0 96.5 -33t38.5 -83q0 -51 -43 -77q51 -28 51 -88q0 -53 -41 -88.5t-102 -35.5q-62 0 -103 35.5t-41 88.5q0 59 51 88zM692 336q-25 0 -40 -13.5t-15 -36.5t14.5 -36.5t39.5 -13.5q24 0 39 14t15 36t-15 36t-38 14zM691 173
q-27 0 -45 -16.5t-18 -41.5t18 -41.5t45 -16.5t44 16t17 42t-17 42t-44 16z" />
    <glyph glyph-name="seveneighths" unicode="&#x215e;" horiz-adv-x="876" 
d="M64 650h277v-58l-191 -332h-90l183 316h-179v74zM577 650h98l-375 -650h-99zM599 206q-43 26 -43 77q0 50 38.5 83t96.5 33q59 0 97.5 -33t38.5 -83t-43 -77q51 -29 51 -88q0 -53 -41 -88.5t-103 -35.5q-61 0 -102.5 35.5t-41.5 88.5q0 60 52 88zM692 336
q-25 0 -39.5 -13.5t-14.5 -36.5t14 -36.5t39 -13.5q24 0 39.5 14t15.5 36t-15.5 36t-38.5 14zM692 173q-28 0 -45.5 -16t-17.5 -42q0 -25 17.5 -41.5t44.5 -16.5t44.5 16.5t17.5 41.5t-17.5 41.5t-43.5 16.5z" />
    <glyph glyph-name="arrowleft" unicode="&#x2190;" horiz-adv-x="667" 
d="M653 363v-51h-500q16 -19 34 -55.5t18 -48.5q0 -14 -15 -14q-7 0 -22 17q-48 56 -132 104q-23 11 -23 20q0 10 16 19q62 38 87.5 58t57.5 58q9 9 16 9q15 0 15 -15q0 -30 -52 -101h500z" />
    <glyph glyph-name="arrowup" unicode="&#x2191;" horiz-adv-x="667" 
d="M360 13h-51v500q-19 -15 -56 -33.5t-48 -18.5q-14 0 -14 15q0 6 4 10.5t28 24.5q44 43 89 120q12 23 20 23q9 0 19 -17q37 -62 57 -87t59 -58q9 -8 9 -16q0 -15 -15 -15q-29 0 -101 52v-500z" />
    <glyph glyph-name="arrowright" unicode="&#x2192;" horiz-adv-x="667" 
d="M13 310v51h500q-16 19 -34 56t-18 48q0 14 12 14q11 0 25 -17q46 -55 132 -104q23 -12 23 -20q0 -10 -16 -19q-62 -38 -87.5 -58t-57.5 -58q-9 -9 -16 -9q-15 0 -15 15q0 29 52 101h-500z" />
    <glyph glyph-name="arrowdown" unicode="&#x2193;" horiz-adv-x="667" 
d="M307 653h51v-500q20 16 56 34t48 18q14 0 14 -14q0 -8 -17 -23q-56 -48 -104 -132q-12 -23 -20 -23q-9 0 -19 17q-38 63 -58 88t-58 57q-9 8 -9 15q0 15 15 15q28 0 101 -52v500z" />
    <glyph glyph-name="arrowboth" unicode="&#x2194;" horiz-adv-x="667" 
d="M513 310h-361q53 -71 53 -101q0 -15 -15 -15q-6 0 -9 2.5t-14 16.5q-30 33 -57 53.5t-87 56.5q-10 6 -10 15q0 8 23 20q85 49 132 104q15 17 22 17q6 0 10.5 -4.5t4.5 -10.5q0 -11 -18 -46.5t-35 -56.5h361q-16 19 -34 55.5t-18 48.5q0 5 4.5 9.5t10.5 4.5q7 0 22 -17
q46 -54 132 -104q23 -12 23 -20q0 -10 -16 -19q-62 -38 -87.5 -58t-57.5 -58q-9 -9 -16 -9q-15 0 -15 15q0 29 52 101z" />
    <glyph glyph-name="arrowupdn" unicode="&#x2195;" horiz-adv-x="667" 
d="M360 513v-361q70 53 101 53q15 0 15 -14q0 -6 -2.5 -9.5t-16.5 -14.5q-32 -28 -53 -55.5t-57 -88.5q-5 -10 -15 -10q-8 0 -20 23q-50 88 -104 132q-17 16 -17 23q0 14 14 14q12 0 47 -18t57 -35v361q-19 -15 -56 -33.5t-48 -18.5q-5 0 -9.5 4.5t-4.5 10.5t4 10.5t28 24.5
q44 43 89 120q12 23 20 23q9 0 19 -17q37 -62 57 -87t59 -58q9 -8 9 -16q0 -15 -15 -15q-29 0 -101 52z" />
    <glyph glyph-name="arrowupdnbse" unicode="&#x21a8;" horiz-adv-x="667" 
d="M360 513v-361q70 53 101 53q15 0 15 -14q0 -6 -2.5 -9.5t-16.5 -14.5q-32 -28 -53 -55.5t-57 -88.5q-5 -10 -15 -10q-8 0 -20 23q-50 88 -104 132q-17 16 -17 23q0 14 14 14q12 0 47 -18t57 -35v361q-19 -15 -56 -33.5t-48 -18.5q-5 0 -9.5 4.5t-4.5 10.5t4 10.5t28 24.5
q44 43 89 120q12 23 20 23q9 0 19 -17q37 -62 57 -87t59 -58q9 -8 9 -16q0 -15 -15 -15q-29 0 -101 52zM201 -68h264v-43h-264v43z" />
    <glyph glyph-name="partialdiff" unicode="&#x2202;" 
d="M65 558l16 107q97 -11 161 -35.5t115 -70.5q124 -109 124 -293q0 -126 -63 -200.5t-170 -74.5q-96 0 -163.5 67t-67.5 162q0 89 60 151t147 62q75 0 125 -49q-29 73 -103.5 118.5t-180.5 55.5zM249 343q-45 0 -76 -37t-31 -91q0 -55 31 -93.5t76 -38.5t75.5 38t30.5 94
q0 55 -30 91.5t-76 36.5z" />
    <glyph glyph-name="emptyset" unicode="&#x2205;" horiz-adv-x="618" 
d="M496 655l-53 -105q52 -36 80.5 -89t28.5 -114q0 -101 -71 -172t-172 -71q-43 0 -84 15l-53 -106l-49 25l53 106q-52 35 -80.5 88.5t-28.5 114.5q0 101 71 171.5t172 70.5q44 0 85 -15l53 106zM417 499l-166 -330q28 -9 58 -9q78 0 132.5 54.5t54.5 132.5q0 95 -79 152z
M202 194l167 330q-27 9 -59 9q-79 0 -133 -54t-54 -132q0 -92 79 -153z" />
    <glyph glyph-name="Delta" unicode="&#x2206;" horiz-adv-x="667" 
d="M18 0l247 667h133l251 -667h-631zM194 115h276l-138 402z" />
    <glyph glyph-name="product" unicode="&#x220f;" horiz-adv-x="729" 
d="M40 750h650v-115h-83v-770h83v-115h-286v115h80v770h-238v-770h80v-115h-286v115h83v770h-83v115z" />
    <glyph glyph-name="summation" unicode="&#x2211;" horiz-adv-x="667" 
d="M617 750v-249h-110l-13 134h-334l250 -368l-250 -402h343l8 132h115v-247h-605v127l244 390l-244 356v127h596z" />
    <glyph glyph-name="minus" unicode="&#x2212;" horiz-adv-x="570" 
d="M48 380h475v-94h-475v94z" />
    <glyph glyph-name="uni2218" unicode="&#x2218;" 
d="M253 480q55 0 95 -41.5t40 -98.5q0 -58 -40.5 -99t-96.5 -41q-57 0 -97.5 41t-40.5 99t40.5 99t99.5 41zM252 432q-39 0 -65.5 -26.5t-26.5 -65.5q0 -38 26.5 -65t64.5 -27q37 0 63.5 27t26.5 65t-26 65t-63 27z" />
    <glyph glyph-name="radical" unicode="&#x221a;" horiz-adv-x="667" 
d="M667 831v-115h-180l-171 -716h-163l-60 274h-93v115h195l20 -92q12 -72 15 -147h10q12 149 48 298l91 383h288z" />
    <glyph glyph-name="infinity" unicode="&#x221e;" horiz-adv-x="667" 
d="M337 260q-73 -82 -158 -82q-71 0 -116.5 45.5t-45.5 116.5q0 70 45.5 116t116.5 46q81 0 152 -81q67 81 156 81q72 0 117.5 -45.5t45.5 -116.5t-45.5 -116.5t-115.5 -45.5q-85 0 -152 82zM397 335l2 -2q32 -51 72 -51q24 0 41 17t17 41q0 23 -17.5 40.5t-40.5 17.5
q-37 0 -77 -58q2 -2 3 -5zM270 345l-2 2q-33 51 -72 51q-23 0 -40.5 -17.5t-17.5 -40.5t17.5 -40.5t40.5 -17.5q39 0 77 58q-2 2 -3 5z" />
    <glyph glyph-name="orthogonal" unicode="&#x221f;" horiz-adv-x="1000" 
d="M60 1v870h66v-806h814v-64h-880z" />
    <glyph glyph-name="intersection" unicode="&#x2229;" horiz-adv-x="657" 
d="M601 0h-123v298q0 90 -5.5 130t-21.5 64q-42 64 -122 64q-44 0 -80 -22.5t-52 -59.5q-18 -42 -18 -176v-298h-123v295q0 131 9.5 181t42.5 92q80 99 220 99q80 0 144 -34.5t98 -96.5q19 -34 25 -82t6 -159v-295z" />
    <glyph glyph-name="union" unicode="&#x222a;" horiz-adv-x="657" 
d="M56 667h123v-298q0 -89 5.5 -129.5t21.5 -64.5q42 -64 122 -64q44 0 80 22.5t53 59.5q17 44 17 176v298h123v-295q0 -131 -9.5 -181t-42.5 -92q-79 -99 -220 -99q-80 0 -144 34.5t-98 96.5q-19 34 -25 82t-6 159v295z" />
    <glyph glyph-name="integral" unicode="&#x222b;" 
d="M53 -240l23 110q33 -9 55 -9q52 0 56 57q1 7 1 74v492q0 123 10 162q14 50 55.5 77t103.5 27q38 0 89 -10l-23 -110q-32 9 -55 9q-52 0 -56 -57q-1 -7 -1 -137v-429q0 -99 -4 -133.5t-19 -59.5q-43 -73 -146 -73q-36 0 -89 10z" />
    <glyph glyph-name="uni222E" unicode="&#x222e;" 
d="M53 -240l23 110q33 -9 55 -9q52 0 56 57q1 8 1 74v48q-79 24 -125 83.5t-46 136.5t47.5 137.5t123.5 81.5v33q0 98 10 134q14 50 55.5 77t103.5 27q38 0 89 -10l-23 -110q-32 9 -55 9q-52 0 -56 -57q-1 -9 -1 -74v-28q79 -23 125 -82.5t46 -137.5t-46.5 -137.5
t-124.5 -82.5v-24q0 -99 -4 -133.5t-19 -59.5q-43 -73 -146 -73q-36 0 -89 10zM311 400v-278q85 46 85 139q0 95 -85 139zM188 123v277q-85 -44 -85 -139q0 -94 85 -138z" />
    <glyph glyph-name="uni2236" unicode="&#x2236;" horiz-adv-x="285" 
d="M143 242q28 0 47.5 -20t19.5 -49t-19.5 -48.5t-48.5 -19.5t-49 20t-20 48q0 29 20.5 49t49.5 20zM143 562q28 0 47.5 -20t19.5 -49t-19.5 -48.5t-48.5 -19.5q-28 0 -48.5 20t-20.5 48q0 29 20.5 49t49.5 20z" />
    <glyph glyph-name="similar" unicode="&#x223c;" 
d="M75 249l-68 44q32 77 65 107t85 30q37 0 104 -27q66 -24 88 -24q25 0 40 11t34 42l70 -41q-21 -46 -37 -67.5t-38 -36.5q-39 -27 -83 -27q-28 0 -100 27q-65 24 -86 24q-25 0 -39.5 -12.5t-34.5 -49.5z" />
    <glyph glyph-name="approxequal" unicode="&#x2248;" 
d="M75 348l-68 44q21 51 38 76q42 60 103 60q44 0 113 -26q67 -25 88 -25q25 0 40.5 11t33.5 42l70 -40q-22 -46 -37.5 -68t-37.5 -37q-38 -27 -83 -27q-17 0 -40 7t-106 37q-14 5 -45 7q-27 0 -47 -25q-6 -7 -22 -36zM75 149l-68 44q32 77 65 107t85 30q35 0 104 -27
q64 -24 88 -24q25 0 40 11t34 42l70 -41q-22 -46 -37 -67.5t-38 -37.5q-38 -26 -83 -26q-19 0 -39 6t-107 37q-22 8 -39 8q-26 0 -41 -12.5t-34 -49.5z" />
    <glyph glyph-name="notequal" unicode="&#x2260;" 
d="M262 485l55 108l78 -39l-35 -69h106v-111h-156l-35 -69h191v-111h-241l-50 -98l-78 40l30 58h-94v111h144l35 69h-179v111h229z" />
    <glyph glyph-name="equivalence" unicode="&#x2261;" 
d="M33 553h433v-111h-433v111zM33 395h433v-111h-433v111zM33 237h433v-111h-433v111z" />
    <glyph glyph-name="lessequal" unicode="&#x2264;" 
d="M466 663v-117l-303 -139l303 -140v-116l-433 202v104zM466 122v-115h-433v115h433z" />
    <glyph glyph-name="greaterequal" unicode="&#x2265;" 
d="M33 151v116l303 140l-303 139v117l433 -207v-103zM33 7v115h433v-115h-433z" />
    <glyph glyph-name="dotmath" unicode="&#x22c5;" horiz-adv-x="251" 
d="M127 328q29 0 52 -23.5t23 -53.5q0 -32 -22 -54t-54 -22t-54.5 22t-22.5 53q0 32 23.5 55t54.5 23z" />
    <glyph glyph-name="house" unicode="&#x2302;" horiz-adv-x="751" 
d="M84 0v401l291 328l292 -328v-401h-583zM135 51h481v328l-241 270l-240 -270v-328z" />
    <glyph glyph-name="revlogicalnot" unicode="&#x2310;" 
d="M156 0h-123v267h433v-115h-310v-152z" />
    <glyph glyph-name="uni2319" unicode="&#x2319;" 
d="M156 267v-152h310v-115h-433v267h123z" />
    <glyph glyph-name="integraltp" unicode="&#x2320;" 
d="M311 -250h-123v743q0 116 10 153q13 49 55 76.5t103 27.5q37 0 89 -10l-22 -110q-33 9 -55 9q-53 0 -56 -57q-1 -6 -1 -73v-759z" />
    </font>
</defs>
</svg>
